<mxfile host="app.diagrams.net" agent="Mozilla/5.0 (X11; Linux x86_64) AppleWebKit/537.36 (KHTML, like Gecko) Chrome/128.0.0.0 Safari/537.36" version="27.0.6">
  <diagram name="Page-1" id="KkbsHed4Ppitiadcmdjg">
    <mxGraphModel dx="1794" dy="1182" grid="1" gridSize="10" guides="1" tooltips="1" connect="1" arrows="1" fold="1" page="1" pageScale="1" pageWidth="827" pageHeight="1169" math="1" shadow="0">
      <root>
        <mxCell id="0" />
        <mxCell id="1" parent="0" />
        <mxCell id="fkhzhb3UsODcdzvoW7---21" value="" style="shape=cube;whiteSpace=wrap;html=1;boundedLbl=1;backgroundOutline=1;darkOpacity=0.05;darkOpacity2=0.1;rotation=90;size=20;aspect=fixed;strokeColor=#008080;strokeWidth=5;" vertex="1" parent="1">
          <mxGeometry x="1058" y="373" width="293.06" height="296" as="geometry" />
        </mxCell>
        <mxCell id="fkhzhb3UsODcdzvoW7---11" value="" style="shape=cube;whiteSpace=wrap;html=1;boundedLbl=1;backgroundOutline=1;darkOpacity=0.05;darkOpacity2=0.1;rotation=90;size=106;strokeColor=#99479B;fillColor=#f5f5f5;strokeWidth=5;fontColor=#333333;" vertex="1" parent="1">
          <mxGeometry x="537" y="293" width="382" height="377" as="geometry" />
        </mxCell>
        <mxCell id="fkhzhb3UsODcdzvoW7---1" value="" style="shape=image;verticalLabelPosition=bottom;labelBackgroundColor=default;verticalAlign=top;aspect=fixed;imageAspect=0;image=data:image/png,iVBORw0KGgoAAAANSUhEUgAAAFUAAABVCAIAAAC3lz8NAAABAGlDQ1BpY2MAABiVY2BgPMEABCwGDAy5eSVFQe5OChGRUQrsDxgYgRAMEpOLCxhwA6Cqb9cgai/r4lGHC3CmpBYnA+kPQKxSBLQcaKQIkC2SDmFrgNhJELYNiF1eUlACZAeA2EUhQc5AdgqQrZGOxE5CYicXFIHU9wDZNrk5pckIdzPwpOaFBgNpDiCWYShmCGJwZ3AC+R+iJH8RA4PFVwYG5gkIsaSZDAzbWxkYJG4hxFQWMDDwtzAwbDuPEEOESUFiUSJYiAWImdLSGBg+LWdg4I1kYBC+wMDAFQ0LCBxuUwC7zZ0hHwjTGXIYUoEingx5DMkMekCWEYMBgyGDGQCm1j8/yRb+6wAAACBjSFJNAAB6JgAAgIQAAPoAAACA6AAAdTAAAOpgAAA6mAAAF3CculE8AAAABmJLR0QA/wD/AP+gvaeTAAAAB3RJTUUH6QQVChQD1ejivgAAAAl2cEFnAAAA/wAAAP8AYjLrtwAAFM5JREFUeNrNfNuOHDm23VqbzCpJPT1jY84YGPgCw4Dh3/In+Kf8OX6xX45tjIHzYMzBdPeou9UqqSqDa/lhkwxGVpZUpelpNyGksiLjQm5u7svai8H/+l/+M44tDAAkAdCHn4r1KmqxAAMglFcAwJbnBygagEDDLLqBud8cCKEYRSgGHWHkzwY2vn71D//hjNe40uLxoVu9+zdvPp78AT61ANBAFdW7k/779/90d3JRAaRoBoTT+9PpH88f3596f8xrN/1ke+L8ZYRwrAfXX566yCnOL2khBhBmwGGGkfIM0YD6NECgAjltWq+vTw4JVzsuABq/5JWpIyKACAQgOEAAouNCBDJIOA/uFy53f0kzwygNJ+PGlIgwG0NsSPUkAIFb7yUDEFB8HMLP2wJILYirk++xbPRJ7XhmE6FADt5ACxghMKyUJ4EwaNJI9VhbPXRhWe58pJH8Ah31k/IVo7iLYz/9kyPdhbscNJt4hmUE2AC2cUr0Ptf+lwtcgfMci5m/0TCvjU9Ifd4/ASpksE8hHYACkeOguwoTgvsd5sO6DhrA5Tx8caNRLDNgDYUKM6ddudCU1gEhQjxIvA7zEICOfSIoGIs9B70RJDSXauQIu7XQNKgxhhru8yogrQLdZyYWceRFo2PTDjxWn4MW0DgJNwqBZogSoyGAKFbYLddFXx1sIYXE/bYV2I6PXAQLzHkenw63gOh1pQiuxQBizv8uAogOA2VKBCjqZpoXC/KF5sCMM28Z6uYGaEBjgaNIJ22F3cqIhGNrfrXpvM4/w7Ov4/EGUKI86o+K/bs3r6dpCQgOOoDS7lt6dzinUQDo0APp3RDSCJOBEyvdhTLNRInbGgUsx1EGAGmdoS4zsX57FnHKKYnuUDbE/b//4x8Rd/lcdq+od6fXd9/++OPNHl/U3egw/dZ4DNk92aIagY3YZvwzPCpoCBqaLDhiXEUTCHjaj4P+d7nPLrzQKJix8YaIsEinNAUEPp5k4pxGJ21BsR4ibptut2X+e0e7nwT2YbCPnIvgbVqBNl3LmGcQjm7zutoDiIy8ICBi2L+YIljG/KmB88mwgEZtURyEYiirCJqEirUNa9cIWAq1kJYb1qnby+dy5LD+0X1tNxnZ9YAFMmygrAYsDFCBAmefXja3z2ycEUBXxIDhQBFYRKAxwkFDuTwXj0vv449H479sMdV7KMN1e+UY5vUZ4ZxX8xefisdyJvzY/2/mWdjCgG8EKboqpGUDAj71fMUl7zB98MXt4hnfPzOew1UOHSNcYBpkePlJ48hLm4dLzzu0QCOMIEQflO5qxFHXHnOfUXXdnoLvIrAY+xrfe5ExRnrw0DgjEGNpKyMTPDJyKYIlJtEea31+8CHcIFWRCJcMcvrdmGlPEAQBnMk08NkZCKjV2xLhASkz6mT3+egGDABqi2iv4Fdz2GOeKyS4ChHep1Fm23Whd6vbCpbYRdgdZEM5dRldrp1HR/LPBjbgDLQ+4EiTcD4XNNaNaAwUhNEQjShut63NCax/+M3pMH6aRlhvbl+lzzw8Ul+V7V9Rw39yjA149bqH2Y/sXAyrvw7mQifZF4Jjc0EX/dH7yEeVy9z23LZ3jR85DIkMSw9x/ub+DGastmXsHdZ29j+8+WrjaeIXtfoMwGjDwCiMsE8uhMo+fImABN2i/faKLo6g5WL4vqbJu4JcGFDmBT1jp1eHahzWjkCBZ/ADeB+5cqkuSeocYd6aFmcWXMyoUskUCAJUsfv/p9pLs/K/sT1+XFwTLOCAmStnBq6RSYgzJIN5MHvz1mkusSYSqVH0fNKjiIC/lCCoJ5/lGAZ7/XwsrDW46mcOIGAfPOBKdGvN+Z+f0AY/2wv+LWOH4KcFfZDLk/HC2n/uKyjMAM951TBLjovRjmQlOOMHBBDh+EyI8jOM/hMqpvFvW773rOgSQdzVhENSy0/zE6zpmXaJWRnS9rxlgUoub/T3bWukkLnGhtTMzNO6vBroFY/MhMzcR9S1mTF+yBBYcmDin5zO2YE9bFyyQcMUTPqLsdq/oTH9/IQxc2Q0H0wl2oMeA8BECwSR6WVmO2FmuGkOl0QAqAUhLiaUIFCM7QwaXpaiCUmnl6rAC63mtm3HCCLR23b34QdgA9uKDpnbme8dbWSWA+0BNrW2B6I9kDHi/bkp1z+EzP/Chz7SXYfCgMt6PFxfCtG8TFa+miYa2IANPKcs1gzOITGNW5//dHuZBcxUNxJEYQg2OdJBjvifj7tyQPJmfAb+3U3A8Nh770GDDRwiGDroicAsoVSfODYNLDSFMtJBCRHodqTOR4rrs5HrP5ZAVX/PmX+6af/Sld/oWUW3WAnypBH3wGE/b6XS/nEkQ4Hdw2cKBP5CPv/RgDsY0aPa55THevC+HlpDu8OY17zmmJBy4DaPr/wlG3d8fZmAOFaLmJjvRQlpAhsX1Z71yJrU1UvZcqQc7Onvc1Tp52saHYinUYAEDMKoMMCNA7OMCbQtMjlUGSgeVbre6EG7nneoI4DiiOE2CJsIUNgC9+kvLzvFMnswPmPkXk+3i/XVbVUCWDPIIXAyTjCBOlDprOds4QfZCWksvjoMtxV07HaBGyXGcAeq//GPv8vamIgJjMDx07vzIn6ZgKt8+/btP8M34zH74M7nhqWS1jNu6oxNq72+kNrxiHH79e/+tX2b0zCm5BbU1/U1IB3WJMH7P3/7j4j7RpsQM3kPke/oFiiKjNxEKNRYz7yBT70wDdWTzgDtG4Bgy1BAqFWt+5Xwohdb8b0mqLPoZ0lQuKdd3acKILbg7q+X3sdyfQwxdy99cRoQRgHgi6VI79eyq0AYQgKBQSKAxjDVGI2xsQo3gQIAbBUuQNDFXG/Pkeosdc5hh0OxnIa16xdyCSp2pepByGPZ8Rle5gkbJEBicyIc42Bk8sZeZStGo4qhgSnlsjQVwBRBAKQj1z9G8rxEBOKgNDy37XnY89vLwoxR3lR+rhlLjDIEoWLQnhZtDqr2lKhHgdGTCC/YpHkR89EXXcyMal64H9duzC/Pv/b9xU2E6WeSKEa5NYygoxittLpoTgLDyXAh4D2Wwm7VkHmXudg5mYFe65cWqznnJ2kCY2HvgHpYWJPrHX16fpujj1izta6uwzqMtUuTYPdNjuo45+migc3R8uwWyuTHBCgTYBhONQtF1vrHp7r5OWbHImyJvso9wqO/3R3NxcEnJ79rbs/KNCQYyT1riETZgZLchoYC10CoM6VQG2v3q4Z6dBjwybZxyvqvsMEGClzFB1OtCEBzIEuLQBvlfqBNAE2EZFPtwIADALotk5f/yT69cPJTBCWcOpvYDsxoxMZwRLIPQBl4KPWHm3JfaqiIcKjefbjFKMa6a0vItx/vAd0aFczEI8vDdrkHRwF5gYa0tTmf4z4w1XA+TnLEJxTcp80bpMenZP3/MgeTdA6XNEAUGMbmOJfYSjmDGyKWJfz2Jv7na759hU4WoGrjCQBce45IwRU42VV4DVcDwEOXNM/GyhHoq91Eiw07201dOZH15j0uBNR4wSlSRkp0fFHKEVRNYxTTz7o0sjGAgr2+5rtavn3Db94EVYodqNU850hyfYoCbZcWhNRHMgma3cfsvTS6AcsYaz/ebafkDsgc4tMDuK60IDG09Gp7IvsOOMA64Lk8ws4LZMbL6JU8Sqyw4QJUQwKqmJPgjjTlkDLbX/iZnSaFmZzFVH+To39aqz2JXpi7hR92fh98VvXE8fklJYZJN42Z/8NpAmP2c+A3zBgnGQGgaqdAmJiF3Y4QjwSz24YuQjgCoYPdWq6aCczQl5eP52XNy2LEMZRcOX3TOhdFMUJ7ra2kPgxsuMPj8ThXgek9HMekiPnyyNKFl8Z/XxQOdcVZ6qUUkhGSFUGDUFwDF2u4outipQ1oDnNYM2Oo6FDakZ06tJ9yqDEMq9tJG5+O0HaPcG31i0/+ZMr7qtEKjgfI5aqwaBQHKKP0exL17jSHlWl3EaJoa6VRAO4BgOcFkDkZ6TI6pAwGAajkmDuM2K39VuTdXy652pURAqAU948zAD9BDXFsjVWDXJhybIyHiHeneH+TpPCeyBTjp5vyEGysBM1CoP63b/40e5YJg4Cbhv/0h397ah9nD/s5er1t/xKj/l965wjg9NVx0vIC3v/w0z9Nezmj0aC27WFHHDxX1fnPf/3f2Eu6e2nyoSkZ7hhWMyD59sP2RviqdJxFKanvavyJD3+taEm1SJqscEf/6dsf359qshxo1I8nDc+cxkMmHE1xD28Y0X4fv4vxG/jNcRauqfT4j67EOadnoC5dR8KZEWgMPgAp7vMPc4IdkUNzBJxxd6fk2iFU+xZmJu8ONOIh9O7kt6+UhYAUYRXOpT58rELpVp9RJxtxbVxKwMntAwDrC6KTOWlP1mp9oGHFgJ6zrrcziVKreOhtkp8hFQetFAKJsGKaA2p63wEQHUR+cBKrkVy4AH9jm0Dt+Nf9wjWJcI8LsCZ3neH36PSu3vv5YXFQLCc986I/e/6/FjxmhhsL5wmUn6gRPa8RuYB2EEFPnDeF3hdz+AILA9Apg8RSBYamq/fTPLoLmCAHPvYGHImRI2EYCrAvhi8TwVPtMen0+PMy+GS4w7nhpycUmcMOtlt3EymCOcyp7TTgyI0gGIpdHwvY3P/pELF+SX7ivaaZCYJ7rJKVTCQm3zLR9h5zXJBcwrRQPaD3xkLDjC1CHltJZoWbMGMSWZYRjhivB8vs6cFaPxOlScik9nIUEHw2NbGPvsK3x0QiJ2KDCTcQC9slUf3zMLQx7F80FgFiSfs/zz6zvL+J8+BUT/Ljuxvc1fhQk6/QZ7EYG+tkRCmdwrltQmLmqVRSiGrv7z9urfUAazyR2025EOhnxn/6zVf/7pgF9D1p3739y9iqo13buT1s32MvWqfaW8BZaIPiNsd/V+LPtd3VlmZ7dvW7E/7X/Y9/LfORAaAIQHy4f8gYN4VSR+jYPyeRNrWoxYL8GYXyy0xAco9XeWWFq8G3cDuIxsnaiKzPg+67WlDFIlAMo0xnaeMh6rsb/nQzA9pUr/jpBu8Rd3VNhxiRyH2sxbLanXO38PvwcuY72jcERKLgC9qBROdexm7gBuxoQpgtgSYOgkrf1Uh1v1zcJ2ygKwwxNrKVneoWSboeuy0mmyDBX3kHcrHw/49quyC/2N3Bl27XmztLdt7SsPwTVgDAsX1o2XSy9wHMtHW6dhEiW3Rkae+bZ0p2icfP6oZGdaROi/4pVG6vrn9JPm8M1sgB/84OLdRjdA7rDN2uiXtHNTAz7p0nppgY3LLXxAMFGegIOx2MSyTEhX7zc1X+1fvwKNpb6yv9HGAGoGMuaMXnehJLYt/Dtrlh7yDr41VjmJXHjQFa/gzvyQO6Frx0/mMyl3eAyDEILDkJ43ufBoX3vVKCiAgoQEORS2AU88Ml7Cr1sr8DYLE4Zn7uXHyq1aLVpGeZ2En7bgyt6+JKJeuZbQRo/WaRpYQkWvaS/jiT7TXiNB6Yy7UqSgMfWJwh0LDWH2p9f/KPtz1SNHKTb3yooXP0/fWAxga86Q6mRauv62rRe803Ct99uCuXXGjE9vG3yo2mj4bIq57BvkiiehZ0+u3Xf1jvPO6iwLsJHBmRWxc/lvjLux/uXcRo7Cuc0nfE/3j4/tuSbhIZ7dLRGn98uG/3CPUAPwe8GQUQ7QE01/Aa4CcO1PvUOEqdI+T+mfivab2uuR4DatO4dQyaRMQZHx8iEroamWz5UPAuyttX6Dw3B8BQBNC2LouUa9m3OI/dFUTyv3+NbS0CFl2xx53PtAs0jona9TZc+B7E//L0ts+26DX7SdfvYHSYXHZvL7ywo/POQov3EGg/CFjJhRmyOCjhIEldEfYv1pbNZly3B2ogWUvwMN+g8JlZfBRH7B6h4tfU9ux1pq6Pxr+WGI5FiouA4imhzNATO/91bfGzhkAvbY0wE8PrO5Bz/bfAVvJ7jxdL30GfKRqAGMv6s4t6B8V+XfM/QZcdFQYd+HjCT8T3tyjqKyOl88MrPHQu2s7zKMcbXkxk7C9viNz/BVyb7Xz/Tzw6aNu+qhvXFaa16yHjx48fHx8U8fHuQzJOpokS4hvF/4m7b04EqoFeU4c+1Hintm2xUsCtdJpk7mYYuz8JEPr6zRt2mg3xa5t/YJaSO4c/07v7incFP7wa3P5AI0BsxMOGF3mxvk9/eIf6/HV++a6Kv0Mz+oAzCJvoSwqlTeaFIygYHCktDphntk8IRUB/Q8Ovy//n4m8MYX1lRoRDYONyUMG+0T6OgC/m5tnDe5cO7IM9kTvofzzh/39hXzDwn6TGjKrm0HksgPdktV0zPsvW3SWwmQXtRE1+XfN/tbFjGAcASpdR4DPvlYye3DIn8Zr9+/+27eFaW/cwaEEf+1vOXjZ4XywKGHWL3QzM3W7FiIUCMntQNBiRe9PgyGhhhHbOp6nOr8yn5SgcJreyNQ7rO1Dg+xLfv8J9QeIcSaKvih9veXeKcyR1dU8BGklHCByJzXjbC8LbeO0NnMytzsc57WAMovLrglHwpUuSp2qL37/+/anlAok909KbH9666fxo/Prw/v3YOdrrCOEQt+9/+gtm5M4NUFHdePvT6Tcbb0Oll0O40fHjTf1TnH+sdexhYzFuWrxl/F+c3zbcNIbC+VYDIIxa641DA7lOnkuxfvf7f1Gsoj4x8wVp//ztd1lHA0CzbqGUUOfPOQQ0RlEU1ZTmeEuh7AizLczfIYJRkceBz+U4O+7Fc69z8EzILBtxLq/u40SXUfA2rbsbvT3h7Ss00kCLKMLtFu9ucRd4KKSjAC3CiEZUoYJldENUWMUIt5PyuwKGJaJRYh3ldo75X3e+XMKST62jXkI/YMvX9l41QNwcD8qgnVvuRmixtVALUZ4EHnaINusOMYnZmeHRKHZYgbAl9kqIyXZE6y9sx1ICvPI+vs5zWl9INI3N/JJ4y/AhPSd9TizEDm+6b+DtlU+B7rz1pf4zS0+TLDnTAVMd5+0WpBf5x2OkWLFZd3rf+HkUP67yv6YgHv22MDYH93ayAI8nPpr5nTtQLGDrFO3koQmlT876fo29Mrs7OSAt4RC9wkEgoDbkK+67sfo71a5Ng5ki2Pk22f4fhenq4zFFOWwAAAAldEVYdGRhdGU6Y3JlYXRlADIwMjUtMDQtMjFUMTA6MjA6MDMrMDA6MDAgot+sAAAAJXRFWHRkYXRlOm1vZGlmeQAyMDI1LTA0LTIxVDEwOjIwOjAzKzAwOjAwUf9nEAAAAB50RVh0aWNjOmNvcHlyaWdodABHb29nbGUgSW5jLiAyMDE2rAszOAAAABR0RVh0aWNjOmRlc2NyaXB0aW9uAHNSR0K6kHMHAAAAFXRFWHRpY2M6bWFudWZhY3R1cmVyAHNSR0Iq8ipvAAAADnRFWHRpY2M6bW9kZWwAc1JHQltgSUMAAAAASUVORK5CYII=;strokeWidth=5;imageBorder=#99479B;" vertex="1" parent="1">
          <mxGeometry x="540" y="400" width="85" height="85" as="geometry" />
        </mxCell>
        <mxCell id="fkhzhb3UsODcdzvoW7---2" value="" style="shape=image;verticalLabelPosition=bottom;labelBackgroundColor=default;verticalAlign=top;aspect=fixed;imageAspect=0;image=data:image/png,iVBORw0KGgoAAAANSUhEUgAAAFUAAABVCAIAAAC3lz8NAAABAGlDQ1BpY2MAABiVY2BgPMEABCwGDAy5eSVFQe5OChGRUQrsDxgYgRAMEpOLCxhwA6Cqb9cgai/r4lGHC3CmpBYnA+kPQKxSBLQcaKQIkC2SDmFrgNhJELYNiF1eUlACZAeA2EUhQc5AdgqQrZGOxE5CYicXFIHU9wDZNrk5pckIdzPwpOaFBgNpDiCWYShmCGJwZ3AC+R+iJH8RA4PFVwYG5gkIsaSZDAzbWxkYJG4hxFQWMDDwtzAwbDuPEEOESUFiUSJYiAWImdLSGBg+LWdg4I1kYBC+wMDAFQ0LCBxuUwC7zZ0hHwjTGXIYUoEingx5DMkMekCWEYMBgyGDGQCm1j8/yRb+6wAAACBjSFJNAAB6JgAAgIQAAPoAAACA6AAAdTAAAOpgAAA6mAAAF3CculE8AAAABmJLR0QA/wD/AP+gvaeTAAAACW9GRnMAAABVAAAAAACGaS+KAAAAB3RJTUUH6QQVChQD1ejivgAAAAl2cEFnAAAA/wAAAP8AYjLrtwAAF+lJREFUeNrVXE2PJElSfc/cM7N6umeXRVrB8nECgbRc+E/ckTgi/iInxIE9LFoJaQHNMLM93V1dlRluj4OZf0RmVk83cCHUk5MVGRnhbmZu9uyZefLv/uFvHADQWgMgYrwC+Mn58staf3I+jzMAikDBwCKYQOV5ERQOKiY4HYDoAIobZXCarIgAnIpPN72pX//FhjfjJuMgCcD25w96/JOvLgd9AAyAUB1w2sX47998u5k1mgihAAAM2OgbuBW3GLkIpzfT4/bUbDP8PzvuD/hKTJQDYOiGHp/a8tH4Sv1fD8jB9c8vFqhpf4P/nRQE5PzkFECYwyDKuVzW4CGX6xuFHa6vn3nktfTPuzqW2f/E+hxQ/rv5Op1dscypyuCcf+bj8w29DmEOyY1pM9f5Cwc9Jq1PXPDjx53brxO4Jzrz8a1czxjKFeb7GCEFzpnbsI+YXfX13Dr4z1C+uJu9Mx7jn5p86Jye3vLLD1+fSYjdW9MB68/tAqKLgOjMRwvmdGdcYFWUp9ik+4976STvyWmvNgq6q8hV5mb3FwLvqkGEllE5DHDRRDm9+yND17nD8kwfSCMEFwxCfdj62XZnCMcG1k9M5DZq6VrzLyo5RfBFRuAsH4ud4/uCM9dKIx7Lg4jGKUrKTG7cKAcsJ0CJ5twcBbD6p8fXMYKzzrgJJKdqJ1eEYvZ4TpC7yfcJE5C5OxSLUPlEJ4Xt3ExWvKAvUdE3nA6v3PdWFuPxe+a4Ff7qX/+jmQ+TSfBicFmznVOkWLW99o9V574iut2xvToeCNWHS54u2x1tVcHKPQdB9el710z+X+S1WdC7q78yIftSDyDYk706l34jEZRAUU1o1iWuxE4H4YgN8iXWWEQEpxWhhkodidjWhbgb3M6qNU+Gruan6w385sx6zbzhJ6Rg9z4SIYDoDk/mdIHXaiIgNQNlY/USkKwIUIFYw2nfPiXGZDdGuGjw2iZEQA7whZByK4WXBPSpb41oZ+pauX2dKnMAAsEZMp1OWQygDvhle8xzVyf3XLnv339iMp87zxjJS9FIRCPD+b2kib7I01JfjEIv4d/95D8P0n3usUghlfBlxwJ1bjwNfYy8Y34vERDnhQl7TTChjjU8ZYZ5i89G5l8oI9neodyVws3S6+PeiVPT9a4zJGBSgL/iEn0IjoosyAHUg7e8o9r4GBOEbqK1HGI+oJEEqgqkjLd9Mo5CnaDS/WIkG0aY5C5zmPVFKWLDaTNumIOLRzfah4rG1VUagEvBdxeeSxdHZtOGmYc5YGNFnxp900HmMIExHkLVt1JK9Vb/6KECEOzd9uwco1D3Lrq07QLPjBIBJ42ybQsvEjILrObmh6/sD1yvuj1OJV5wNnCxKAG4WPn3x7fP9kFMMEOxOt4f7Te1fTigeoBWOCmgGd5/7c2mntAToaen51tTeiBeP22nBg/ABwOc8Fet/bHXh6Z6amfARHzU5oGQCcpBN3enNcgJW7xIvDrNYB1tpp5cB9dX8K/TDudcXV53BpamhLPhXN0Zvs0AHRofD/7dV3h7wqGF4bERojXi6dwNvktfNABP6cvWJWsPm7fzq9PmjiIaYJSDbdvsuRyKUEFBHlDE6B5vEEEDJpiDQ20jM9NccGLKVv0yW3KsnWugKOyBk/WbWWRyIxhTMKEs1IWUuL7fYYS0FVzt/atCXQWoDHUQphbJH4WaypCb0Li6k/BSkV7ccVAOA3u2RTaIMphpzWwWJydGJpbfXlkzsYsS8J7ShX8e5hKG2ykdfHbgMGfIawdAhxP9Uv5noGg0xkoxAB56ZgRnlD7rHTbg4ro5TzZao+W0AQitIxzeicS2DAMvsRN5Pu9pznC3HCmuM6+xYTaRITsNSRnVWDCNcPNGNPPAueELw1yvkb4MsiVEBxu5yj6Zn+6NGAzq4FFFNIul5Ka0hWZ5UpHPz+fdonLvr778eXtBqMoqlEMUqhM95IcKTfStXDwpRBEo3qoTkXKhWF+o4SwYp7QkNgJgBpgs89DhHQBzM1kRJCMBS/tvM5tKG/EUd8x49SmLLJQBcXm0s/MxhBkAuNM7a8QqmmCN5jkRSydEEN7IplMLg6O62fPC+qHwQjuUah1mG+A6HetRKpMQ7BZ7ed6QI7BuLLgUfDziXBIOtE7mPB7wXBBxXrlM7up8vzqmaYT9t2Z4rsHrM5xOMKEyvK+2mdX//PZ3Ih3WHM1SkclMQEJpfN1YfdiejLLnUr471OfCYBCDVBdxtvrOnzZellWfx6U8Y7+eGdqhRCDYMIUe7Cz813a5XILDWBYXoDZvIc4o+PH5aUi2S8iK8GTgYcolhno0b+4Heo3JC9ZIIXCSdX/swrHh1YbqQKMLJoN5eSr2rh4eD1a8+wjC6U/VvqM/F+sqmDZ/rhV088xYM3uFW5fA6gg2wzOwWf45l1jEkV1i3jCRX19fmRp5I55pi+P0MKWt+DuvR7cKGWhiLF4T6iJUb+RmfjEX0ejBWQaTJkp0wExzPRfBOp/HbuSdjTModQhZlw4KfNAVQ6veUzfPh4ZA3Rxlh5VXa48g5IPKHgwrob0jREDJppkVL+BBXFjjdDwtfcZ0v818LNfrhbjQY/0Ry6t2MSz+XLOacdusZ/SI4HgpjfVleuqv/R9vzvT412gz/tPtJprePm0atmDN4A1YoncjGzXwTC8zTKHMlD1QDdGYyDosJTXTuWXuOHUkhpt5x6K7Vb09kRFzMSz1gf18mK7u/jFCts2ikIV5hAjdMiwJbJalCB+ormME7c9g+VPY6XacmTEV+c+uYO+LxzIbWYeAiUFsVUzgPxMcMrhkqzAoWdRM5Q0wQnITTGVIF7KgG50z/tgCb1NvmXK/VNuJBPaafTRAs26J4SOvb5DJyCzw7dSssHGHQLhAY5epUBuOIs9WfyiHs1WBTgsKAUAzO5fjZta6uorbcasfKx9rPZuhFPaiimAbAVyGjrwbTnEcWy+c99obZCY/yCmF/RclLLkYnjdcDCUeuqCpiBV9StPRRoWbPYWNowgneZFbrwgHmqyu38OlutcPONHth3r49en4u9Oh8+pxtW1mv/347gwOXESguumCb//tvcjqQYVnVGvmfrQxYqWx+anhL3/+i5MHtEYjIC+yU2s/P74hts1A4egA0GhP1X7z/PZjUC+yYwOArfhG++2334e4B61uAN3evX1LGaczkIiHbfvln/35q22DOQVTdVgDjjz/8fHhqEvdWAl7KsfvT6fvHk4Zn7gBoOrF7D9xuZQoM3VlCsXx+HQoSu81bFiEgSYFfm7dVRbHoeEUQAJoFn0R/rDhNbfqeq5O4dRiMaIe8LCp0ZtZfBfwi8ACEy421vZcKeZm4sBLTgd1bPj67F9tLdycuTmsmZ+aforL0c+1EcSCLhE1w8jE3Gm7aBwOM5hHugDJrhZjCihrOOlPrBdqo+Ei5CJgK2gErbtDn1ZDeFGBo8gPnu6mLfC+F6MgmAc3I2FPpYFePIUetza4lMk1teS/BIKAQM/DFn+8m6J62ucc8Wm5C3LFThagX9D2krpKH1dGYD5KA8P0Mj49AE0kAqEoEIA7bcSpARLZy0HpFwcoipxv4J6Qkznc8qaUN1qI6jbn6BF7lbcN3eYMLSPlWqI3wRGZhgfDU9sEPFciENH6etkM/lKgXtDeDg7IIDNZNoPAkAab/1UBIB0sShdqgoOi1OEg7tXFPl26U+dqqMnkoAewWB3hR6JKW9zGKkOn99hxjMNiuU0OO7S+ZlOaMIcyMYCwiYymKABAcZjg3pn0KpRm1pIbNKd5IlAHrNEiSx9yDWezNlUsVRgPOyJg0W+jNKvqUwScgjDAoepwh0OZXwb1kM5sSZapIBFmYb8TZGYyitZ5B8ubAMDG49m2cBZQDVKjqDXSUes3r81R3x/sXS0fDwaxWQnThcxJBD+xtHpEPLeb7phgF3rCn6sy4u0mPFc0w8Xntyhcmr09snpptPBVAER7LnyudinZ6pJ9a9ntYBGkSmaWIRTLVx/kv4Eu4GyFxSKiwQ8AQDNtziK2+k8/Fd0vpl99/83zx1ORAV7UABQvTnz8+FH7RRXKP2TGfr1iYRT9MrEgADwLv37/fdQUVj9XHT89n6qjmZtQPRaBNdoP22UzZo4oUJl6/fD2fY+1SVtTZuLTuyd64STFAfhZ+sd//peDO7g5YDoCILavtssf/vVfmaN+81UpbhvLh/d1oxW3SGMJL0wDKzf+z8YqWFagOjEeviaG2wJ1GZ4rBnJlZ3uKm2gHh8MMXt0yCyKeUKJYREHLg7hUDePiWCnsVhAD9Cwy4WLFGaAWpkKB4JHurEKrQt3MGgwgleXwKDyJVgWTFfm+hOrsidDVwc4cZqzpntKtM+uZ7fosU4neHW0qVISMcoMlBby4z6Xzw5aMaFT4U4IWdTFhs9oEdURHocgbm6M4SvWkgC34CXFXvR9uPGCPOi1tHRPcK/TvGhtui9kBoosgrXyJd3fIJKNDPsGv02M993o2xd7Dh+CtbliGHJo5Ciixhm+yHoDDC9W4KjrhlhlmrlYc2wtzQ6/8TJfQeZVJ4FrErrSZAaRKr+oVt0Ib+Oxuod47poo47EQZJSQu2dRuGS7idgPds1Y6aZ7QYl31HDpxCzJ39JLd4VudMC7D5b7xsL8v+wUygOMY4lqTvvpuEIfR55JoT4OVTKMAzCnLeI41hx4tOWFEhpaga9cLjNqiGVAuOuCprU7glJsVPrJALA4PvW7VmTMvvYhunQLXgIae1nEuKI4LnEH+TzE5FZ7PsYg4kcXQ9qwuF8BBdZavL94YV+BXm86I/aQJteEExS2yBNrFnDdo5oISERKAS0Y4yeyljjx0tF8uUxlGEdnEUPIVjE1avWsvcE52zccUKMIoNxn9lE50FB+9mAwe8b9mMsDeEMVTELvhfQ0wbRvKo32Nw5G/+Pu/NcHczo/PtiQbwRyJ/ub3H5pt8R5BComEDiiEAsYjwYYBKM7FHCY+ej5vi51nBbGI7//jbVnCWyTzJnt6PI9Q11kjNz/g/Nr84HTNNV/p5fJRQIl6RBiR0w3YPpyLAvmxS1nG85ujF12q9NAV/syekzAKSUKjN/PNBDR0wyuOgQgD83b3472CmBlXW7KasmQNY1UNHDGl0tnsiGqWsRCgmwr9aO0BOpYsjTlg5gYd6A5VU40FQHoaiIrLzMPAY3VvFx4+FBPPXVrdMKdBrh4rN3PMCUS1oyxdAN2P7ebzo0dvEBhN0UMI2p3vq6bs2p+vmw4jC0iUpdLJisqgzFSVeVPHC7TZJ4195PCxSm8+2knn3vmr0X2eJPz2e6IvRKqC0go/fS32ifzGe6MIFYqQDfvPrp7+xcl/aDxyOeXXxcb1w4m0v7SNdUmmPnGk/n31InDQd5rfpb3Zl0uZoTe5r3j55rm7/oeEE1d5eL/1Ovr1w9uWydnPwUW0NyLY8fkjgky7t/3lWbex9c7rFfJZWezNf8iEPYC1ost/lDeBpf4zSVtmHHVGsVFFnWnqtPma//Si+pjqj9QnVpA3wkHvwevZCzkaJNCb/AGUVPhV50+QYqI2y+Rk8uJRTNqRdGr0gJFee33SAZ/rLQrloyPaO/yMOyqlwMV7r5O+XjNMBs3u2RFUM5ZMM2efZGes5tDNaWXMnOHzZHJgA6yHXE5kyXPxReWA4AYvbq2gPj09GUBsDw8PFt41+4bj8c0g6xGy139BgG3rqH/auIgP799lx2nnzcJeLs9btNakDCOaeNm2Zl57o7Wn3wLEChij2pwIDWD9+PhUfNeRFUP6/Z/8nu3XIEQKeHWcUKpXrhvx7Xff+EQLuWgDS8f3e1NcL2yrz/JW+ejJrOtOU9A60KtVkCxY/OvrvyezzPOYidPiLK7u7eAWMAHohG3SwSxogwIO31Q60tn5v8zngtjPtgHn2NCwLNoVt9zjreefV9gmB7dSxsqundnPGO3qQjiC/q30f1erZww8EjbrmNtgkBMoImcbTqOM0cKrjlauJKnez+KY4sQy27Uv+qXIt2KE9bC9CUwp7KZ0veYBOG88fv+oX+qGRkUh1qPNh51xM7h1GVGwvgWw2rStFed43FxSj7eG69nOIPlSd/1Lx94EPilBTV8W5ZbrFrhFEItYJ+EOaSfN/XHV/+ij5SzXyUuDy1LfzXC/XATs4t4B2zt3u2rvS8vl9M62ouYoB1iiI04Giph9qFriv7gzhPGus0y+jG72ZF1BZo02zv+bIzuZlvSE0QZypdIgP5H73GBi9jyoQlDQoQPLCm7ZpNl7A+hAidWimaMmCtqywb6rLiwyktZlHFrGOvYkmKB0ZrvktyvDlx6HngWo9P1Ys5Nh9MiJiwmEVjT6XK142ED2lzoIqsiv8pSJ/4M/ArwkBxM7ypBsGfW4nRdB7xqYbp2fyVEKgM6NQBHzuX5luIwovrGzPx71LicBHl6dMpvOTW4AvW6Hj+09tm1QyYEdi/DN978jooKyK9v97PXXjmu/5QpCUFf7XzzpUEzAG5WZfdNWd9cd4dgMXZEX+WhgdRkJcmazL5n6rv8H2R0pEEvLULmq0/f+wnRVmru50PFIIjrZlYcKU6raJxW+V+nYaXBnH97uzGzm913kMyzktyYp5Ff3+DH3uWRukc/m2TVw7vj/JZBl2ruvDndmaczzE5n85x/LBpGbloHscggfYWuwnZ51701vRGC3l+VsOt16vXk/698LbNJUJ4Xq5ia/6pAcKZr9eD637mHcjzl43KsGpvsjvz+rawEMYm6R9T0fdHs3u3dyfuD97spfheil+y8mNnpBGkMqYighSSjE+6Ro+sw5ftJg7RVYiK1rwWagTSwUv3URJffIxHf9/6OCghme8tNKORhlFSQ5RO81b7sxwt0wYsrjMeHae3G+V7+nKa58AXxtAegzvytQLf14AJxqV+MyFE93IwPks5sSyQIvZ0KC0bysmu3XmmW56WgEEq2nvZ/pFDodYJB7buOJ4iyKm6nX59eW3fQXkxZe06Xl0QTcLVBQIAUzestMphb3/LWDNMBmhHqVAhwZbBhOA1C/fv2GUNH25qsHQsVnX100fz2ez9f7oiAA27bhxlNSbB55aJLQFBT7Zi6SmlzMW0UbE8vheM0HqQC27faN2UhPfvKzN6YaMa9zUCyOpx8e46pFzYDwuw9vi4DsiMnqHoDTmwcAlVCRB1aK/t24wIniaDY3pL3kQnaWKHi3akuMaKV3UFG2+x2i1YLniNcscH1YXtNMko/yPmXF0czcGpw0X5xFAo4GszQczP3+tgmolrtlPZ6Wjrq3KGXf9WwqdRtNDGmRK68EMPtzBsHY/ejc54R+46GtXVZ/hzKdwSV3B40fXeifF4fTyd3uu2ziYXDBu/xJ9HABsR/Sd3t+R8t1wNOlzfLzjyUU2+xJ6NX7LpoJVHfHbl/4+ibbXmTKf4iEZUQEX+ti/UePJpYdv7sxHrWrf+/MuMd/Chb9ttMQBsgewk5//2kZZb9k6HktHO9M6noktzcZX7BPFhK6udnVYCe/r74f6IsD/Y8dN4Ayu9r2dQPO3SGf+1tQP37ly1PpoEPRVkPAaoCzTPheqE+jZzjeW26X8+v1vjPXXuqciC0JitTGuvnBNEogPyqAuKN1EY4tGbM1cIDE0ReFYbbaOa0aRJj3nwfgMoOxFXf+kgYnUVM0AVbplTKbm7B6i+YscsbX+94J5ONiC1TC0JmJjhi+VADz96yCFxg9M+h7Bz3ILq4A1J1lFNCm/w/I6PT64fGZkGEDYGgDC49l4+5RFJxBGm7Cq+OhOAwWwLP/5B4v7SI56X3yBkHO0+FAWbHSLSioaH747hEyGwgtX4zlsJT3RieElb4NfFqDNRde/ezhKjZlnnNpva6VzUdxo8OrE7r/iwaJKNdbEhBDFZykYH+mQyhS6V2wsS8syvwD/3acNzeeUtaBZI8NQsnqzVi3QiQiNiKWLEnbbI/3hcmaGSfZiHX3MeBFol90b11vZcPKf0Z7+b4OlzMZjChW75KAWxEgYlhXrsfuhHH0dbb7bC0lXTXc3zYUrE5nJrxYc9Z1kX3q2PvSO67V1snP4e4v2mU41x/taLJlfwp7EzU5+5avO8XXcfbLRkXkeqz/gyBWsUTTbHIZxbmOUrVvc4wlvYrCJCfWdu2bH6ScUngxFRdjI9RnHC8mptzxEQlkri5eH/Hfu12gieJCXJoAAAAldEVYdGRhdGU6Y3JlYXRlADIwMjUtMDQtMjFUMTA6MjA6MDMrMDA6MDAgot+sAAAAJXRFWHRkYXRlOm1vZGlmeQAyMDI1LTA0LTIxVDEwOjIwOjAzKzAwOjAwUf9nEAAAAB50RVh0aWNjOmNvcHlyaWdodABHb29nbGUgSW5jLiAyMDE2rAszOAAAABR0RVh0aWNjOmRlc2NyaXB0aW9uAHNSR0K6kHMHAAAAFXRFWHRpY2M6bWFudWZhY3R1cmVyAHNSR0Iq8ipvAAAADnRFWHRpY2M6bW9kZWwAc1JHQltgSUMAAAAASUVORK5CYII=;strokeWidth=5;imageBorder=#99479B;" vertex="1" parent="1">
          <mxGeometry x="633" y="400" width="85" height="85" as="geometry" />
        </mxCell>
        <mxCell id="fkhzhb3UsODcdzvoW7---3" value="" style="shape=image;verticalLabelPosition=bottom;labelBackgroundColor=default;verticalAlign=top;aspect=fixed;imageAspect=0;image=data:image/png,iVBORw0KGgoAAAANSUhEUgAAAFUAAABVCAIAAAC3lz8NAAABAGlDQ1BpY2MAABiVY2BgPMEABCwGDAy5eSVFQe5OChGRUQrsDxgYgRAMEpOLCxhwA6Cqb9cgai/r4lGHC3CmpBYnA+kPQKxSBLQcaKQIkC2SDmFrgNhJELYNiF1eUlACZAeA2EUhQc5AdgqQrZGOxE5CYicXFIHU9wDZNrk5pckIdzPwpOaFBgNpDiCWYShmCGJwZ3AC+R+iJH8RA4PFVwYG5gkIsaSZDAzbWxkYJG4hxFQWMDDwtzAwbDuPEEOESUFiUSJYiAWImdLSGBg+LWdg4I1kYBC+wMDAFQ0LCBxuUwC7zZ0hHwjTGXIYUoEingx5DMkMekCWEYMBgyGDGQCm1j8/yRb+6wAAACBjSFJNAAB6JgAAgIQAAPoAAACA6AAAdTAAAOpgAAA6mAAAF3CculE8AAAABmJLR0QA/wD/AP+gvaeTAAAACW9GRnMAAACqAAAAAABirYRGAAAAB3RJTUUH6QQVChQD1ejivgAAAAl2cEFnAAAA/wAAAP8AYjLrtwAAFptJREFUeNq1XMu2JEdSNPOIqts9M+oZhtcGvgAWLPgoNnwUv8BXsGY1HIYVGw7DkY6EpO57K8OMhUdERmbV7YcG5dFp1c3KR7iHh7u5uUfxn//xH0zRQSMcL0V/KD88V9GYRwAA2m0DcDhvVLffFlc1EwDy3xACKIwwYrneAPSrP333t9BXOBwCUAJ3hy54/+N//3vFe2F/vgmxP1DLewUU65eFxc5xRj4aaIGtad6YRxHquGAcFA0a62DyWf2Jizw8quNnOkTIB+GnNnU889ph9ovE8/k6H2VCgIEAijUlnEdA5zPOk596/x99nCQUca/2OY1GCIq0CM8nhGF4fxQNAfHodcLnHfrZBT8Ib3bL9/L2afkfuV1DzLx9vbHS5/kTDzY2j5YnjxcH8POvgE9beMqn12/0cbZSI8G80aRBD1voH87/mmECOPz7igX9vEcKEsMr5X9zrKBAA16mRhzK6f6L/c8aroLC/XYagaDjXv7hBeP4b3t9nHfzQfwkcxEtzODiLhCOus+lXiw6wsNVuc+zgIC6gxtDoFHpCAQNE3nnRUT3iwcVxLbdK6WajJ93BXS9H1VX0pONMyJKH5OKQWyRMwQZECIMogV2XwAogNo2gA5TQBhs+OXlTfN2P46XUyTv7/MlFDwEpwiFT/F/TmD5UvlLKRUl/FnuNuC3b0qA3UL7aNmI9qGZiPkQk0ANB/ri6UZ+bdEccICa/zqErYoamKJrjGj058YLYF94n3/EACMP7WxY7vwbxRnKNZx+iAhEoAkEhL66u53XIUDAjAhbRQGEMHyhAwKdf/TBKGf60/7viwV+KOSr2gG0oDXahDpUWVATAULhGCro9wZFIOigiREOTsKvDl+EGCLStEV8eQj4f9AIltizCA90MzExokJ/nR6aTx23cQ5NcYAcGM62jc9rNE4f9MrCFHjy9z/RU57i/705HM5QfeUenyCenyZHTCjpj8KMCblWROH5vp/zEL8MaOo0vI7/I43XxO5PEv8HJAQIQKDCniaqoV0TsuZ0TtAf/LwU6I/Lk07oraO9BfPsqB4wQwgwV2b3UwM10+juMA2kPpcSLn09M2hdVIov+dCCPdP0VueEYPcrtcYTuK15Ra4hlAx6IER19A5fyGfEt0OyAABmvFxEHI8jbo0Fftsl96J9PlIsL1cQaDuczUvs4hfCYYn5HNGo//XcAAhh2MBF8Vf1N5fmKfaM13/21SFpn8Z/jQb6RgIo6RXpFtu3Lz+0cIOKFQaNjUE+f/3N74tvKU7H4QYHX8Bd/kh9/fZP/xquJ4sII+KR36Vaewkf1n8LXPz+L5/eVL9PRzCwc9TnuBA2KIZRQ4Sf2DpOyAVDI4yyvcHi6tJfEI6giYgQURpogcocFNgA2WBDDy8h8j3j+xQpUKYaCiOA0uFtpFqEXxrVeHsSU0Twcdyxrw2acMaUjGIUfV8hu8vP5G+KPRQuQ4EQ3eLg+QNoREtI2YEnd19YYGpj13ROteiw3F/jMt0RNQOGz9FhxosYlwW+CFwt9nHy/30xOQ4T2BMbiEbYdGYaWoXH0fd8PBU1IMoxB50Zx1j842nutr0b+35DuuHUFDKT++PiS2LZFH6BKskLVGUOPKFu92oaedLIKY3oySbnGRMgipCYa5lHmMq4FUCjQAhojAiwxarWcBwltPgl4e6hwCkEAINnD5l4f+S/jYPsI+AJBmLFNDTDoMhFKRqri+w+rD8dQAbUlI3Dv7KrnAiiDKwZAoJBywxZ5QGY+gJ8Se9LKgV7YDzUuEhVrIIypQGjMsy4Q3QDaC4UQCYQNAyaPYMeL63AVhRmmnHk/wgEwqhwHYCamdh6PPwwjdPD+TNhRl84YTARTU41AVuUIRGmRsKD+t21iCOSmM8Fby/lej1oPf3/8y8q3f3zno8zrsF88XAT6XvrcylJsSVAHMCpAMW4IOFnugx0rACHMan3mYz8tEPHDwI9vKm7FSDqf/B9H7cDRCn4/fb1SqfFtP/vvtnlz1BAVOkdWKWFPhKt6vbVtVa3Yi3eDdXv31VHX5umAboIAW1wscICk72nAfniBp+jQCKak5z9i9ZuHrlP+uNmNNxu7Zn40Jixqxty/e5aW/Q39rPpfpb4UYxw0CidVka4EylXqRlPbXqZKGYxrtK1VAl1UCA9VroKlShdg934BTMRrYjYpf1ycpGKbvAjiMIgYIEbLHBd/6hbsAXomPJXpzBxXHSRJyfrODxkTIMaBpw8e4RZFMUaIBylh49c//3Zo2K0BZespX/3k/lV32VlypMeUSkNpzaG+psAoCw1jl3grAg5Mv7tA3cUdRyU4EjpFEFx0k8hyB2Dc+TlZRkpBBXENGi84rY/a/p9cqMrBXBSBwDUHrmoKRVVDkWuPfLnBI4QOAyhGEUj/sWSftLuLrdnE6LhjBr7rMakBveXani9Me405k9LrzEq3sEKmNTxpLngP/RERdOZvwb7jtm4129HlfJsflrqNt5pm7h/+GsT9ZOOGciXdXSobqCWTpULcHEnNtvkcw0adhSghTBWgcYUEdhm9OqcowCJSjRNu0Bp2ukLD7TcgbcxMnf6iZh/zkjA02RisH2HjCBpu1DUXz/fsv6dkyTGrVwa5VzAFhBhZXgw0BKyzGeFPgReSi+ZNgaAYtxKPEW5CmGZpYUAFEVVvNQauMxFThjQVdtXN1219Vx8KJS6GCCfD9PqWeTR2T2yG27kCqUyJBfcQDjrGh6IAFH//s1bAeELAGL7UOrvvvnmQ104QETmJ8/bbWc+egiHqT/gtui+x4wiYPuuCOhga9ib8EYuAngbnJoU/tXL9jfx1VfPbiEngQeJeGot9J9PbX81HaUV8IbL90CjS3iAbiKMt5e3xdg5YQpQwa08uWBDB7v56qi/fv4wnBkD7fsL3m4SR13TFGWiMdfInsllvGzUc6DFLCX3u0yolL3gMeylON60UgbkAtBCW9EL9WP76kpvoRY5xOTb3gMqeOEeF6PgCryI78Fb6MIhaoGIuHTuYjrx9L+NrqPk2XPccNToSY/ucp7d2ASQCOOUi07MdM7kk2akPFcKZ4lhd3eTh5mms0DF4ajHYi77SwOmGUnMa5GVB7Ag4tPouWYOl0sFr3YEfNlxatRYjw4QunPqaqMSC4YhM9RXeNdpckHJI4b751l1bQTY/XSyOhmql7eLhwJJH1teUxe7Wu75mN7ilIk5A9tdUJwe7HhzxwX7HC2SbKUzbovLSAJkzn/AoV4TCzHciW0NOI0lcfn0UQcxsmOMyXxOoU7aeJiMzjrcvPgRiFOui0SHOWIaBaKl0YCDUcDGHTsiCsAWdCigsBqVTKMAJuS/q3M4tDTCaP22piI7Q9SR3j4tWXVN6KLeBXGe7eydyHx4rVLTjgdmlO4th6AACBWjZOTPItwAmgCqUOxIxSUwC2wMhCoa0DpNCDjUDCBaqGhn4MAeL1sGxN6zFBr9T0ktp5fuYC5pzLTJFD4Z0XzEqh0TYZYduu/fnir2w2oMboro3pQKo9G3gveXRI0RFpFZYHwQ3r25fK+307BNGPViUE9XASyDRZw1myAflEzcuyDQds+CujUAoNLutLX45tv//eFSdlcAmNGIG3ZcuNi8brTu1oOJUnhC0OmizAqjDWFENOK54Hcf/lAlIXLystZ+Rfvdd35qLXnRAOgo4ruX57/79dt3NxbFyCaS/Lm9eRfCizkiGyAroGhboBG7mzeiqqe0wwUg1vnPo1uBuwr39U8AQbfgyeVCg2Dfz+z2uLHjCAlhShEv1PeIMNSJ00xUdW30Vi+6tGFOxaitAHiJJxlFDCd9aI2gm/F4sBxKRaws8zzqdLPdTNxLZZMU6i1nnLkNRufTsPeRIC9+RQFkWW0mc4NIRmMPIUpaAg4fio7M9pYUNX293QiFZkffFg5sxVtBEAalUCMcrUUsVFfk/BFocQiEmvLzPPoFmfAQDvYew2P2MhtEfWcI8/xuGWSjknHpHIOzGpCAj+vTTkV7jWlKJzqy7R5WWijhdpwXv/taGAnynMsavgtmxzrB3REnsWf96KiiHqumReyjT3PggHfD9loS6TgEDWU/Z0LJJV9eqyk4VmuOxxgPH0O77H9UqEPy+8C+Nh5ls8k9ODLPn7Mh6xFr4BUd9ag7Yk0bf87WtTEEDIZirNas6ng2B52X9jLsnbHeQf2oX1RCvRgIt1H/ibsVkcNqRx3lO/xYzv3EvoK4kiXR+052uBoCyk4oxuSaetD2tJT+4dSMgmND5ue0jNXv6jtA4QqghX4MCF/DWTjqKDw6abUVnTqis6+oJRzvFjSNJSDkKh3fZouiYieqEniZNBQqY/LThqLrx30FDa8WiC3w3VMhnjwoLEAOXxTvUK9t8PF9OpMRrsNO8p2Ao/7Tv/wbALr0DpHY8Cvdyq2Pv4NiAbpcK7ABC6R3gO1ybb3IxW6rmcDXp9pj0m5HBLzhUN8LD/alBAC796ADaICMD7PDcpCUNOT2r8++Ni1WbRO/fvnwJ9ffPD23fEbJ+EoCEdc3jk09jnaOv357eYeeVBa6gs9PfMEgc6Mv1YRqBLsdLhbQSr8mZmolhKHoDebp+SKZWZplkZ47FbM33WMUYNktJCZ6z2EXawO+faqxUK8Za4vVWMOj/8N0BKlGAVVAlsB6Xyyi5p3RXymO2Y7lfX3OyUGenJ2NEKNdYxLJuRL37uC9zeAQmXbv1TtTKQCRTYverz321/SshH6MalYFjxdljX+fkhQu9t54YKCLU0j8ROFRHK3hWVgyvaiNd30Ia2eWjm1ph6j2yj4H3LnbSTe8krU/7vzLY7Q0rc3jd52md0Fxd7HonTbdyOdkHtsvorvivoxHyRe7G58PXfPu+xz6YRFYXNEoPnlwDDKMenrD0gyALgbHtpj7vN+hiAJl088CYO1OvDpdvXrHdno4zjcsXQNj5EfujsNTr0F31iBx/DDVLcRC5kWmUgNByaOEL6LCDEQ2Q48p5dL2Maa0t5Bg56VWNY1+ozH/UkdAncns7I1zDV46Qzi1mKxmDI3vT1cYCeexgG4OhMIFqiyNmcUoh9SzzyGFMEf/HwCgEhNyxzIba8EEvTXSFTz2xTsipVM92p0Kt1ABtzv3kVvtDgQKOo6LvQw3584xm7XnV2VQfVP4dGw5pMZorPv+N6q3LaOam1ANtf60qNv728h2cly3Woe+DsPWJQzG0dkGcG0/WFg2QSRhx629T3Li8ChTl6sUWxyLPIZRCjqSWb8QSujYY0/LwAf/WCa6H0Tqjx9uX98u+PDS9z+4l15bbH/+5mJKvbjQK9yzpWOyAAxTe302sikWrkCFt+MGhsjIEp07S0a8JfwPAigBJTrqts2X8N4ftixdDhOKtapDI5tEeDSYjPyr0c2GFIEteT2mZ1Qyjo3FPBie+v6H/tZhYGbsFa5JjW5wgHXciP2uPn+dvctOg0AL576LLXm+vpDcSkI8DAp0PLDsJj5TTEWWkggf07BTDop1/TPc/XGJjErcDB/3omancOf/8coxVdB7mJai4pjPLtgamhTZT4qsz2mnXhzZnIQjmNk/jxATRw8bXiiJ2afycMiOvv8xm9R661HMnSsCwQj3KLDuc8IdsHu9HLL02B38BE1PfbUZq/b6eKcfYi/74+je87qxFr5ob9UCgZYZOjUOrA2VVDVPwvtOscv9rzYhzPdp0qwn/Dun8fTQWOpFJ2OkdyD4QNpjeWKKdX8xZ92dJ2SBkRJy0EkUMm7vFco54N3Cx7fZ2DeDpYJBGKPt8S4LCGA0zMxOyeELyBV6eX40DzPSs5VJPU3hx8UjZ+uswZ6uMYtvPX/p9YVdmL0qvMzn/IrzvHa/kMUsWb3lsMNaR9Yt0xQqCLiEQUcEywbHNmZmr1JfsoW6Q4CRSzMqM4ytM1oIV80O733aQ2gsGyNAEItlxLLZfV/UlRzgLMuQLKVexH1Y84a4Xh8YIf3y8gHZY64OOhsB0C+2o4WAQkc20YX5BuSOF2LOyfVSwIYFSvSofmviHnQHcGC5HRZjSSXc8D8/vvx4OwhJI9h+8RcN3OhDd2td0exe7dov2PMDn3zhTm+qTxqR/byNQYA23avUvaPREYraWvEs2gTIcIDbNaYrOGzdS253SgKU/F9tsY6yy9PCUTdSy+6AokpqYyVvZZG/7/85kI2Zzz1utj3K3zO1XpgIHxpsPJoCPNpRctcKR1HXgw96+KJhdbGu1XU+MTruVpd8n2u/fvTRn2949IDXHrpTsXTQEX0ECwHZU93OqOiztgofXveAnv/07fdandXkVfi+/xlYqsKvsB0fUYH2Opcf5ch3OseRhz5VjR8eq5vESGWPX50C8xrU71qkMERO/NP3PlM93vIhCnrYQhkYCflMmJeRifbo9TRNQuCir1k4AsBzfF4l8XFIKyiYdaqu4o/zH73o0l9toJqZISlZWHMzLsf3zRrTvV5691r/kwdiIOAqJXQfE9WqVORH1MXeWYw9+2AyyDp6ugwBuU1kECN7C9hrhSDeo1uitmhTc62nh+0429olPOjSQBsdiwfzIhBoxSoWJPeGV4WjStkgjpG3z3uKAZM4dPBmX5If+b+6llXHcWl7q8xQ8boETvyC6ttfXSf+w2BoeE5pcihT/t2KhuHkhpdkGg0ipLfXy1PbkhrNzJCKArwJVnEktOMuMjTfuDd70biixIJRkNUKgK3n8MtQI4T28vys2DdjGHQrfC6FwRILtDFQxdGcTfVesM5z3695PTqvThAAvYOOCiOs4u0iZ+ly8EstrAqWqdhlze+2gNWJ8GLuZMmy5rnkS/Mo4tyPtCyEZeaON1SzDfyoZItEPjT4zpz44CBn3T69Q4dmEKFiRm7+6DFMQJRk51YO/C6T3wVFZF8UDnisWyI5K1+LHmJ/YJzM93wIRPXS86XeVMt74aftvZICChi/F9GpZdElMr2hFkiAcKEfjGfAsH3X/MwLdbw4PkIALL0DJ10uH3Y0OffV3sfPOznv8NYQKU6eaC3yLG15uc9p7iAYwz0nmnsQW3efxGE8mflknvS4/v3KJHmWQ9IT9uah2PHvjOUfZz4O2j3+zlmcLhb3tOK1LoPXj+AnYvpPOgZs2vdVZ6fhqNUfiiBDMw81Ijg3/8VOQndAxfVpWRctlO9QSgKJmPo/jDPHhsE1Lmh/rSO+WgtZrnl0srbI1Dqbx7Pzrvt57plfsiULYzX3z8ilqSod53hFw1NDhS+DUpgdVEUKlNX/CSjJh0qOPdbPjWBhYuxQGHeMdOoTwh7AL20yO0jG758Q9em3b9eeJ1ENN4BFMbP0W6AY+PA8Cakkj2hcNvzG5SIooAHFi8tV/E29XOsWjvzJARONUQJvFVXdujoRRIvb7An02C/JQ1Y699SMevwCdGb5iooa1xLzt1myTRaFcb2UglJi0My0gbqVfVYFAGpWQArlzq/xmxmgVWY+O6orNKri2tDcS+sZ3q7NNVTl3P+Y7HUBCFTFrFu4C6eSzaeUKVi6T6O4huRXvZ242shpkSnQCASkbPgk6r1zKaO0lAWG+xXlQcJlL1RjbLGzJi07H0gzxsa2aarxep73OQ58NezXj16kS3pO8phcStwo9P3OBHD3ExIcjfQp/MzPHnrs2b06e6TdT8Yeuh8N/+c+TukCcOLFd5Ki3t+cJZd7mTl+ae70OyWmFJ2rwvwBi0Oz5ACk4Efy/FNx6qPHR9WYPxayV66zyzQ3nZZhg51h+j/fPUoKGfvHyAAAACV0RVh0ZGF0ZTpjcmVhdGUAMjAyNS0wNC0yMVQxMDoyMDowMyswMDowMCCi36wAAAAldEVYdGRhdGU6bW9kaWZ5ADIwMjUtMDQtMjFUMTA6MjA6MDMrMDA6MDBR/2cQAAAAHnRFWHRpY2M6Y29weXJpZ2h0AEdvb2dsZSBJbmMuIDIwMTasCzM4AAAAFHRFWHRpY2M6ZGVzY3JpcHRpb24Ac1JHQrqQcwcAAAAVdEVYdGljYzptYW51ZmFjdHVyZXIAc1JHQiryKm8AAAAOdEVYdGljYzptb2RlbABzUkdCW2BJQwAAAABJRU5ErkJggg==;strokeWidth=5;imageBorder=#99479B;" vertex="1" parent="1">
          <mxGeometry x="725" y="400" width="85" height="85" as="geometry" />
        </mxCell>
        <mxCell id="fkhzhb3UsODcdzvoW7---4" value="" style="shape=image;verticalLabelPosition=bottom;labelBackgroundColor=default;verticalAlign=top;aspect=fixed;imageAspect=0;image=data:image/png,iVBORw0KGgoAAAANSUhEUgAAAFUAAABVCAIAAAC3lz8NAAABAGlDQ1BpY2MAABiVY2BgPMEABCwGDAy5eSVFQe5OChGRUQrsDxgYgRAMEpOLCxhwA6Cqb9cgai/r4lGHC3CmpBYnA+kPQKxSBLQcaKQIkC2SDmFrgNhJELYNiF1eUlACZAeA2EUhQc5AdgqQrZGOxE5CYicXFIHU9wDZNrk5pckIdzPwpOaFBgNpDiCWYShmCGJwZ3AC+R+iJH8RA4PFVwYG5gkIsaSZDAzbWxkYJG4hxFQWMDDwtzAwbDuPEEOESUFiUSJYiAWImdLSGBg+LWdg4I1kYBC+wMDAFQ0LCBxuUwC7zZ0hHwjTGXIYUoEingx5DMkMekCWEYMBgyGDGQCm1j8/yRb+6wAAACBjSFJNAAB6JgAAgIQAAPoAAACA6AAAdTAAAOpgAAA6mAAAF3CculE8AAAABmJLR0QA/wD/AP+gvaeTAAAACW9GRnMAAAAAAAAAVQAd5h/fAAAAB3RJTUUH6QQVChQD1ejivgAAAAl2cEFnAAAA/wAAAP8AYjLrtwAAF45JREFUeNqdfMuSJDmSnKoCkdlVzRmZHc6Be+KNvJA/wyN/iD/DA7+DwhtFlhQ+hE8R9gp3p6arKh+R4TDdgwFweERkdVfjEBLhjoADZgZ7qBmc//bf/CsAMgAQMBjQQ6v/9PEfP7QaoCH2DoH48cunR/gHHFvQL1+fg5YZ9H6DLz8//S/wDBfQwCaAUc/64fPDH170sUQFAG5AAPXnx/o3p/OnH2oQQTaBVm14Oem/xOfnk0qAZhMMBCXj4cLi6E9DyJBdjD/8+GNxXgkCgAFs4v/986eNAgiAVpUJADCBPnPu8zcBhK0cA0QQsK7Wb0RA43NtJ/gEBFyB6EO7GjVQAJkCAgQgWDBr1FOjiUYpYOazVEI0aZgy0ARDAIhWPLmAwar8DbmTCQgAAcVx5rVTzgSN6xZAcadIAAAbdM6+PpIp6jMAJ8H6LZmXl1qbAO98LtaLTl8f6kuRgqAAgQHj84M+F35+rAaSBDm3c8Wb2SgLgILJf9RACcgx10x4irPHTAwAGuw8rv/t9ZKUyy4BbJJb+39/+enUFCg5xHiAXr5uJul+YSwVb29vQOfJIL/OhZ8eH876IeU/uS3rtdS/rz6XlpMEGxAwfn7kf/TTp1KnEMo4hS4bvpy4iTXQBdagoRa///jjQ7Qb3sXLy8vVamk0IQLBGPKPSs+Fz3YQ7+R29H7N5QWmOUg7toP1FtR6BcClPj7X8lwe4QLAakAQcdbD11N9KVWr4JqfH/Vz1M+PJddDqxilwMQGNYKEAaYYGACKo8a+QgBmTK4EsUs2YV6LQNXNnt//mZMlhLHDjEBK7LjkLpBBJfMNgIOCLvBJcYrcaE49Z6MEiqkwwHDufwjgqfFxmwwQ3WdPoARgBCAQQCOCoFG861wT0YVwbJOVnzdbvI4bAmOK3MJ8AxzkDI2hRhdh32PJfGEotOwgi65CARABcBOCzuvz0W2RUimuBFAGisNDSuNGsFf5F9EO97sivNsq58qtw8wH4byMHQjT7BblQIXblhSRozhgmeDYZeq2SgBS80VOwHe0lBkBwEFDVGCXRyBAz2lrjHMlzakyrnR2Pkhj5bOrphSYV8aiE3sunIu8cL97uAIY3MAgQojJwr5yxvjRJ+fjLjURY6IC0AcBd5kPE1fK+Lj4PjH5jomrq0AH3+NkXy53S3L3YZoGaPLH3MxLMNkQOVgwmqIxtV5MK9WEptTPGKoRuzk3OAQvqSCEiWDfMPTt/DkXLysHWaWgDuYLDIWCUPpYJKTG3YpmLzP3gFZ6Gbrwse0/+x/Oenit9bkq0LUjGLCeT/r6oOc6tA8iCKM8ndTayjQJ0YhilBYCIlKf98WfWrBGyogWFXgr57Fbh/VO1Jeny/wxB7kAl+au3o783VosMpHORlx4+ot+fNMp2TI31LNO/5/liQ+bmAIkV0Bfiv7bdv5cGgCasgE0bm84n2WG+wgmSChKiz89/FDDJqaHTUs1invnIDTkpTEdRLTuCZFEUwBQKZOd8s7/LnGTOu2OO4gGNuXyutTIkYLwxtNZj2OHp9+mcynP5fR00lYAQN09rs+1fFF8eSAgWqcGMC6CCV9Sn3cLH4AsOmrgoR2lPUCgrNzk/rnrb4C0fU83oPs/99o716cv3fswgOifiGSAR4egQt4KWrrFRHSbEkIUCwbTezVOybd3n/xuy7BnkkBOWYiWCqurrfuqTb/6KfepwoOzcOhxtdOw6/bFBAxKuYcYdyzON1vgxkgtjw3tM4y7LkDFb2ocAUYf+64FmoYnwNUPPa7SxJZqNanT8P1tKNxO8nX4wPtG8Tesf5p8zXEC6ZkpmOqg9wH7vOQU+7kh+39ppF+UcVH6ed8vAt0kzdkNb/rID9+X9O/mf6QnwqmfBSid/2DG83u82TrSsKvY6TIqVIJA6n4FUQJBtO9Zv6GAV8d8OuPRXbshExlrHCfxW9ZvCi7Yvf0gEKiNbCRdzRlx8Fz05aE+ndIBHSCK+Vp1aWzUFKU46o7v4EcfZJ1hD8bScZzxnXEH46j2/Ydu23aP3uX8Ztg91IXAoOM12vZYN1ZySy8wo+Dnk/5HPP9ZpVsNd85ftvK3cT6jKvbtLoPwQxUd6eHACEYAERGMiG7/sj8DJl5fNy/bcoStvGzbDNIHzwXE6XQ6rP+76Y1i1h4UWgBBNKqxNIqo6JtRQZxL+Vr4+VEl1YJFo0bZqHOrkKLHMh2AkL9386ulS9w9xXQRZcBUrBo6e/cH7Syv7xnAu9cbcrcTif+kFqBNNapRUw0PLEBBDWcOGYkZSikIUE3zacUQgt+zB4IwMrLM7d03WurjA/8BGoFDaM3faP889VwPUvJhJtGd7WEdmN4baffJmZM66E5eEkFGwPoNSiCgMqCHvvgVmwT4/n9/u/2/dSgXpCXG3ULjFBlNL77d4rQ0hSUAm4FAvQvEfnv515M7XCeuwY914t/n/x2gfd+f6JxOdF112G+gY8fnpvf2Gzy/d9dA37G3I3Jf4mkAv43/wgAtmJxMYCqU2ZODQ1qa4lLiFIgB2hd3/x8uJWDGZgCokUgev39GO6v3xS1wXsaeHf+4wj/L9vHOgLTbtg7dn8OyEY0PE6gKBqBzOX15qE+1gAmP9Sj46VQvrhtLPnXrZiptvnZ2DU/5XqAiOgBtlJJ9VNJo/gxAt+7DEQVL/fcQ7R+9bY+tYfjK9a9//Gejw0rOeD0/D8bu7fmkv3v6y2upNNmhwTD05YfTf8X5U0ltHGCjQZTXhp/Nl0tfYZpMAbBhKlW3V+hC59c3Dq9NYzYb8NPzUzmGVkwkvCZ3D+DtAQ5dQpXfv77963/+L//4egZ6GFbV+a9l8QCbNg9YdpJALGg4vRWVVpOjJgGddfp68s+PMmowUtgU9aKybTZKm7wgoguh5lqu9chxCyQk2cjGAU9yLjIqDgm5jHmF2WsMCRDx0PDHl8tfP53HMv19+1+G4BLRU46MGENPvdJdGdqMAU/cVeiLZO1Ryi9OIcdepdU5DSzabs1ZLS5g0m4DW5+/4/v0/9Vsx5TXlUQfOOch3wWRk/bfa+i+t13FFNFDbGcaMoH5d/lvrgvt0V5cP8ATn95ldvTyAt0eCbfDipkDmeBUXD9x/9eRVLE86yYZ3bOmy5XlSxDmcE+s2/UvucB7SeEAW8a5jCBNJ66HGUf1hIo7HH49u6MD6nce/T1NR6/k7vWVPHAdebTr9WtGL8tsNJirzEkH5ayJoAawL8B0hVnoTgKLHSmd6cBFCA64wHj6klz5xiLX1eqwZt3Qgsf+Ra6MUwxo9K78Cz2DJjjW4Tfp5aTPj0oMtuPO1nPVc8VrHUtiAGJw08AhlozgzgfgBpbRrdH9disrwDWBl+XKjogam/T54fH0Ye9VR5y/x/MAgHa5XIA4bnk9hX7i9nelpzPBTQatT1X/O7afW7AnETekvt3qpSUxVxEAALIsdJl34/Hhw4Lnxuzxw+kBi53HcJweqbJHzfvaP336S9I3M8L5+YX8d//9P3/cLrPk5Ib/ffcS1jGQUDphTyd9fpRSsAk6Sui5lteIVjXiy5o1L7LcVv7MvcD+iIMICLgDunyjES6OcrM1Yt0Ui0e0sXx+KE+nMqTyoP+vyx5mDcYcNMhGbdLw0lXQ/VmTWcAz+/fIF75KsYyVE1mNsxcLqPSUsQ52/hbhXjAr4o77pOkpHQt+ZDAeaIAMHvyfX3QENLP9u/fO1gg1meict+RY3btvDjg+B4Hcvf1f23ogcWMb33EsJvXTRioQv8r/izs2dhD/XiJ4Rd2S1td6rlfgfING0/fHqgvutm94j+M/HXpJL3VUNOxZZr0/7PWtDCe5ZsEQCwli/RIc0nvI+ayo3G8P+6+IsiZgzMP3Q6maHAyi0VEi6nGF1x5I17+rUUWmn0nv0JIcu2aeBRnO75YjuPpx6nWWHkzeOfiL5FinMh3NeC+90RdlpjpLJaiOVAlW/fzhZfJ51PBsgF7dAJkTBRCMrw/6yvr1oTBq1i3RpVgv9eTW4W04hBopXUFGoVF8LWhDgmIBf0FEMTWswOq/swd9R/YoNjAWYdxTL2o5gBlTxTI24rTWS9Z///I36/rNCDXFqVx+hB9C2+IR4qfL4396iL8N0RfZo9rFLeI1Kt7yaYUOdryFJSpHYc9gRwBxeiij7nAEjgTt338sHG7cgBiQVZJxVKsJ6b+cz+AVWSHjd3/6cS2Ty9EeNn14jQcjYefiqJ8/vE5aL+uPoo+ZYBg+R5j6+ogvp/rloSaWVGYBF+TWVjsnowRoMaq6I9xZIAOMEkBWMuwVwxJaL/abFVs9mQ1TqzxwoClNe7o9C2RkNILsFItlKEJypXsFCY06PLy93EbumXwzwJizy/+ULDnFHGIP1K5aE0oEGeuk0ZXi2M1cbrjXD3Ss/qYEyisyMksawRFGXpm9uxPridb5+479S0losyxuDVmyonpf/Nh47GVs8xkBCBHUjV6Kb/1k+NYNWz7XfMY32oqpXY0Ws5YZAURdbQPdkVwwzOS/gaFdB6iyIxeL4l0qAmbxR98gky2H4CzTgVx4xOnt37ECky5eehyB019oc6XRazDCQE3fZu5OAgpF5o+EYqaEc0KOXdiy0v+aDUP99PhXTt94uZvk71B0XMmnuildkKw5rUQUvNNGd2T+Khy+bjGQj1lEVTNpFTlLKw8PELp0Cwk6BV4yikWPOt+ltICWbM7wZkQBqSO1xmddcLyXEC9buvT+O3Q3QzBrR4y8459p1O/CeHtFxELlDnBkgVD0+ldgx/MNEhfWZ/KiUvpU0iDp64PewAF7jKQCBBTaGfBgCVpKQIHiox4iYPSMMLzeKo4aKu75tTLy2RDYIHVFuP5Ft5DJWop6A18lPA0gaIIV5y4S29wYbM9qnz7qpQj0zDEAfKrl6UWNJQCQGigSre0tFCkge0rfDrQGH3EOBtBG4diOdtCiW9lKwaGeu5Ewnr9+bcLA0XddsN3oir53yq7a57Pd8IcffneKXo9WrAqXLlFEr5lAfSt6OtWvJyHP4Yw086v09qZZ9jlgZmUZX4laPKr3GEbKc+japZ5RjQ/WxShGdZRFn4W6eivpVfPAfxOBuF8AtnqKhyK16EX9mT6IYaFibI9ilRDAPDmTG9UUjNJP6WgxiQhIIBMSDKXbB8ojWBBW09gnJ5dbZJdGCVSHxokjRa/E1Kj79xpxpj2+KYffF3RspqYfEQwG5tmJfqxEVnGTsyRRo9iy63x5sed5dCkxxuFpykxMMmODg7HE8CX87iyJSPArGd7rdgGlC2gIaEsx/92C719qEYtnVK8QPo5SuiZsQnUHz64YBVzHaruRX04prAXyfbV7t/F9TuCgI1evtNNp9X9it4i6w+jjfw+r3w9vhal7/l+q30yYGAfpYtCQY8clcxo7ETv6Y9q86xbHO9+PtJ1fjv6QcZ3V+S1tYXntB5smMxlwgJEJPOfPvDPx9u6HZJB/8HA6/cbBo7vxfMyYanX+k2XHjN2oi8/imp7AupL5sO4T4z4isKbqDEQNluWRogH5TfVcyrmUxpXN2lILhswg1CYcBJ+8nULF2suPA8VRbCH27FB3vLYywQ8fJmeo0XMTeS9ulXyzBcd2u1rrbYyRmEcQjQG4CXmoqPLH36//MaM5tscPP71tf1aZRZO9PtnlpQmXUGJecgBbtLLhrx4ff9hQYgwiAiguP348TXx+iTXiy/PTvani05fnK38ue5RSPCr8p7A09lrM4Qv2WFPEZTuvT8wiCjl+ZiweB2oj80yI6UzmN+Ot6M06q4oxRzGhxqCqE/mH8xyGLUQN1MApAsCleA+WSz+fG0sy0UTxXfuUkUFJm3dM5inL7SfaT+8FfRh781D5NTA5dXMUQWzC6kHX6Il6YX46gJCLOsIRHrNPtjTFdJlwzwjNgucR8Gud09LrusUEB+6bHOCdjEBf7aDRnesdX5pBRP8y7B/zFE2AMZzdUOah9hOFPUAeaeG5Q/fa/isq3E5x/367+JGTBt+1C7/Ypqb0MJn3JrHUfx7sPwGgZa1+9M08CIZlW8bqut2NgXU8iv3ttkrQHhfOCd1Z5dJrCa52LCud6x1B2gOKAd5rfxyWndbdvn4rCxUy7Z1REMdZMhQ7wbJ5ApWOq/LVdCV0rPCa51nnpwZoqW/B2O82Ls/Csf7vBhe7Hj9Ppw8mKE9ORUjYBCgPUrUh2xUifAorz6H1SUMTCx1ngNBPzu+nDq9U+n4yZ8JKi/QsHe/Kwp38X6/wHtHBiMMjgOVQZ/pvuzzUl1kObuXZyiZcyEzgU6JRxjZ6aIrWakvnPJpznVGiwyR3mDM8+bUYpsMKC1rGdUHf03RIw4xsP1BGDcNkzEBxBMQkQf3z707oE1qsczmd/3KOt+oR/ySTTy1ev14cciCRjmAkaHhuaJEFE9g6uo4a8fjhw7R0qzZ6UFn5O29tXlPgC9AUxq0+C1wul7n+NmSj9ZdJHLSsATo2d2/dk//J4YTr8xmbeok6Ry2RrBooxkPLs+sIRhnCVuNg2/vciI4LeDgRiwjkDirTw/fw5Kw46v+7tdbr3f1grrv9zKM0a5AygUn1opXI6dREM0qMsIdoRGPGsuo73yxGIx4bZNToTkgbhypLQOie76TCro2WHMGwv7APDlAPKxgNqxbsmdWpFOYbDhb53/3/7gLlOwr6q0X2bYKbeisC0lTLXUgU/bRsTxs2Iqis+TJSHcwsSMx0yNoWr3PHy1cteDgmvpgDzJcCHOf9jcbFsqx/uf1ce04S1wSxk8kgQpEuhBDFbsOMr5j/9Pw4IJ4re7su79e32X3ZSr90OmUHP4/C5IGZzzT8TTVebrQVlhye3PjVTTdmzmes9Fdk7XmThFkj+av8PPCteP4uzn817NpWb+raN3cmy3Ypq/l2BQrqOFrm6vN8bjQjnJBeZNFfI5pMD+/ynmaalRN8Z4rvtZmrnCHNMT11f6gAdJCU2J1x72Yta/KO5FBtKIn8UpD7gX+PA0ml45kGWGL35K5AWAwXsCz5wjztPZOt2VOjIOkbzJ8ycpXPvE5+dpPeyuI+dcHXOIS9DDJSQzGKGiCg/v3nNwBwzYRUHk4K8/XpYp8jsdyuu0sAVZI7AJzRkWUhfvf44RRojMnDYinw4VTkclgG0ARdNLGdtT2fLxmP7oURFoyX1/OaC50S8fHDY3GHTNmNf2nE5/NLEKEOQ8sJwWxRaF4mEWtjRSZCiFF+V+ETsCU/l8wj8spBiwAXsKC/hymRH/bit/weizcuI4IqkVhFHp8cMcixhmf9srwU5BrpSWekDG3VQVchDfba8rwEVvzjJv99vwJ5dh8uPfN0yVCHo5xmvPxhopTDpR/ov2OpRg3g8KIa+Rq9WL+v23i2Va72ztiDX3PJjmT64CpIv1EpvxCBHcz1Xq6YT15wjmP/Wfe5xznACKjzpW0DU1gQp1tC3DJHd0sgF3OTtMuXJbWbxY36r/dxlf36ktV9zxrJ/UTU9RRHsJ444lXJ2fpc/2p7MXWw9jqfvfTgtnNbwNJ5f5ZlLVNyrw1bOuyjdIBFkcnS2A8kh7rT3StoNGfTVUduvgRS5YVFsTBqlZrbz3VO8y0ot2yfTNq924ncX/G/VzJ33vbSlWvi9SERiJYHmHLB7vmq6CmDlrxlp7HTkUDskMR4RYma1IYNWTjfy2rGm092h2w3Y4lE8nBxjKw5sZxGbbvM64g45N/X+kce6XunySjo77PKC8URxmPbPrA+tm2UlvTugZoR1ghjlJhsE7ZQ5khiqRchQKsgMACVaXpaj4B3cRhvr9rZvoJciv5CldKW41A3by6sr09nAKlKzQZG4IIIkr3eiUybkqr7j3o4xVJvyQDwIfgv/vRPPrQWGBVuAKCXUv7D//w/55GK7/JCBPG6Xbyvv89L9u8/PgpYS/pgBaF52HwRS4Ln83n6V1r20YNKI07rjkCYbJcWyyHV2m8tb0G7j7/mkQ6EHHW1KRGgH9v2YYuPW0wF3iNWE8BGJocDCoapxgiWpoAVjEYA1JIaTi5NXiW+Nr2DifPsqY+8NSe7uAO7sziFaOH/PwAwQv4/aWMhrwAAACV0RVh0ZGF0ZTpjcmVhdGUAMjAyNS0wNC0yMVQxMDoyMDowMyswMDowMCCi36wAAAAldEVYdGRhdGU6bW9kaWZ5ADIwMjUtMDQtMjFUMTA6MjA6MDMrMDA6MDBR/2cQAAAAHnRFWHRpY2M6Y29weXJpZ2h0AEdvb2dsZSBJbmMuIDIwMTasCzM4AAAAFHRFWHRpY2M6ZGVzY3JpcHRpb24Ac1JHQrqQcwcAAAAVdEVYdGljYzptYW51ZmFjdHVyZXIAc1JHQiryKm8AAAAOdEVYdGljYzptb2RlbABzUkdCW2BJQwAAAABJRU5ErkJggg==;strokeWidth=5;imageBorder=#99479B;" vertex="1" parent="1">
          <mxGeometry x="540" y="492" width="85" height="85" as="geometry" />
        </mxCell>
        <mxCell id="fkhzhb3UsODcdzvoW7---5" value="" style="shape=image;verticalLabelPosition=bottom;labelBackgroundColor=default;verticalAlign=top;aspect=fixed;imageAspect=0;image=data:image/png,iVBORw0KGgoAAAANSUhEUgAAAFUAAABVCAIAAAC3lz8NAAABAGlDQ1BpY2MAABiVY2BgPMEABCwGDAy5eSVFQe5OChGRUQrsDxgYgRAMEpOLCxhwA6Cqb9cgai/r4lGHC3CmpBYnA+kPQKxSBLQcaKQIkC2SDmFrgNhJELYNiF1eUlACZAeA2EUhQc5AdgqQrZGOxE5CYicXFIHU9wDZNrk5pckIdzPwpOaFBgNpDiCWYShmCGJwZ3AC+R+iJH8RA4PFVwYG5gkIsaSZDAzbWxkYJG4hxFQWMDDwtzAwbDuPEEOESUFiUSJYiAWImdLSGBg+LWdg4I1kYBC+wMDAFQ0LCBxuUwC7zZ0hHwjTGXIYUoEingx5DMkMekCWEYMBgyGDGQCm1j8/yRb+6wAAACBjSFJNAAB6JgAAgIQAAPoAAACA6AAAdTAAAOpgAAA6mAAAF3CculE8AAAABmJLR0QA/wD/AP+gvaeTAAAACW9GRnMAAABVAAAAVQBBpYabAAAAB3RJTUUH6QQVChQD1ejivgAAAAl2cEFnAAAA/wAAAP8AYjLrtwAAFX5JREFUeNq1XMuOJUlSPcc8bmZWds9oQGgYhDRiMf/B1yCx5bNYsOFrBjYDK4QG+lGqmurMDLfDwsxfEZFZ1d1DKHXrVty4/jA3Nzt2zPzy1//0jwDA+tXjA1ANABwAAMpE7Nox3TShCOZ4vLsVoQgUAMWnQvnf7z6J1r9CGWXFC3cU34oTy2XffvOBMsoN2Y6Dolm5d5jAGAoFg0PmLocBEEGNV0OZ7tjoYX+hli5FAHj37h7Ato4mhgyTARAIyPLLBoBwywnnHYcbAbRZKUYbfdjccR9TvBH9suveiANikzpoVI0RtDadsHw1B0g4YPnal3BM+HDFzcP82VeyP1XcMDUXLVofJ1HHDIFceZuVyFr/FE9SGO2MMdAqLWYi5gpX5Hcrx9pWnl5DNG0SRixtn67N3QGA/uHjR9Cpef4swl/96lfF22S6WICPH94f2jIBsForwGn+klicqO4ivSuCAxANZvHVPi2HEVbubqQ52D5xS0GV6dneL8zmTTfW8+7xZsLFRT+v/0EXDPDiKL25VGw425s+CKASdDtq0DSaEND0ja5koEZTofZOC0Pg+ai5HIBg3YbExGLlMd3UvFBvXsf5q5mbefTUWHkKsVaUVY6eQuXKKiZOgksLojQuIbqaRiQVta0/RDihfJ8zR7eQbRP5ZET6np/tii1G5OKy5b3scrOwyTX+Dk/oje3Vlui6u1d3pinkwnwsrACU93uPmhegzfzt8RyuLXTvMF91OywTodOcV8PejOKFstn5MQyzbP2h/pGuLZat69r1a6iSLQPz1qzh7eVpX7TLT1MPQxXPg9Iyeb7Syqu3s5HhJi03yPjo0Ahl0FutHbukv/3Y9tmGQgSGk5pMog1BFAEgGwQ4iCkWdX5P5X4zocEcGFFTCgxEQFlfz5gNxdlp2tRjym5V6isdH/NfJXSSrsBKgwAOaypCTN9tb34dgBNkU5be6nSFGvchhhEN1wfzAT3hhAubE9PNEEN6iVBSgyZD7ml06X14bIq2lZK36r7jtMgO/M8fv8slPchFwrTnOy4ymUlthhKwU4Tut+1WCybvFdK7lTtoy6bo0anTIIl16C/dBCfKndWrHWDLzeyjuOlpLw5zAz2wU8z8UWXzo/6fGpZ5MzJdMhxTmx4MHdPSFAWR4YHCdxyMSKyMg6nDbmI6LZNXoETLcHS7wH1uYx7E2UIx0JIYLZDhpq047hzn+R/99k+5rv3P5FlDnrGe+CJnpVX73oodDv3HFmJCuJwWHYSz4G3L/JMuJo6YDcHl+8+Z8QwNJoPhjA1yNfn1W28M7nB93v7/2KtrO2Si+89u0DmsTMZ5l/rJ4REOH19uPYODf/71nwfkxzfxvv9dDPUkSr7+WXu10ytFAhRNMHj4ndLAa/EG6rWsvx8aZ2y7H4UnIcATcjO4g/i6EzJ5+ifFHdg0gLPrGVJA/5YBZgpPlq+UGZwwa+/7pxTMUaRovDhJBG1jQvE/t/47UcaSRmRtSDO3o4fuCYDDabupzJPva96jzAwQU3bmaOZDlkIRzCI+Xl6Lo8iLUDy/HutfPIms7Xa7hXy1PZylT9nLp+cj+J/+4fm+1GbuTggOGqBf//Vf3lWrEXGkfrhw9/37/xa50B+EiFIMltAb5BCQi/FEvCL/au2mMeyDh4TvtN1afLlHy8RGPMA2++z6fw4/ny/RKUeHaCM4F+Dg3kgmB0MFvqiLCcMaNdafaEjcQ7tsPAMzH6oeI4h2hv6fNvfPN9ihtA7ErqPTla5rCuMoyA/ynU2NTnGXMeOftPQygKkkMCnMeURhtPhUinkWQURR+iYKJueX+T//eTBBgw6jJ7qnuq4eO+Pn2+pKNeyrSGi5A1LBOI7gjS3EDI/wqv1vS+RfGGwepIWIds5satsHGbdNROVnRBhcW4u1xLTnLdqJu6e2uP4jGKMR7zvl/8f/y3pU2m5Zu9/H9GrXbzhcpwf4/VFO+Q04f43/f54VOHA1nCbPq4cv5wm2zX+eauL/lXpkN/orPT93cZ7V9puPT42K1NRTPrmbfeu+T4O0kXLR3GJnXQUBqAhrFIwtHPZShnwbVLWeL+kLFTxymCgRlrxwNGVBAM5EGzsB4UtuIqfnmaGK4LoEXgKKPHbB9g+//V3YpR+09687PcT3/X351z/8+/f3t3k1ITPg6enpMPR8UwYnF37IYMXxh2/+a3ObQDoAlHpnWylu/QvDrzeWI8LhyEUV+bb7zRczGfD+rmzUUZ1MeCcUIMkaAQxECKpCvv3Nx0+U7cZPvtfBIbgzXMptk/d4w9ICuzfuubOOQ3fOQbggYi9wenHDFM4KrwbACdST+YUnR2Q3r1ubvxp9VoStOfaxTYBAftY0teXvvEQ2Edg2dzWyIqakaRaDilzGtjA/59meLieGK4jUoreN4EQ5k76hJnM0l+B3Jc7wpdeB1wj3WwAzeAuqHZATtaPOlY39adfK5477U1p18HZdiTg9xrbI1q3GKxI/DPVSOr76jg0yNzgBQXSniXCwjM5kmHfAskZpEPq4l/wvuhUwrbaXs5I15IoVLvSYYHKklPNzemcTNDhnvg93LFiwig2wtENMnNx9z5fTYQfSpr/3+XXJ1biaP2tebQhqcKpN9rNeXK75a/dfu7YXuz0bRDcX6KXZFZ+SyjYg8NmDjpVMoqYldzTt8M7wV5vXR1CEiTK4U0i/473NsarMrXSp7W+skPMtM7H98fH+xfzmfnPc3Ck3raqKBtq/4PLOKHEBp80ZDpmG5Iwu0uAn2H/MWxENUNPpi4rNoHJp4kooLXWS77d//o/fE/7VS/37v/vd1y66WJVKKPNb/erh3ad3ZQ4EIm8XhQM+WYQCAqg16mUkAmIlGGUZlAlEtfYtEaDu77atLvINiLHv+1EkMsJLKWUFhYFwCkhmVIMpjyiXGloLTZFUAcghbH98967gudJebMtUSQQ+/OkYeJQGNBVw5Z6yXqLRVMDN4ftiWWOzNEMwqgbo5kfEcdD8GY9pMaDj6nS4A9vOmwPOZ6qYW2nlLM7465twRB3nzdZ6Eia6btr/boDMIdTYBKOOIlTumN6NHufE3lCNvsMO+/9zYGAO48PBBzu4OUul2eSok3h43dO+3c2VaIbj1eQmJoZjSR6Jx8n34Z1B7qv+f+YU15n3a0N3SN3y21HxA3U5EVHWFU9r87uWpe277rw0c5yGZm/6xBajOQJp2RtrfMDflx2fmRwzNE4ecno117REvHK5h+scn9oUF7Cx7q+XBhyw9ZLznyePL7hej0Kur820UzLJ4KCq+ZDdVEW1wu6ZuurRZ/4nq5R4Mdye/z5J0qb0qbWPJ9EILZT8MaD/S+Z/c1Sgkt/d314Meymilwzt7P29PZsJTP8s00EYDOicJVqtjBMuLy09w8iEBfXYOLVu/6rtQzoyoJpIReYZZLBUXcpeYE7PJjujBVfcjwrI9qkAciAOAJFT9ig6MN/elVtl8Ye7f/m336PZXMs19Ofid7983PeWBFfHX/7u/mHogkYRTa0vvTN1+kX26ZO3SgW2VSQFbqJqKpCMMvpWxLLfFS/mm2nUjprcX3YDIXMOqpfg/lyZNYKesayEI3RzAq4IhFXkG4UCezJ7f/fwVLKqo0iAV3Ng/2VhUa/DtRYftMXPgLTR64kX++e5DmgRFkDk6uV6VsKb0zVVygodvsFIGek+lTZ4e/EWMjCqJgTRoV4R52prU20tk2p4PPz0djaKC6UTiKo/o5FoH/U2qdJJch9oWJ/QWASUif9H1dSYXpT99Ay60tkF6vHTYn7eH7c6lzUBK7TywhnVHltM83M0+5wWfLEEA2AuxU950yDOH71izd/ghbvVeLua7EQ896IjOuhszE9MfrvEucNt61o12nDGqCcJjGKmhCqt6qYjQjXuPTh5dkIffWCdGlimm5WiE067VIEl258L3r/l86JOjc+pqARogWqaH4qQNlXZBgUtU0tqhNubWYBzPueKutdpGoG4IhYOjOxKYsJnfC0ulI6/XjIw9xtYzoHN6ZoZmFmKbfKRNVsdLxWl+F1qiop1U09rt5VHh7rHESx0JeUWeXs6CIVnZe9gKgE8DdbzCEQucjfRgeK79cszDAoiV4Sf8h8ZpHsHgErz07SAMDmI8EqDF2MWM1erwOJy0QClc8JW46yGD+vMKFoI3aqxMIbazY0TMNdhVwJlUDVNeVKmo168kzrMLS8C293DnUDa5h/eSwp0L4WbhMSPP/xg6uFVEsVgLYWgmzSlCSNCmMdWvTl7sUxwmoFM6Hh8fCgHPsM38wIvxY0a1f6iU7bjKailbk0SYpdWnj3H/zJ7saij7XVEFIpcLzuETXSou5V57A3wiJUeZ4G6XbTWQaUDhZOlJBXmrK8w2oDGzmzhN+mRh0bYgCwqTYiklJ33TRSaxem/ufjz2DnsnyH0t5cfAAFIYbEvti7aSVnDRbujJZGBxQ8yINSQmGlsdaCGtThYAWcd6alVEEn3q6EMOpplmVJS8c6dyzJZg7SBUrjuf099bJaBedcRZ1Fg/lo52cK7mpivWYffIWzzEb0mZ6F6ZyIYr15TcXWiN2eQ8Qn1vFt+auYO0BKkB9JF0/tZWikUjuXs638e0hLevY20bCp1mSoQlqXjRQBrDdvXeEAnq9kk6B2EHsj1L+fmOyl3nOcrufTl6MLa0qQxjahp1wVpaKe0LE7tTVOfIeBwn36wIPPX9dZ7Si1rkkejhq2e8v/zQaZRompqAca6Lga3qDrSFPBkHj6/exIzjvSNDpLtfKVlCNC/rRY6tomdzxddMh/J7sCgZhOYsNQlE7a9OOTOQniRQT5D6BoJ+QY6e9MOIxn00cGq9RN0nQKJfOt6WinH0G1ZLMtcgenhUxqgTOTfDkU0QYlCNUAoUBlS6Af2tHn0boq6SHocN6Xc4Ns3zx+pQt8e392bb1SZD6Tsxb97/rSX4c/aQrNFvGx/MTDdCuPhXttTBMq/vj0Q3gFfYhuBrhAZ45iRKMjpTy+1ZqQ8VpSy7e6msfouuAir+IvHr+9qLxoQ6ALuHI9/4haQf3gko3x/2gnfXgzFUdgP9sq6H0ouq8HzwWd2oGlT+BwHLLyVPYenILsCRzZew9BnEVZuy87yozFFQcYO/QqkOLh2ZmjgRG0EbXr+yGgzSmztJjgrBCXRUAkIL1H/tWzKUb3dYol5ayGB11s29xCxzWyqXqmlm7ZxZg3zsMyof0kZdMVXnosJ19gWoG/R4AuRjEhdDedM879qlZ2On3p5o9m7iz7Y7YzYOJe/jT1tb1O9dE2Hgk7XlCtWnP0YGOGcEdrOrLbOk5ed09IX19W4r1z0pAR0aEsa61hM3Di//EpPQ03UwEWP3R93wso6uj2PfIn/+jm3TuV8lm/5kmtklrIivmUEBwpuh936vpsE0aU1V4FfXX4uuZwO40WhebN/8AX/Y8oKqpeytZ6m9MMxCzj/1EGbLdFCjv71Xm865/M7NTh2eOCcvn3aTvEmtQNUS1lk4UQLcBpZH3XR7cQxAaPYzIgl/zE3J7qrsQXsOa8LgrTpxcUmDNZ0RGA9/6NxAiNGGjXJbvG8AV47T0xUG7LI2YYTWbtrkxawG9zpk5bzJryr9WFfSgNj0Ft9Fri9vLxQ5q7CG8EstCcY4SdBRuDetDFjfClIgcwUjB1zu21xYrgtDoq0OR9ud0W1JJAPo81KvP/hh9lGhGQryktlR60dkFIst9sclQTnZKq/+sXjfa1OT1YCAPj1c/3tvf3ieT/M3w3fvX+qZhtxaUUi2MJ587eFJaVXAoehAnGVVrQZdejNQ7nTIsivNE48Wpz5d2vFo1Mo1n8O4nQE3sFK7MYK7Fk6J9vw8lj3X+wvUSAe/rUS1fHkn6oO9g8dovu8tabFCUbce3XVfA57xabNatD7YSNO4UewMZZVBhO7kCbAejXBMrxhm8eOaFJwsIIvwM4ckkxR8Bi/neFxdqZj9gFV5spfHw6zlUaers9WV611sSPgtuNHoQtw2kwZnJnSLoLpUy5joYN7og0l/us6BeRB8xZxZ4rlUP9v89Hi/mXL1OJCrV2KpXUWIVd7cq1DOEWBnVm+drRL1STU6m5t9XQTT0G0LJN1j9BzE4dwdoSZ7YjKmOGPO/h2mBSOYOvNRMCYedAnF2XVE4iYCghPokSf/Ib0xLYMZh3G6v/OBRPt/3NR5WF54sF5Vhn/Nf83s/GvpZvmqqbDWc1zVTsob5nq8+RbEQGpDUI1r4bikQjNEfY9vkX9b57Ab5UokeYhZCg4nmFNsBGwdE5OzPWJWWmdZLMQPy3lkekaKayeJujOMqYiOkDT4CZ9yM07rWahCMH/0Zo5Z4WBBlo1iB4pCfZCHkAGcRexyZ9CeA9fbVPkmz1Vlk9Pq8owzhjp7j4O7S/HmAgUlhg6KMoLAkrww9NzkGVslJFBlayyCtfIaid1HOcIGvIda8BiDUZ70saEYC9B5tN6qkrQjf7+6Vs+fypu4ekdEFkJ3QBiQ0uhG/YBeEdi00B3lGnvYUoh+hy9t++kglBeImEDVKD5+bTAFtQFLMkKJmvQsyklGfHRbO+j5xSiZLbjZSeg0g8IOUxRU8tdZlDcgRq5oKvzj2v2+MsuZZlgeGwtYE6oraYcHa5m+Z2JcBvxecJqWg8uWt1JaF472AuAo0rtMNge8/Qf3eigM+Kuuarrs+f/3oi00SiH0wNZkNFKQKcsUAA+So78ha8aCnwMKOjrL1rksd9uKa7T3umnrdlby8lflAZGBmObGpsfOU/pGvG0CidvWiCbRJa7pSUlO14USTUW5FhQOLpymE3+pYsnI5SWlmrOoq/DII7jIPwJrQ1rdbX+Ay1cCeLNsmBO0R6WUiGU/PWuuDllE5NUGy3bgrJad1d81EK0dSWiVw680PLX02PJTTqAbc5kpOy1djxV5M2jmU7yoxXmuQG3isY3wwk3ON2ETdWE3TJ/3IebNnLaR46hU3NhwpSQ8fbbBD0KQo2TO101CBN2s/ib59+sIKDr/b9YXdMxmf/GoXAHdhslUD1vQ/md1819l8s7NLJK+5OrMn60AJ1ZF+CFWkcyZUEWNBRxSjXsSsq4/zDVbtiNe4P5Yxkbp7Lt+x6ooJSCdDllmmQp/fQc0BKtBPD8/IyxtdrS0XFf1GI+EwiX7w+1/u43f/uuVs+EtxcHZU9l+8+PH57KZrnagRGtkt9/+KEaRxUqB9HLUQudybtq+NPz0+61MssEEMn//eV5uz3XGTt1kLVj7P+5pHVZXv0oX5i8DceReyBU0e9rfXzZ3aphb8fyrcjvvLp1btNCjbv+T3U3/b8jmOmrmlE9bTePE4YhoN3shWVnP3SelVhFLmwG/z8Gn2OR3fAEKAAAACV0RVh0ZGF0ZTpjcmVhdGUAMjAyNS0wNC0yMVQxMDoyMDowMyswMDowMCCi36wAAAAldEVYdGRhdGU6bW9kaWZ5ADIwMjUtMDQtMjFUMTA6MjA6MDMrMDA6MDBR/2cQAAAAHnRFWHRpY2M6Y29weXJpZ2h0AEdvb2dsZSBJbmMuIDIwMTasCzM4AAAAFHRFWHRpY2M6ZGVzY3JpcHRpb24Ac1JHQrqQcwcAAAAVdEVYdGljYzptYW51ZmFjdHVyZXIAc1JHQiryKm8AAAAOdEVYdGljYzptb2RlbABzUkdCW2BJQwAAAABJRU5ErkJggg==;strokeWidth=5;imageBorder=#99479B;" vertex="1" parent="1">
          <mxGeometry x="633" y="492" width="85" height="85" as="geometry" />
        </mxCell>
        <mxCell id="fkhzhb3UsODcdzvoW7---6" value="" style="shape=image;verticalLabelPosition=bottom;labelBackgroundColor=default;verticalAlign=top;aspect=fixed;imageAspect=0;image=data:image/png,iVBORw0KGgoAAAANSUhEUgAAAFUAAABVCAIAAAC3lz8NAAABAGlDQ1BpY2MAABiVY2BgPMEABCwGDAy5eSVFQe5OChGRUQrsDxgYgRAMEpOLCxhwA6Cqb9cgai/r4lGHC3CmpBYnA+kPQKxSBLQcaKQIkC2SDmFrgNhJELYNiF1eUlACZAeA2EUhQc5AdgqQrZGOxE5CYicXFIHU9wDZNrk5pckIdzPwpOaFBgNpDiCWYShmCGJwZ3AC+R+iJH8RA4PFVwYG5gkIsaSZDAzbWxkYJG4hxFQWMDDwtzAwbDuPEEOESUFiUSJYiAWImdLSGBg+LWdg4I1kYBC+wMDAFQ0LCBxuUwC7zZ0hHwjTGXIYUoEingx5DMkMekCWEYMBgyGDGQCm1j8/yRb+6wAAACBjSFJNAAB6JgAAgIQAAPoAAACA6AAAdTAAAOpgAAA6mAAAF3CculE8AAAABmJLR0QA/wD/AP+gvaeTAAAACW9GRnMAAACqAAAAVQClYS1XAAAAB3RJTUUH6QQVChQD1ejivgAAAAl2cEFnAAAA/wAAAP8AYjLrtwAAFLBJREFUeNq1XMuSLDduPQdkdd07Gmmk0XgiNH5sHF54Z2/8I/4Yf68jvBmHF2PLetyuJI4XIEhmVlZ335bMuCF1Z1dmEgQIHByAxX/413/DMiin3yg39StO3Aqq4/rjVh23Amf/kwkfNnz9bNc2HmCUX9yr/MvL5cm36rLxR5HAE1gcAAGIAOR0cHM0sAEOeL7C8HiUwpOLbl/ahyIT+jwNbo7C//3nf/rDBd+bYFLI5WQ93C+i0chYCwBwQyO4XFdfKTgAeJFXn08weZUXV5HHE6jxZ6NgU/KT4ZxiCzamkfpxvDgMbnAKYH8K5QYUeZGTMoH5ScjqySMEW95qDhLVcW2oDved/q8brs2vTSL7ywRCRVuRGWRwxkLBAH9ZpQAge1XIl+8nbkYA860FTn4y3IqeC0BBdAcKrF4ul/FRAFW+ff/TojqIMOLa8I1frhsaIfbVMeDS9PtyvXADLGQzOeGUPdGMm0mhcAcBmHi73UxdybmUDjaWRYiDUoc4sZnoAKwrb10sGdt3f/yyaIPMY6rw4qjQpf5c+Kl4PM6dONc/hZr7mQCU+t9w3dCsaz7GxXHFVj3Wy9MunFCxjXJLNYS97aeLOwF+6SCcuBmeRbO+i73AjDfDVvCpgIRStaz3L2/ElqoI/QNwR2MXXtxN2RzVRTVgeC0BXpwIS6GwuADT8Y0iQDxwCI+t4OHnvEiNLaZOKNRQRIMTZnKE6d3rXyFeis2cX9jSg+FFsbFFn7eF7Rwnp19V3Wej782ci4npCI0wEyjr0unO/xOgYIDr/LnrD2L/5+yihslhhIm+ZGR3DS/pzc/X14YW8le8smVUoMXRKm6tgEGX/DX+e7b/i0ClJICvsUBzlkohRXM27uZFELmH5p6n8DnDXg8Wp+LzxO5SrcdPHuU3QUJxc+aCE06YUnua7wjNt4AG4d5hI9o5GZLblGRqz1/Z7veSr1bw4mDiKCJQEN0MDYTg0zAIAPXado+8uNWG6j7kDyGvGy7u1wYHRB/XqyMCP4Z5ywAwvD2ryQlAZpovWoUXgTmt2Hk74ZWzFfY+siOFNaaQkmkrehZRFJozEwq3IhlbSTdWhEavXz3TmUgLeGp+KR8rt76rc34fhO/K07XElY4fFbjq09b9yRqcVaposrR5Dfc5IRgAuEiARJG7qPCjXWw2yMzS7uZdBXARASjXVTHhj1998bGZMx4OCqZqwJN+LhIj2ECiV6FeGgC49S3y5F6bXwRn94DxoKeGJ+jauvI9TABgAEQZBqSVAU6haEWvvmh7jjtDMMAhajpbBwoWd5OWu9jIAhkJFHlVc8QMnTKTyFbkBIr6zo051ZyHh0nEWjQfGYj3j+6diskcIDNN2oNWqgd5KpHSElN363G3KHrFL3zeWD337npKc/R/DoD+YrTPJwII8/a+BQMshczU0dvHzv51xfuMVeD9RTN6ze26dzncRaxhAsJwb/PRWjDZHhnClFcGoFLCx/Mkx09+6TBmmd6r0h6f+TCOmqW60EOkTM5UYASuUKm9OXqv5nOn8PuneP7Xfy3rIGJjOuhD9B0ASIddixA7mUJJOS/SuEcEwSIQZMb8sb1XCbpnXawmUfGcQgcn6VxXK8iP6RQa+J0VrHft7shp2elq79e4RnofEgRPUH3yGTFbJ6jT/MTUA5iwOPPAQIF//cRuT1LAMas74d8DAVd/zT2dkc/08FX1yUxEy1V8Er64fKhqqWFrBierQz80d2y0mf9L7IGdoJITQKDkp1pMI6+TCAJOtGfNJKhbiiBIkZPPmQb0KEuSosUKOi5YFQ+YjCQ7JnOAIAkSlBSvMXV6Q0AtggQYnCiO6l6kpzbtqAibofhB/5OiUsSAVf8519XzJJo6Kv8UFP6C4RbkJf3UwdrcHA6gUh46KrH/geoI/idU2WhCx//mQDHvOH+MtiDFzgtG1lC08+EnYudyjLm+3QVq8TWHpexBLXCYDutgyw9uB/ceVMHYMwxGZYkR98/yZTZ4A5i5N4FfnREY6GNwmXsR5sap2CUQacb0wbGYIsMBpola53hEcKTZO3WsizVdwkTBe5Hpe/XtXnev51eFx+njlpGJ/J0LAV302NBTpVPAXU7OJaiuiMjGwi0hN03s/5v+mUvw6pJRqEuxoYvqQDMVd5dZgpkd4SejaALdwMaR1i85wjS58eT7QP04C3jZF95lTa+K6ndw0wKGVADBB0bCnPGlOzknBAIGmaMFD+KZWvfMFXOneNQVAuwT3hPLnkk60/uOzYWOphwZQNN1HZSZd/Ixghw3uEGu9XYP2g8oIct4UjW/re8zh/mVzbSyCm4m3IDNOp22gQA2kwWyV18jQ6QD7ticANG41MYEh12fvhgIItadchGSpiYXdZVSwpHnPN0ZaEJiZK5MRgLFVYlCm8WEzuGDrSKRTleKagU1vKUIivRKUZzrTAFCM44wMcm/nuTEorL/N3hRGEL47t7MczqruVIACiVoZv09oZaBIblFHSFXgY4DIPVV3qw1jKV0yIGKowNK/vNzEo/XOdyBf8AAYbsMjDp9iOOYYlk3K3R8/uYQ4FltWgY7It85Ar0TXb9r9BfrwQre1UVSJ3ZEH7b7Qba/eLoc93PoY8d/xEZ++CTZ6t4Xk7E3RrUkyLpUx7/2aq+f3DLepBdCw6vT2EWbWI5zYQ9oL8KY7XfcXUZ4P69Hpb5e4Xf6/iIiamiBPY/mZiKF8Lh35bAFpMiO9jJnS4T+V2+8E+glumrlZH3hl7wn8KOwO69nytRf5oC8J8oOSLM00zNou1P+K0M2/w05o/483fMO3VZf3dWca3ntVe8YAxfsMtwZCJdt2ZbFK4ExXhF+NX7rQWC8VwZWyDLOTYuoPtLEIH+d7u7qjERHV24UzIzJ7XZkDgO81rlkPa3mBtaYkOiAU0P5vnlbt8YwYOkoYmjkgsu8cm+Sk3rujrCUS9FltynoQJMcUflclnzn//wMeB5p3LcGodMdFQhgU2dkBbClz+vyL5G/l08Wcx1L1nC4MMEaRKjOX8Ow6FAFNwBrdbTr7tE40kYrPsGJyzsF+ehW0IVRNDwt7TB9A874rPhvwmdY9qMcZjcXWmtd2OYUZo3sECZT/kfO79cYfver3f11Ekdcw2NQ7fwFBQPtvf1oPentOP0zx/j/htE1NsDsQ+kZAdZHnBjrfLeJgiJY8P+r3SB37+o9Rfo8RPe4MLCH6L2ks78zr7x5rnwFxt4Lf19HenT7iynzKszOKiveN/R5gh/KtzxqKcPJHT+Fu88NVlvrvUd3q72cPvF//Jq3VgdtZI9JOQNwzkko9dbrWVntNQTYURSUNTFP/NvNyZMmvs/hbUlMznpkfACq4eUMurTniIepCwG46Cbi2cou/gNg0OUO9qK4CLrVm1pfsERlzoLscMgnGIB6eSp9I2jUjwFWI1E0y14kDCyFwRyW6HA19jW1Jc53yYEifP3Vl+YTa8doxF9uPzZL4hARw+3Sbv/y93979Ru0QDU60X7zzW+KfntnnBr4YsovVN+3aYkjSs9JRrpt8MHhURCywe7oCof+78dJKTLqbkUwR1EvNNjqKumiZ/3LA8wSetLtY/tEFcjYEwd3SrDnGVV3C4BhQ9mnVaMfA9kCwJFO5oblSPtO0gwsYSx/pfTQM1j0F63CcyELZ6K1sCz5rtNsyjvdgneOSZLYyx9ItjdUgqW3Q0mQ6qSYuRN1aJVnDQJHdS1RGm/Cne9hlutKlRhOVuFBO9nuxYtvg9NNI6tzQtq1huDAXB0ECz+yVs1498nT+vA7hEcAQ8cg58ynMuPf3HvxM0aBJBjebBYR5eww1UfLTMqcHZhnE7+jvdWb83uv9SA/D2O5OFgdnVHdL40qEDQHRXPFu+U2W2DCizdDo3PRRjp8F+W7eOHUI/8HEzLe7JQ52gqawdSjkacmzrTtoIPRLMd3Q/ja43z3h95i4a3FdQXBjwZBtAZAHjR2WITTQY2OwI6uKY/Yt2x4W35dZxtlNM++GBNaRnsHRv/4i2MlNj9vI1SW66juRPC7tY1w9fqxWbbkyQiDHIoibxgI6Wy+mhy9CKC3tgU6ooZ1zLCGBWs1gMT//PiDjSpIzqcRMmlkBxAkQZK++eZ3H9snqCZd5L2RgTwFp/f8wtS/ySInbfbsjmZNYG8hDJrN0WyDQFhLHkIw5wYmpSMizGHu2KUkHR9J4i27oMZiQOwLsarVX++LR/YOjULeZ5BXVaOFMTudnN5sNqE6QffGfmZkrXP3mJf7f5/MH5Olc+irOAXiBjRO5LOr/L4sAZPVeddIx0ygK3zn+aMKFBWi9Orp+fvCw7NkPFpDnd05pXKADuyPxR/s3dvw/P3EQXqHM7CwMPn0+esSid+kfzzkeW0Wc3xBWHsUmCEgQYTPdGz3yMQwu6DI3jX5ON0bRtNv+Uxa4PVha6ncHgh5fufDv/gLwWhtyBj9hQ8f9HBR1jLObJ15BwqqYOL/sTOTKlqa/CZ5ZrKZcBMm32YlA5YF4jlbHU9wYLrbfSH0UM/8/PrSO0Yt2ggXrMhFK9oS59s9nhfQbKIxEU5Rbtlm1DcqES39JIjhSxlHjgTJ7gASpd3WdQoFIPyDPxdtPXxmKfnqzwUbsWW/vANeohnXKzOyCjZIJ2pbXxgS1T98eemdCXTIii7+/U9mT+udZl6EDa0XxTOSiyC2S5kuZOTzpkLYbDzsNWw40PTsg9sem46yIowg3/MlXn37x7/+3dU/xQKOHVr04dNf/ryp7VlTiPz9t39SkqmO6NKQ0TffwC0qFOlfWU03EUVNANAy9TAC0kK3IDw8GmC9RTUaNRyQZdGSad79HYrDL0OtJnpDcAZuMCr7P+gk0/B8bDqiffRPH9oPuRMmR1o1w+2omgrVwvRkIgyt43Fuhptpy7pbRGLWg+dn9IlEertLJGYdflxR733X8KP7oWiBQT8CtKyD1qYpedbnIjlwGthPIs1W0cRPOLaP3bPsvlRQM1OAgA1oEbhLZDpr/9cgIaZNJhdyrL3/gjZtjxYTYIEsTNPFSpNH/hfx9bOev2KnnLNlPZCj0SB4p4qDE35XiJ0xvO//8D0LJbYr0cHUS7ECTtJVurK+lK13XZyXu8BHqUeoeanMuKgL0AB3cCi4Dk2ko8qKp8ztUJ9fsEu/YpYh/e0aevRhyjt6m106rz74xDTSBfeljgbfTnOw9xF5rm89dDGIs7Rj0ZAdoXiw20R21Mb1yPAezlU7xzDzogkZ+lM92fSJCwSUviiTgx9W0OH22Zp6gpqxpsFTgNtGR6akBOrVfxpyAWDv88tvN8gHgd4Z8wjvE9v7Z+0YcZQyNTRY3JNc7pRHeksv2h5wG373Qy4Kb8atd090FyjZ1son2eZcoZ3Vv/n4PG4m4Lj8+dPWcF3cUxwNYbViKqUfno4zaSrCF1aPHB4B4Oeff55STuvgU1kdHigvQtHl6y8+FDXCR7VXtItfGEhgKbVRDnDbtiM1Rgn4z//6d9GZ+CLSk1ZavdZmmyhxfLuB1av/NHkuYIMXqLFwwX/Zt8u589+m8r3p9/8nnT42WhjkZvIiDzzapy4r2Oz4snPND22BG+ObRpjJo21Ob9a24mIL9BWLWcUlz+vbuGV/4TilA0jLMf5ZP+O+XLPIeTjY4PtG3ckX9v5UOKEiN3kZhZp+sr5gv//7kdk+7USkc1HUCzYCYA5vQVKYi74Vd/o4oVcjteXS24aeqPb9f0ezHmg220+rN/MezvPsm4u4XHFlKZMdw6u7aIAwnmd1ryAC8VBiDVbRnO6whWLf1//vE+zHvOrEcxOr6hSrzCvROI2sMvWGejnuBIrVbxx0kK9NWvez6j66444CMRh9EwCaG2nZv+gdVyjOhWP29sUhl/3TDywW9nFudn7fj8mUL+WAvh+Pz9mpLuoRLVX/WeeCRulhj/+WX5azIAbUQXWMUhyA2Sc3BVlF3IP5fO7dRO/dZMdndNDm8TxBYsAoc0SlGIKNbxzCxEPHHs7xJUfjaW4+nXyvLjqwEcWwqXcCRtHVq2wD4BrJ5WYRgRa2PpYmvjmGihNBJho03jEPW/ms2HgkniuUI1qBB4WiRBZFXnV78nLxViJFowQ2Q3UHqlizT74vqwmOS3aHo+2SiPzyA4taS6RAauaNB8ekihL5KCS5QK8fn+wKaxkXQrdF/lRqUfecojnQaEVeGd+RZN7TjFC7fnupWJr/I4ib8GXJXp1ZMm4fNvzdbz5c22gcHGdo8N13f0o+cdY5KA+af28RDt7+8t//Ad7GFZMRVPHv0Z4Juk86iaiIrzoQwDi5UcA4lREBOhyEE17kpokrmQZpIztJl8ZeuRHkxDauu8zgBhV4bL3YrcJW0J78dvVndTjQH++slLXZjOJQAR0swfK3fS5MNmAg9w50A7M1ohEFFkYRjqZOJkf9khMNtqP6kSx4T0764lmGvN54xRFErX+9EGw5IGbZasPeERonZ2lLR+MARe/rfHtL/9daqtJ6tDSq1t6izpcwY+zk0c+avRNIQy2QZb9QWKl1CdnGzwpeKAKPbIj3MMR2uOWnXSNvG69XResu/SayoWm3YJ5Hd4OTXLbPoZ0wjgPuOKJhiqmgQ0zoFevdMc5IWnq78juqmvtqCf2FdTj5/qf4opaRnCQuwL6p/pS30LAUk5Kod4Pn+ccNiNb9Xb10GtfuaZ7fYfbu7pZ14c5XsPa4PVEAKSua5G9Xmop5gQCVkcJjlmY2zC+aCrE3qBk29mjUDOYBTLg2EiOLZQ3cxppqsFXHJX6jIeyhB+9XQUP/NuofFu6VP40G/BEBDSSfLMmeWTKHuxlkGtkRO9No2sgbsMUqUjRUYgO59m8HXTuM5Reoeoh6z4g+XLuazGxn/oy3b74C8FMacJhGgez2/BwO1hn8WZfKN446cr6vCdtXX18ZAo9SBKzocuWnsvh2sThwbeWvvv32Gu3pE6JIKGZrBjzKy7Cz5lvSnp6ejG2F20VAce77V6IyUMf5gaTuRT4TzfqZOSAa8/gEA1SdJUujboI4qInp7Q0bcQMq8RwMPGDOBlnw8As+GXWvCIGmRLyprF+l8vXwIf8HNqgtbbuJQC8AAAAldEVYdGRhdGU6Y3JlYXRlADIwMjUtMDQtMjFUMTA6MjA6MDMrMDA6MDAgot+sAAAAJXRFWHRkYXRlOm1vZGlmeQAyMDI1LTA0LTIxVDEwOjIwOjAzKzAwOjAwUf9nEAAAAB50RVh0aWNjOmNvcHlyaWdodABHb29nbGUgSW5jLiAyMDE2rAszOAAAABR0RVh0aWNjOmRlc2NyaXB0aW9uAHNSR0K6kHMHAAAAFXRFWHRpY2M6bWFudWZhY3R1cmVyAHNSR0Iq8ipvAAAADnRFWHRpY2M6bW9kZWwAc1JHQltgSUMAAAAASUVORK5CYII=;strokeWidth=5;imageBorder=#99479B;" vertex="1" parent="1">
          <mxGeometry x="725" y="492" width="85" height="85" as="geometry" />
        </mxCell>
        <mxCell id="fkhzhb3UsODcdzvoW7---7" value="" style="shape=image;verticalLabelPosition=bottom;labelBackgroundColor=default;verticalAlign=top;aspect=fixed;imageAspect=0;image=data:image/png,iVBORw0KGgoAAAANSUhEUgAAAFUAAABVCAIAAAC3lz8NAAABAGlDQ1BpY2MAABiVY2BgPMEABCwGDAy5eSVFQe5OChGRUQrsDxgYgRAMEpOLCxhwA6Cqb9cgai/r4lGHC3CmpBYnA+kPQKxSBLQcaKQIkC2SDmFrgNhJELYNiF1eUlACZAeA2EUhQc5AdgqQrZGOxE5CYicXFIHU9wDZNrk5pckIdzPwpOaFBgNpDiCWYShmCGJwZ3AC+R+iJH8RA4PFVwYG5gkIsaSZDAzbWxkYJG4hxFQWMDDwtzAwbDuPEEOESUFiUSJYiAWImdLSGBg+LWdg4I1kYBC+wMDAFQ0LCBxuUwC7zZ0hHwjTGXIYUoEingx5DMkMekCWEYMBgyGDGQCm1j8/yRb+6wAAACBjSFJNAAB6JgAAgIQAAPoAAACA6AAAdTAAAOpgAAA6mAAAF3CculE8AAAABmJLR0QA/wD/AP+gvaeTAAAACW9GRnMAAAAAAAAAqgCOwuKtAAAAB3RJTUUH6QQVChQD1ejivgAAAAl2cEFnAAAA/wAAAP8AYjLrtwAAGGhJREFUeNqdfNuOJEl2nNnxyKqu7u3Vrna1JEBBEkg+Ug/6Jf2GfkGAXvkvehPADyAE6EEUQGolrbTcmb3NTHdXZbgZH47fIjKrp0eBQU9WZqSHu5+bHTvHk//6P/x7IIwNELibBgg/fPON4QejgFJcAcDbQ9W/KNulVoAAwiAM6N11/3e/+Fc/uu5gpUEAAMxvHx7+y//6f99cLuEABYcoM0x92msNwWEqbyewST9/8xBWOAQEIAAIEy+fnk3AYYJG/guAYQDtxhzn8D7WT/dS98t+jR0U+rKj3xRA0NWcQ+FwCYCocYNgAMUwAQoUDUL5aDEAmDAjlwHCDABCiDUXoz5a5DhAfj36nDSWZHh5/fkr/EVvtvXTBGwCIBy5oMPWYU6OfaIAAa9DM19wfEl3ZgGBCKv2nc+vEKB9vG9e7YleXgP02Ijca+Wnp90ZW5wvAmPW3gDAcU/aMO9Mn0YAmltw+Kh/M5YtaO83pYDMvlmGiYDAO/K8s/ib16tIdbxHXVr5woTHqo/y//7r+LWgBUafcdrpMKIxjxBDCFoBjd0tRm13KeVgeHwazcTmIw8rX2SUTynLPt6dc1qrAbFtSt/W5ls2uMx9dHrB6B87IKVtpCShTdgqGM0LDLm9RClb/qkhgU9b2SMq25dzovlRVZt0Gp1hmgA27RfVcPSNIAAzXHelz83RFAA2749WqD1xuFIRNS7NvgxTMIRQCFZtRhSAtg8fKwBYuZqmpLAEY2+TaOMK0k/f//Rpt3hQimL8nz/8ofS9HSr3sVx/V/dPR+GIMMVg1xS7701R/fM//ZP3Ly90AAiHCCMq+ccPH2vAQ9dMAg+6/pt//vSgl2bCrLmXz+Xyd1/99rlc6ADU3le5Fv/P7/4xJS4GwK2rzuIU5jxljiDUpB1w8aqh7bsvEUH25QEOEc8l9oIat8Yciy+OFGzq9kPdH3UtSvsKEwIr41nXHWFIiNQOOh51farxqGe40AIrITgK9otq5YaUFBUWDQeKcaWG4/uM/Wus7Rg2pFSHxTuGYVqLF+gqE6+NzsWT93iZoyL3tytHYPH2GWjT5bh76PYnI+UMwAiD09sDlcHlK4lbwO/zfyfXku4039HinAQYCIhu9ina4N0I8vkr4+tNONAiD+bfQeVkzGmNBojmO/K1IPSNSP/nHMChz6y/q72WqcSqGOYSkwkY4kncbpDpnuSxuM+hBdFWHt0ew1we1IdNP5fTA3Uvrs1h81njQY7pIwF9Tv5xF76kR8kP0w777X32yAivG0Dx2rVqmRmVESlDwMz1xboFC0AVreKMUWOpAhAwDVodNqrDnMO1JSD9zBYslxL8hAMIAQlkGuYT1vUDIKP4dfs/b2uTyTViZ4Dd/BFqCDpyqstORBjFyHwhVRAWjbCKVbwDkYunnPMf6hzQ5/3fWT40TL0EUQoAsbSBMlalb1rWb8TO+IwLvLcdsZPPpfCwcWHCDewc5EJjky4SvQMAaiYlF9fwXlxyzkDNiRUzEuVbZhDYyLMk8tbHy7ZObsj5H37/NdHysHF/AE/bw+36K2P/7PJPCYmBX33128e6TykZQNB4enoaqHlOrOqn796+rSVUAIBXheDtU7n85OPLw/bAzC+5A6DjucTDcyjCpBCZ/32JWBb5REvsgI7zHcWKshEqCkBipghx47q+94qdhUtexJlxhXzeLxrF2rT39yUJ3kuUcN0kQIaAxD9Iv8IUTsu414e3/2eA5K18aNDNqt3AaVAMRIiBKCIYNIEwWVNcp4xl0bLbtKcyRureYiFRBCFKV5LpAIxiFCvcEGqxBYUTpO0tW2l+nER6x2A6hS+0/7H4Nv+bdIxmtCQaFCP/DywA5IsfwrDVEHSDQz0E9hT78AWouPl8J9RDBBRQwGj5X0aEMRMBJZdzWr/uzQgjKGtJLceV8xOQLvgLFX6V/A0t0cC4qMR5Le0/YM7PX2uQb2LSydcQLYt67YpXcNjAJOO/vi8JXI0DbPqhCLBv0HG2wEqrwFQ+sX8c3ekuE01LJ8y4nXPev53S2LtiGo432o4aI8hP8060F6KA5he/FwHd8y8oAjnz60EKDcYhRdeWMXFegFUNm0euOfUx86sg1XExusJuf/HHr/sy1OcUz6V8+/DmJTa02D43NYx69Oo5UM2MLm/v+VxLFib2apCySBe42PTMoQAUjSgfy0cz2xwUSCpdJT9sT0D0vOPSeIfy8LF8eI4HIEyJu9nin3oGlRBu+0//9s/7dqDxji6/eXr/13/7337z8AQEPHVkDz5/eqkx0BlBgLDx4eUlYJirKjUbM9QgPYEQdLH+8mc/f9QVM38LuBjx3XffVU4tC6gasF9eXqoyHGb2KSFk/s3f/eriOrSxEpV4Kfztp+drhAiFuguMGjveXkrZL92dbn/xx68Ih5VMg1GA7bH6/fX5Dw9PSMau4XzZ0TT2lJEQJmqi1iOgbrm9ozGrbOD8se5PdQdrW78JbBXlA2TEsAvinA4qUbdTv+JTeXz2YRrXgIjn0F5SVYspoQRQAxF1JGYEtpE6xggVTjNRcgkBdbZHkyxe8CkX4wyv5tLZ+y75BI4jS0eLxn1ki4yYfrrb47xbcONLV5cR690L5xmGqcQgwbaPdOKAFmJe9f8xwFbzGopBH/ozUSPOfzgWgnTi9mUFisxGqGUVoyiSsh4faX58uP9wcZkHF0LhDv9v8MjlnRYguQTOMX/9K/Mf3MNzjepaKLY4wsF0ICn/sE3RC2lyDksjqs/wzpvAPm7OZQdnBaXNZyGstwxqrVaTtzE6J4e7CuJjLq3BRlBx7/6Gt91jk5eAwghPWd8+qaOJttqSNy9VsxPcmhGuyQZ1pC4dSq24ZhMDiHSq3VdRoBFikgixCl8h8VDeaOxdAEdJpLUHREWgJmMLuK83hDBUGWR7RmUM5e0LS7YvzMCymMb3jqLTkZUSJ+E/73NO0160eavo/H+TDgNb8g2VybTGArKwVYwFrEoqZUWxDjmm5K5SphwjRatUg+sMYxMVhiOlmm7nSEYTsipJRBzrHyBKErudPhmIaISp1UMkI7Tiju333z4DKtYgrcPl977sZpXlUTaSLVf8yx//pOtvHMLSdR8KMd6vgQ/7S2aKwwJr+FL18ePHXappFYOEcnza64qKeqFWz9cP9CwuDuT7WNKtTI9gSkRspQa4ECmECvnjd28dlR34b0IhWDlUjpVRSTEa2dW2MNhL1NMUJheIeu/9Cr1IlTPnbRYIpVklXIlk07Lyjk23Vs2GgisH/mss+M4gdMCjveB1jxjNKpHiZP/FLbFBU/hI+2+7MjA/ZjrZ3mIWwVFjysy9CiYqusNLgdXFzaU4TVQ0HjUcYs1t6BreoobhaJJvkxJha0uzXUFnW6UHUu5hO+0c4GL/q7EJQLP51y964I9W1+HAzkMCM1bTCs7AGwAdPZ/uYZ2xlECOyBLgjHPN75rJtir93Iipa31xme/kv+MIBERtYnTjeWXZw5pngjQ+WVHgGhHWSsGEZ2G42eradDGtN4CwxQRrOG2GY1i9hmxncfbGauasWmKjiUP60w/8R/iwc1kzQ/O6GszRIst714m6RdIwszR82tUOxZU2wtyCsW1Dlb6YUGh5+hyhS37WVeYMtzjOo1Fua6U8fe2hn+GO/59W4+X9QEKp5EVv5xqQW8tM0+U0r9Fi0TF4i96H9RP0MVbcY5+GwTczMRUzv9p++aMfR8q2o7oAvnrz9GHblM0ZA1x01kFsHn7tNKnpVByg4qhEvZ9HgIoBqygpepQsvGd9NnfPNRn6zEdFgQ4hVNnZJ3QmrthvFMVNWjPEEs8bKuHGxCBjZ+bCbkALorb/+Pe/BED3eiEcxnMpz+/eXUvThdU6yGpOciI6I6HNNJJpdteFsP7ZY+luqQyW7EH6s1/8bNMeWSjtpivyuw+tmK9GrLpSBfsvHt9tUg214h8B4CL9yduni0QfwsqnLf7rP/7q0xbiVKAw9tA3eN7LLDdtv/zRj9E9UAeLBvBm2wCQGj6zBuBoOLf728pmDjmF0eQzdoeoJXelDa6LtaluftlcHyS6LakyzHjR1R22ZLCu4U372/1lc63SEmjjQfv7azyocpbeMuXZNl+JrVhecGoihVb/Zva/HHsTbk1UE70sZY/18tqXMu0eyVICtXN1zXrtXrRNkrJ1UwSkYxK52nNP3Q85LCcZ495Hg9rZ7xqN/+vxUTULld0i8KoPv3clkQr/gK+go5EaLSdBx2dL88/humVEx7/RlZydFwoHHQQ4ebeggt3gl8lPkDJ5DWqLtapwpJnQvXrPT9WJ4Fdp3RUR9LxQoyPqkC90Tn71la/Lo7nU8GGcJIuLOvxJDwUUsb1PGNkehQBsITToA39h/9s66S+7ZQTgSZ/ny9EdOtJW91Y6OsA4dVb1KttZI9atGVu9fpcNvxQzacmBnFb+4Wz//ZEnLViFwIneVhPy0roZ2XUAsdXnpuMorTgfRUEb2JgJ7Ew9uM5vZPJeXo8tSMvaT92HC4rrpc655eaBzvgi+S904ut6wJs3G90RtYkl2DkcCM8lqlVclnSDIvZYMLVHMjNTeiymJOK5cP1K7v+1YA8oeirGNr3asoNF/pdt+fJivZ+er+flGAG8f3pzclH556U84ui90qv/+quvuzzZB3F4/+1Xz5FJ41IdKdbPnt4WNT8SkLLJSRVv3kJmc30tERDiH77+zakFiMbzxutj2UtMf5Q2UPC7b/54LVMBfoD9m5Rnojje7ulV9GJY/9cEE4QteQczI9yeSwSySz26+41NKczmI2yYUUNbTzoyt4uuApV4KaiRfsSjyeMlcI2oMaKAWimVYTayY6x/WQynFvTerkNUZwMyoxKOhg+cxeYGltkS1QBY3As5jbJr2Dk7dvputn7GHNrDizJS/sPyb6/RYmJqQUFtpy7qqGEhAU/+7wdcPjfL6P6/rUFSzHrRimpaQ2qPlLlNjUEPGGKos1MaYl+FsOTzvXA2SSFkWQ9Bu6jjd7cULmd/8H9cWupvMcmRBU+aaP59G67X7UnvNTx2zJT0/JRbEHQ7bK++aJVzZPfBoCjZ2tOKUAI2NmsyK1M71P2Cfgj+W+VwRxfjtW+JdlPjWbHRUQ4D3txZ+eAbuh71NrxR28l8IaKn3qNraKH6ZRpQp1DU+9+HsNq7nbpZEOFy9mIUC6Ip1UlIC5hEusyQEKapOxyATtTYvS3AwlsNsS9lkaa5XdEiOq2a/Co5P1Vzwb0j1tgC+xAIc6KWORaZ3Gsr43OWSYRRDO3lgcG7TZYaYdbkC1zgLp+AHO27jU0wBNbwtZS0srZm2gChDxfsitkU0SQS1+JK+gYavd3VWimSLKZNFcVmXduRBwPYHh9mLR9IYwqB2D26z8ZWF8bz88ceBYQJM/Hm3Vs2GRpjgwJPb88tgE17y5Xu5tfjv6CP2yd2JmqoUhH++3dfjQbIschi/+TtWwAKijRLkSS83f1X7//07RVb482kgKivn7b/+/Lsx0lJboGXIX8AYMBboASqgHFAarTGiYf6ftaCyqw+oZfSBku1ZzuI2NBYULIALriFrfQG1NItbcm1KrFng6MP/fibdC0g1FtS1A6ZGe9e9JNnbLVlvo0UKnqoi9lSG1vmPGja1i3ZI9OeDPxIPNHqZRMUo8fb4fCxjvfDrxipPJAs43K4LFb5YwDq47WmEJ2SAY/cQe/EuGlFSy/KXojjwfcknZzJdMzZNujCJO3Gjqzjx8LAn4rz66dHDT8s/rXrSzruWnN9bgU1spUNvqxbYALegAKTKHAEW2V3nmK51y22ysG963psQWdWecQyfbw8ApQTXdjTw3Ne4V2SRPBNXqgeYnl+1iw3jH2J1quLgKOXd+ilMIm0rRbi1CimDELu1Agdi2md5DNbETEZvMmLteDcHwWMPrd+mkpgUhfJprVPuSjpoVjSA166hpov8vmLPm8LnaiB/0XVSDy/N23NeObscdRYVfpwulXcMFvJJsfSF9CPBC2YQm5dE+NYikJhN56i/7vWp4S5R6KTvM8mj/XsjJjn7qRona/ipI/BhOGxXdTzXI7enh3apL1DmrTnRt6VRkvOMlAv3aj3LmTk16CxjQBTm8COsTJtyhGyq8HIBrbsgpn6miwSjdo4IiSfHK4KvUQbbfDcu1GMj5ezrxHx4ZIp9wBi2n5RPPeUyvgP7G9+9g7eht9xwyr8UD2aTdXZcQIPZLSqfCoGDbpgV30ZCUrfYKICJRuDAhZr2gWNl/rxRF3mN99cHgDk6dGe/EPAV/6Azib2+/2WeHj+3bvr6C9r4OxbCk8Pjw/TCW0PrQlxVrKTh3rQBtRl1Cxu8KK4RiQiLA2EZr81D3VXT6ZsVGzSkGon9QQENbEUEFTW1CvHM1PzXdNEstxJth4gokbJA7braacAPnTORcv6P22tTwU9Zm2eBcau/63GLGBfmhlbxwrh1vDdkGxPcCh6+j/1fjs1tB39K628t9r/9BSt2+ccI9TyluyvagoshImSQ3bf1pofkEdg20xwoOHdd1YmNnVaZtG2yEaYrguIPHU5GxItI6ZmLA1wuJn5wqb4pqR9uk5D9PvV9b3ByvCQEDrdNIslgwLREl/6ScFh5s2rbPAFzLPIZZy7ABDO5ucCgGYQRHAJ4PziVv97C70fzO9H/s8WacR2gvx2MlmwWRtWmkhmB2n08//nmwKOtc7BXj8f951awMds2u2ZuzHi+HsBzGDQ2zIOi+/vdCe6UJptF+6gaR8nc2phOI1/C9y23lqazxwaJWLvoQc925UaXzCfILTWWoOTlnKA8kJsRcM8Ok1o9N6MclOG0tNqWx/WTfvsibB6tf7fBde762av1ra5nZnDkr0LAKt42ErZSuayO0WN3IpApNVkvayt/6Wgspy6XZb2Kc6qc/9gIecz7xI92oQSw2tUQSsAlPkLIt3Oa+C5rMlYu64broHKgfm0vadbk1UzdRC4Fnyzf7yWQz83jepy9cWD3nCriNbgp48fKrYO8nr/G3EdRzkaQKFhmFf3hpyTTraKZgvdxSxZW78EoSKUScKKjI/1pY4zvVQ6gxfgf3zz65uaJmpIRVWjVRHb1smWqZOGIhTaA2W1mTwgQAvqnV+pfmFgZ1Qya/hDemoU0Bw8zcGsaOQXgRZxE1LW6QMjFbUcsRDXTLRR4/JiL1kper7Mb62OxGU6KwDbfVfsHoMNH6yO59u6IyXqKQMBFBzh/YuI1g6f7/g5tqO+2S6PmEmU8uctwFMf+E1dA10iC0l/l/9fWepDk9Ooxqr31by+sP8f5gPA2s80BipITYxJmeU8B3ziFz6u9z/067h+r9Dr+Hpxs8t5q55pr4Vnz+4YU73acZJDX9vSZeBG1a5716mULv8yEXqW9OwJhE4bL+A1hDIne1x/HqpTHjkf7bBjzNax2y0887xZnM7jlyNf7rSa6rEf7/Oyytq5MD1jzWDCds4gi7mZg51+WeTueCup3xuRhiRj60T1ePz4VKOKuexbSSJhxAX13xVyHsg64ajMeg/NYqOPbtKKI0qN3/OJ3g7Vf25LpsBaQ84OH4TBGrCgezbYhJQealaBAdRVr7e+JcsQrCB7m7mW+rzEqBhNZaMVl705QULpyr967dxFdVd/oLVOetlbgNcuAG/Wm70+1n38QpsAM57LdqUrT/gix+qqvXbAG/AG7oOV27ZLrDcll1RLXC6hrclvjs3y6999e43eNdp0Jx1zVEbrfJtEmNpPWczCaSTwuV6f0btaG9DOo2FbT7wclAsc8NO1/tWf/fz9y7VgJ2q0XyiL3z9e/vP//vtvHy6367/O8wir/LW9oVMGDqJuazDI2mlxFkyY5cRJjrf3IY4csuFXjXxrtNnwACvWdqDPhAYvHZsDWdPaVN/u9d1+LX7JX8cJBRDXQA/nqwn03TxvSsD7chgrYGxHDeyohlid9dpymvbPg1NYWtrOIViDF8QN0jvbwAlbsLEDDu1F5g7sNaqxE8jf/rhuW83fY7jTfejjn6DZ+vf6/b6J/wZ6u8YBt0ztEPO3hBTjcNbyqN4vJWckb4QaDn749XN7MIn+lZEXtV5NtXaYLiS3YJT5x2vZeEwBntWk8T+5N+3pE+10/Rkc/uoHTueKvufqSOkWkK+7hs7Gdz6ipVJJXRGtTXye1e69iQulm08T+pm1m2qyQHZIpZa0jWkucjgveNmLlvO42Qj7wg6VuaTJY2mfPmDPqVM4PXQ5udI7BbLqJpRWGmkGTPNoMzckx3iTPn/U6/3bMsQJ8A1fFoslxNLL3Db4lGOGcVcRv+RqNQurclTKUdH7XD16hNJ7jeTl8GN8jujhFpNHYK5Obvy60gv8Ezz+Md6QzBoQAAAAJXRFWHRkYXRlOmNyZWF0ZQAyMDI1LTA0LTIxVDEwOjIwOjAzKzAwOjAwIKLfrAAAACV0RVh0ZGF0ZTptb2RpZnkAMjAyNS0wNC0yMVQxMDoyMDowMyswMDowMFH/ZxAAAAAedEVYdGljYzpjb3B5cmlnaHQAR29vZ2xlIEluYy4gMjAxNqwLMzgAAAAUdEVYdGljYzpkZXNjcmlwdGlvbgBzUkdCupBzBwAAABV0RVh0aWNjOm1hbnVmYWN0dXJlcgBzUkdCKvIqbwAAAA50RVh0aWNjOm1vZGVsAHNSR0JbYElDAAAAAElFTkSuQmCC;strokeWidth=5;imageBorder=#99479B;" vertex="1" parent="1">
          <mxGeometry x="540" y="584" width="85" height="85" as="geometry" />
        </mxCell>
        <mxCell id="fkhzhb3UsODcdzvoW7---8" value="" style="shape=image;verticalLabelPosition=bottom;labelBackgroundColor=default;verticalAlign=top;aspect=fixed;imageAspect=0;image=data:image/png,iVBORw0KGgoAAAANSUhEUgAAAFUAAABVCAIAAAC3lz8NAAABAGlDQ1BpY2MAABiVY2BgPMEABCwGDAy5eSVFQe5OChGRUQrsDxgYgRAMEpOLCxhwA6Cqb9cgai/r4lGHC3CmpBYnA+kPQKxSBLQcaKQIkC2SDmFrgNhJELYNiF1eUlACZAeA2EUhQc5AdgqQrZGOxE5CYicXFIHU9wDZNrk5pckIdzPwpOaFBgNpDiCWYShmCGJwZ3AC+R+iJH8RA4PFVwYG5gkIsaSZDAzbWxkYJG4hxFQWMDDwtzAwbDuPEEOESUFiUSJYiAWImdLSGBg+LWdg4I1kYBC+wMDAFQ0LCBxuUwC7zZ0hHwjTGXIYUoEingx5DMkMekCWEYMBgyGDGQCm1j8/yRb+6wAAACBjSFJNAAB6JgAAgIQAAPoAAACA6AAAdTAAAOpgAAA6mAAAF3CculE8AAAABmJLR0QA/wD/AP+gvaeTAAAACW9GRnMAAABVAAAAqgDSgXvpAAAAB3RJTUUH6QQVChQD1ejivgAAAAl2cEFnAAAA/wAAAP8AYjLrtwAAGjJJREFUeNqlfMuSJElynKq5Z2Z19Tw4M7sLLi+EUHjBCRee+Ck88Bf4e7xQ+A0UoQhuwApAkQUfO7OD6e7qzHRX5cHcPSIrq3q6gZCRlprMyPCXuZmamnrwL//LfwIM6vvvvwdEAxQAQAA6Hv78MzoOuLvU+/2HpuJAU3QUMQyw92hv2/k/fv9v3rZrjwvYaYSD5rnUP7z/+FRLGIABimiMFvHnD0+XiM5QjIfTAHAoJzjCQSAUPdBCYf1FfSh2KxIARBg0v72c//3Hp391PgNjXDRoFJu9Favm4NeAQY0/diPFZ180wqOjYRAwIOb/qrgJ3VB+YYa57nQYosMIgsjpQN7wyUvZZxPZ9R4IQ0AABowQA5AZNAIAZWQTEa8/17up+YKLa77oHLwJE6BydkavCWWPuX2yvs1hzY4EHLluNLyflE92jwan1QBBh7k1l1e9W2rNwf9LLgEQA4ARPafEkVM+ns6AmSYgIkzCInJhZvOR9+ff4dF7UyLC8WwwsexummERAiiCCVF09s1zmNrGz2kTuwnM6XjZRjxWey7R/InXrwwQPcZ/JowQ5PFAAtUonSHmvVwjzJHPdeZayUCOBCQArXa3TQfIKGOTIxwxDEkxe8xhGiJUAcJBNFBhTXNRDtF40SOM3+c4w1g3HPr1u6dz9RUeT3boUvrb6+W7h/Pb6/VSpBAduVqX0G8/fGwBAuExXoPnUnX5eK6E0wSUg79GfDy8bSiAhIjp0gCY1uyGqZy+HmgR1+mLc4VoHcE3V506qpoBBXuoEx1WQBpWGmB/eHjoLJuNzPnuHSBzZ67r+/PH//xXf/Xd+akzgCiiCNHV+qbpIPWwiEMnEFeGCX73G0xXkE+uil+O8T+uP787lKqYIUlh/HI4/fd/+NMvhzcGDHutknFmm1tLud2uxCHau2Mxj8LeQtvXF/3bx+++Oavm7K59GxDgyEdwvwt222xYkWCln1pTcNL1u/PT757eNRYAVRFGDxTphAirB2jUHgBaVEAHu1igc+MUxaHH28a/1/tAObX0GhojIw5qdDrUHD+K093A8+80WxEtcIk4BLyNn53xyFZbOTXU+10/d/f0Qw4w7r7Umorbb6IFzgV9OCrQke7qeAcXwgDHI5YNjXiBSI8t1GIA6VZghPGJmPXsEmA6dm4FMMjhIAOIbC+n1zN26Vejrj/dCYYRjme3cQKEaURbpMy/szOdFAEznPE5zACqGPiCwb9wrQAxOqOoz33b8CIxe6xXo8BLU0BHVZz6iDDFANCJYlSheIQFbK3qNtbGWv+YWC0MIUxNX/hshVfbw2dvf7/aW4UjHECv62PCKwSGJQadoUN3Le2avJsFGkXRGWU3qvUVbrfbGCGANFECDgEmwq5W2U8O9c+AJebYjADksTCall5z5DnZQcECxWEkJeb9NyP3Go1uPkGudnRGZw6bpjuxx4RmjnE8I+2ix4gjM0jrIFVlnyODdYLILxq8iE5kMDKRK2rOToZqTj+hmDF2DkZCZLvg9F0TSwKYH/Y9Ru+hjxXvjzt/C3b61NES9TOd4niSiWtBS6RNm/Tcn1U6daWV9hh5xDlaevjPX/0e0YrSvsIxwBB7K2iBeqxBmKjHeihjgXM8YURjudQILgMOzP7162pkDwHKH97/+NPlKbEbHYBAv2l6/OqHaAvQgSbNXvD3737uIThA0RHWoUOB3//m2x4owtoCNP74+NVBP72YoZEkwGFZE0gHPl7biInOFEugTtZZPss1oWVAxSI2aOrMfylac6kD6PNrgu1+83fiY2UFi9a8REBhtBiGwkzO6LTtFriUyMkKRxnI0lWqVpWKEh2CxmP7svVP+29z+QgPXEglKq+57Tn3f7YdhphR2KA217p2O2PLDm+dUg90Bohw9ACgAHpsMDa9poA0t5hwKDBzJCPQiwW0YpNKpGCGon/u0AHQJjScUS4gAU+ngM6Z/4W3VHcGSYsrFxQQoHb7f33FZ1Eg8UbRHBLTEDq9wURvkFFl/HqLEQlDikf/w7pt9Itd4Jb2KudxpuSImh1J8Dii8VjVFyPtsw85b1t4AVU4tagaw+gBYGzjMj18pybImwnk7pEakQMEY3MugyW57YNe+fsuUK7hWDOtjpEUbuh/F5p/DQIGXsbNERo95j5YzFDP5x3zwFfT+pKuyS0fI7mKSSYFUPDPuvbTxtmfMOqIRhmWXp3SwM0fay7j2ScmLgXXgq6x9XMTtbJFyYWyaIztTiXy24xg3mBy9V+J2X8Fet+N3Ddpa/r2QZAANVMLUT02oMNpQIbCrGqz92NH0wEN488h5A2d5f3hZEbtBJL2MKAr9cfHr94cexJ1+fAq9MD/UWsMM8NDABBV3Pvj18VtJfc5/h9Pb1rg4DZy3y3/j/DYyIuPCAgIBazhO/JuU63oCfjliHo4Ggyx/PTxndkImZ4TxnB889W3sExmMpW+InR4+kgq1qR1woxrHP/b3/xDMcqYyJGNhvVf8Y9Fo7O5BYsgwiXmImeuOTzrQ/1/vHN114jH3/5wDJTEqU7aM8w4t2YuXKn06AWdOMzcIT2OHPoI/q/r02PyX6ISJCtW84leMp3OoBgBKGMBG8GiB4qBGMYS6EBn+VgeOpN+TqAwE/IS27wCmYQAQNkw1X7bHY4FmxMZ4yru/5o46UJrYvMEs6UBDQbHrlKMwJGwcgYpZTi4FjwBLTL+OUTEoNRisVoe8SApyvCAPUFEeqmSNzuSAuHGEwRy5J6OdzetaaJEJHPyebs578oUqRV37rISTofBnRvKB5uKwRonoYBB7Ux3kNw45yTHTLYX04oeM/fYpU233dp5l5tPtt5ozsxycsZs4AuvsBIUhLFzWZ4baz5/xPzA86iZE0EqeMN/O1aeM0Y7KefYm+DdlUg/s/S9ud6FushxL5YliE+BGd83G0AnkIZN3KbD1OTINeNvrOrLXWfmE8OzKWah6XmHZvxQAAEXb8zg/d2TsdAkmJ+XPT7Rlc+/0po6MyJWD7g0pu1ZEx5Jp0xlFSA/dshADQuErJmrgTPByAhJqHgPqASLTu+iG77IAhEwjEGlW8Cgpb3ZwJdMxI37AIDOSqsnM2ZmMn/7pG0KRJi+lm1EogB3q5s9Wg04OY8ANPnfZVFFqOpl1Jw06gvRgeWBBiY3gzCg4sasq2UPjAJ0Isw+y3r88m0/RxYdBXHMdperMmE0zIQK0+yLENZR08Td0xaOagf5INdv3z6KrYcbLj24XF3OfbW+Opbax8qNukA0+3AlVYjpLBJHBvj1V4/7tTUBRw/804en6Iv/2OVLTA5qfxUA0gtOxOCP7z6EdQvPBeCrr9/u92/S5gfhm45T21kcZerU8b3KqbcaEortrFM4KE3ERaBIVarpWmdE6W7ygWjhQy9abWaZtbjfjB8h9DCLW2eG+pgOMqZNftn6t7hxO4SB5pHeY+d9o1hVOMw+hkMUoEP30e3UVQOyQSaaVZ+bjTPFoVVm4XWWVgZXbirT6bk7EIYt7Pa5jBh8rg11BHdx+5Me4GVkIGbMXuU8BURAiIKODSqMbL2H+spXbvf/QGB7/3znkxSz0JL+PGnC6SNfil5MKlEcE6FZLLx9/hemMeNHicRGYKPIGQVmfjIDcA5tVt/toUQQ4BkOIGqPCrbNjEl6jNLIrVOYXiZ0kwWPdPXlUOfYPTqMMEcB5ovGP4LrsLWbtZppds77bZ760nNWvThSdbLWxCNPiKQoegxfv6893fhvczf4uyHtPxkjxwTIO2bmcy9Ngx9TEHv6ZjfjmSy/lC9znw5XrSIfQtFnnXSsonIKqBj8+fxq5KpZ5NekzLaWMjJlZmHCpDhrbYz9/H3pNijuSvDHNMCFgp/XaUUO1szk5NgS/8z6j+siwzzHren8AZhK3pYe/CwgBWz0dGhz3+0dR2Y4NzgRBnpWjQNgWoEjrDe90TfM06TGDmOuh25j2d0hCVjtID2zqrISFCvT0iq9af2xtR3HKACn3k/AqbeaygxRsBIeBbTIQFE/nt9ji1VZFBPVUH+gSwEBhss0fnUyGDRjxAWILtR33zyYHlIPJwKKg65/+fWbY29LCGW6Uy0OP/7sxkMvbeRthojGw48fro1lIdkw6Ki+vn1zCKio7mQy+Ib63buP35575yhnEy7Gsbe3OB97r89SiLFuEIAyuMqNt891yDJmTvCqrE3qZr9QaQtpB+lPWxml+7EYR7U3Had+TUhfBFCttItPBwWC8HVJV8KpEgqzaiQ/EjINTzIzo1UUyASsg/qbdn1sbWFkAsU6qJ/A6lZBTZHaAsI7sL1m5tewurfU2ITgyHLdTOJulF5jQwyF2nYlMOKU4bzoGl+Azn6VFJyio8z0cxIzGbndt6vsM4c6Mh7esbyrnbsJee5+dlPmXVCcm5m6HeBa5BFmlku6v2Zijxe8p2P9q7so412Yy6vupnO6UO5BAPFs8Sd6fWVlXs3ntyI3vMt/bsjvgZQSblKejjE+ZX2bFxQHPb4bAFds3BVdNg46djjuBWnJLZiJuDWzG1y0/zCxA3fiAW7/7iZrfJgRZz8LAYlDNXfXE94v/tx9ueD5rEFk7SRs0+I45EYGqhlCN8OmmVKfbQ2FKB682POBcuif9sIz7HWb0/xkTeXfLMyODREKKNymRyibkAmd6CFAJculk4m54TaGVW/zJN6QAeIcPLdpA7op0T1cF2Dtkd5o4gSsavkXIJQd1bf+Va6tUcGViEKIIKLHV2c8dmXl89Bn4do4yuedOGu66D1g14tub4r3JCCMU9Ob1oeUMafKKmjHiOJWf37/ARTQDscAG9ATb5igbYC9AYs/SIK8wS79AhHsgGY+TyOusm9rlbTBXmvMkm9SF7TxcPFff/3Db/pTj2Rxw1SP/tPp9L9/+bkRLaCAicaM/0BkpX9yvs7/5/l8bbgWaVZMJKI/nb/r/N1l8+MDKTkOFQHUzkFpDyOnk/mG52TvSsOfZQKIzjJnMIZ7Yy2Zb00FRt5Zxa8v+u4JPXk4KBnnc+CgUUEYTHxWKLgkedoVS55FiqEpNlA01h871UDAYDsoJUacxj7R8uKqc2PhLvjHTYPayZJixI/tlmTvAEigqeWlcgGz7nItMpD69PXMTvXYGN5wiqJe2XWTrMhttXWOS6e0MRLKPpOdqgnc9vmId+kUXq7yvr743PkkLOAYoLyLwHtoMJjZ6XMAlUS7MTTymMNmShdfWPDbTzYx9pzNF2q6EgqoCgreFA6JveY0r8r7LcBaz+Xk4baWmHH4tYg99B8j9q7SuJbwKGnlWJJWvpofzzw6xCizvMdbGD4fsh3JeDZ/v+Lbn/EZn2kCd0/RDnnsVCYpt9k5l1g6d2PHxA4H9Ime3E5Smt7gVyYYmbfdhowa9nYMI4uKu2x0bd+Xm9x7gXn72P27EtB4/iq03FSHdA8ZF4c1Mjy8ZO6zUh54jgimi8koM9R+SclP/h9gpOa+jnm5Efa8gHAJbbq9PHhhaPBuOxwGQMZU0BdP0Wb6JioToZI8CtECHw7x7jTaK0IKXp5qmCrukXUkB9BhEbVHETVcVDpU8qB26jy4hya5Thl4aD2sYq2MZ0kgslpZH04FKGG1fp3rOI5XAJB9HBsq09iA0Vk7K0rvaEbd214Yh2OBSx/5bKQnJ6IUESlyj+IsCsQFxz9c3/3Uz9j2M8J8f71+/c1DHA7Ju6xt9aGcfmJc67Fu+CLgeGjlL4ivWyhFgBBt0z+A3wGPhUlaT5xSAqzlmOc/EFtsjN067gB5/rvpsMbBDkMdE+cTYRsuWZPffLB6zLNZTD2HqEhdQA891aiDqx11y6J6LgH0ql5UhnQjtXtFw6QBQMXWiCw6dT62LsBUGR5db1qrUpFHCrjzI2P98YnLqdiL2G3v9O0mlL5qR5xx8O1dVOfKFO0BK3vYYgMUg5Z0kTav5lh2R0fqsTl3CoZrjE+EA90UQPBMU/Ti9Woy+9KdL1+zl0MpOVRq3tzW6sQWhJ49dpdIchdrF5s8feowYI768t7tL/Z5mp3DOxiiWXpcFfFscLFlvrH1WUSJ6VFXUfGZJw4rtzqHg8lQXIliRihVIAnUR7N91MYpRqd2NCa34GQ6QkzJ4BAOTG3+84W/WYm75fm0CdRfYbactHdoF6X3KpDt6SMdziUib1Jm7WiZXYrr2JEzHvRJonquSARa5tIIKVV1M2INWQ2tYhIqTtXQSO/5a2LhuiXsuxFueJ4SczDacMWIPVNasPvtOJk02BtglN8c0ohDco+stQfQOJxiH91weKgGABhsS8g9XBcK2ME+z7CmkjryjMNBw5qGtYYOUgyIlXWXpabbxn+35M8MHOzsgSmeWnWxydsM8mOU/UBcA42uyXAWqaMddX3bdFTr0Yf+mQB47O5v6lOZkRwBRFFcojzB51IPUxcoAtC51M4uXtNYPJLrpHRds3w7rcxW1ZCbvyY4qMdjnivC+XwG8KzCRSuiYCinCUOk4W6XYwUDE3LntqjSb98cq4Bhh5n58KH7350e37Qr0KYULcJxifJ3P/5yLhUos0WWXi+l/vH68VxUe6buIxFs5fLwu69L0aqL0AjXbyvr+18OamHQGVMs4iAdopRSNkVTsiDG73//e/p2/bdItNH4IQYo7zKHVI7HPDU2XYMitZNoBSImWWjBetOvb6/nt+1Ka5Xi6Xh/ODXWD/W0WqejsFyifrCvUQvLSsdEOK6HgNkHNObYeSmKO7hFzxEO3umgrNNvY9SthLjeUwje6jZjFjFOms7i1yiNDuP30rYBoHqMXbjmZQYd0doUa6P6fgDb6BLnzh1szSau2WfvQJt+QXmInopUxFUNQJGeUkTVVju7TVhe2f97WnZ6tECKQlb/bm5Y3RqV1Fz2Mhj4/FXHKjnOc37hxRSOs43j8+EFNNO+nQqOK5XM3GbWUaiAYxx4VnEUyczE4cXebr6tzkr/DbxZVc3ZRn6b1aBNadD3ZAbXkfN66KiiEBwcbsCAD6OsSCWxET0Pf8dWO1sFeIZJIcqOtg3PetSej1tvdcCYuUWW3J7ffRm/7e3q+V8rZd/bxh4u0K+hQmqXti74dVdHwa0wf33+TMwxQaGDigW0Z53q5WtTGdwt/v43r+L/NbScyJU2an64cQTzq/ykh64FhQbYB4hvmQIEWkrsbNAqiDJ89QzaDg5AnVE98o/kplZ/6IgRLwfWnqB7SF13J3o3NJ2e5Rncq+PsGeh1AneUJZcWtmcOuyZOw/nNTTtqSM5DZF9dro9XFUfK6HP8D/36cGiBHpKpQtBRhI+BxnKJmjWxhPcF0aLsdJs3dNXBKuq2RoUCnbhUX0+9nXqnZ2kdEEFcLqVz2wJb/vf+dAZQP+qST+aRAMuWM41R6YD54xlrEAZ69UAg8ycdeHvxf3jz9rfOon2k7rKHUITrGUjRcaEij0m9L4ef2vlPBUmGzTc+WL3p9LANfNpIQTyo137Ng2ChIqLF9cHn79l+QEu1djh1/c31ei7XCxIXTP1eqIf/7/lve6hqBbYBD2+2vykPvUxaRywjSCYj+ZwVAsP69tx+eLommX3oQaBTreCD1UJJvBQNVE+zsXwsx7Hnd+/RIHnrggSnnk8Hd7sBKEIPgKq+nno/9XYp7kQZb0Do3ZcW3dFpruMALXQ+tH7kufYX9/8u5GSivom/9szgXn4y0szYSaBSO0VvP5pFac8iPHzD3cVn5OMxaZLpPj1K5ls5fUulSUegy9vLNe6G+mptJ1ZR4aXP17o8iwBp2DFPTSwiaLRSbA5RljFh3E3mO2RVv1p01DpNPg+aDEh2s0wbB7v9cL+ULzazmxGPFylh6Hzic+jwPNv7mmhkbSdxSxPvZvZZf3IQo9zsREHjpSCbYGXWS3z38/Hf9KljbADqFod5TU5qNwWfU/l9zhfTuxA9KF1AkYeTIpNWr9Okcfe0be4XUt4VYrqpqVMHBi8wD0LN04xMAsIeTAHXS3f2VVkExvtPNq8z2pmyHXG0sYqqu7USxvujtAMFysMPeQqgKk9+xqXApTSWkkYlhh1EURlagBvtiCapNqsjE4YKEltn95Dh9jwFE+hi1gumBCoTrUmE7t8ylal0IIpQ4ZUC7UoRMV0xZwVkmIm3O1k3YmcCtrCYm7wDGDVcAI18d6jvj5n2oc64+E/H4zU+YuM81g5J/N9vLIIu6kf1kxrYi9ZhdxW0HrqWcV4wmAvTWm3ng1pJIigZQfVAC6CgB+rlcs1M4/HxtI7N5WQnjL303Zu4Rj8IoHAuyZomqIRP8sMIqqkjiEvw6Vj/5y//+KdHNlYxUudm6oOeng7HyUHFbnJVagG9lFgAgX5q/dvz9W27gg0I2AZ7uKqfcf2lXHrIBGrWRXor1/7Wl7JTUGIc6nLIVK7/lGUk5bRtrUBqkdYO34eC7aUA2FIjqozlFWZ87ogW8f5Q/nyq51LE8TIzUI2Hq585EQ1J3hRj7Ewgiq+n3t70BnahwxDjShW3Hq2Vdi0pj8543FrR+eg2CYTU/2dJ32ET1UwCZ7W0apWpGaj3Ocb0FtuMzIXbnFm+tCCPfRuoPf1fEQ5yglsUSVFh+/Y8Q9r/VETtxy9H62g95r5gzyoI0Rw9PydivCPB7qHweB0WYOFGUACjblrf4Wb8Jc4fNzeP8vl4gUr6AniU7LLgNWRZit2p/v7SAzWVMjcFYtEeRbT04VrShzzFPAW3s46H/Sts1ivADIgmOM9/3ibCi3iOQNCOifC3w8ivX7w9jrbreibFkaRgOoiJf+IWdK7FmHthPzv78/IWh+4+T0VunbxrHXseaaGYFxc58KlvP3E/FnobBPGdQLDM04GAlCI8vtLiZxwQmZzHQNPCeHfQc9Ug10skdiUpCrP+oR3TFFPPxR3+fUZR3Pb19tVKuSCdGmdCAQ2f4mLZKeaTRy2cwEH7xc/Kx0By8/P1ijuOI53xQtNT5zHNOSSUKFIeNM9KF2+t7P8Dr3EH0NvNGHUAAAAldEVYdGRhdGU6Y3JlYXRlADIwMjUtMDQtMjFUMTA6MjA6MDMrMDA6MDAgot+sAAAAJXRFWHRkYXRlOm1vZGlmeQAyMDI1LTA0LTIxVDEwOjIwOjAzKzAwOjAwUf9nEAAAAB50RVh0aWNjOmNvcHlyaWdodABHb29nbGUgSW5jLiAyMDE2rAszOAAAABR0RVh0aWNjOmRlc2NyaXB0aW9uAHNSR0K6kHMHAAAAFXRFWHRpY2M6bWFudWZhY3R1cmVyAHNSR0Iq8ipvAAAADnRFWHRpY2M6bW9kZWwAc1JHQltgSUMAAAAASUVORK5CYII=;strokeWidth=5;imageBorder=#99479B;" vertex="1" parent="1">
          <mxGeometry x="633" y="584" width="85" height="85" as="geometry" />
        </mxCell>
        <mxCell id="fkhzhb3UsODcdzvoW7---9" value="" style="shape=image;verticalLabelPosition=bottom;labelBackgroundColor=default;verticalAlign=top;aspect=fixed;imageAspect=0;image=data:image/png,iVBORw0KGgoAAAANSUhEUgAAAFUAAABVCAIAAAC3lz8NAAABAGlDQ1BpY2MAABiVY2BgPMEABCwGDAy5eSVFQe5OChGRUQrsDxgYgRAMEpOLCxhwA6Cqb9cgai/r4lGHC3CmpBYnA+kPQKxSBLQcaKQIkC2SDmFrgNhJELYNiF1eUlACZAeA2EUhQc5AdgqQrZGOxE5CYicXFIHU9wDZNrk5pckIdzPwpOaFBgNpDiCWYShmCGJwZ3AC+R+iJH8RA4PFVwYG5gkIsaSZDAzbWxkYJG4hxFQWMDDwtzAwbDuPEEOESUFiUSJYiAWImdLSGBg+LWdg4I1kYBC+wMDAFQ0LCBxuUwC7zZ0hHwjTGXIYUoEingx5DMkMekCWEYMBgyGDGQCm1j8/yRb+6wAAACBjSFJNAAB6JgAAgIQAAPoAAACA6AAAdTAAAOpgAAA6mAAAF3CculE8AAAABmJLR0QA/wD/AP+gvaeTAAAACW9GRnMAAACqAAAAqgA2RdAlAAAAB3RJTUUH6QQVChQD1ejivgAAAAl2cEFnAAAA/wAAAP8AYjLrtwAAFBBJREFUeNrVfO2OJElynJlFVM/MUns83oEUjyQIQTz94jPxF99FL6cHEHCAJIBHcUHyDkdCq53r7gw3/fD4yqrqme4ZLgEFGoXqrMz48PBwtzD3SP7Xv/0bYZYgXPxENCH6NStQGh+enmRcAsXoTxAhI45GwBD69Shu5NNPf/JBeBYOOgCYgkUcH/AkPq0mAaNemv7653/57pChAPtvdCMvl58ECRjnUvI2xn6R/PjD978WPwazUdAoxlPBP+vpSSju9ZgIoo6G4K0iGSBoADAgwCbAgIw6xwln/2fXon8yAAMBBB1ZEdEACAb7RQ8pAgArHaPm3if3nwIo+HFKFUCHCcBBCBEAc8wMGiDgFL/BgCMIGXQIjVtdhsa/bYxLXZpAsAt6DpFIoQ9pnubR46J63bflPPOn69c/uX/eqJGAnB8Hw0QAZg40lSSACGZXYrQaQICN8yLUx2UBCAggLLmLAKZiykq0kJNr4cUSS6F+tFKvZGZGgyAQtnuXbQSzw7GJLICDzmXfF78p5g2u/aI1p1EWnepVgYCDCCG1SLvye8qKXzp4jonmfe3p4393CIigxgypBIQgRJe0goFqCA2BMAIWEcJBGGhGCzRCJmCm7RSfCRFPYiOOMc8CD6IBBxEGQBMojuKjqTUHrDQ1kcYCAR7yndER1M0YC6NGE1sMwckg0IxLHMgVnSIGYNQ/+/Dz1LFg18Y//unPhbRYgW4a8yeOLxgLBYfif/32757KdBYEIUDG+8vvixtxAE2pPESx2Y5t4TjVprr+0+9+XVsBRAMMZyuu7+q/wnWunlxTNH76B9/GMC69kyDxw1/84X+Q1BgpFxnBeC74o8uHxxq7cjSivnsuaWAj5wd4d9Rloryr31qNHCqlGsVPBW0Zc4Z8iE0g2OQD7J1P80g0ATk/chCQK3GE1BCMIs7pyQcb97VBlBANIorTEvcJNSVEdVMcVGCMKugmVEdEd3P5SAEq+xxEGSqkbe3cWVaf+WXWkZ5jaDG2H9Plf3UZCGW3oAGEMa1Vl9+0Jh5zWMbdkruLynXC17X9tn6uLurzt78g+2XO/Jrb75S7N9YcPC0TKQveMzbAHdks3UN8Zmxp/14rXXfoxflQ2kqYWUVsNV1rQZ/57DI/I6Calb1iXl4qEw7cXOmX4vPS+aQsgJAVX6SZ++CndmtYTRO1MRHLELavH5tFfrkRXpnJ9FuEPeDw3dre7NsHaJ6SxRk+dv3lmNEOPYeq6ryIaNSOYOeO461ipoEDaJvMcsIPoILHEEfrtaddX/5vPMKESX0NAgOSjX81nMFcdDuUPvUohx1rWAKmpyhp+Qe8ro+Oud7yBxbVtlW2OnlWpi4vXh7k6lUFKFOQ4xlo3jyoLRgqKKFpkwkIknVRIVVY0v8DxSRZCpgTVwBYYF/VHz9+TFdF5+4TJio+PvzsPVnTz5X8lWbBhwtK6ZpShl7UxrXVW3r06iIHEWA729ec3raUfwkHt0t5gd3bJcbAmPBpDrsm8+4jkbigjV85alagsBu7MpZLbQLA4aMp+tSnrfbp2a+uAwd4bH4uB5zae9bzDlPLdmFuDe4Ilzu86UPd1jzdYSpAhLlg8FzqiaQ4OseBbrjddrWI+Mk92b352Xb7GwWwL5ZPuSD5SuXitgn6Th3ydSP570mUc+N7ZfmGmdjne6FM3rQknzdo98sLi8d7fa+BQCGfh7GB1iHf2ZZ3beTaqr6iHUMagtz//k3LBv7epFl7L29Ii9d28uzdgGvRVBqAiruVum7phWZeQqOfFMEkSL5IwLxF+y+W5PYwsEC/st8wbqv/5+FU66X58fLkaMn5TCvCEG1aMgccTp3Uw/E+B2au1SUHHDKI3HJrTEQjmuBBGyViEc2kUrgJXRanyvR99/r+0qwYNVA9yMvcDjWEASMCGowLTNb/8f4xAWa2+M3x+Pvf/uZ9+2gGeGTnStTayi//7Je1obTK7jAjFBfoP//Rf5nc6a5cZYD208zo+bvf/E/rcdhw0CiAhMIqqJwrEUgUQsW7beJgI5akhgzqb377f8XHWNgHZhzyIx6fy+FJq5qA6vcPCC6RtxLfxu+lj+ZhRk7rpT0Ql9AT4oGQIEZYMCyrHIO0uJqNZCrO11tRCTWejekgE17Q5mU4cswvrQEagowIFHhYNiLgwBGoMMwIhCFQcK35zOBPspoGPoFtQBcBByA56BCChhDhKIH40j3zUhlj8K5JqJ9MVAw1ermmN3rryeIayT5qggE6ufBYSrLkupoSkMQBTfV1++XlyiBPcBhEEMZrndkr5LJc5oDYUSeQBDY9dC7DQqf6PcAXoMIFrqNHZSNUvnj007zdEcFrn91EeRVFYLLPIxRhh3O3mpMHVDBi6vlSePUnu2npoLARJKC0ak4386Yt4/AFSvC6607/7t7Xr5Br2gsu0hlt/YSmAQqBqE1tsBORyInLaE/nBDAagzLxhNjJligziPDK3lkI5VzlNrBDUXPH7RpC4fCR20Sj37SP+fSlKDq1A0AOW4TYAxCarFK9tDCDnYZWdSs+So+IpalTOvHQY0OD2KwklXMwMunXx+dES1GCuQ0SgBIJvzMYd4qX6c3Gheid0aCpDdSkh9GjNUvN689ii9sZHwLvFJd6rPrS7Bt//0+/SpSiHf/Ewy//41+r1dtFwMXerVLAb7/5Q7DtVi3Hfzw+5Rck9OqPq6IQwiA/gHT/a2+DMxP0/GR25KYgzDBbHOFLsYON1mSFWR+anfy8BbQarTjooGENUoMtiIajB3KTMGcAqIf9thCVStQrEJwOtUShg90MlY0yeIsK9Krr3G7QGY4MWDID0ogMAapNR5ccY2LYnOSI6LqSO2+mmsaICQcAxRFvGT8NOf0u9pBONtqt47a8udzTfSmYi7OOHmIxRnxVRlAYyNoZ1t5EX4GERLMsEk4Wuq2LoE0haQbAwzx/ES0r2iY0aqFDVgMATb09QbI3lavI8pyetK+nPkfFJAyX0NM/dSdvutM4PnEE/cG4fAW3vSQye34duB8Rx3s7Ub1c2zU1nI83AIyV2gLVlz1t1zyagATYNsG5y+sbQb3Ii3+ubHCsk8SnbApeX/niskXAY890oVFh6ezwgSP4pL6UcpcWYIA9ItwhSkKor8xNOLOjxlLXsUu7K+JXatxtVAIbJSsw6vv2PO8z9RDPQlNPdQEIOSKTcRZlPVMABLbQYysnMQiARZKdNF/d1VpK05PMqZG8uQV3rjY2C3dqZWVJwac4l7DHi5w2stCNlinGyHoC6rdP32cqgomACp4voMbmHLDJkulQKgPrFszAu46//91/n2B5y/NQ1UN+UWgz9fzLP/5PJbRm+HMkUpmYIKU0ALJGxFnbdVr/8o+/2cBizp0QpfIdLHf/2iesvm/Pcke+jRKOcps8NFOZbjpqHq20DHSNwhKiq2hEFRjSikZHHSllr+XwYttgyB2hh5Hmh+4U+lIBqyeR9O60DvsMoYYDa7Y6dJd6LRyiPnUtgR5XP86ZcuhpH7tuwhy45RwX+NLyGivbRTAyPzDyt7aMsFjgOvHL1EJ9gvm9Dm9+pqvbgr9hvq1/E6N+6ynP12eqysyju59KVTFpw7uh8hdHPr4TwOUFKdz2bgUzP11eCasG4EMMP1Uy3bJHigbPsaD0gr4DVtDOzD92ZMgR6lDf3vXuasMhCyC+uD/r6U3XUvGeD/Ojlnut7GyyBaseJWaINkZglL7WWwEcSGH71Mgoi/P9M559hleci3N43Bc8+a4ge1c48cj594HpM4ulXxrZAtlEY98aLRQPoF5a4sHuveiolM5JRYnGSQ4qYutKyu20cubSSKujm4XzI+bzjukdO1wOXssFTlBTl/+z6s+WscxHEoN0hJDrsAAzRjCyQJf4mUzxXgdIZ+jh6FvRfIoAVFWqy0nDklzzlRKdBHprm5KibWc7qMC33/5EcX6cBo4fHr9HNweLsKkXt5l4bSKczFTGF7KbExtr/y8YMkJNQFwbY42kIPVA+NSCL85nfV2JkcW1kDuyD+mSK3zswq2NAcXJWLioi3LXXp157mELvCfzTQiYYCKG7mEbuW/ns//e3dC1RXjJK0/HvTU99yajQ5PUXYzuDj1VO3sxbhrGY6XDjfFw60rSJG8haXsr/y6Wf6nblSh3k9yz0mt2awhsrXeeDjbclmsLvE3F1UVcmUBl6qYXBXS28Nmxtw56B/yY49ww+56JsqJ1O/0+p8e3qzS2qbtH+F0leW4r8PT5I6SX3ike6fm3ySjXE1pHYG9lgZ7ywaZIGSvpmUs1zkp2MhALXFudgtg3coM+xyfQ3lq9N9dxMqVrfFe5VJ6D31NG1la1yj3knmQOQ8I1pcWeC1DzRMwpPsmDTdSxK0XueclBlu2p+PdX1DWyzpkglmGeAlyfY9t/2nxZeTLlJAVkNHouw7JSBT7oPbCRjX74iz/5K8bDbRfJcmf8ev71P/+qlcerkQhQ2hGeJpjEd9/979oextGSVdcvfvHnpzkeEQS7x9EzTr993kFXIvj+G2VgGuG1F/Q39d20dMFIFFjLmYqGS2kPjHe3c8R7gb5WVKKCM8C2vMm4/bQR4Kdcxom0XEbVpy8vfc75N9AIM8A9ZZRBavWG6eDPobuvimR/2hfupwNWp+NLzf3L7Wx5r6tcR5np1B6u8feA7H73/6dlMJd96Fd5bcN20pI1x/+VY34lEEqLuLIGBsTaSNJbnP8V/bkiGlb0wkpIV+d9wS/jZeINKPCNhV83+JvaYhdHCuI6dP9lwQxdNXkyS/c0ayW2d2+H5ap2HrmnwHxRudoC9k+6m+rMPKjTLo0E+zcvhLfO0me17DRLPue3flEhINtsdPAEqFR/8ad/PuURkHzBcb8W23cvllJYyivvB9DaMyLOFLgA/ON3/5D94G4NiD/5xZ++bbQ74sb0CPHhXRlpz4HhYE/2X/8+8Pwzvf/Uv2+ohKdt9VD+J43dTe7xr+3/F7V3awL1wvdZfLXOZ9NcdWKEMeINlvmUVjGjWK2n4dLA08iK6XHdrxX228pboM4b8rxP5dr+z4QdOe1p9COSjooR2PqyA2a9vVcmK5zw5RaZOPU7o72DbvmyXnEjoG7FOlIsTvN/dTbsleWt/vLT3uVuqv+bXTK9Q6zr4biDIEXZ8d9XFfY0s7N6n7cl2z9xFfnGiX1ZnZbPL5h4VZkj31NVqJlclCH1kCm41H/95uMQdB6SOtQgV+x00eiTfM1PhR6P+mg9ndhLZ6ahx8HvAbqdJi06oWLlYfmwZVpHwlL0ZCU1tiAyLnWX0DvNamcCIvTcU8DxPFiwaHhGJXhoHs80YNX/1n41061oXZreHyrBxnWKogSKUZpLYO6Xx6/t3btWfORAG2GIVrHePZcipaSDLUcVYCuXOJ95UkjGEeV0vmIo1Hf/8HeZpPLJ8ffV3spT+YPWytN4sYCACIbp5x8iGNY8xigA9XffPM4j8SX00PD8jDw/Z6LlywwCl0A9XKMfpAyoKTJjg42X6Bv7Qwmi5FaqoOjpbCYiU86pYMn40sggRcgwaZZkOk7EAYbqrpiR9mHPNWUAEXboqel5qkUwDBwFj4ieU77FiJeei2hCM0IBw0BTv4sjOrriH4TGedBQaTMDb7gXj2YENEVKE3GCWFtuK3lzOHecR1ZuVG+nfKUn7ao0yI/dmkTPaPDyJlz3TwH2rjetwb/s1IL9/EB8yl/Q8/Renp0Yl8lttNoAL3uWHT5/rODeDadDTp86V9pvr/PWKfXYwodTWJm1sHNS4y1AuXAwdTarkqM4+osqBl9cDMV9R3vTw5d2VXvq+dX960twRdmvp/D8mqcqz7cbpdGe7zZSIPKNNf29NSt+FMmaRyYIjAEMjV17m8wRC1NEdDO+kdYj7xxbAs3IQVgh+JEpnxKPsUm9soZ99jxOyI9XZrFnfnN+1x4gqjVOC+kSqKFiINRjieN9I8psvxUUWypH9vlKp6DI9R/9CXieZMnEG6Gb5cEBSIhgmaFUQd06IgI9DXnXzanpJ0dCtZ71PskFBbIb2acegx7pSaxPBd50LT3cpU3n0XOhCcneAzvBngZsIYA2TKaRCq+nkjgDsI4CIJpRwaJAJP0cLXm4FAGPQE89yLfXBMNWsWNugfrCHIGdPc8LAKJ14W6T1LGH8v7FDhow6r9ctt2b8W3ow+Pz5VlY9yDyIASVetiWRUUTcKGJ4rSduTRwCOVyYVMG1Bt7F9TE79vSWABsdtCyKbt/7+y97Xg6uL8vYM55eO1y16mpaE8/fAxNDsMejpyXOtJ8eh1h1EPT+AlWIxX14cisyz1aGlTdXoqXifAyoklNUQLON/sgMifv2BOPBTOUwShtJ0j7+8IgOBeLILOh59WEIPNoeUx5vSwtvZXHacA8zxdwRyU+kStjL4QSmFaspMWqJbDH9kvkURwpMmg3BE9onwSmN+2x9PGCosh1XtL/D8t6n8NjbCEzJSLegjnqr14DoPkaoxV3NDu/NN7NlvqSaIc3SQQJwoSd4HMAquW0S0l6SDqHbmNg9RE2GJWub1vwLz+NfvSSnfFetqeb8z6kmYqW5q14rfB8H9/Yq8a8bqyY1bQF0df/IPIQY0+Qe4rdbC/3MfJ8Rt971XeR9u45xxMlIqKMAfeKZBSjumvTbLcESn//W4pb+nw6zMzFG+sOOJECdyLIzYwEpxNuBlFOEdrez12Q+WpGDBEOreIS/C6Iz70pYGaXxiDIDHp798RQsXW2V1fQ6Bb2cvv1SgcxXOMVkTNc5n1B1zn4/gUwo6lju+tM6O3kQH87HLrZK4HcqQZpQ0Yz2kA1M89jni/cg9bn8ZwyOXb8P5V0dmcs6a2e6RoJ3Bn0+QLx/wBj0RWNBbOOzAAAACV0RVh0ZGF0ZTpjcmVhdGUAMjAyNS0wNC0yMVQxMDoyMDowMyswMDowMCCi36wAAAAldEVYdGRhdGU6bW9kaWZ5ADIwMjUtMDQtMjFUMTA6MjA6MDMrMDA6MDBR/2cQAAAAHnRFWHRpY2M6Y29weXJpZ2h0AEdvb2dsZSBJbmMuIDIwMTasCzM4AAAAFHRFWHRpY2M6ZGVzY3JpcHRpb24Ac1JHQrqQcwcAAAAVdEVYdGljYzptYW51ZmFjdHVyZXIAc1JHQiryKm8AAAAOdEVYdGljYzptb2RlbABzUkdCW2BJQwAAAABJRU5ErkJggg==;strokeWidth=5;imageBorder=#99479B;" vertex="1" parent="1">
          <mxGeometry x="725" y="584" width="85" height="85" as="geometry" />
        </mxCell>
        <mxCell id="fkhzhb3UsODcdzvoW7---12" value="" style="shape=image;verticalLabelPosition=bottom;labelBackgroundColor=default;verticalAlign=top;aspect=fixed;imageAspect=0;image=data:image/png,iVBORw0KGgoAAAANSUhEUgAAAFUAAABVCAIAAAC3lz8NAAABAGlDQ1BpY2MAABiVY2BgPMEABCwGDAy5eSVFQe5OChGRUQrsDxgYgRAMEpOLCxhwA6Cqb9cgai/r4lGHC3CmpBYnA+kPQKxSBLQcaKQIkC2SDmFrgNhJELYNiF1eUlACZAeA2EUhQc5AdgqQrZGOxE5CYicXFIHU9wDZNrk5pckIdzPwpOaFBgNpDiCWYShmCGJwZ3AC+R+iJH8RA4PFVwYG5gkIsaSZDAzbWxkYJG4hxFQWMDDwtzAwbDuPEEOESUFiUSJYiAWImdLSGBg+LWdg4I1kYBC+wMDAFQ0LCBxuUwC7zZ0hHwjTGXIYUoEingx5DMkMekCWEYMBgyGDGQCm1j8/yRb+6wAAACBjSFJNAAB6JgAAgIQAAPoAAACA6AAAdTAAAOpgAAA6mAAAF3CculE8AAAABmJLR0QA/wD/AP+gvaeTAAAAB3RJTUUH6QQVCggB3ZHezwAAAAl2cEFnAAABAAAAAQAAsmfcigAAGMFJREFUeNqdfF2PazlyZETyqOp2T89gZhbY3T/oZ7/s/90Xw8Au1vZ42t19SzqM2Idkkjwq3esZH6AElXQ+yGR+REYmxX/4X//YrEMI9EcIVFjvHX/2l/cTAQE+m4jzEEx/tHYGQgAQDgAiTJA0AASAfMf8qkUPABqfUwAANSLfACDyQxjg25GfhNEsAWZ0xm+9d4ZBEc2mEVBT3No7HABMiAIQBgD1PkdiyhwPa7cD2xHNohH5CoRBz8sgQqQAIwyohu8xeqjeeLtpfuvrCd85fL0cNYynG867Oce2P53rvbanX66t9xrzAoDjkAI+DEBWrkaE4YAJOEx1ts4ABKhuF56rhsuDx9e4TGANhS9OnnMWcXy6ahdxPr2TtIOA0IkoPZqz1VwSPo0RnZc7R8D01ENgG3cJLMIIEQ4hUsOfZrWEvS27v7nyev1pnf+0+HVN7BebFMKcSgpvT3x69LP6bAI9HqEA0EtgmwhyDWkggkazOluP7k8iqCX/5pTqvq9nXtcO62VJ4ZMQSUfkukEm7GeBCq8HNyW7S4TGAQQMs5xWGjqUfw0ARQchOkiFwyxnNoVVo+QrS3496VfasU9+icYBRFgGcvLNMGK3v13tc0jboEDDRADK+3sN4WhiPpUG3cLgsIhUbAGGBdjpBwE64jpL1SKKYI2eQ0+0FmS7qsQX1xs8KU7MgdJoCDm4AkfQ4NXpYEUf8fo4E0GEYuoUjeP9PLCNGABxNocRPU7BYc3JKCe/1GSMNXIF/DQCIM1n2dU2IP1NoQFAOIRolh1tSWcIbkQ7LBXO6dhLm4bkXbqzfX68/9XXcdihzvMOKR6m0u0DEKMJP7UvTbF7SgI2ugRefCFTrcYC7bpqAGxsrpHtPlm6+G0DFgA8TPQM9a1OEHD81Ay0XIZt5U9596Meq8H+64cZ9bmO9/MQYYQJQqZk9JCITigE9hS50c2W0t31f8RMP/uefEbTZeVdHiLm+hPUWL1dfHXBAFTNoGITVWIeTe9Tkx+6OYBMqUMqSNNFH2kcdIQp5mNIBikzAA9ERcWyVeX5u2nFWKA156mEpabCFlPrTAaQixsOAQH1JdNYswTyiW1YU6T9GOgR4ejUU6hhaV94qFd46f82/xgSNdN4AyY91NulhITa8JGRcg0vLahVRHwK2qBYgHLE1P3C+gS7y9z+Tb1jqQCNcLSBU2OO8zsHt+FhQ7fjbsDRwwbPSF9VQcUBdBpB0GhKT8umi79dOr1FlR1vRj3bm3Z8xkWbt9c8P+P/dsR6Y4gyYXC6pxnSvyMLGEKAQQ/3EWGlS9otJ8ZMKvw4YV/g4lPX9Oc0nua2cOj15B2H7ZM0Y6jYNu0Nrg0xizBDBf4+I78dj74cquuq45BIIAig1cy74RlUECSBOHmYHM++gpo9xi0Ye10Nf1dZ92/peEKKKoNI9TDRmXmhjmsaEpUaFYZZQOiaj43weTj6yusy3WU308816S1G8CQYJX7lSoQprmzs8wwzdY3hz+Y4w5RxpBDLbC5LFmqiWwJTtXB0KGHvmAMFDqjWrstMMwyBQ9uvGMsEoGGP0MEfWxAHNYGagODtOI6j9DOQgdBBGepjWW1z016mI21XnePt3UDzPn8AeswhbdHIBHATFUhvv+719raU4piYge5ff+NKTAMJYNzejh/g2P1yowCH7qYqR25HDwFKLegjzo+g03QIbIDpgGARD4c6NZITS0Q4xIHn8vPtNV3GoEuiRCCGLSC0he4SxQEDED15EaUkNlykEdsGOko5ShzR0cg3I1aU4AWcqbmuqH5MVI+nGOqYdkIDppkrcJrDIFP5pwmUZxq2sEL9ngLU+U9vUCt6WO1TNM0TnpIrkeF95FFGN87bMMeKHULOYqCWjHvajXM7m1ME6c7gERy82ezllZdXX+685jz89v7JNrdWOehCDWIh7gJEwxNROSW/YCUu89ocqofehYlDIXw+6nYju+BAfhiY7WWK/U3/HtYzOstl+cQFBUBcwOVnyqDcxECPm9ON6yhG+o5062Mi2pmyxH/fONIu0i8OVVG40Ng2kUsudH1NZklPSlGSnSBsqtyerqT6uOi6ffHHG4cZ2z1qsq8j7XDwG3hVeNFtV0FQtIATCLBj4GQBZzr5T34OTIeWWdB8HXMWrqaRUmtlOcM/D81Tj8vJI5APmUaFLhhRq5p6GuvWzzMfSBwejlyFpA68Pp6dAsctHJUu5+jnqz99kotsusgZxlK8wSg/IWItbLNNjJjwdM4u6U8zKck5n6ccxJv55MUKCXB45I7Ho3+2/xNARMlsv5sBNL4ydevim6caA4OWryg4IPTXX35pGio9scGj4e1Pvzub9zE1kYTval4JUi6CAr/7/e+Xl+XgFuD45a+/AMFlC/nuPDjMWVQYx+73LxPgeZXfOCtAvvJ/rxMP7rUHBS6edc5nlRtCPfyIC2Nk4ugrqtXlIYLWECsRVoJebpF7X3mMkomIsxIfHCUg1vqlf0vnd2YSUEpFIuhjm/+SznX+lxNU9q8KnoNlBA5pmq4AOr2dKpUKGkdHjwHsMxNF5WYZAvNMcTzumncUVMyAmkIe1KDMbdWfveZQqlX14RLE33rEKHhp+jNNTmGyNBsRMKiyyepXIAC+lQsnmhhS3SGQLpqrrXaVla7kknxogKG8NAZaqiBX7idKwk/1j7g+4xsHPUTgwFZ7ehJ9AiFaSQSN8LHsJVe+pupZ8wqhb571aUjr3+L191oD6x9aF/sCXaBqvBKvYNZ/dnxTYfY5Y8OFCQpm+KBfi1XFtZpjpbaVX+cApchcLjnxe/57VDHjWxNLxY0Y4mhY/MgVVHLJdR/l4VzJJOI0MgWO9IEcNjbLWDeoWR3RMEDE9JG88LlJ+kVm0/LgYJ8jU41wT7E6o1VV5mjOQoLgSDo9UzKY4DGoTYeGjGMmYTtnna/ebPsihEkobaCwh4joAz4Nz9iJ2yh1QAaTfbNpDmlQRQeO+ufRcWjybI1wE0Z2x/XoPDpD0QFF5Ph1fOnESkBW3Dn4hqIEButKAn7gYyjcJQq4HW3QEquAGUFLSuKqTW2COvD++99NvZtfMdzRaVN5904H3cMRyUINVjvHFTTiL/8xibmMkZQdZ+8P8zzspH0NCqHQ7//nj2aHGwBFPza6QqW7e5JTUWV4r+5ZMHzi+6mytGRtRhFu14hVVuPKlEs5neDFXHJKTYlR6iNgk6qaT7qJmyIUYhPCjCYcPrvVhN7clGEkxAjHSXX6bKKzdpyNH+sYjRTr/w1srbW9zurpkm8RfVzW+J870QIcWzGeK7AP1iSpHgRBOIBjM0ZUMikYA/BBzZ4p0N86lP2IUVS4Eukbu77NYAULXt0S/x4QsTOLk+rd2ziS7xOXtj6PuVpvAn13RjmFY5Lc31mJif/GxLIWPqLxy/j0lE16ePzJ5Bi8tmJcBPPdwsamXjLDBBQDTm4sdIG3HN/gGrbqxliyA3/PwauEB8NnzBrhiEZ7Ol658PwXo9uiasoX3RA1uqu+ryZV7U3bTnyZjz3hDspVwixZZitV8R8ezThP9r+G+Gry84uo/p9IYJfeNWcORBCdoADOmJnLw5XSl08p3Fl6wcFO7yl9utJYjPCUmcSzxSo1CVacPdylHuIgMiJDwxl4BM7CSqD+vvUHJEQg4QbmOEUFkT1Ssy2F28yeXeZGBDy5ywn+nlfipZ3R4AM79qEtmefZfDZpz5eNM+KN7yem/vfjeltj8Zmrf259B3z58iXHNpAQbUrUbx+/dvSdh6cddqNnQ8koPlAg4mguEnJPN87HY2LeXTdjN9VVLOnwPUHaKOEbBB7Qn/77Hz8OZXffLLKevP3zv9w7bhNzPK0/v43YL5QGXVZUmt+J1SW2ETXz4XtzRq8A9mlRo2lzMdWYZF50Ycu6Bd7Tn4zyCCPBmkI9NAsoecmJ40HKPwIHIODt2ADia5YdT9k8IBR8HE2BKfsQu5LOWRXLNXMa2VMwoICXKGf/z+DF9kYgV9/SxpRNfiQsoIN3YA4zW1KjRz+D4ylVJTipM9BRiIA4tgrMt4LZLojACwfJTTViJt6rTvBtZ/6pyH05+cJPfKNw3qBqg+tgpQkhUx6dXZgcvyCT9vLcY/33ztkdde2T5+AMY+TC3xjTfo1GtVZzSeWX968r+Po+T3Ne4gPkSgyAYnmEOakN3YRhe4/g2f93WY+9l+DzulRp9cUl/4VjTxA+H5dOVl4Se2BnDV7AiKcjloklZh0sTrgfdbvgd6exNzmWYidpp8Thq1ZVfjvZladmqTmgSK+1ZQT7ad9RK19OCDPkIyBXw98GvSZ8qC5zKwYcAQASR8ENGOgx4PHWC7pB0WQKIDiInrWnAJQabkDsYSDaGF1ksqbZCrkh+XnnVk/PtoezoVszE5tiD55t0sRjhAGqhzrEwVwM5T15CLde3i3pAEId73e+dfyQ1wbacWsQ0GOBGYwWmNYWFGmVbOiX//jLzghP3ur9yw89mmeyDADRCJ39XmWsmidCA00ucEJ3+GzWlxDRHFneyr6wQ6c/Hrd+EjDVGXA0R48z/vx2tt4sAqFQqAcU7//35/Nra2ckz5/9yzzR/vnnOFGoye3Q4qQGgJaiVQDnLHVtTHJkFSxnaBjRCUJNodVaiFSWNII+DDhpmVymaGUypEwm8n2EOocJPUjQNoIIn8QZSD5DQDSHcPbg2U67sDPxaLoHTt66f3hQoogg0YQTX+7RHnwnHkDA7diL9hg5xHIEWWBPn5dln0qBy59XDA+jL17swgVWv8zV/plWMVpAUqV74BBIHAKMFkP/Zy+4qv8JxGM9fXqfmY9EwkEDYkRRNkai1UeM6BSxN2299Dozt3/d/bVj+6sPCxe3d+3qfFUjXszCcBWj5/u50dhDmmlnl7J6eZadpI5ZWRn7RcCtUyKw1X9qGdd/yzNz2O2c/f6AbVYLSk28cF32jPCVqUyomRlTjGJ5PEJtg8l1PsLOTkxI4WgqCnyJiIZHPsoY5RMEGMmmGulWbpVZtGOOclbgnxpPrmFpqvSc6lNAen2UBK/LZfS4Umzju3CJvxRklK/axggSHKlmMg4eHHx607CCCmGyCaOhyMdkGMM4omxvovFZkEqGcN9OVDWSZfzLfUzlfNaNSv4m7KNd/U1P+LdXysxS3H0wIuBRvQXCtJnt2aoZCURAtMLn4RNGt6jRsw/2ZMFiePN+zD4El8+/lApiLtrgWDpZZea1ksYSxFTE1J2lPnvdmmOqHdt9AAOHIjT867KpkqzmbieDxscBtdvHUV3mSQqGHnh/xPuJ9w50mBy2azTER1SVCcQR52wGnM2jgsG3G67eLtObt7cfpuan+s31r9RuzD+PL3HD9SapKV/vv01xrM15Qvv53kZ+Uo0fcT7Y//jffjIf4KmpRQi32z899NVHmW1kZaX7/f/8xR3WCLpDmuavX++/Zs98fnikF0Gp91DdUrl++bgmCfStB2JOaUL0mJnSdjfUheuSa6sHgOg4hENjn2N1GeI8ZKqHFPbqptDHga94+7XdKnaM+Ce/P2j5vROVQ+eAH4gPsIdbNrUcez4ziadU9SszObzQvktt2Fw2JxZALCihWsFxxRPzl5PviXamfCsREBBZ3oFUjmNg0OpKMcM0eIKzA3YEuOT4iN40B4gwFCfRC79VzeB5M9NzUL18vfM/nxIbXd5Q+6VP4VBY6z+37ox9EKYjsn1ttgkIq5uQWdsro6kui8k1GlA4oNq/MVsMZlAfFLgPbXXbV8xvrfKlXvKi/2NLMHcpjDRmJVSEU7O2SDF3bCVSfrRaAz0BjAwHagYc5FTYwfylAmZCrsnVZyqBDJMBNyDgGwBRxxOfvA9o+1y7G39GNd7gwKDAy31lUfBTcX1UoGpPHuqSpiuC/AwZlk4915pLyiGodu8SqztsnGNmJ1rmKSr+69NqPs1wmGKGkPnhK7Y049NTCXxJ08sF5GLGzCCAZhxCEx4BIFp2NBcFOvYjcGjKWeYzHe2szY9y0HjQXovJkUlZBGAf+FfVh7YteoQz5wfRwiYiQDvgsX9kNo80T7m0ucSjxygiaYPF9lw7GSZpEdmFwo6B70JU2IqzN3W0M97MzCnTF0bnDb6Fbll3KUcr4/2M+wwWkwJ36IFT0SNrVDwPoQ/Gtpr5cwdKP7M3g5F7QZwT4/lxlq1Ob3QAEbxdaRyB6kk7hHOX6dTGbpMtkNuJzLG9KxiP9tMj/KhdRgR84Dzb7X68f8SNOKeQTXS8//v/+/mj9U4Yah7ZzhmP2x9/uhdN3ZQ5eKg13//doQ4DHeCsfxEc+VZlo+OTXEuMrltlkwEn5Bx7Ydl8wO3SFEHDdzrgc2slSvfU5+L7Em7U24fwcTWoszfcgw/eAi3VWjTMzrfOm31LLy4zHCA65cDZ1LcgdRKPho9DiHPe/KhMIAb9vlvsGtrmhuEZ3tb+t9UVX7gVAYs8woBisF21d7oY5MpxCBT4F7U2uaRpQj1kWqHalxSAwOjUGbrHgFWtIlwN3G10U2X9P99oT1KOa0jbEdt3iF0994WO1vhP3fGObNR5zoM/3XlC7xnkx0ksep+aqVSlobMkpdECSGxduPUfR//+bGXZOfBjZRoIKrbdnutG11aXT0NHDEprKtuIRQNj7L0QFyGu+184+clEt9Ksm2QhiKZLgarHCBkkXHBAdUdXboaQET0RNLUjt8n/f6sLYpLDs8lrm0HFmDAcooYH3TnjuUTbuijzc1sZjWqT774PYr4TzaKDpqmOoynoGNsYrrCEZZio5rJ5y0274+Dof0PpGEq904HN1Hr06XsPqiVnUeAZAdhgn0rY2xnXVlRv7BXh8LmaNGpM23CjQyTEhAVHy2fNgM8GN7jNFR0/RgPRuCkhQ8ZWNIxN8ar6R85/V8W4TH7slirIxfwdkKUCudgBmUH2XoWnDZP1Hk2xp/mpRCftwAkvV0KH2c8Is239mC2gR7STt5O33BY4FeTBtzOOM8Ib7ScIxq1Tir1qZKA5QgGm1geNI6Y7xYws2Zd/jih12UKg249ffAVKMTippX5bRZmPuE+5YPhnEd34oAQ6qu2OwKPpyx/+cG+X3JlQix/+97/+9SMeRRmPb+9xO3/8QfFWO2II4IAJnR9fxw6XaRGOj9v9z3/648fta32yesaipjr1k9UCrplIiEGiZ9gvRsdbhzeggPpix9Wj93K8QNgaGagV6NntPPXlNB5s95gQOwiF+YjbPXCPW/Nl/e+8PeI42ZgmPMap5rj1iIp8KAgPRpfhyFpTeOj/0syxepxKoQVcOao2RoBUEWaR3PCwF8ur6mqix7aJExLzBzUEmlZzH2kSsu2LtRM/RzPwknCY8NqgvOIXfIDx1L9Mi45mtS1YtdWzFxX14nX996r22PzTICHCdlWdM9PMX4niCuBR2M5ru1rGkUH4j5XPDUnbAGIzoOwuizApMkbesVtHM7sjK1x9gMCh27OVRKtZDOv+yX9VOKmZL1orBsfwguSQGInm6l6arM4cn5nbCgY79HxQlLNhaxoLKgoW7h574TvczFZTuvz0inDMX9nQyHoTJ3mADw/SzVAo92PNlrxd3lHEyHeOFb2ev9maCserCTSaBPgsxOdP1jb+7RdXVjDKUy7MSt2k2LfZI6BiCjhKDtp2XCwuIDnL4xXyEZw7p+Jzx25YJuEtzl0qSPk5MXsMYGiRfFwmFhP5VI0sspCu6lui4eyFp3pai6suZBHoxCNwDxwS0vdSYUlDiM1SloyA0OR1R1Kc/T9Pdj6a6fMnUKpPai0y3VrObeh0msBBnMCxeAGH0Jod6IDF1dud9+9M9DpiR67Gg+3Ae8WSyGJGp+/RjOi5NT5prCyQBW5S85lOVoOV1CE0HbTgI1BVI0Uo3nr345hFx6MfJxf5p7QTE301FaP4L9Fx0zvc9i0k2YR1Ps7sBsTYJCpDsFv/Guga+SFBN+ve7j/+jz+c7dFworhQI8gf/uWvvvMtH5o7RRT3B3U/f3rwi3lmu2E++jj1/tvPTZlsykM0DX7zI7pvJxqcNV4ROk//+k//1uMxy60HeGbniMJVz6PqByaW1kNEhCNrkxjbL1G8qyqD3nmhIHqzD41dZMMAqph91v7V+aMDAu134L3SKHW4kx034wbfTHQq7YVG4/ml+62foEyLcnKIxqlDfgduaYKkTIX83g9Enz/hMzQWIyznWgfMUfmb7jBGkvOSzyz/dPVsyVWmL+AWKZ58zcWVrgYSVzcBHSyFH+0jCI36Qqz9lReqb/mr3HSW1Qtmw/j+ezzPkx9hrPb/pmcaDSyrtvHJaxRHXiw1JuQCpr+crfulOJiUWV1+8fDVNVuaxaFcozFpRUEpxg9EqMhagVUOzpruiHT7PqowjoBrP/Q+pZ3wqQapJ7p3F0GNJXsEh1scv/mxsx0zfI61fnpWAkTPfccOLDQponP7JbuoH8Xb1n/WyvfDgw9mDBbPrF8u1f8Hv3+Dq9z1z14AAAAldEVYdGRhdGU6Y3JlYXRlADIwMjUtMDQtMjFUMTA6MDg6MDErMDA6MDD8hjewAAAAJXRFWHRkYXRlOm1vZGlmeQAyMDI1LTA0LTIxVDEwOjA4OjAxKzAwOjAwjduPDAAAAB50RVh0aWNjOmNvcHlyaWdodABHb29nbGUgSW5jLiAyMDE2rAszOAAAABR0RVh0aWNjOmRlc2NyaXB0aW9uAHNSR0K6kHMHAAAAFXRFWHRpY2M6bWFudWZhY3R1cmVyAHNSR0Iq8ipvAAAADnRFWHRpY2M6bW9kZWwAc1JHQltgSUMAAAAASUVORK5CYII=;imageBorder=#008080;strokeWidth=5;" vertex="1" parent="1">
          <mxGeometry x="1060" y="398" width="85" height="85" as="geometry" />
        </mxCell>
        <mxCell id="fkhzhb3UsODcdzvoW7---13" value="" style="shape=image;verticalLabelPosition=bottom;labelBackgroundColor=default;verticalAlign=top;aspect=fixed;imageAspect=0;image=data:image/png,iVBORw0KGgoAAAANSUhEUgAAAFUAAABVCAIAAAC3lz8NAAABAGlDQ1BpY2MAABiVY2BgPMEABCwGDAy5eSVFQe5OChGRUQrsDxgYgRAMEpOLCxhwA6Cqb9cgai/r4lGHC3CmpBYnA+kPQKxSBLQcaKQIkC2SDmFrgNhJELYNiF1eUlACZAeA2EUhQc5AdgqQrZGOxE5CYicXFIHU9wDZNrk5pckIdzPwpOaFBgNpDiCWYShmCGJwZ3AC+R+iJH8RA4PFVwYG5gkIsaSZDAzbWxkYJG4hxFQWMDDwtzAwbDuPEEOESUFiUSJYiAWImdLSGBg+LWdg4I1kYBC+wMDAFQ0LCBxuUwC7zZ0hHwjTGXIYUoEingx5DMkMekCWEYMBgyGDGQCm1j8/yRb+6wAAACBjSFJNAAB6JgAAgIQAAPoAAACA6AAAdTAAAOpgAAA6mAAAF3CculE8AAAABmJLR0QA/wD/AP+gvaeTAAAACW9GRnMAAABVAAAAAACGaS+KAAAAB3RJTUUH6QQVCggB3ZHezwAAAAl2cEFnAAABAAAAAQAAsmfcigAAHGpJREFUeNqdfMuOZEl2nJm538ys6ucMGwNQQ1ADghIIcCBBC20FSFt9ij5C+i1Bay0ESABXhBYaASTBmenp6Z7qemVFhPsxLY6733uzsoSRAo3sqHjc64/zsGPHPPif/uN/oAEgWgOQz/NBQ0ZhzX+aCB7ebQFAQBzeNWN78eD9KlzXvDw+rue01jW3+xq0ATDoEECrBOLSZcikIRiIIDrh+rJTJkzkizIAuN0AyAGMceYwaikADtPKL0IqOf7x7zUNE6cJM8AwEcyPjL/Ot4B8d75+XsI/8rFuCcWzL5vBXDIdXz/ux3xRc/Jj9QHIIA7/efwHoOanlbOdI9fxujklB2gjAANBGLDpmK+ABsJ0vi3v385xxOnKsS8xTiuephFEECUIyIw4TNIETOdGW7kxcj7PT+pwCypIoHgfzdwnpYHvC7mv6/zPRMhBhGzAtAnA3vfZ+57Pndf/swX4uX+sVVNuoSGYAeTklwvshjDdaoyCn7zHMpy63liGgLMJe5nRH/GgwbnTp1eRPjxmdRyZ4GkMa/H15LJHAzl44vERwxn3i4zPdz1/KRBB1N3zDlu4vkKDx5jn8X2elylflxFEMf4v25+fXH8zSJX0vDkrImTBBvh0JWCwjQHu0SEEBGK3ZyDGWOc9kM8ZtMzACFu1hA6b9DT+A1BwWAvnioxPUt4/P9aFLpGm9HSL5DQlw2kDY/zFLcO4ERhJRxzbo5zInEO+aLAfp59TI6zDiyXCzLEbCFhgwBKCljjsrtY5zhbTBJ7sGHSMJ2syK4pmCszlLo4S4jP2+amgEMUA+tipuYc0jNDp7iPvyG2NR4eL233FuWkqQWCLBiAYMID9LyEANR4v+en7bcs8eJq/1WL6zHwjp11Z13qXcT+AcXn/CDasV/aZPl2AAIQIAmgrkhkIV1loHRasmZgDQDhYtxF/uQdfAvTJ/vOGG1Bbe2Kk+ei9A6iKsYppCMPmdy9CB5Q56bz5wsgfXFM1QIQDH90vuGf25f8FIKI4wA6PGcKiG6Bi8HCpvL9gs3PHGsMAadDOwWgYEgogo5oj/iIyR2YEUNiMWkJCACix7/EpCkAmj4syLB8sgUM0HatQYo9kI7NAxYBjAa2BGi0BxQG0sfNp4RDtDuuQCGIuL+E+YgFgpg0KIDoBWTn4so+WGnsTMAKh8deBqDpHPs4dXhPQU5cYH9D5k7nknLFtrVTus4EBniY0khE5H1sYCKekdQCA5ABE2EfHw2GhgLVACV8EEIGRWZahlfAOVYGRPvNvDUAfZZk45NuYgWYAhEMWB08uLgMMT8BwiIGBgaNxxgVxihCZlU4Y5mkqNXbMk9hRK7WtIU/jyM90ZBp9GpJjZfqF/DEBxsdVQBw8+dmV+vjxMZR67osTMs4899EHGJx4+zCrNdrjAJ4ZjDUH8hGSAADU4ZMe2fb0WDc+5LOEEomOy4w0e4Lkgs74xF3T9vb678lwPVHGqIU4Ue1ITp7BZXoeYSsHmSHM6yvnQPB0MO4AalfklDaUUUisD2Td5Sj2WlphGVfxdNc+y6RgeE5+1BRZLRHtWGV47hUZWwHvMBIhMpwD6sxbrA3MS4mFXfBhMkW5Xr04uND2kx0+PFaCAFB1XzKfXa+XYseMHOMTPbYNQDdmzBg+rFsb6SrRngnTQdx9fj8BQa7fdJ/6glnAH6JAE37ojzdB+wrn3PRhC8/gPSN0APfkC6PELIRpQCH7Em/ktNeTWf30qy/O7jDAAtpNRu2yncnvUNTtl4jiDjbYZnC3LnYaVsjpHWYEo1NN2778RpIWIVDommsx73IreKt6k4jQrJ2MGuAjmjnyTJZVsugif2ZssZd3QQTQL7URCQ29TI+IeldmOhASWTuEAoJwhYndkw5OvkLr8qTDWxjIP4oTjCEIMtECfPB/pR8BQth7/pumqKwX5gxnhEjo748CBFZRc/rnJ6Iwh4HQMOmFmoK22YGo0x72OjfLOJ7rXp/IH4E+YsRh0IfUdRwkD2USva/zqjUXBh0DyK3zgHeL2AHCECcx4dPwMgwrPDCZD4GZDi+XRABeEb3uhTmeWYKVZnLZjmt78Nc57QX7uF8zgASggyA810EDSo+Yr1kOfLSJGLRSjtLnnDfLkGeS/Ee28zTLVjm0vkn7KSg5cxUj2gGm6ZFdmYikTFCnODNosaO6uVHeny8+Q4gOAOgM88jeeCzuGVYu0oET9nOY4ViXEol8MoJoMg4Y5TA6gFqcYduAgyFkhfB0z6e9a05eAZo8QGEA0ckCHqnEydhA0MqFa5tCcUM0ATP1ZnTMRTkQbGMwdCRS8nLSAf5RRhWIQTpnlnGUqJi7MghGBxFw0KrJIypXHdFPfo5g9MIQZQTL2DQoWG+KzurT/BFE2V4+ecVAF1CLqcx/awObcMElGBMdDzsDFO75ZFIrNsIoTSV0xs2AgGsBjWINbnpyh5dSgDLztIBcwXAxERXtliZ3d1eD8kJXBIAuXz+v17K7TVBBNZa3l9apLk6IEgAC2/ffxzEQ5oZ3ApuMp/M3ES7J0AJpY6QF6OX9T2QBOjQTojNud2wlkmQLQnYyP6/ePRJtVJ8eYAnWu9s1DfbQkwiiXz+8JaIWN1OBCEbSu8FI1hlAK7gWXOo+iE51lsb6LnyTguqjBi2A4fu31faLYwTpuV2lmOg8MfxCsG+TL4nkpAnJCrwwREvOoigARL3eyu26wysAKBYR15LhKU5LD924RV5jrx5At6vuiFaL3ZO9p83oOvU5EqtlApvfJyxLwfSC7ExkjAkg4fTTuj0IQv3M9ue7UWJFX4z+D0qgK0qAqzDZI9GBzDfAkT6TyNAB/NIyEjLVWU3E5FFAFyX/PfNxLN5yEKSOFfCyrhwhdgL1AA0F5OwlQEAN9if4JGZBuSa/ihzPetkT4hooPT/gGbCA2QI5pq8jNFtMlLxnwenJinwzkSshB8gRC+hnsNMiNjMEzrbHs4900dVc2qd3fHzcfjtOg8f+1HmCSQfHblA7sPLhsp8e3jMjibG4EZNsyHL0VCdnR+kJWiCs54htZUUST0n0nVw6XvpEoqM4ilHi8OJpFTQGAx24iTjO/IlDjSfLW5dzYe1irDBRz/AGnQAyXIR2tueAPZAUOopRDDs6NElIJ/+38H9iOw+qi+FB2u4sfZbzxATp05IXuf7pXsqxYTX6hTuCyJC7A5N9Ezgblggg6qUCQBN73W5UTEIobfImfdCLKyWCkSWnOtmoG68dChOEUfsgpIvZY1LG6fMcKRdkyBPteRZ2IY7ycY7YAtDVzd5K30ctmy07knCTd9pFu40Mo87COVdBVoCjMUUBlUk5o1V88xJWL9vvOy/a4BqaQdK68f7Xv39s3IAau3vbbA0EblYEDZcBBN23+5dERQiQshLgFew//vgt0MCekVwhgIy7r778GUA6R1cSLLXSr+VDK60rCxoBEKKGH7//IXmemLzutMxzg2GwevJVcN2rBAiu5OPl/W+hx3orAeAmvOf2qHs5O+KZkGvj/QdtN7zwoGKSxuzgzfEevAE3DBqyBCqoSsECyko5goCbHNCNuMLOoJtpqQSBWtxowLVTRqD0Xtq13lqJTsAVyZT3mC2jJAv2JRjzPaTe2U2v8jYhmQDCd1DLb9bhaauRMK9urr6iJsIbvqFJ8Z7JARdHIhZEWZ9/vibL1DerF1nDmK29h7dHXwUlY7QJB+ep083Pj1M6yPTBlcg17UOg6ug3Dph16PyMcaYvcRZVWtFhYI8dFweQhe7HfKtSliHnOPrRRleO0IE2OVIGODN2p3nij3noPJgFpQSrfooYXjy/DzfOYmk0g87eJgswPBGKTxeZ25hI7tjUmD3ffUX0JH1yNC2PA312zAf25Wnb4NBBWSyQBda6YNmZSF9VUICp/Yid0WXjIEqPUpextEILaLVAAQPtzIhHNtQS22Yw9Gx+dkYo8r5I1gw6SY88EEFwz6P+lI0kkeAZuQZm7kBPOFG7QpFlWXTFJPM8u2WNaEQhhnMCAfRgW32oQ96CEGCXrweJQsyYf/7wFB21YizeFmHipugKyMEWXLl6Wgeg0Opzzg0bT/bgNReGrnDdr8AOBJDhFrXhM1Id9w01sE2k2eFscNwJt4rLnHxeowkOtie4eEAtXjFSwLCIw11PthpDStLmsgJuAWwBRJTehH4XCcnSGl2jf/hIp2Ce2v4Y+qR81guyH+99MAigFwNR6+9+X2hdxN+zfij3izEFA65Af//2DdgyQGKv5+Pzn3wZGvKKWf+x2N9/99sn7pdKuZ/+9CcTh+0EQYly++H11jXVOzVnJl2+f/sPoctwTN8BEBqsf/rn/3x87Px49erVcSfms8cfXv3Pwx01QDzqV19+A6s2vCDUcN+4ddwrdSHM/a/ElQjhtvIGoY69IE24sngoI8DbmSk9g9DpwIleCqTkHNwPvh0F7b47RtwR3AAIPYAa6HwGF5fnkkEgCt+BfbJEggUWxH0JwFvN0XeF6S7bo68BJNnWhVvxbaV7Yal+Iog4EJVhkAE2uR/cci4d40BCjSIggJ7yzLH/C8U4huMEPEvumWKVifZgYfhEo7UAJVaNs/BIAFUenZYpfhzjSeYnghDmCNBmw0NgcMCJWDTZxEMpVokV/DUgYJInkUzJ0XmTbtolahwzUXLVMwU8SXinbgKeeX62Pj7pqeeM6JH/p02e6Me5y4feQw4lTp88DaUEhmJ2D8L70A9tL+IM0abFnQDNAgV7Sw6fepyHfrL/0/jn5PdknPqPXePHqRM5cOUiUGaG+7jVlI0wecaWWXjSsbqXxvBtz21foznqDkeB5gVTtTet/r8fFtjP3ZFVdZfEv6N8KZz1BLEEB04REXYSai2pPNtMHjufXCUNZ/18NpbjoBY/MUjr7PyfeloajJKnyGqIEWTrSTPqow0/2cL8+vT/bDFAgOqNL1FwlYywLgPWpQNb0KXVa+M1pU5ZeHahs8KVKMUp4wJdZBRXxj3gsW9UmXu+9W2NahGBW0d3K2kfXrjTQiiK8GLOiibY3Svfb2jnyWfj7HEj4Z3OswAUl9LvywkpdSEC29YFR/2HtwWMrg8Pf1JZr7M4yWGHdQk8dt3aYiyCAtg36H7rL7AcdbaWf/aTe6LBWftnArAcf/e//vfq8E6dey24fPlwCdyMmscHssmpKH/5879S3Bl0yioIuLx+8K/6H97c9yxMOymrhLaOf/fv/+1dRw3B6hq3fnnTd//jVy+vBxFFdoAYP/74I3CtF70IdatvCvMW6oeGa+tqrdy6btNWJUFG8R1cGZtgegVYyc0OuQTFGHctDqLVXpXUzYTxBimUMNQDia9uwQAFFMWd4j5A0uTVROAuEO/u8PphKPk6BcRd033H+w1duGsC1Ed+1F2rpd/d37aZdCeIYd/6G6BVzGxnCqjDMbwBChTYcKHbQbRxbFUfnzxbk8XwJs88OqoGz8waQcobUCYgIENKMf8qe9hBANcEKS17eVBX0Opq3UPHEFzSMGnc9FQOHP8HqO4NCTPAI9UxO4vH6T1fLM+pKgiGYimQ9qb9roicgW8vbFZqDAxlz0AM52bkuo1XfeHRUw2OUzODd4TEJzxyJHiZUaClInoBaR2SYGCVd8xwIA5kmsX5cUBehc9sMBe4LGPjwNswytQeLymCwG5eydvSCMqmC3LzlbTCIkUrHPLG4CCLZ5osXbXX2lljMgxMSJJY+zjgoX9Ii64YfZ5Ixo5ObUSfHdSner/DtGPKRvq0i37Q0HzETy1OetehTPjISJ3ffFXwoV05TamYxSox2Cqk/mDAZMilhA5tu0Rj8Sn+h6apKvRgEyIT2CIVRrU3yYYDfsLQ0qY/D9MdBLuxBNuHPgrCE8k/dSJn+7SAw8RoKMqq8LJBsrjA2qFgCSWPToThKK13DXzNMN0UwRCiNRgFcT+nnccnUilcw6jkRWiBXmLrrJPuy3tv47yE9vMDQHbfA+hgYOltFhmqxfaMVM9AcdaF54hBgG0QyoOWSaVMtNLfP7zrVAmsExqAfnx5ffviu3cvbgMyZ4xgY3m4ba/u42H0djQFpbpdXvy6anocM9xdgfp43+Gt3i7fZfy4++YLYzuYu2R1bX/y9Yde3q59T5639BfXNxf0uigsDMzfwQ/gdXosaKUU4xd/8bMS5NjJxY5cfv3rv4UeAfQphGHB+y2+/mc/b7V1RL6VDZK3L9/+xb/+/M3Dm+LsaigPCH71/qu/+S//+av3XwxNJqosBe7w5tsf/lvhe1qL/BUC8dlf/eW/QXye+y9YcgrVE4dmS1PkdnB4jMzCBrYZJmOxLSbAK/BoXZfrGnDUFECC9czWQ2gppjXDjFDGLbd6fX//9t19S1VO7lBXvH75qn6mt3evK1TMQE3y+iEe+/YaBbZowQVRCwS9vT78FuW15roMMrt/+eHhFXpUDHlizQZ2cET4XBRPBvYgy50UEvugSVZ0ZYA3syXblYQ3LRDBGh4iicnAAIygDAWq2fKYZzo8XQEEnd3RJIWLYwsoVMbpiLSi6KWFBuPQ1eYhhw7SbEYp2Y+YOE3osBgVcVdXMOdkUTNyIHUiZ8lVGg93c4gRArBS7ZHk3PvwZYQDwWXvTHpoUcbmc+/HaOKZGUQzoEuhYimRqDHZt2RrpKihtjoSIcSQehWsAeSYs/4DD0SaF6uRgT2poi6j7/KOMbFTx/nEPChQMyOYJQBBRAUKXOFiVCz2hoJvZrOuA+FlL2j6fBdKT09cPEVlbIq70S8nuiKLzq2XrW2hpOtJowZKWsjcGyFAB7pGg09a+rQsVVLGdxDwrvyH8+tPy9pRIK96J5m203V4ynzjvOzUap3oEGVrYELgp3rEbMmZA2LFYI2UfTQFV1E/jmTMM1Rzw0ZuSP4n3ytGjXEcdOgthHujwWVv0I+ZHAGy5qHgfYS7dnBxKGxAXdrxiRdSWV0Dd/AVAF3pcfIFQ5IVnsWceLNaZ2mKIWMBuqIjutrwIMasMWM/inMSP54e9bLd8oOhD0gtGCOZ5lCANxnsNYNKuo0sRd16YTDP542qw6VQwdtYmkHsZCMcWzQ5D3ZqskzRjSCNAtzNbVBHUcTLmyzVUH4FAFFD28vXX3x5SRSYU2tdt6/fffH+8d0XV3QtialqoODlF29/LlxmHBlBGvHw2aXCl9p/qk5s4bfxm9rVD9JCmqX317/9x+LWeWckLxIEFHe/+NO/Vt8EAD3rc6OE+q//8XdgX037PB9ZA5e3H7bRXuIskNRK++Uvf9lKn8GlKkjftXL59u9/VeuFrnZZYokvFF//4fGndIoxwDBLJx9u/We/f3hx9U3FQ78gRt3a15+/+aa2FzNJeUSs+vbPLg9R3tdL7Z2I6NajT3Ka8aMDxaj9TtxiHEw1jRKlds3zb7QirA7JVkyOGDVbd6boVsM1mrna8jbGuXV4SubMYIU3ur28Vfce3oCa8Z9Gtf701ZfFYGRJ31KzV7vi/ePWcZNCi00s9fpZeft5vX2dFjfzXI277z67/qHfPVaP3zaYRdJZn2zKKMEa3jx0CAlXBMbs5AbRhQ5M5Y/1zMllhoy+zqFZzGYecFBnjrwYeREP/WuyI2bYGi2AxHPUPDmr/Lwc9pJGHNVaGmTkWRcknCXnR6YMQDDiQNfFHvYOUd8Bcx6Hlk4Bcr/UIfx4+OHxwPOgz2bgzK3IWjAvsVCWNY5tAKtZrnmw5dA+Xzgt9nrEGbD3Sr/GLBWfe+Q2dCPPdAhsh6i25CcVO8wIuEyt+9jePpgMjVTFGZEHxJokt/X0lIVrLsE4sbgjK40TZLwtSdsk3XE4Nbp07fO00Axsu/5tLN7ebEj4ISLSnNZyLvr+sCfrVgI5G3tzlw4P+WA442DnCDGGZv9nSk+dyFpM4McQZjssvWC01QymUsApTDEW2yzgfNRhjkd2HwBXdK2zigIxtMfDrjAUOHKe3h1yck3PzAZZn7/YgSFjPdAPy/GT+XChKZdlAznOTjaWvSFIA7cMbCAGH8OmbFooQrcD/99DzZDZsotqMkbbID2RcJErl4ieQdzgYGyK+1qipoSYKolXPfipQqDEVmJTyMifkZmdTGCqKL1LodyTfvjYkWjJVbOZn9BdBnBt9XLbbgdZ4uDthubJaYllNm2aGb20JEg4GFGWeBiBfGRcMX8vR/169+pW+i7kRAQj6uvLtrmofvHZF52663jzmx+2PrjE1aMs/e6bL/+87DThoOhDt2+/+9a6YiDqZefcf59iGTwE8OWLL+5biqV3qScfXv/jH/72/cNrrIV0Lb2W2L756uelbyUqj3yh3v33v/mv4uMgi9BSU393e/Gv/sm/AMDVK0bAtd+/5599CH47pu9sZ22h2++Ku26VUaWkCquSaeLwf1klSul3JbYVY8wW6rnVwW61QwaxTfNpv1WmLEZlFFExG34CDPbyeN3eAJhq/2JV3D4zAVR4Q+Kf7J3zYkYvF7rKMFtkF1ttYrB5fM4i0Mv1Ul5FuWDnaapxH5C2B1NVlrPe9NCwD/Uqsw6RXBhVaDPqVkXKirJoDa/dRMQ8ZjbdbSnoNUrALLkw7Au+66yNFZM+lg00llnGsslDOgcCvIVuYBfQGUSf+q2eouhkxznOMmGoHVyYFsEwg25CVWyBmvzvnkX7XDlMRSCHqimmFP3000qDVplqp/TbY79tdb1zNXPj13mODOJZdOSn7ciNzVU80O2jleKMghmNZ8pY5/n8zC/GJBg5ig5jRGWWOr//dLiHr/dACN1Pwc/6RG4sU1EA29Be+T0TC8HjlJ75xCIa6oQMe/tkTmnkvziPZ/I0sf82zcQ/h6XxgYDbH8+MJn9Rav/4E23nDld4kKt/jP+W8jjO4Mxy4p8d580N96TJtN+XK7fz9DpwvCO96rwEf16sxCjY14lDu8bE/7N+3iUbAYibUTprcR73rgaANmv4/H0UJMYrboDkDS6zcXRc7wnRdgY9Um5cQl2h/baZAvfu2zw7mqrkpJKGWjnHMc8LaJFTNOigF7TN5nXxOsLOAKLet2pGDXyYAuMx87lRXan8l/YuXdpThev4BZYYsZOu3WW2KxLtINtnxWO40yICiBK4a3q41VWACSFrayy+FXwQGwQiRMRohT9M/eOIf4QYWysNeJe4mINWVqg7PoB9/kyRpqwUcKVLbX//yowrO6JfEYnV13EiBKI0iB6nK/uYvijeA1VuXL/YZMD68OY1fcsDZ+mNTUBDB3sf1eJegrh9FS+21rGnDKTc8N33fzfB+CEiufz1L/4lnbT3YGtNhR5fffgNyoc+qSdaJQj7hx+/nyFg6e6B+Az9a8Rn9eVVXeiKBuVZgOX2shIwAjH68/NCMzmLLrOfnylDQwiVOd/KtCRHgYvzqCswqG7KYq93vZzqBRagN1xnb2+XU9EvGHelP8i7ct+M2Fort17f9Xm8MCvRYvRymRE05qYKbIyKfl9TtONJ9Qafxv+htP34jH2efCFSvgxC2b02BjmfP8U4z/Mcvr/Ce2J77Pr89S5TtB+HXJuN3SOPqkVeYHbBD78OE7YyPghDWXiYQmJkjPz/tFp6MvlnVF/jdGX2QsdhWYCz677SjwgPeXPEKcTGM6l0znOk6123vfQl47DEGReEuaOAebwtYctHl/cpN9UJYIbv6bk0+Iye9wAqYg2aie0ncAKGalKQEcKhVt+XUYEaR1omf1mTDk0GWccRHgfj855//Bgnq3c59InXN/B/AMcRllejwUKTAAAAJXRFWHRkYXRlOmNyZWF0ZQAyMDI1LTA0LTIxVDEwOjA4OjAxKzAwOjAw/IY3sAAAACV0RVh0ZGF0ZTptb2RpZnkAMjAyNS0wNC0yMVQxMDowODowMSswMDowMI3bjwwAAAAedEVYdGljYzpjb3B5cmlnaHQAR29vZ2xlIEluYy4gMjAxNqwLMzgAAAAUdEVYdGljYzpkZXNjcmlwdGlvbgBzUkdCupBzBwAAABV0RVh0aWNjOm1hbnVmYWN0dXJlcgBzUkdCKvIqbwAAAA50RVh0aWNjOm1vZGVsAHNSR0JbYElDAAAAAElFTkSuQmCC;imageBorder=#008080;strokeWidth=5;" vertex="1" parent="1">
          <mxGeometry x="1153" y="398" width="85" height="85" as="geometry" />
        </mxCell>
        <mxCell id="fkhzhb3UsODcdzvoW7---14" value="" style="shape=image;verticalLabelPosition=bottom;labelBackgroundColor=default;verticalAlign=top;aspect=fixed;imageAspect=0;image=data:image/png,iVBORw0KGgoAAAANSUhEUgAAAFUAAABVCAIAAAC3lz8NAAABAGlDQ1BpY2MAABiVY2BgPMEABCwGDAy5eSVFQe5OChGRUQrsDxgYgRAMEpOLCxhwA6Cqb9cgai/r4lGHC3CmpBYnA+kPQKxSBLQcaKQIkC2SDmFrgNhJELYNiF1eUlACZAeA2EUhQc5AdgqQrZGOxE5CYicXFIHU9wDZNrk5pckIdzPwpOaFBgNpDiCWYShmCGJwZ3AC+R+iJH8RA4PFVwYG5gkIsaSZDAzbWxkYJG4hxFQWMDDwtzAwbDuPEEOESUFiUSJYiAWImdLSGBg+LWdg4I1kYBC+wMDAFQ0LCBxuUwC7zZ0hHwjTGXIYUoEingx5DMkMekCWEYMBgyGDGQCm1j8/yRb+6wAAACBjSFJNAAB6JgAAgIQAAPoAAACA6AAAdTAAAOpgAAA6mAAAF3CculE8AAAABmJLR0QA/wD/AP+gvaeTAAAACW9GRnMAAACrAAAAAACp8VfjAAAAB3RJTUUH6QQVCggB3ZHezwAAAAl2cEFnAAABAAAAAQAAsmfcigAAGwxJREFUeNqdfNmOZEtynJlFZFb3vT0LZygNQVGABP2DAD1o+SD9gwB9nJ71JAFaIEKEKJCieGe53dVVecJND+4RJzKrejjUmZ66VZlnifDwxdzc4/Df/7t/CwCAKTqO11fa2A6aAK7XKwDdfYMgTAxiCEEAAkCrB/TVPdBCAIKKOu0YeAkNg0HAMkEDjA+XK2AiTMAaAtxMjJcbGICBEAJAiw7ww+UnMOkOQIgci3l8GZ+DkSPJ0RIBBHyAAcQ2CwGQgPxH10d/r8OECU9xBM9v3p7M+oJATf7dIxj5XyC8fq9f1rfbaK2cVHzjhjnOd49O110aAOAAzIdztX7uD5BhIhAjtUA1ZediEaaDMRcBhGCBypmZKiHxvKuZU13SEmgjcg2DkNfl6xqt640IyktS2+id/+f5+b0I/38OARhUTf73ip+GDAEBBXROfg1uv69LaUt16189wu+Peenx308F+njv06UUKLtYI3vnAfFGqI9DcwSxqw48l/qNmEzl5wS8zXxJHICpPGP9Dbjk9iiUt+OKXUzdDBrlh+Yg6NiulzzV+P7zdF1y/lGWTWyjoDexB0sDY53BOdX8KQuOoJoj53UAsMB0Wjlu5lDnkLAUiH603rqK+ejYl1NGEJ2wNpnImxt0gIbTzQfu1CsA2HEJ3LRuGgTkfGpNILRdRAgxcI5mThvNoEkDlAxDYNho0Q3A4rnUkqW5GA8r3vLaOdJ51WljmoOnIaBfx7Ff77ifp9d9B067GOtnBC+bkqnUB1sMDWAZbcwwloqU0UjNoNFCu62BHESLHILKzmoAUuRqPRjI4FsbMMDyf6mA2hxP148/niMlruqbGzujaLy+bMpz2l0u2z7X/OPj9WMKotYsb0WaMYQZ2EhL+e+WghNNJAIhGuDXCAIm6imWARxol1SQ+yOOr1/N2PxXAACP7z5cQOXguM2ud49l/4OCBjeLRfm8IBqw7hvLVoyW8noYyVrJebMwAQYYwgFErqsQcm8hGbQUrS5k5J1bnG4OGy5o58rfebha2xl0H8YzHVCdGUCnQ0AYAoywu3jn5OkAXT/3hxmE2n2AWBPmtP97KZgOM8BRrgwSQghaLahQiZgBxCAUxtIvtzmPtAWA40EBiMDmyLfPpxFu34romIgqDYrlurb4B8MgDZd3nDIMAOH2EBITnKR3vZ/8o67OSFHmoU3/l8OQeR/wY4vz+/pPh+fHmJdz1rbye6TrQ3dnk/u9dr26C2rbxAL3+rL5XNzb2xqEAAfTey21UcZQnZcGc9UYy+1hCxx1IpdT5OaeeI7hzeE6LwD0uy82TPGHHAEMwW+CEGZq9CAyKwAtz/8NuOaCfaXqB9A3EUxheWKxOflcI4P8xrTfPfoO6aYnK0He67rWeDerVuZ/9F1q+AYIV0y165KpAiEoXWsavGue9buJYH7Y9mVHARLN1DBBTNdETfvQw6lL57V38//SL/vfbGviCKZN5kqFJowvMeUy+QKne5yR8s3kaQhBg0TzDElgZp8MTQmZPjINBw1EpgnTlarw2BLoGYy0tMNE3Olwyiihcd+FSMtE/9tPn5aPIG4cP4KvOTdTOeFm9KFmKKQNxMjtI55aNCAgwwAiLep4/bppQwzEFBwbShzTBGLAbD54BAVIJ7yNT58+5Wn31hRfnj8vlBkceboZH3/yabRRQcQEEy/EOF6BEFiJbloQ0D9fOiCYQTREI0gP5gwjwewlEEQfaNOx5wka/HBna/FgqAlRd9d8CSdEW3h+ULnEQw5EohcZYW02ta8bACjSzoXEvASQo7LPGAwU9K94MnGLpkKpL3XMpQhCSflMtyZrZa9ycCleoNn0Sv9CmLgWBeG04xAzP884NxcfxIRlPvO1IIQIKFQnn6LgSsO4HvGQ5fEP9ICMdK04MVxq/szwHs9f4scUPo8t/u0BeWOCuCYc6VDWwkaJGH4viqQZvg0Siz7YI2swESSjvbkLvxnUejA9ksyITDUhQDHjapFv85ddFvP+d3xLfXtHCkiVe2oC+HcGJGMnI2LmvDEZgXv2MS08BVTfjlp8TQivlPhbBTnnnxklkGn22G6tt2NMtcSDdvj9MD5XPh8vMFoFiD29/Dt4uzWBKfHkHZILywARgaUNRUTci+n3UDPockJgpBesaRriqeqoTB6Itdr5VNgyeo3Ny/LCJcrYZTME+46lMhXE7rGWV5/DP5MO5v1ndBzyRgWGkk0u1V3+Zb/2lOkaQ3/uK+KLeJIHcd2XjkYjGtEcD3bULPiphSbzjckxk/bJcJwkAhrUPC1rSxDehydO5KKTfSrSFdbYFCeXJqYWPyy4JmFxp1b5Vf8fXz7PoVCh7/T9gjGaqWiKQKcGlsy78T10WZ6BAQYd4FAPYIDHrt3XQz8LXobM3Z0DRufpzM+vHPH60qLYFE94M4jrh8sodAigLUbs6+vLPZGf0W3YY/H/m1zm+iPxj7r4sY0JNlkwRQ7pQa4RxHUY8HVsvoAHMMgkqMYZMNLBEh9CD2ucNEnf/txF06LsPznTgIMEHUTIQcxqR8jyO2Hv77b/CQwombxLoe8829TmFLkBDAFDsRPPFviqRPK8y9UCVSkasUERgIgGGEkBliPxWSrxrM0EiizQQJgKxhCCkUmhXeUm3bmYAGfGV2H+nv+tOfJhslpmXO4l87lkCjYQ7oSzOc5aCgXuYwdjVnuUdZwFZsMQk4l50PwH1iD9aIyTg86RxFZBuaN3z+Mdj7Ct//kdEc410BZFHqI+4rRSsfKtLT+bBHicTHhgIrwp+Tda5ZOZ24kTVEkQDYqTPrhjDZzs8xY1pnbWH6cqZzGK01PW/BGxTqKCIEuLeCK5U70nkilEfA+f1yDWz30gklXYflM0+p3FqZoiUwkrsM68832TpkUvEPQHLX7NvyZgZMptaOf5lirulQMCdNCL5lAloQw4Hjzt5CRr8s3iff2H2B3lNvjJWcfJ6eRJG8M/AbUMmnLmwvclRX+TEum0hKgqotN6KbSAlV6Ax3knBu1Q+uQwcLA75VhBvNVUGmcBMwrwujH6iy7RerEXxYschEdD81is6ZmohTtXgQQmbgqzigWLuSZCRgvdZkoxJ5jrMZ06K89fkuxfv7xMhCD4+KNf/gS+YoLqjGfg8dsvvwEOcMxSdM6q/y6eGJe0kRRKSGC6QwYBcqIXP938u2NcDya3bXTwICy+PDVTL8JrxjaDcL8O/ePrT57GyjsjiENqgf75ubvgYUaHGSbblnMuk/THD/0som/ZZ5/RgrACbalWro/ZCVtpjS7FZgAezLzoAj5lEM1xWAlAGUqyY6iUn+5dcTlwNRqsoMyDlBjjckBJPycZ3QyMG249Lg5P327iUCLCuA6ls1w8ajBL4HPm+TkNBN3Ae1ee6x/UCb6rXHNGyET7hc/vK5tTkG+yICdjv9VqF4NtwR1uyJTBIiAPqANDKSOtxZEA4iB8B4q8JhyFs+6d3AP/915udU5Q93HWftN74fOabxzWN1LA9TmjJJI0/8I/77rxTGaDjmzHqJHwdKvBN9fOAfzeVPJeBHzkv2Nf84fz3p/eRjwyvbqmdF3dHvRkxBZdyWO1QABH8FV8BQZwlLPnUQwLMyTNAVjeaPVJEEOz7yhD/0NVuOqfpy7slZDoRSOUXNPDfZMtmf4241zyRNmoocqPHaDlcBKIC6vNyQePLBmszATwIkMn7M1gVOsZnGXYbHsATylM8P/tMU+fVdzkYxzsxG25NCGIA94IpJlvVyVmr0OXzwt4LJ6v2fYRHPCwI+YjhQwcfWhVG+cTCIFDMjpXAdkwegD2xRme5/oHYiWCAZixUgkT5la+xYzSd5W4uypub+NS8wQMyhr02RHizB/QVmV7xu1stsC4wpcMIqw8pNGC+8CtZX8Jyv8n93VIJ+lUZe5rwAZbXM4+L/QD8bVfPUdM0/QQriOiHxdFKGKy9/kUO5K2f18X3nic/v3Tny43bgZGg86K+MRz4+uXZ3BskR+AOBQ3cjzJysYT08Fm6Rd//LOhGxCrXS3r6GLMdGjSwQji+PHzr4lr8zGtTLCecbzevhK3nH9GO/O4Rvzqer3EGArTM/lnD/1R/76H9qIWEeDxentNwzydg5Xrf4Ur7A+9ZhV8lgG1eIVKQs/KafqN1sal5p8lYppsdtd4ApKMLfWUFTzcXoew1p9VbtPAU3MMW6W1BDR0e27VMjeFHkM84vZFuERSAEWx0boecbRolV9ItX74PUcXjq1ocWRHwPpak2Db+kpmIdCiAZs+Fp+fxMTAIYxUnOmcRi73UAwGWGleMt8NMPpAtDTXfIppw+k4XPlfMAK3QGKnzDJnJ8Vu9AQQVbOc1TrMwLkKpun/YkseD05fALMm7yw5ZOeMFoSkKSen4ALLBpJEL2EFZ/URs4hy0ENHwRsrO3wCCEZzle6q4FEpswCBkhUrLdi6iYwFAe/LJG8Prni0rf8JXRigzQmBqLjnf7GnJdOEMqUryi2p/b0/1csZr/9miLU5Iqq+aQI4cBadpmlwmAeqnyd5p9lxWzRUkSsxC3N7D24JybNUcErhVJZ3w+ZDX028YQ5xRwrc/X5q7zbts6aS67ljzrue2nMAUUCoKtxHMDZvWuQ7Nmh06v8DBGQsmvjtVPtOJ2S9/fTY+6PO6ShWtZAguAo1VWYygLF6vsy9e6MBbe/GgxPqTp06S6O1dMRwtkA4vbLDsfxRtV5WfkmdgWxRhu/OfON/LuNUV2Fc4xi43XXaGQQukXXLlfaAgB2hL+YYEqeQTIcidE1TCkKzP1xwH9JpFNX2J+CIriTyWGQFjYbRjqdQJteafonNAi72JVI7nKLQQAT6MTt6ZvCSIDFbxiajMqXQPx1nJudx/M//9J+jfd4bf+gOt1/94k/gtlOrARxt/MD/c+uRDWx5fkAmf/jxh8EqGnO2dwK4qCFTP4MIWwcAkKahMYMLHc0g+vgywAuAcZJFbcTlt/3a4rsT59AGGp+ffi7hhuVJTFNPwz/1TTG21qDCcP06TuOx8TSOwdtW5BAjGNenEYoGq9AxHYRwUJ+hUXHcMCW3wQ4a7ECbcRgAWqiHCLRYLRCRzcxH1Tm3lg5A7oiQe+g44adFd4zvw12erTp06KA5cMSdu0OgNw/Q8gF0lwiK3uzcuTHGLAdnU8sZDRPwc6W6RgOG1ENmdZ0qZlcCMxeYXffb/cFQYuqtabYiaapqeewYBBxtlJN74CDXsW8EwBvPN7uJMPOfAuOZT8xAuuX8QJj2/XP2shS3f4v24XsDKqOfOacnjTtDpmahajJOW5YSnKTpyt7uFvVU4UUxTNvcUMDWBcuzebEqeoV/vHh7zGard4/C7WGuNrvChoNF2WQdJ4gBdGpQ9acXFBUsBYk9RSEggoLSyU4XGIFjUeyPXW0zrCR+Owsqs51k5tS8I6nuxcfU/yVLTe7o7JadCmJGcEhLthXbwlWiWBKPxyrmGlYtKJ324ZoUS5UMKaNpdTwvny855hRPxJV7rpL8CCOJZic0XkpdRkGzbLPaS7PayugT0gYAO6uIq5yaDE9NwTpGGnT6hUo3EVgJZ61C6nYSse0sL6EZyhA/63k1J4fNXqM/687N0aoLSqtThn70oMieLs/8H31tAcvJD2qQhlAhKftGEFB/fvpxKWe0l5fLc+hZp/Fkf4I+f/i4NcVUQjbY8HW07GkspVWzAFzHZoHT2Ohoen2oddBpDocpuJ3Nh7YMBemG2VCTSQSBpmLE520cJBCBNtSAdvpX98Ex2AfHDF5IqGZGv/7ToJmBKlr7/udPow3OHApl4fgBf+1V7pnr32/f/6N/8M/68WEtOwC5M9p//69/LgvJhRR7FcHBT82VFGY+IVkMff36IgvuW99Q0JeP+tlGUqaRBh1fnn/ImkdtGUQENNrt6Rd/eix9A2DJbofZL0BoUluJcQn3l+vvgM7I+T+/XJ5DL3v3QCiG4iuPISffUg7A+iAHjqw6V6NdbuYIXAdottlLlscQhNvgbTqwXEyJbDiaRQ/MPBeAQo3CSQoV+yZEZGuIQ3DmheQYCEODFzOARgcIowdHoAWrlXwL+VH7/wTDgdyEUrEEwVBWP3LHio6hMzuwZR0+y7Va2Eq1nwUtwDNZVSiRQpzFv9JqNUcz5q6WucnR0aKo5EB6uCTSNRyqUFPA1kUBKlCZsoq/74O3wazK7/EepvrWXWWd27uQpYVYZXZGMIJjVUcCIxi1wHMHgYCwHjdQ3mEdjKr5qnjh5M6qjFkkYrMycaKLsNCy/9kll9zZTBARWSMGR5UhPfN3TrJyFtGtZNYB9Pv6kWe/tTYgsP9S6796+JKEKTKfmbQkgV2yXtXuAAbZ0RUB5t0bCs9KDi5w7TaFOZfLO17Y6TCsDo1Z6dWZv67uu28WRUIn+KsCS5a1v1ntmZXm8xfcufNTKOl+Fnw7mRCLa1dcAWqdpFGVvatT5Kw4vjuk88Oa/BrDO+fOXYx5z6T5ev7NM8jHees9BSZk2Z7UIltIoYt1HRqKrLFXv3ignQ0Ss56RbWs2cZwFA4xQMBQ6WuRuXwbtFF0cZuxbiTi3PUW20i89nTuLv3Vs+DB3NBWg7t/dxsKYw/Hh9TIkmdWoQfSB0FPT56Mp83m45n+5XXg5RnueGxVAywZ5GXqlezI9nu1DxHGJno33q3OiBQAd1pj705ZNMbkZjkUtCAbD2Xog8rSRciJ9XJ5mzxp45L6Iy7g1hXijW8K+2VWB/quRvfwBYEQ/xi+O2oSW0KUDzbx9+uUr+GJcq26bmOxj//P//b8O7T2cIeMyrj/7sz/ux1NzCFFpgnA9dPvL3zwdKfwaegu8tvib//ub1xaT0im9a8GP//C7NsasoFSTvxkHPcTaIGHJAsHQry6/nLWqQniBp6f+68vr3zS+Wk8TGpcj698dr1X8Mm7Uh9eng5etqt0VT9Dzp5d8wBVoK6966bBurx2pF7lzsTnAcT1e1QjbjvWaBLD1gcvRVYxl0WlYpGC1QFe1J7mTrH9rVgkHw3Qi5S30ikAze8w2jNxozxZunU0I4RhswT5L22n/iUbOBbmr6p7O0wSVZZlpaWt/zsa6sti97HBZtDRm5zsmOtDmNeeO61mcKe2zHLJaFs83kibmVYWHONl3yBzpNc0Zua1AVaLmhvLlRNzPPGkdj8X8CQp8V7fD9Opr8pXkbQni5nuLMuSZCyypb53Cp+vN39rkOSdum91nPEmBc5AxozrORF7ZIxhMWxa4s8+x9381mHN539waAjqoh/cPrPLQQ3TaGRN5ZuOzTPbmnLtnzfHNFo2sh204bdcUraHWGqhaDKs3cWn0xbjAV4B08/SRfSIZsRqjOOn6hQtQm/CKS0hwmr2Eqzl14bPgtr3FnE04tUl6RXtOgjwikedZpTImzxxKBrnJVYeKVZ7B6u3Tvpu+lhABtFWozcnSmkDNE1mg09clzhJKtb1pq0PYs5mt8CYjfIAiRtsaj2eSfzJisfGfs/9lbkipVDrB9XJm08Rc/cJFxyUeYcxAk32UrSp01QKmqmjlCkWELBzg0arfrvrXGgK2if6iy/JxAUd7Bm7vFHx8BftJ4jmMS+YnfaOmMoBl2oNqGytX7JywW9ph5dB0Aiejjcl8LFcqxNE/Qw90JAB6ZO48n82Skfgj+gnYs/AqPwujZepVGoYAafS/nmkLDeL5S/wl+IpZzwNaoCOe+ssV8QT0WSwHgKO9fLr85Ggvq2+lqMX4cPttRBy+dwu3MX7zw68/vl7uCc946eNf/Jt/9fWS+dwiTtX9/NPrS+NzTWaqMd2+/vg6yYVtmxxfb/5vwIHT1prRx3ihv3IMMfnvtvjS/tKuGbjpaLiN9rnhZV7fgA5fkGHPGfxPEYhoodVdlFLL/uLhxzjiiiA9VXQ2HQeAwQT8ZXSz8gsojstn88cSSPJL0RSXaEcbF6VVz1cjgC9oz+AL3AGyHteoIRxCxOS/lyfqjAsQSTzkHoxYxlmgfZwtsOk2iNpRwkFH86zALxIwuO/w25yDDMZWKQwKPAxEgot6gU95MgODsYJZlhjKQWfHTVw4nQgYtTwY821GmoM8ElI33DKVWeizVyGE1B7nzyNwNoVNL3GaYQoV5+d3OGK9VGZ5Q3H6//lx9szFimlnIKCjqt2FZAQEg1xIS7OPAAUjmYNsW5RZwbYrECz6aK1Jn2DD0+vmmza8zSJKeycPtxMeE3IUPnnIUl3k82x1MuV0WpURnqFhRZYp34cXBMxbBLJdZO4LOVNaHuZqWZjrb4DDFHzZakGzHwvo1XgwP52KEfeziMcif4Yiwsnqba3YeA/YTBp/imlyeOtlGTsWnuxYedOWlMZmRZigCHckjYHcLRSgFFxYMK+IbUKrJaFz2zCg5Ri4TtubOZon2bSOofRec5faCS15v1GhihlMAFedyVm9WQ1ixuo+YCQOablrYgHbScBgceGeNTKGOcpaHaHlF4YFs29BffXXRE9KuLi37DRhpZknKcI42gjewGOFJxPWwO2iIWJxQaKpuDbcgM/Zm7Vaehou1uejXZd/yNlaR+PnjpuBZiSbAqDhxXo5+GqO0LKLo9NHE9DMQYfp4JE7rp7GhWWnywcPjQj4UAGOcTos9a8/cCrVEG/ff/fJrR8Zng3hAG83Xv/qd3914LfgqzBkmPlylsuf/fyfKFqtXll4J47/+F/+Q/PgpvAAWrR//q//Zds2KBsK9KO9/u3rX3jcnHWd6TqP9nz9k+tox1CQo0pDPni01n7abt+1eh+DoWZGDz3/xW8vx6oXJFPYjJfvfiLrqLrHaW+jM55mP9hh3UwNZtkxq27ZFRuHjoOv0AsxLgOhOKiGxri04+MUZ3b5dOGl+9bwQrfpn1Jlm/V8qG0pUB88zFvDM3wzLmOGRhoHn0M++vNQBG2CjktgRBs6JMPhbIpTDEWLaxuXy/F073zSfF4PRVXoN0a0a71aCz1j763hJgC4hEwRucOvolUzZTBksYUWTTatSrBY2+HuRjFf+HgXX/Ntj6Fq7J7eQtvuoGO+bSHWK2WSqieirQpKVOpxTJ+1CFid2p5xag9taSrlhVdado5YlQ7PjGK597smK2mHOOftt8LzHRBe9Mn5LsA3DVzVg5FsVzU5r61Eb44sH6xAG7v/dsKqbFGv/2GSxf3+bSFogTAus4BKy2wGMwPNk4eq7E9W4ozpQlA5pvhm/XPmkTuFMDEcq29qp+gXmRDA0fzaYpMI8j0qoxlRya9c/RL7onyrETLu33f0/wBJRHpawc2MXwAAACV0RVh0ZGF0ZTpjcmVhdGUAMjAyNS0wNC0yMVQxMDowODowMSswMDowMPyGN7AAAAAldEVYdGRhdGU6bW9kaWZ5ADIwMjUtMDQtMjFUMTA6MDg6MDErMDA6MDCN248MAAAAHnRFWHRpY2M6Y29weXJpZ2h0AEdvb2dsZSBJbmMuIDIwMTasCzM4AAAAFHRFWHRpY2M6ZGVzY3JpcHRpb24Ac1JHQrqQcwcAAAAVdEVYdGljYzptYW51ZmFjdHVyZXIAc1JHQiryKm8AAAAOdEVYdGljYzptb2RlbABzUkdCW2BJQwAAAABJRU5ErkJggg==;imageBorder=#008080;strokeWidth=5;" vertex="1" parent="1">
          <mxGeometry x="1245" y="398" width="85" height="85" as="geometry" />
        </mxCell>
        <mxCell id="fkhzhb3UsODcdzvoW7---15" value="" style="shape=image;verticalLabelPosition=bottom;labelBackgroundColor=default;verticalAlign=top;aspect=fixed;imageAspect=0;image=data:image/png,iVBORw0KGgoAAAANSUhEUgAAAFUAAABVCAIAAAC3lz8NAAABAGlDQ1BpY2MAABiVY2BgPMEABCwGDAy5eSVFQe5OChGRUQrsDxgYgRAMEpOLCxhwA6Cqb9cgai/r4lGHC3CmpBYnA+kPQKxSBLQcaKQIkC2SDmFrgNhJELYNiF1eUlACZAeA2EUhQc5AdgqQrZGOxE5CYicXFIHU9wDZNrk5pckIdzPwpOaFBgNpDiCWYShmCGJwZ3AC+R+iJH8RA4PFVwYG5gkIsaSZDAzbWxkYJG4hxFQWMDDwtzAwbDuPEEOESUFiUSJYiAWImdLSGBg+LWdg4I1kYBC+wMDAFQ0LCBxuUwC7zZ0hHwjTGXIYUoEingx5DMkMekCWEYMBgyGDGQCm1j8/yRb+6wAAACBjSFJNAAB6JgAAgIQAAPoAAACA6AAAdTAAAOpgAAA6mAAAF3CculE8AAAABmJLR0QA/wD/AP+gvaeTAAAACW9GRnMAAAAAAAAAVQAd5h/fAAAAB3RJTUUH6QQVCggB3ZHezwAAAAl2cEFnAAABAAAAAQAAsmfcigAAHiFJREFUeNqFfNuyJMeRnLtndvc5GIAUqQUkcneNu3rWi75Ij/oL/ahMZloTJYoEwAsIzEx3VYbrISKzqs/MctvGZs5096nKS1w8PDyL//2//dcgAAABwAQgWNfrKyzXRwoGgBZ47a+0ADk/YdABOh53YCd8vg4dbTxkGzQRtBB0PPrefvWze9+bLUcw8kYPvn7//rLzlQZAE4MKxo6Xv/zUBm6DMGEob9699/d/7d4B5CyMDjf7ZRsdvtgXoAfmSx8+jt9BH1BXiB6UmV+oi8ICQANAG5qzrE9pfO4VQICGAzxuB0bQYARgIhg2GiIIEoaMGGyAIq9NhSKwiwgIbgEY3SQAMwABAloNMkiL1jF6A0YgmneYhmC3HCIxuA2FtcanbnAuZ14dBGi2kCyaOD6tXTUBYy15A2QE5oWOjwKIoX1wN2qVneOjQQ0KCDovCxPhW7gN3mzlohgcUEDmA7n5JCxQAAYjGoaP8dfYHBsAD+Nx7CtitH2jQ8A04E712n8KpgBaLXTBpVm0ZMz5YijuH+9DgLW8pjmEIQ5gGEFEmkkQ5vjiZy+hDXP+sJoh6duffno0tJByaQETu28/fPhqx7tlU8EwPdrjw/bj0B5ylH0FGPD1/R7Gdc0/ZwLom29+Daz9K5Ns6tfHV8EdkFz2n7POKyKsnHaugqwWWJcg8OBYO//mpfSO9F1A5lCMtgWHOdIy6IA1pAEEOyg74wsADF7DrwNfAM7IYo6BMGCGtYE7aDBydczY2nWAdO3d2uqt7aedn+8yHi3Mw4u7ISBi+n+6iqb9X4ZkwMw1MoFjw+YmZMybzq+y/2BemQjtwTJORmeEGbYCIlpAgGyAEWBoD48MIkIGDgUYNWcBASvHMdBpEZIR69Pcakf9/ByxBjGUmw9afX2QqzIDPuT1p7wz5oUCT6+3AbGGDjgv6KGyZEBiGC2dZEZyza/D9X45UdDp7YbSIqad1SoT/XTjnJVmsHMN9jQ+Vo7AYP23EzG/EGYF/3mzw35ql09mn8uy3mCtdyYumLE+ixneYATDnLnTx+RPY7SPFa5QR+duD6DJ5YmwMLcmIAMBrexTw3vaHOV6EyuDxvL8yO8Gw4xaf4Qrs8G0WVu0rv524yuoRkb1tAVjbqCFv/WKfyWzgrVMwQyplaFAQy684TnnOTHNIc7/1sRREd21NF2IgNN/TGHZ+PTYvLjXzT8zwIBj/bxmfl54OtdiLdT6qUzK9bsrlJBGeiFMzeHWxS3hyEHmk0vKFXcAiGst0oiCRsuMRsDoNAQGLeuYMTGIvUVwV8XnCGIogL0ZNWEaCGEnBmjDUQsX06Ecy8kNawcwhMG2+zZwAzoL2CCIu273jo1Bg5Y55o3ClqIv5JNrqmjEaH4bhGrrz4F+3uUSCB++3OkO5zqBzNStIEJ+cLANnbYGgMbWD/M2EOYedL+0iSN47HBzv3aI4SsA6w6G4wJ89Yffvb+zKzoQ1jARvnzs/st1u2vrRqKdEFqge3z800899mYEMAQZzQj0b/7hnwfbDNNz2x1/+u77GQLLbANoxpe8NGAXSNDRM4pk5J9xCQaGIh0sr5jG3xwa0SMtLmBYwwa4A/REu7n/yuQHDnTgEoS5gyC1sW143fAqdiBCMGG/PoR72x7dMRI7A4zd8IgA4ULyRozcWlOmC/asKWSAXJEYdJi5iWpGc82RQDeP5clooenDb/wKa8v/5svT/sIyYFzhFrgYNjogpjswKnBwBwcAcBPY7B7RDBmbEjKVuwZzP6KKEgSgQWRRNLNC7n/9x6fhygKO7Zxv1la+fX0W4S2bX996/ixj7DnUy0QwF4JBBiqWeSbUIDzzGKynqO2goYmPVwxe6GUZ5rSLIw48b5N4Mu28afn/msGK7fEpbjw+iQm8P9n203plsai62W7BFatz7S44YI/gDg8A8DWAwRHEpliuN42OdFqUghDiEhgksCqCFfaOqfLINapVr6hQRUp/Mw36sKJcs4lnj5z5dvMnUspQHwm5Vk1RS7Y/20u+OerihdtCRxWbjEMWiAJQOXrOkG50FTdrwjMqH2txnhlOqKDNqfWFmNfcNKHF+h4QrfAmksB4+oXzkpyqqQVW6aCDVRGjORqiYWt+NHcA5A7Ahsxm79asyZXpWpFOpMByh9xGtTiwRuH36R0LFK1PGdFmYM6RdJzqe83vNR9/a1pEPFd4n3kVIK2JJ3tjfPVgA7uRaQKNevD1rsdDahQN6xhrH+sOLf/OmxptE5pdOJ8LEbE/G2aCl3SfZ8AuAD3QjEEIaEZfJsfpGs2NAPaRNchziBvXaye4nCJvRuHychvKUHz6Db3+j9/Hh3aFuwtiRzPv2v7cvnzo2ggiTJoBkNY79SO4rNQL3L759du6i+gRf/n+jz0qzE+WDbtwff1iCEGdR3Pj/vjTD5cRQyHAcfJ/LiNJF5h4/mmz+RQgPvuKXFAGrIHLA5c7vgRhGtyBvQEP6WFv4iBkZRViog/0oWYE5ASlhIlNGNQ4AfCM+XTQuI7T/sx0KGMc9r8YPcm4BkaC/0Bfqf7s0YsSo8+TzaBFIZ6XoIJfHHVVooAM1MiiIhBwpNW1iIYxgOYMKAMMezSIuNJSuroFI4gG7KQnoMuImGNuATlmCBQT6ccsECEcRS1otEBzAZwe0YF/pao5xdVl7fXz39z/RRnPvwOYwb8SpwkSoapGI6v/OIxLFUcrSp8xwTH/lgChQnLRMg2wMYxzuZnAabKXoCHWHvfDonAElU9WJE7LcYZLZ6CQUGem18k0hEZox4RiAdBc4Ie1yZWFDARlxaAAcEKdU4YTjRa1/4dzMzKKjk/3xhLWCi5nPuX/s4Ob8L+FcD+z529Wa5qAiSOAHIt6MMinBV6JeNFYRb2ubx7cFABgnAsbIN6w+DWSw/Jz5+M5iHQX95g7XARROjNn/j+yCDPZBg+c/1msqKKSisB/OUzGcLF6MGNi6YlfCTnaTMWtGDRljZyJgMQIANil5CjCgdDivfLiZzvIyEcLGCZGlrkEBzqNVoxiukTQbBhiepd1svZAPNopTjrMGNRD/dEuW2ujMqPS5e7qwR18JKtROxsU0LO6m0CrUmPgxmiRsDxamXoQeLQJ7Iye/h+S96jlVhzYFjK6A0NtojB50HGJGORD12QGdqLv79+jaiPRMkLYjQ0aw7swZnEhRXt0f/HNV4+2cGEZ/95e/+efP35orxOi1mqa+9YBfQiO2mTLJH39Zb/CjehJE5sBRJN/+v236+LDaEYPRI/9BY8W3W5RiQ3mgMZjjElpTRMFgAa1UwhktSTUXr7aWY61W70XWytZDIEQREAMYZAPVBswK7PY5b3F8BGTAGzC+359315RJL/SesGHdQcnb48IqI0LgRa9RWOsQijAvXlsEc0T8wMtcIkQ/HEEuF9HUuW16YHrPRRJMc6yvXLbABdN7Iq6m/Cxt3vrcNGBXe6zYs30IGJVL+c9To405H3lz/mheGLmCJicxZaO7sC5WM6mXRpdFoYSLDiZr7WZB5+/eLs3I5tF16kFWFlM65aaAS6LCLhhQpUsP5XYU15J++09UPxZCKCt+gOdllzPIX3BlTMXKvM5k88fgjNE6bm8UEZo4bwux9CSNXgzbPNT/uKJkjg6yIsVxttX3XUVPysPzd5DwRM8rX2FUhMB6RkgnOb05naaaU8yZGXeyir4TUuGK+3xUxZCOI2zxl/1NUTNZLc2NfqktyNzIxhCFFedTWiOde0MhhnbR/ZhIR8ZNUmLYDnUiIwo7gdqSncrOwUQoJLkXSk6p5rjSyYyCDpYZEBE3dSYjn3alQDEE2DLd3TAilhyBtA99MjZLXgXGGBAUTVQBgMijCFkVByZ+VloeDKfY3ZUVK2m3Iuaf76R7lftVzBOBVoQO4HmqCUWTOzAUDUazdgTCOQUnfM8uD/OdxIao1qLQRj1Tqy2DxDd2nJYhRxLzzGc84eAmW+InX3Duz1naJpZanj4xQZ8Y0J9J/U+e97cURqEaUkmsrnlHazuCIAh3HXZeCvKkJidmMAYPTKJYE6IgPbw6r6ozGEAyRQcvrsWSBizzDCA3rJ6PINeGsAvv/n6GeoDwKbbtz+1nbdTyAlhfGy3/dGHbpqtWyea0OMxtrLdIsVBjxbjj7//Xbp6gq68za7Lr/7Tf9l4S6IaQHPIvsa+//hjj9GznzwZnr3tv/3426G9bOvUZfrrD483JK4c966Xr/9Da4KrU9ij9p+n/m9FhDOjnC628bLjdfMXK9jIEdwcl3CDX+BHWmMmJMaVcfVShTCOLu40qdmODACDl7tud77LLJC+0CPg0cboI7pHi5iNRsmPHgK344o+5qzF0+XciDRtwuBY/P9eUWJyRmm9o3KecLKB4AqBWvPvRlRL8SFs5YFVxuavdhhgzOBrPrmiVwtMZzqbgGFGKMLRGIAHwy0Wah4po3gy0jiKxYo+AVSIVa74TGtC8T+xpoeqTE6k+qlhMKpHvCxi0R55ESari6OSjqI/ioSI2SbPlBmTTYgMAQV+Vsk/WznF0BaGgRDjGFXokzR4TP6oKTFTwAmPGJ1T5Jap681VzKoOfRCbZSazi35uLRfkjMNr9ARFDqHSE9dUsajoU07GqErMMbkDHWFr0e04KQgOdcTatjNeimdc51mPie4lIfOhRgg81clrCbIH07KPcwLYz5vAhUk/8zrYqENxN5GfFsg5DXR2H/6N7tsa/KQTqz94tmKZOg+2K1qsVU9+6onAOr8CjOYwAuYAhEnUf67lkPcOnpLIJ7QHTr9HI6UenHIHHJ4VMlpgCCcpwcSI5/3np1eWJio6OhvTnDsRWnHCYF7a6BllGKTXupLd6IPNVFCDkmG3QRHR7GbRQWpQzRhtt+7BlZ9EhBDGuF8+CEFbc1dphnvDTzdnOk4jD3BcvT/6HRpgBA8XC41HvxeEwaG+aNH6uLbRnhYYCIdCnYEJT3rvj7RAHdcYcPNPCSCGyl0FYBO/+3F737bBI0Q1B4CLbtdIi9DSpNw5/sw/b+2+MrYQxDDj9puLNehITUbqDvvGC7573X86xxRhbC34jy+b2GwyaLRSq+2Xawf3MnZny0Svj3f8v5fb453OBRXj4+X++//z/f1yn7xWdGAkPGYVHtGwG2zBQMksc3AwyT542XRd4VfGYDSjG81oyWRW7yUa9uC29w/JWNIwAvBouy8cqmSqajroBZB/ungVSCTcIqB43/3+6h7naC/icb98IO+TvxNMWkO3W7xe99ccdnWQ6EH0phjF3wyhm/pct3+1kiPVu1NbmIwdn3BGZbipkVxqXIOWnqPCGZF9ppXyVhFmn4pZOQd5DLNhZE/lJI1TdsCAHZnqqZOQO5rzT01u8v9Hy8lmbaBzpgxYwdBMZp+rrudCnAa3HPuzvECS8Ef3fWacBcQPVTpj9c6exFVT26FS1tWaqhiBc/xexdjboP6m/30AoWIvqs4DjMEYiir1pl5yDvGIMm96B6WAQiWZWdUk6VdN3tOKPU2+dFHn1stpvXCAS5cTJYvljuINs7vJ1eYzHoPYmx2kMaheVfdCFY6gE846leYTup2EHQcnka4AwFkUPwMoT0j3vB5hlmo85f3naXPpcxjh4sgBtGCbGtxD52grRDKFu7OVIhwd9GNfDZ15OxMC+uVU5hS6NUbRGg3Vz1eCJaonUTlTdkHKQQySxmhPFjZkOIQ4a/X253EdskZjEC1wHVnhR/pxELIUSgcZanIq8XLMbFVgafb8Ugkds7jSpDMl7M2jOdqkIfqj7zgctXYjwKZuX1MOutpym5q5LUZobZqMva0VxPKOve0RfiOoaYFmvBrN2LXETIDRB+49/JJ7Ep67PagresmvB4KVdEnv0q6z8jkAtLiPq7RIh6kUCo2+v9IXFe+MPn7xulwrJoAIf/Ev3/0wPCpWzas82uO3f/zTpvYULQATv/nnfwLOyB8A3PqXLz+Pds2+XWU1xm3slz/88LIzRM4TGDR/7PzxV/3Hi6pXXZxna6PHx49t9DySsXQ+e3/8tW17/3gEBwYQ7zH+4Z9+0e+3c6vSRN+/5G/f9e2WER1031ocGpsZZYa1qQ9fYpbAubdbsWQHIxizWBwacQpvZe1ynLa+al7HZeCLDe+2GQsjmznaX/HHHj+8JBhJuZ4YuAr9Y29ocGc0AS0AYLT7IFLSjzr/EcCgt7vuMpapZpvo1er7Fy+Pr8ZklnqPk1x5SYjzCER0EXG0BpCIHlOZsH5lEEMxphzkeCnZtFikt4khxH74v4mQMvINohmXMbmAAuuNZg/10eGL3Ku5gIC7rGZNfVm1/ltAXijAXuGKe8OY/UXB6DxqYwBKb035rawBgqsvENnwy/hfZFFFzhmudEhrZTFX9qk6TEp3BgsWSz0ODWqCk4PYnEfP2OLoVkwPEy1FD2Jy7anoO2DXPDV11kJGmnkz+mLCUjybQ139+VgH2mqSS4f5nAJnIPQTwiux4HnyS5OUeyt82m7XDJ8FMe2aa5uSlkq5BWp6RvJJ3gWIQDMa3CaoLQVdoIPY2zTS6hqfhKFzlOGnPnm4zgU4Ptdd+RQOPmlHnptfeR190sx5XrtJQwFDUxqyKD1UnDOnc+WChCZIScx70AGr87GQVd68z5b0cdfZ6olgGIfqELS557CyWVJ+sWqFqvBqe4myyQUTJyNwQMBlJ2VHCV1nmsgqw2m6dAaIqS+Lifwf4DY7qNVHFQgmz5f+f+C7xP8RAqK5Dr/Foo0jNQmMe8ejtiWpOcjYGkIDCCsrwiJYG/CyxwtKWlDSDWs07NJoechpYmrD1od26w37IWZWgDtvisttv8wCGiYHri8bb+PjzfvFPY7OSuzcXh/XR3hKtgRE6HodpJBNZ63+l0PYTYB3sZB3/+6v35VHcXI5xp37t2h3bktXVxA4tm/+8d8LO92z0jQxFNeBx//639dRMYLVH2336/0P7/784bqFL6aCe0b1297fvb+9bE1ugME9AOPyEL56xZWmSTcBAe3CLT7q+99pbCFxtpYYitZ/3n/xEEHTifwh7ODABXsezKgNCjBi/zDUHlNgMJA0zzROYGS6N31vet/Qgis6yCJxZQR2IVna+t1m9D1edww5oyNDMtwC1saLcTEFwo5uGO1DuwxfeqA5OQ3Yl8C179eO1qK4wCB26RbbbWw3/9SiDnXQktn8OuJn0m3mi17dFH1ge3ji/akuhTAGd7ej4O1VQiJWEzJXEQUHp0CUEYgGBNSQ5TAW0xoUSqIYZeQt6Mcum5wqDgGhYtbV5pEyM4ghILjNVv1TVTrpiRgIz3w5I5nB0Dx0XMLkeRSAkyQ8n1ZJCLLKx15nGx3EOupywozomSraQX5T8zRWge0SnjnjZSET2KqwUu26qtgm2T0hw3F2qjrcqjg6+eUE4Cu5uoquDNMxtY5vk9GUFT1lmXmaYF9sTa8e5hGJnwjoPH5IREAX7DR6qBXlu9dMEnM4kHRoyRjToHZwAwU8qi1N4zntBbqQObhjhpVjxCvNE2MCp+wXZrWe38GksNavnQ5jLxdeiaMMwXV+Mo+uoiq/QQZTljmMcZz2ntxS8hYmmEcZ3U8nQ1sLgMjGfysdcWh1oMzsHZRPUc2IpKiSbGLtbZwgsOoI8NE4yI9oCNJxWEBRbRTJIpRHI6deW0YDnJR/gqVObLktBgY1oJ19UMSj+57kiSkjDOzCplCWkhYJRm++wBiKZmgE0LM4YTQFevatF4aLSo111G9tWtb/cmjspXyMZs8lLn9T6T+XNlHNGkq9cNaQGmBDozs9rLBqx83e2RmtjRsUwbDc3/PraRLZBdbAbeB2GQ0Rxuazg1Jt3IAbZgqG5eg7Hx977G1rsWepm6v9sUPRrltbsFxGc6RRgIC2wOoINdrd+2Rvgo4MBA3xoAAJIjiaZe2IjXoPPdgKkrpnAXZ1p/eL2zAVKJkr4zq04R4qvyKi/27850Oxz2DkeTv/9O3/6/GDTMGX6bEbb5df/GbnawCpwyh9gjb/u+vQR3DL6qjO5Pr1S3/9zi84sG3ux/bXH/6oNL2TFVy2W3z/7WW/LXc1BffQ446PQw/UefEqeO/cvtt+3JgsEVod54t32+Pvvnp92bMjIkZLgwLHj9f3uAZRx/z7e37tI6iC8JXxEh9afPe6b90xn5eAgMRbG68DX4pKBsoajAjdH32Py4dcjqE6t962S3+0nI+TgtcAd3CXA9qN0kskfIdw2cZtjMwXQdiGtdND2EVY2cPLXHNX/2jd2cG9hRrryMhNonuPHWgtpOg5f8vkZgYsogG9C1ugnrExIAIP8WI07x33dmSTPBSKR4tHZbUquRsC6Hk6NqWBLUTIaC16j34ZyrP9KcYJAtqIcGIyBurwbQzF1iKfA5C9Q0VPBiELxxa9mQZIgbGDLcTqGGqOMwYFk1HuALYJBQJxY4nUGqw+N/7ADbIMCYPY1xHQFKStnuRqlsho0UcRh4vtXQcYSorkKQCqFvY8ZT/lbXXOAZ6yn2qcOhh53Nazm86lgiylJGf6TF5YQxiUkr8oyil1rUH0eZqsJc3TzzTxCVcdZH5UnZ7RGz1kaFB1IjbQA8xDRSjGKhXeoNLUrUHsExo9g5U5mmBTBPJ5DufHMBSSKXKF514vZ1z3uVSvqJyBE1FSlZlxx4I5GYD7yoRJwyTHOtGFVgvQeaw5FUtTIBwZddztekDAUp1mZQ6Mk0oxDg3WXGhrOn+m9dkIxQw6rBMehSCtLF3zKHmsyH0CebEezKB1qPn0aQoco1wgupnK4WheFl3wxsymu3RGbJmStQeHGSlHDMYgdoFSC5gYbQ+O5vCmQJs2lme79shjy9xzgeSUzOxEYw6oRKSHjBGnk2jWHgxzBHcw5CWqijGrleTRopR1cVwNe/G3lNH73j6UjIOhyGKm797Idtctj5ZPOWUiuPcdg4jBMEcDGptx7+MFj1/20VvADI4wh8YXfb/1cRV2ABmQghLGZXsdQWu46lMRo+03+ApfEUHuU9spRu/jYqoPAcRQnudu7j+712GuLORSofVuU+clrMJdM/gMjXtTaBj5lI29/2X7l2nYaMaQd8WHvf3662/6EFQ9rKyiepjx+ys8CCexaFyINvTL8fe7dR31TIpsh7VQ/8DrIPP8PzqAoRh69wv/esQ+fLg5gEY1XNH6LLcqtDTtX46fDe+srY7EyG3/4j9uXzFeZyGIgIbQgj9+d/8QdfoayNMHsff7/vPr1kcJwcEe7X3CUhhhhGK0ffPtAYVvWx+pt5inju4N75vvIIMi1IDGAF61/V3DLY+uAxqkqEug7R+vUeVy1vkt2pDHBipadb5mt98qmtaNCLkFHdyB6PulSXmCNFMyrevWXu667iuq1iNcBvUxrmm8s3kZYAxu96Z715ial77E3Jjen/FmJTnP2Fj0tqtpd5aXLaXouYsyiUMGpBRLz5r0jVZrqsaTDuA6pV1B/mAZYj1ch9kazQeqYdV/mjdQyf6Q6qY2G87daFVSkMjHb9S0Z6rP6mU1c+Zza0AmFf3U+ViBdz3wa60AwXkoouGw8zX5ZzFULsE5lQEHU3BeauB82mN+7dBXzxT5LAerAJjPWqvmFIDOWUJnZa0pM8vdXpM5q+7CB1Oo58EucgYHnpaPQ7hF4Kw22dSOlMwx8cwh8f/kZQgcVUp9hndfQG61Q5XQEsVl5+pMOZeL/zoM09mfPbVsOc+CK8HWfJbMGj0dszGmMZUZOHSkAS+IUe/nv8ccjx5MLmspn5YEairRzcOtptlMNv38FIgpmasKLQFMkRplknVmp49EM1Ewg3k4385HoPVILk/NWRdC7g1jKmqYB9LrIESV36kPksls7pbE+pCG6miKrpN6k/ORWdDtiBGKukuAoqdm15oFb8yma8aRYaY+3s3EdFgCzYNAkqi5xf2LDcBx1D9NL9mUQSBR4Qx7tK67mtucv+iQ82hJqgBT5TsftCC09mgjH+a2ZDVKhghHKCnVmGbfscWxwcGugKJDKU/Jg8H1bLtR2o+ns0YEwFT/VcVSIgU8Uvxk15Pe+t/vfRnePG+jvV3vYwyMoWFG9egav9jND9vLXi3QOrvi/d70l/Hjxi0PcCyuqsf4mR+OxzqlkkFjsOvySvQahvMRTGgBPHaEj/4eS+J00TXYvPQYyL3p3/3lj4rLuXmXrvoiLdgyfY372H6Mv368Hnr5/rIfi5fBKZXxd1Qz11gKUQQEF71lgikcBOButCHRykgDIChiG3gE75gpxlRk0/V8Imb+XcR+TBZ4RvYWZQWhw1M4/T+UR0pnIzsyLA3VEfMae0ANe7P7OA4s/X/2KK55eUVuXAAAACV0RVh0ZGF0ZTpjcmVhdGUAMjAyNS0wNC0yMVQxMDowODowMSswMDowMPyGN7AAAAAldEVYdGRhdGU6bW9kaWZ5ADIwMjUtMDQtMjFUMTA6MDg6MDErMDA6MDCN248MAAAAHnRFWHRpY2M6Y29weXJpZ2h0AEdvb2dsZSBJbmMuIDIwMTasCzM4AAAAFHRFWHRpY2M6ZGVzY3JpcHRpb24Ac1JHQrqQcwcAAAAVdEVYdGljYzptYW51ZmFjdHVyZXIAc1JHQiryKm8AAAAOdEVYdGljYzptb2RlbABzUkdCW2BJQwAAAABJRU5ErkJggg==;imageBorder=#008080;strokeWidth=5;" vertex="1" parent="1">
          <mxGeometry x="1060" y="490" width="85" height="85" as="geometry" />
        </mxCell>
        <mxCell id="fkhzhb3UsODcdzvoW7---16" value="" style="shape=image;verticalLabelPosition=bottom;labelBackgroundColor=default;verticalAlign=top;aspect=fixed;imageAspect=0;image=data:image/png,iVBORw0KGgoAAAANSUhEUgAAAFUAAABVCAIAAAC3lz8NAAABAGlDQ1BpY2MAABiVY2BgPMEABCwGDAy5eSVFQe5OChGRUQrsDxgYgRAMEpOLCxhwA6Cqb9cgai/r4lGHC3CmpBYnA+kPQKxSBLQcaKQIkC2SDmFrgNhJELYNiF1eUlACZAeA2EUhQc5AdgqQrZGOxE5CYicXFIHU9wDZNrk5pckIdzPwpOaFBgNpDiCWYShmCGJwZ3AC+R+iJH8RA4PFVwYG5gkIsaSZDAzbWxkYJG4hxFQWMDDwtzAwbDuPEEOESUFiUSJYiAWImdLSGBg+LWdg4I1kYBC+wMDAFQ0LCBxuUwC7zZ0hHwjTGXIYUoEingx5DMkMekCWEYMBgyGDGQCm1j8/yRb+6wAAACBjSFJNAAB6JgAAgIQAAPoAAACA6AAAdTAAAOpgAAA6mAAAF3CculE8AAAABmJLR0QA/wD/AP+gvaeTAAAACW9GRnMAAACrAAAAVQBuPf7yAAAAB3RJTUUH6QQVCggB3ZHezwAAAAl2cEFnAAABAAAAAQAAsmfcigAAHnFJREFUeNp9fNuuZMt2VMTInFW9untf7LN9ji3bCGEMCISxeOCRL+ED+Am+DF55AQlLvMADAmT72PKR7O2z+7JW1cyM4GFk5py1ug+l1up1qZozL+MSI0bk5L/7D/+eDgAAXD6WN7/q9VOLMIIGAFOd5dcf2FlMAKZpojG29vSP3v3x1p5MAQBER7gWvPzZn/2nwI0mEGEo3+D6r//034YuOF7srIrbh/tf9NiFYo77Ati3j9/+Ub1vn+b1QaMqSnunX38f7d2m482mrvt2+/PP11aEMJXzCgf5/P33L+QzEACw5ktUx26Mn1FeHDfwRgQYQAEAgghiL64wgDBCYDWKAApogMboIBhiN5vYQhXoIsYEHGHQxBi1jKAVFq1igSErnJdCMUIsKmMkAI2Ai4qAcIgKfPFyBCLfAACI9S/G2ynO1ezlNj8XCgjv7atNcV7ZAFD0ef6cMwyjb01v9nrZr4BFAAKiqARw3a8kiiocoAyAkrdwAIYxl0yBIqjYHb0YHJuhMGRdWy2+5F7N+YsKtFxKnPYfBEJBVwBlbjIdiKBKMNIegbXhqL/66ZfH/L399g9/LG1AAAJE9OJWcPPzX4X3cAdztwXgei//5T/+58v9+/xRzPlX4vav/vRfkLeiAsfYfPoe2D/cO+/guAIAYVN5ef/tkyOEMJlLTsMR8dNeYk4RaW4K7b91eR96Io7rmLju109XXuINgNxhgOEgwXYDSachyExDzv13gIJD3na8k76NvC5F7PReXLdeq/dqEQIFOKDrjjf37Xq7elk4QFcCb+7XIOgKE3TuP6pC7LXPTRMQAcMKS2iBqhwXlBaz9Yoep/kI7FCtJWCEAY4LpS2ExiYHhBHCIlDpCASdflRi3r72uNMBpO/tiBdgS5sHZXSnNWKvuFXnehtQOIoRMNjB3JkMLQ1sji60AMAANL1Dw4bH9QFDVFiEAhIURu5qDrH2MANgGQG2g7AjTCgULe+7LISOcACh4fkIBxHr61r4/HM1DXQAQAca0AOtzJ+5oo5FNAAB9zn006VO9ukypkrDmlsnEyLKWKNciMOyCRsIj5UKeGYfjFHk0GkjMoA5NP7CIwTgNO1pMvMO4LgpFYYQBCqoGf8JRTEoFIUIEBrzibHtREfaY4DsTHc6gtAKJUBgBpvXv4fy9361dqc3zfmohzQjIhzgmKQ4PMLhsUjO8DHcasXjVxdffppRuc5kON2LiHlpjSARHiv6eJm5umGKua7DApEJbu2Gl72krYagwPRqBxAGT04+xieClIcnBygzx23R8DnoBKZ5H5FifA2PeVnQek/Opp6sK8TojB6ZbaMTJopC0wrDaSYQsfUoI9h8dQs5d/u8armUyiVY1nuetgkZ4IqCAk0rEHAd2RcoBiwDOLJgxMkl17hkBHW4K4+/CqhP94uHDdPm273BexFMdObvy8VGvxaJDiMYKAAV1Ba8MT4WwNQIKgVAN3suFOafAnK41dutaN7dw/u4bwEwxhUIAJ0hIlBhwNObXIAIbzThACqtcKz9F2E+LLp5uNmrzQqg/ptf/MseAFAEOn75l7+Ca5pfZ0K9Eob+Nu5+J4QZfV5l7/33fv/dtYsG6E44WnEXistuVGIH1XJehupevrn0S3PuAyecdLv81jv6EgCd1mYRRmk3AiW9hydI9/y5w/fpgKIRjt59ub6rdcsUk5/qDFJP5aVQO2lGsQAUBYB6bZdOiNikMN7tPdyXkXSGscF1bxd4A6vAMizW8Av5Y/A20anMHrwBV8feXQvkaD1sAkIrrdfbbbub0ITAxShSi2sVBAXGn3qkv1RqS7Ofka2KyxwSzx87mgEloWEAnTDJEaEJBgANdAAAtTP9XHtgU0aUHMSMitaCAxnV6PH5IhRjs0IwYUNCMAx4FE5K3xWAQCcY6uFjwPmpGW6Lj4AaNjzce8Xn8BEsxowcIsLqRHBsO82YIJJODBJpFMN4HXoEwitWjbAZVga8kqF5RtqY8ZYmAeJV6psYm1ofObuiCc/slVam89smPskyiTO2rcmfL3X+RowM6TTH28yZlc/hYJiMZh6tNAsAu0yfwQAJCAcccHCutymgHOgN6MQeLpm9Mrc7iLnIkIDaIaKIUeFTBM7xxRpZYiRHjA0AjIQ7rxcZyLwzZ4ovXs6dyeXm67/NGRF1FRsrOXcGjzGxOEDmAsMI+3FjczLmKCkiXDsqYDHpAAlRnKvZMQFQ+ucA7cdGrStn6llWuf40kpy9cvajU9BZFCekFUMUedg11mYCAKopEUHJAuIe27pHKGJ4QHSyE0WJJ8aShR1QQFm0FgMIKiJq7pAdcjUJhxyw6ChWGXsIZN45EOTreJaRLNf2tPkxYgxQRMKe0aqHMo1OZ1aLANqMJTqgatr/vcw63Np6vL1fat+Ws9FRxHuJouglZp2bIw2obPu7rV/DWFtBo1eI7tEWOM3xqNw2b7WfBzA+wpN7i2dX5yhPHydPjQ+e7Dtg3CjXzgHYbLAThGQZDajpqTlgAPW//o//lrsp6rc+X3/xF09vn6+YCNFEQ3y+6HZpzxelGfXMPo539/jn5R+8VwEg2hCiAf3z5dYKdLkLzdFEp2+30FN8e30FpREgPn/4eOz/NIdQ2fSGkuPgv0IKx/NPz0UHAM1qqbN8FoWazBdHIRBXPX/zbi/eNfPoykB1LwYgypQRb+/bd5+fzMyc6CEAHdqqnp0ZfsbwEFC29vZ6vyTDJTazO3ZKAno0xy42ZxakTBHalEY4Sbi1zY8o+KGmWibgIFCE2lEUReRIigSMIjH2aGcsLNQKKbqkgaO8yhXXHqJz9OqBPeoeWxZSomCATYidbQ/E4luIGNCtM7mq9Ij8RpvZOzMmZGkrE0KjQTgMemQBjdkOWKlVa401imMJlgmYARSjKsv7UVw3Q6FWIuvuucCto3kyThzjzNJQFUASD7kVIjuLRtIh6KIabiYUGf+PnZnJX2LkjpkRAlCBPXdskCsoFCLWdUdVKKPMWD2S82EFnMR0TFB8Tg0Dfa3B5CdNdSbggUc6l5OYze08UokA1CKEERM8YcakLGnDKg5+kWOHAZsKdCbRg4I13ANKZf4QQYbQ09fKAG346itmKs1J0uhcWWCZwCOqOVEJgVF3JVMEfv0uI4pnkY+Hy2U6mJF55ucjNU/vXXlrlVg0mLXaKDn96pYjrPC44Jm00WmGEyAEFz/zetrjU2ZyCvBc+sfC+9VKHZM3UTsjKBB7zKoGfRotAi6eOZOzEBjRJcJRrepRtsSktMIrQIY9bLcFWqATCBWhpx8Oo/2iMnXwhI78COLMSASdJUAC6j7GP8mr4925xhGDbxp/ddb/P/v0FBbYWuDdvQC61z0RS2KVHjL9dK9CrWrJqyb2uja0N/1lUxJhMzTEve570R4jkuUvs5o2Q6wOHpu5Sndz8wn2GQZaaciMO6dTVJMaKQ5CyQsF4CSquKjNs9mZDrqWSVIhCV+g/uJ/dkBmFwG8/PYPv4fv6h7MbklYQH/rrf6vv/nOF4I0i2m4hfd6+/yP7x+edjiyLsj+zMfr89vf/UHX92ERec+Aq9jMO1B6ZJxnbldRfP7156KsXkaJaqJHe//DUw93LtSqohL3C/rOPevwTmTbhKz9m5+92yqEmggFFK23Hf3zB+0C+6ihh3tF/eHjEyBFM3CvAvC8tb0E0GsvxQba1sqb++XSrkQhtPUQsZf4eG177c/bXlRm80/kftvutaBFFItAX2wEAdQ+o8BwVwaZ5VrUHgEIQY6kcC+9lWYkJdMAdOnSo2YSxeI5RJRp1xyTn7EsxwZEUZ88Ywz7z3K1qBoIKYP5HmO5kxuOmDEpe3J5y44yiKdB9WUyjxH08vo2BUJ2CKJImTZziCsIBoGwjlrHKEADMIiQCTq+kjJ8Dv4GOwOOLHq+0h0ccW3a/3RCThB5Yg4JAh25+Ofwc4RQDIs9OqoTz6yxKhkNkaYfBvswJk9+HuZYglXYmHG64aIPBl+C2RcdjoYx+RFcHjllzGI3EGKvWMkcKoqSOV8ZaV6XziN1CeYI5p4tgNHn4+JzORoOo/8XeFV5PUT7hx8n2nkEyI9J/vz285UOEOWD5HrdnmC2EhTIftu5KgSKJt36eJPV8jkzqqEYtYlnKsJgzUuvCoEDXBiTJMimWRbLPtBE2tSJDkFCwKI64Ua+P2KOzwhRMfqXXEPNBEEnkPExWATG+4fV1V52T4ItG42v7DzfGn4whyCKsQmbkLy3IAs9ABKOoigqwKWHTgy/ClA0weyR5AlQDHrg/8FhO4qSyyuniTGUS1DECKMz1y2QYMlaCwELUyMgRIC55Wt3ayv3mPNvJe5lGfa4Rv4/io1x0WHkraITtwp6mEYP9Aig1r5dGWLLCjIDsqMDvY9uQ+Z5lAEUa3LVkRs1QWHtlVaGoHCabi0q2S6EixCZF4AqglB4NHkmBhVgOAx1VkCjOeoAUJ++f7NWyzXKd0+sUREmqBJwuL2v11/99FfbrRW3YmFgzLi/f77r3d/xxgQ/ADsssemnv/n7pDmzU5xIbq/96R98d6sD8y3Ohwa4ZQAUcUQvblWlqsyWBDIzFFXJcDHqYbAk4GtElIyzucoWYwOvT3HtEuXHYFBb2df8W5QoSRgBAGOVUCjGpQ8TWBFl6/ESuNVRpaxqrDhqL1UlmZZVStwcl1Y6v2Qsk7NGP+URAIRKr8VYLRmQHXP/Xc3QMBkBFW7Fttu6rpxwMjEPvri1aistOVKmquVUgZwXKma9GachV6F2bD1yntlRSTcuqmWWC8bCBXe6Lv8/Mfkzec0WGOaiF9WqGYRYTQGVqnSHK5g99hHw50IefXVyYofM1F8wyTWREW3zVfx8qM8WNb5+P7DKaLYcQMOza1o019tjCYRIvPAKo2tmu9cVoQefz+x80inwCEcf7z/ELCOzDAUFFs7pp9l6re8sExa0YVFEsHb0lZC/Vjl3rgyX+WJNXpq17aJ3VyMA2XE5ZjtN7Gu3WOqYR1dNFuQ1ADylzLlqD+9/fXFzVOuZIyNMqhQFVctpGxfGGjH0i0EvgdEsX4++ig78Nywu6SdTDp/HdJqOHsY+/o1dWn70aiY+GtvTyEFxdIxeNYLncHPyY3KVThY1isoetTPahGpDY+GxzzGdv3hu72w8n1vuPVRTF8jJalIp8nH0nt+/nvyX/bVBrqRBDZekV6fwN1BHOcw6NUVeWpuHVfbBHtQ+qvGcHTdVt0Eqt6ij3tR2K/pwbVXKGaZucS96v8cPnwfr0gmFenRQeKc91Io6R13B0fNW2K9UE7MFIH9RsBRF1aTDU9NJ0/pU486S4Co9P7Vgb9C3nnfB6prXwTiPpiaHjFMA6tvf/b3BtFlF5dd/+SN8sdljVNFS+bVf8PO3n0cPK3qEQBPF/Zsfbz/0VntF9ogCpj68ae3t86frLu1TwMNQoIs/oUfPaH9maX74nZ+v7Z8yHlw6fvzzv7620SkLKJWlt3Ltb//gxjeK3dHpkqLIN+p4+XjRvkoSUUGFpQAtpRsmueAAorYIuATUrYvL1mrtm0eoTOxZe+hWpVHZZiK1yW/ueH+L719qQpQW0aOBKNh/NO6lEU3Re1CoZXC+adWvWZqzL8QsIoABsePolFKhe+BW+LEGOFJcivHKjmJfexPqIftJHEGArdhDPuTRN8iMShkI9EBnlCmHKYA9e5UOGWJg1qcQqnABqyKFPcIB6XNKkZShDMoRO9MQlyzrWIXzzyN2INIpDvPOtvopb2IW7aOHx4AIV8yqNHnE1CBythJpxBAxzdJ+1e1K8nY0z/PD6hijmdz0oN+rQGYGXnpjrflPabKIKFYfHQgtCcBveiU1pVNQPIWvjFORs1n6L888lXljiv9WyXro0TgzUlBCVEBiCafBh6BOlql5FHMQsVQUY/JGsRMjNg4yv0i0sjWUcbsziKkssPoBHmdi42iHTMvX0m3isSofYrz8Oja/peI8+/keq7D4CD7ilxi54JTjY/R/HnQVk3ulYJhO/ndorIaSWR4aTfVQCnVEFQ4Z8bq+iABz1/L2YSSF7N+w/0sYOVG9QJ+znVGACCjQ04hHreDVd8nk5jkjcbbYzk426r/iJcSMcKQKLO/TQz3UoqUWvggKdTbDnYDVKnp0D24kRKh0B1IpUIWOCjYacNBlEU1rUwd683LkXBUFphCEfRp5MmExpDd5XiB17mYKOYt2YPRszzg3ZgtghdHRXgZqKJzHCwxRt+15Lzsm9urRWrhoC6NqC1OjOkx9in56o88XpS4k+RZAH99ojyhKpVnNjiVQU+qkLzSPZ89/NISAnqSlIBiyhzAKevUU4k30Wbibu9w8meBcNgG5hTG0yQdlVT/++CHZFVB73bc/fNrLy5BxJD+BeHt7+3P8wduX92lFWTGF8fn6/L/555+vz+kpyfJVhWP7g1/87G20qp4EfTYLW+n4Rnu9z/2ZIdr4/PnzSQXBXKPanmr8vOoJx+9acVe5P337dN9uRA+0VSlc5PhwW6304WIiHWKJoyw8em3D/nM1duh2+XSruxkwk3ijUfsljEuvNOkIpWo2Pl36T2/047uWw24RNK5dF7lFbIoti6+ppwlb9rL+yYLNzT9FouR/gZCfOt5x6O5VsMOdboFecCvewyMKBlQQYOtxbiVGREjZIAxw9VeQWLNOIekwv6Ia7ok4Jx3YerRhnOyGFRNClXuPZnbaIkUgdM+63dgURSk2j860moOZmELtY/I5XI6qCUGG1dnN+8z89tB0RbHkXpXnXARmXBj6snNwlSM4IgxdswY3AdtETY9aq2WElnBulLS9R+eib/PqTmjSHe6jXpq6sFmlJOW2FHRFaI/9hRWrp+zxwf+5yvhU1owKYgrzsIdVspIZ4Q1hNAJYJSZXchUicg/MWRcOoYLz3I5n6TpJ5RyTMpzSDNc+xW9514A62SKzBqocs2PbR0N5mH7J+sLuJ9Ayd/scADUzJVZjZzFRJqijtzPi2kxz5qHsx1dfU0S9SnjaNStcD+oixBRMDT2bhvZ8aaxpTD4PKlqVMpOL5dKLTu0hBv83TuP95rp1mMAavnFuIi2voWZj04eSffrMFDKsEuNAVoveGsalhI8VkFmc1WvuP4NCsUKIVJ95midzS5XzrMKlR+3sDFEax/R8vk3qPxL29nhg/h7OdVkJIk7immERh6fkKSDHWFl4wgem2RYAqZdfDv2ol8izVhjZW7Tq80WwBJhqjKKnbb8UpblCbPYGX5+3nW9eWrmDKh6iiOfLDbxdtO8xcFkBigXiVts9td12dtM6ddsai5bJij1Geq5F26VVzJZZztyue8BsmGROc7SQiq7MI1NBp0lGCnZgFYXISdKDyiNwpg9AvYRc9bt/9g8Xl0mVaJdJNg7iy1S5btenb9m3Oo7AqtOASsWf/OyP9npLcB5Tcnyr/uv7x72ctnGIovHdWwY4+AmPWFX38vH/fL7u13NVTOul3n72T//JrYwgIg6eqnBr+9/X1qDiCWYydPdbhuaJMjMjWPYzHe0wuql/f9607LC27UnX2i4pivXScDtetoZtyKY0VIBW2d/GHnyuyjqyDFwVum335221bBO6OdDeRVT0iRSXFkjRS21PfTrtaOAV78W3rddpQXAUYRtuFUWL/1+i2FEFrFpgdo2m1U9nyqHVV2IhjbS/TsiMwnudHDVT0pweW4D9KGZHXNVEuKsJk5dSOAHcRBOZ5CZWO/K2I1MSLEwVPM7V7GPI7FwmXeDgqUicNwpOzfJZcYAvWvspTnhFVMfpK4fILyOi47R8r0i9NdRxoimHOCmgLEumSm82FKeyeISATPX0GSaJaDMf8ZXAIXVX5873MYRjPA+MaD3/4CFj/UqbfdEe54nyMbqufl4kOjDAJP+SWFkoc/K/gBHpMzP1DBuMUzsknDKkUWKAmi2d+jifVHQkuIk1nvHZ8zhP3y/8AwDlaAx8+coRfMmop7apnGwEQ5cGwxHUYxIKs/ZB8iwXjUzAs6e03rrIjCwcp6ZwohAAmhtGrJ0bZ2XNoLPEHifO8zdZYeVB0HpGY6LH0fjziPP0+vhDe5xJwtsC1PA8WzDMIAbGGAKhJJ6io0y+YoDiYsF1CAKhoqxUBMcegEsHwHGI3tFhdcvMUyYWpcgbKQCwzlUYHA1SmzDRZEyuEICpeu1rSlGM6ohEgHMr0yNU6AG5RlTL7LX167VvS6i7vOltj3WMe2ZHFPPatjyEHePhDAg0uoixlyiWVmgCWqjgdnUvgqgSgkT7IrGVzW/CMrceMpVCXsGzR/bAgiRlBajP/lcuQf3hiFMAWlw+AZ+Whyf/1aN9/zvfK5qGkn3s/nW//vV//+V1v57cygDa1n7+u+8/d08cMXjhMD788lcY5PpCbt3Yfv8P/wS+5MMFNIqReIdbe/nLC56LkOcOjaC59Vo+autbGEa0SAkbFPvTt3SsJzosYa7U+sk2j7hQr72N8zMOUAkMMR/CYUrRInZXKvYeMkdDtSPQv710Pe3lFAiz91LbPU4890B1AdzbBWaPRCswGxj21hk9hsrLU/BZ0a79+eJPJfsuDIN0VKH2rbYtHEJlEI5w9PIM3M/xeyYCD8CbK25gsDKqGVSd2o2ZmU5UHKZstpty7H016hyKlsJOHHqTCAlos7brawlyuzs2R3TS47xMCd/M6pRJMYo1ngkwBOXVuGggpVTNqMidQVZTgsRQ9OLuaNNJ124MX9BxrvH8yBDX2T9/UJevINyHIaTDdHOUTTz6ipmE8xJlhP4BwrQwS8wydrSVMsY5gBaueZynx1H/nQ4qvpJsJDAUQTM0Tm6sY4Uu50xHe+7ojET51WuCD/l/+nweqjxphXE+gaQFMKcanUt4cMqtCms8EeaQyQetQDGyAzNWihgl3XSYECFkJypeIRawhbe5YwdzhcmRHHvz+hTNV1L7g94mz2Sux9VMkfxSac+PmKEyhv4oGZhXe2g5czxKZKSf0RP3oqOVkDmPVc3WdJgUBqsV4yvyMRkYfeA4KKP5AKLzcbPHNYo4fn/sUj1bPoAeCMuc+GmwgzFAzqgigo5QCZVsd8SCzKcHsmgIj7IJnVYgWkHZ7ASIUZMeJQDKyNQplufc0oEiTyYWh7rlEbDGI3gZzP8iy+cfxvw7Ty1AwlBHgCTi0NzqWvpb+8ouj1OdEQ72b26sKu9pnzRtusUNsXWij+WIMEgF3Us3LLRsNJkyekAbnkNlUw8rHy7Uwep9E4rqVFzk8x/yhMOuEsr+crKSBtA8Dy9Ncn05v+Yhskf8f+/H06hMvHl6EhGzeCuGGcX81f/9BOTJWSYsALrVP8Ufqn4XvNEIXQWCfa8fvnuKUj+OBKGNQPGOeP7hbcmzBqugqFI49PK3NIsPDXYu5hOi6innr9Fc6yL62258nmfqjteHl0+HP0/DArRdSljZLJ9PwQGAKh6PlrJD2AwpD5aP51MVuFIKlXy00gB21N3vb/yuxbfB5zDoJ6Moeot4YhN3scAVvIYovgTk+Iy4rxCTbdUq1N6K8zzfoLY6EY6KN3UecqyGlIdyW+O+l5YF26zKZtvX45x/OIzpXz4phXFEtIWWl1kcDolD259Pm4lTWTZqsixIcSDKmTRcgOLRmUtix+YdzGe4HEouU4ntSJGL6hlUQtJlMbV94yzQ8PORI1eYH5M/Pefnq6+zuC18sHFY7d3/L08b539xNK3WaxA72Ypekr55oFZr8joaVfnLMYwkQs4bw0c6lMZjMPvKCarTaL/6/WH/R2W+bjDnw8koP3wyz0UqKz+XcM3nEZ0PG2S6EhWQ4h6GeVfscWSH9U2Uo9x4SNgajYbDKM6vJbSYVXmO0+OxBThUkAuhTKMe98Jr/udYwy8WkwK4zqEcHzgYe45nPjBPuoWNsEUUj+dLjbB6iHnyURrzIQ9eq5ZoKmKoGrTadRrG8ji0c9f4teE+9vy/OERRD1cZthjxcN31eSX4eLiT7uAOtFUUgSYa0Iun9mcocDVO78TgZAdwAIpYlNKDKPOxFwOAYByZxGwWep3zmyB9fT8nP5pcD2vj+A2kDvL8ywx5/iJyPLSiHh7pIcJ88fZ38HPWTskCBaV4Cb4hn4EOZ2fAQKP3ZCJMmi4gjTx0U3oUsU4RaKJ6AL1MNDmf5zUOoE+7K0c7GQDps6g24CTFFrH+GuzXp+tTzK0A0Nor1e2IiG+/efPlhzv368+e97jns9JiFoJEi/ox8gi0A8in4HWw3V7meUYaJoEQSgfuHQr0OUSCefq+xH30zVYpacBdfTxNwytaG8a7N+9xpPdsDXdAxg72sWIn9d2w/xkTVvtpVe86bb5fL0HcVF+wBD+6JC8UcGHjfMwCleWtYHQlplj4J8ahq+4Yp68wnnhFCOhEKz7plkZ94PkYntn+i8kIPuL/YSXTlh+b7gD+H1cKcI5V41huAAAAJXRFWHRkYXRlOmNyZWF0ZQAyMDI1LTA0LTIxVDEwOjA4OjAxKzAwOjAw/IY3sAAAACV0RVh0ZGF0ZTptb2RpZnkAMjAyNS0wNC0yMVQxMDowODowMSswMDowMI3bjwwAAAAedEVYdGljYzpjb3B5cmlnaHQAR29vZ2xlIEluYy4gMjAxNqwLMzgAAAAUdEVYdGljYzpkZXNjcmlwdGlvbgBzUkdCupBzBwAAABV0RVh0aWNjOm1hbnVmYWN0dXJlcgBzUkdCKvIqbwAAAA50RVh0aWNjOm1vZGVsAHNSR0JbYElDAAAAAElFTkSuQmCC;strokeWidth=5;imageBorder=#008080;" vertex="1" parent="1">
          <mxGeometry x="1245" y="490" width="85" height="85" as="geometry" />
        </mxCell>
        <mxCell id="fkhzhb3UsODcdzvoW7---17" value="" style="shape=image;verticalLabelPosition=bottom;labelBackgroundColor=default;verticalAlign=top;aspect=fixed;imageAspect=0;image=data:image/png,iVBORw0KGgoAAAANSUhEUgAAAFUAAABVCAIAAAC3lz8NAAABAGlDQ1BpY2MAABiVY2BgPMEABCwGDAy5eSVFQe5OChGRUQrsDxgYgRAMEpOLCxhwA6Cqb9cgai/r4lGHC3CmpBYnA+kPQKxSBLQcaKQIkC2SDmFrgNhJELYNiF1eUlACZAeA2EUhQc5AdgqQrZGOxE5CYicXFIHU9wDZNrk5pckIdzPwpOaFBgNpDiCWYShmCGJwZ3AC+R+iJH8RA4PFVwYG5gkIsaSZDAzbWxkYJG4hxFQWMDDwtzAwbDuPEEOESUFiUSJYiAWImdLSGBg+LWdg4I1kYBC+wMDAFQ0LCBxuUwC7zZ0hHwjTGXIYUoEingx5DMkMekCWEYMBgyGDGQCm1j8/yRb+6wAAACBjSFJNAAB6JgAAgIQAAPoAAACA6AAAdTAAAOpgAAA6mAAAF3CculE8AAAABmJLR0QA/wD/AP+gvaeTAAAACW9GRnMAAAAAAAAAqwCX2dPsAAAAB3RJTUUH6QQVCggB3ZHezwAAAAl2cEFnAAABAAAAAQAAsmfcigAAH+9JREFUeNp1vMuSZEtyJKaq7icjs+p2N26j0d0YcogZCmWWIzM7/gb3/AF+LkW44QIyBAcYAv24jYuuqsyMcFflwtxPRNXFhNQiKx7n+MPcTE1N7fB/+z/+dwCITABSQIwrn39sv7zxQkwFAAEAernNn//46eNthgRgAgg4Xtvlh8v3b+0C3kKbAgDg4tef4/PFr4KZKDSVXIyjte/qD0CKABPuE/3z6JZSd4QZAFMjbU7FNOD6SBGg3/3hDwADAQDN5IiPOT6IPeNpmgjgUABeO/70NN67AQE20RkAwLoAGLdAre4NhV7fAIIaVUhkzRBcowEQ7oWCASjnJwIcPnwV55rifilANZXgX3lFwHwYKQytS593hwgjCgU8XkXnNwD5fAfu5+zO7xNgkLW90PkRETCUv5pIzgmvv+myo/PegYyuuEZvIjlvdZ88881luZfVPxnjmk4NXsik90jXMgFCanG4DBwKYDgUQ0AIuhCfW1Ejyrq6CX61upjCJPK47cTXLwMRDJ47SYB1vpRz4fW47YAB1zVDm2XbqQ1wLYGyR/KVGTEGxPXR2tV9cQG9zNZQoAmYDsayG6r323drttucut3TL+1muhuCy9hC9Hi213fOtfABYGvcNKFXcoIDnAAYqhYnT4kQI/Ay486I7cZM4QZIAGDGJNJGIO/VCRHZxFSbRChz7byiHjxNtWAS3oeuBYrYgGCiEZAFwlT37Rfvt9yuzLKd/t3tfwCddXpDs1uX3D6//1f09+5W5mAmBOD+/VMwESllpCZHI//8u38YPMIJugYno/n4+PLXI886dzuSu/j26cvfN7wy/dy12rQ//uEPihgxABxiUoPtN3/zHwaPSZki6hb948Cvjo/PI2UUtYLIEWr0tjzCdiimL/n0K+fDdTBQyKi3+TGEAdKhGbXRg89HrHk9ZmcEOrSB0Wbkq4YiBvujMQFwiDYnYEEkIMHNUPOz91FXFAi5NtwaPzNdZb3RcpB8NdXcAYADNNjDS+hJDGkSghk0C8Ax9HybEQC3mAGiW0OkoV5zV+rA+mnq++v1L66vihQi6kOqxVvxD5rkpJJu9slaRi0XlOt2WtouUcsUCEN1MAIREIjHM46Hc3uGsTrz9UckSAhjwnUonG9djGAgIEKHAC2ghldb7Tp9qUG2ZeqhWGYlRlpvoodjT94ACIM1GgLlJ+vHMbB/PO8xkXcnH66D7zWYx5Gf/zPo8hEmWh7WhUBQw237PRGKWWcKUDzvFz2jrB/+1j5re/ArRAow0hQxPMffhdvDVaCgYSK3hmmjZd+uwm6sNGO7NiiwIZdFrBs7AHOGWe4QnT1J18FmWS2hGJBprQCkPSTMrzefAbMiBbi9/gkJcPcyjz9BVPa1B6kzkPbm5U7DurdbMBfuqu01g4WDOIG2lxPgQleCCbc6Zqmt9jom6Uh7wEWn5TSwB2bFF+4oUysCTQKQYXOt7Fe7WZZyWgK142MBWSzMF5+ozDKmAerBeLt8MSHYgTC4AdVkM3VT7ckIQGRqdDaurwFQ6JYZzJbhNDnhGX7dDeWAX8DatAADANKRJ2QCN2Ccpy/0EOkONsWgTA1pQincASF7+1KLxXB5n4o7ICObDgcoYOYMpfQDSAOIPmUsxORZ+BEYbDe+vLMLBq2k0It5PSL6uhGlSAOTufQh5AIE9/mT7sSE3tei0mX8AOAXgMCsFck+kW1ey8uUAyUjtwlebr1TkwrBdZ50GeXwdM6w5mcUalheZG74OzXfuz+Vqdb+/8MPf7uscR9gBm+d86++f+/aR0ih6Nbwirz1fMZ54GliwJfffPwZfOFyRSf8Gp+//Gkjtro+iTTzL777tXIaba/5NFxfvvv7hlu5LmWCNnpw/DzP8WW7iWVER/Djj/94syehjezDDOFPP365NZguRFQGdsnn9jJe8rkF5Ye6WWCQiEAABHFTv+nlXWtYYEMEtSPdIRZ+BNJpC42+ZFzoS+V551EN9QUGbnUUQQGiATTkJe4ubxfWIW94pY+egfR14CmFgS6jIUJYF6ldaTGzo2+5AzrElOM6Apky57KCkfl2OAa3G+ryZe1M2nIeHCGCPtGieXfeQcsABzNPNyaYSEsSy1bZ4D7/U5CPqTM0LI+NyHlqaYCNChFri0wNdqQvP1inqVBTefxwvb9cgMqFamdEpuuoRzM04IpFoZDxEJSNguLLkQMBGhx+E3T8kAhGO9juFGLBFcJCFgJbHjqp2JM9w4pDuAENaMFB3Jbnq60DTMyVz5Q9QjuSM8D2UD95yUQrb78iQoFiA67QVaaBB2QSorfcULAHtcx2boc945bmjDAtRsq7LmxfDEcIh0RB2n2I4NorE6bwiAG587xHj0A/pHQF48vX/iuzXKGeO5viI/LBeS9mfvO75a2zM1/M2r+OOv9rZUBYGGAhpBq9GSHSmagsI+YD+4CdRNTqsAKSv6E8YHAiczk8IAtBrCsgaRv8nfdifEZ73RHEHUHLBZN0XyCo0pvQD1fqyFRSdJMZBn1oQYs9YYSa1OQxcSAOa6ka0uHb9vzcJqTEJg2RmnAY1/sLveAB+QcwOMB25vx5sGfCRUDl/M1JgsBK0QnOIgt84mVu7LxnOwEhAcVAFgCjMWTYLEvCNNHf+2DUlmOyOUBPGZgtE5ywvfJqtbhP9YUKhUibLBr9dsuOzHWUKMZaHuGBXRKAKX0Cv4TXygVqSxOPNrE2raBbgNkxnqb7rA0fYEGaYeLW/HbU/rsyQsAmeetPFbmw50+13MK3W39ffpHoz3/9sVl9NkATHTR4e+Lx43w9MNp8jzzRGR0ez/N2++Gf5dc7RAkQvHe+/sKvXYArwajDdhnCuD1NoCiTCOBsil5/+PH/mu29+FK6AxAG0y+XX159rMjPhAFvH995fLl9fG/QWziLBW3R50NPv/3+0xOLpfViZXgZev7jl8tQ5f/nWUM7+i/+KW0qYBqAPosUChhMjtDkMAjeWizeDJMBSJq4Ke5WszaFQgXvPbf2/va0M82IQLOO9IbZLWIIQJ4MEDJNfUH7czhNQE2BMZHLFUNsDEBPpcbzfGvdeB4rP7AMRp7v3bfGL0/F/5V3WNzJR/djtMUjlHHRk5qaaTdGihn1PqmobdhaizUVwBEnbdocSB8Ytncc2h4Lddq9qeqdGQamLRwYrb4bIBaRivmg3G+t7nh4xbkGVtyHiVlUV7ldRuXvCQSp621P3naGVsROs2Q2q/kMnC0STKXNtI0pcC5PDdDb09QpKmZuO606HT95WWvtBdxzrzOGr5F/+0MFJym0MhlEPA8wZiWVLBBaVxiCEdwdBhdz8UjTn3nhZvRV/I+DB/5jBea+MorK7x4DVeWYQNvDbYXw7j62brwGsdb+7sq9E61Ot/J/KTe9VwCQMg0Ua4hUKj6RY0+vYkzbsdM4k//K5wALk4tkrlmthVMmTUlx7vy9ZKXAdRTwvv/LTuiWQg+L5JAJSoGsFrWoe64N5J3XaVE3Ju+45ZEa2slvFXCKOd3mCptGIMziSioyFa9GqFnNCj01W40smlz7vOs3KxLdN5A2KQzfceRJKA6maNfeD7schrBAXgNMMUJ6DbTiB9IUH0NP405O36rQErbZOrVOFtaxCfrUW+QTRIfTuoKjlruVo6iv04DFG6gWhqrxXIa6YWbKMxXkREhBM5rTT7Jss4CVhkZ2tIsxNmC9W6/gawqYZvTnsQAWoKKWBMwGhUYXMOGF3qkbcWv9mqGUu6OJSSk65pOhZs6NEhVcBpjrCc7MAvkdMfOidHiYEYvmtHy84EObx7Jk1hr5aSB9vB9jtpUshJIR9Y+3FckeSK883+ZxHc/jPGmpdZnw5f3jnHeQ0o8/fb47QArA5BzNf0770hcy987nL/P24fuPbXatXEAEDvSG9v42G1qRlIvDDBR//5u/wXLUuzgDg/7973+3T/JinxVdZvv3H//6+dYqPx/NUwOY0Pv7lz++Pr2D16k5ZNDNaPPjv7n+Su8vy+QDMAEu09dPf7qMSnjKssBgtPY//uY/3XSnnvvL8BoCFo88hSYxCvqdLiIQDfmm3nBrBoHm8iJi+jHEdOQA1IwWK7AmoikvL7BCmxTQLzyTteIe0vtNL+/ffXdFNwCPNqfaaLdbv77qOvr71HW225AB9+TDmz7c8ny9W5xpt3kZfr/OwyMruVp4evp4fv94sK036d7tjeW3jzD6hKjleAlGzZoCM7v1NKoCIwGIJqlIFn1MHGVuBhgbiMa8F0MNoAU7mzxjjk9/Ct7AXYa0CbQIUpipIiZWHaVN9NlbRfvlhne2wQrYI5zW+KpuqtcCxWAAP8Z/N+8lqHnvjKp5JYjNFTDLM++8HULYTE1BmovMKtvTqltHVatgEq6C646XK5lZNXqYO/YUp2xI3jWoAkB3ers91K/Lz5+VaEdztrFLUlUCHsv17jrqiv+FH7mo+Hs41Jp/lVvQHijnc98mQaKv+gQeoMji9hQ5B1PDHg/wYS1zMHbs6sJcRYDF6mJrIWzOKu+c5d6gMKK3h0KgcBqYBLHicYFEVmEqEpoJWuEd/90hWvk2MKXkqCOxS1R3XHSG2dCpBCF3XrmgZDiqTKjIq4Jwumre6xAsIunEDjGNaKHRCJBl0AXmstnbPGCNx+D/k5d2aayCei/IiKB3K1y172Kv6qKmp7yw/XonDSO4PCbl4WaaCFWkpCt/NwY4idGCCWkVOc7koYZS0ewJgHGcH04C9BBC9Xm6txWnnfvMT89/ZuKwWtiiFiQopMCgmYGU5gcep7/xuyqtAh4Kg5BXPQvjyFvtdEtxehbHbE9X5CStJn2VgXEo1oC0ycxiKWZ0CaRcjTIrNEOYjZ+b0CzQ5iTQMjrUMrgWS4KRgG7x03gSLgV+unZ1yXJ/vWIugigFEw0P6x1z7DSiPJmAAb6DExrlv/rv9SuzCltexEOOkfnbX2m2W3DgVKYwYX/62CcFHEsRQoHQwNs//25Nem2ODAT64z/8EVCzKhAqktuR91/+xeh5b+6LpYoYXnB51i+edCgApmVgKplM+wOo50UQFk8XmG/+Jd70Yw1yFRQFDPzVv/vwfNO8B7Yybf3L9b/uwxLQ/Uv7LgwxiooLGnxYbx/wxrzLrtJaUQ4TmDqGVHCgTmyAKYujjrC4KnaqOjo3l7WpOAXEbPjS+LmjgwwEokdPmC2jpfL/yN51o1zGk9lXor3Ss9z6+2xvt+PtJE7r8oKmjojaujbDKjPPFQSXrsU9TBVed4XLUFIOCc3oAb3K6mXzYh0tCCtZcDeS5UI3NVR1UDEOFnVa/nxqFWR2mFsVS9OmedZz767x29cqsHJpVryEQzjrV2f8QtRqURYZbQZFxiz7r40tz7RTFG8OWyV1q2lvGKXzTvf9DEx5ac++Zi6/GTpLCLfW8euPtpOryPYojdiByVvklJVzr/ensPM8CgpV5IJWrMHkGWuqWr3u2XeR4AxaqhLlpu5X8oh7DrMr09z5FmDiJvQFq+6z2veRd7AEBM1eRZ8lQtOp/CoftDQYX6vdzteOUOfNs+IoNyWfVW7KtoVAhT6qHHiek1P/qJOu2CjAqoroCadi0N60FLYyTYv+QeipMGjwVmAkVSyBSmWQwueEaVlyv5sbgaQO4xbzedsLHoDdeXBOo+Div8GC5K3SaqYKYUwhIDASfSsbqVlEfTOERcsLGECR33yQ5S3bn0T4MlVF+M35xMr6Qgta3HwqE9FnN47yoOZZ7fGd1aDBgJ701Bhya/e88KGedZ8595EGZMxljVWHCprdbZCzQVArAEYAnEig8OmU3PSOz4VYa8lCEw5md69I7lXSsdAQHDdcBrYHluLD7vbbdpAVDmqIg7drx2QlaBmy5dDJ7PO4jAvgqcNadFCfR550a9krvviyAjaPSVpVpTT7h+vTHLWFOstEh53kXR78qjTGqFD8icH7dx//uPQv0ImQA/3LH34ofBZw1f+r/vvf/qnhuquuCn2FgVyvn6+cp1lW/evWPf/yGEqralQZIXB8aR/Gh1+MVnhmLaVh4Ytvt/Z+ylwYV6KNfugritGALm6Xf0z3BdvPFf4Zbf7d538ebRSDfs7/+YZ/y+cPN5whuTd+QnnNVJGrturoPkUZBVQF8DC+C3pieNOPBjI1bilLLqWgQhi+tXk7xmhphe/RFfUpC322y+3SLEVIk9WC9+7PT9dru7shbvVCHqjT0/4Pt5frcRlilqpnKqONL8cMPr83DY2pk4dUn6CPPu/XOc//mVQuFNhMJJGBudMnCNMcLn6/Ykmi4mQZsKp3a3VQnNvswD2z3g4PLTo2sAdnlBhTdtE7p7cHMKXNMh8L5+4Yv+DNYmIEKJNA7w7n1HW2WSdagaKWjmhycaUkOvNNnK4JD+ZAuOU6m73iKAn1joUpl1PAaRJ9xdjaLS4h7F2BWoXXypEl95TJQKEtgKNQUB7ruYL/+7mdvEraWgk7u9HK3SrgAIMUW7MCTYVJQ6D7Q5Rdoa4Swz2CO84JZGguIMUdQlMU6ICGHnZ5hc11YDdYqHrBMC6lQPUpEb8PoNib1W7AB+9VxlOu6l9Zieg0CuQc+UNR+OFNAIJdJZ3tZ3VKNAvwLV+ofdGSlS4p6DksK2IJlQvYPuxVSaqLEq9dLU1OZISMHou/+zbeOM8PUMoPk9n+de3Eek1tCmght1KLb6UMZCrgWV4rXXBf3QXFTxXqrAJ+NS1wbLWnqsz2IDAtBRJaZrMoblG0tzpekx731ViIfS58W6OctShYnFQRx5Vu87+z0adxaaPjlefVuAqPYlVHtlYQS+CkuKWKIsX/5Fibf1esItDr4YmrVrF5EdhPE8+3S5vHKchsMe2e2we8D+eYy10XUdFnf3m9DOlUk5ozHN+9HoxuzVPnaUeCgM39GOrFBUXliVtgvoYYrbIGV3wZDZ8uvvZqKznrr3P0K96/XPzeNpYvRZcIi7NpsgcE0q9/7kuuwSW2bWjvzV++m+99CqNkXEVF/ezt5d9c//rnr5fH9qRuiK+/ev4X8bVbW4NYq3787p/ekac2G3d8jqbi//K7v2txNJaCDSw4/B//83/yI2gJkSfr+iNewdupU9QqTI5P/eZ2PVU0le1e5vv/fDxfzA0KVp7e3f70t/90w9PMpfLqDl8q+Y1W/Q9ps8+3Y3x5mjxRHWHocntCDvn5PI7VBdHsl1tvUIs2peMqJn7/5cL50txLFxHGHLO9/wG49hHd6pzTXXSzmNatdmo60ScuEyYyOSvMn7XW0W5vz6+3/j555iEK2s9u78yXp7wXcjEQ2ITQotstGmwhwLn0r9yVv0fvtT3CPdXfvN9imrXr7bUnXNqDFd5D0GJGS1bKWcr6qvaWjIVjRRzZ6Uwrul15SONXJs/TDWELHs3TEe6B0wDLy/qkXu4vTYrsk72qHn3qXjbUvuJXS7AH0bxG9tPXCUt3HRGnHKK5lRTroWVuPl5jiwsdWCwXtWAvVnJbvlqJ5ha976nuw/YgTKiJnOzwAy+8rHKR+VX/z+5DqJLG5nB2FxzvF21Wu1MI603+RG9wrjQAuStkSUzvVzLQkSNw6TxRJUbKq9D+TcJ7KnTEM0gBSjZaxVYiA6nlk8VJttUL+GAFHNF14915r/+c3RhlAmWBZV3K3YUsjci5EC7JuQvsspZm+ZGVI+kBuu/0qEQXCvtSxN/bJ2ThdJaAp4Y5Nzt0kuirj+SUwBcLUuKX3VB0GmPJClQwHavuZoV9q12AqpYIN61AoM3hLVuU5tJ1jrMpBJuccKk6c/Y2lsp5TAWZi3AlgGE6GjwP3aPdRIMy275sVR9GVWKClVeDo8pB4QgV9FWOL39kNVcnkU4d4inAbe5GFwh0+a7DfDiNTDc+XnGZuOmBzws+Xn3MtK0uPX8UzSmH0yc1xSA2ptt72cIZMrNc4LswDT+iycYh/dDK+O91WwG++HV1Vuz3Cd+MSL2dIM/NktXd0nVTR2RLrUrsPsbT5fbSx8ski5Xv7SjxwEIPTxEYZbRXaNv5VrOrD7X3T+/zpm3/C1Tr8w+f/hH6fDfjaqUzf/2r3zbzARGwqrsfv//Lu4Z1z7/jM8f/KXyuvVrn2Qfz9PI6lAMpNdEa1RB+++tfXoHAC1aKTAffX9//3zfNMt2CWJP+i8n/6flvfv76oUQa1N7/wp/C0q4fxssNT0Zz1b/3AJea+myKcip60eYovv7cseU12hvIDSt3J06p+M4zsZbH4mvTD43/vJnsrpB4ol8ubjIYy6VZJ4AhfLiV7qgqP8XftEhf0INpNQCTbSqhJo7L9eW714/nAe8l1y/UVsQmUfKDexPaalomCTzNucSMa+GM9MkU/1kwo/yfAszFhWXnOauusdVmZ7PSPkulQX3CKjSAgTgaxlSD2ZYSTys2VTssijBTYf5mlXmbS6cJgnGIPiU37aCjlLhuBcO7UytQwLDkJF+9ij8/LYKaq4KwDuUZjb0fBLALqvsnKybznpk+HAFTXN3DYE3Us23GoYL0blIE0LO675YwkmEzvNiAdXC5KGm3Rdt6K0XZH2BzGJ6KjLu4/ezGy4ky7qLyJUv/apHOXB2K6FaV9vOcbYqt/mn7kXus1S567bTcq9Ejq/P3fmJ+8tIut+/N+GkCORcpshjXJS7dAb+UA2eavamL3VG6FmuTLXf3paLEohOfaWkv67hasL9qIPgaaMrnot69xZYkEuYCkct9eAfdEwI/QlXGWz6KE7N5mSR2xi0CfXLpGarcl4fiUNXqQsAs5QeNfM2inDOvK+gswm1539mTm29rGHeQF7rkfS2DQYtM7yOwN3wBu9JLnpcoUUz7Rg5QhcYSJnzdtSGTE71I/aD1ddGzVbbEH+ltQnGbMO8JiXwgB3K00h/DbZdzWx2xrX+p1u8WtYxW8gtXH04VZ3BryT44Ybbxa+IyYMSrn79KT7iMfgtfz/6iun0Zr3zfkhY0N3ui7Uc4PKQGo41Pz28Kwsmo+eg/b999ZYWEyJeBF/olmOfTMkpgy+P6CXRHDCxdlcl0/Pqv/nK2S9BMCCU5GsfsH6C+UXYdpWZeG/720w/XhrNSVK+n+MBTXz638stqJR/Hy3XgyxIzn4W9fPz7//J3znfFCACoXobXy6fX33x5e/rUXSWGxQLextvzX/ltFD+r5t7l3T/HEwSJPvMQcbc6m0A6nebe1lMnnN2ftlWni2Ylhqqc96DMPnZv9024Ce8NTfcoW4zwlfejzHI07uJr+hfyVW4PSyDOwbwcsyNnj1jphZsePBF2XWe08eXy+f3JW6epvgqMm+Xc2jdvdnF7pfMBCzthZbUiFhewaZbsZl4BE43sQc/OWRfTqtXcfxrF2u0F1FpOTv6BG37wmj4LOtwLt9jUVR4sfaFqsb6qslcafgbGoH8TnMF60IjqOST3YWAJwYR6+IN31dlfhaLd2+ZI0CIN9uNglmTo8XaPqcfinfntjPc1syoOfPytwkUxf/2TCljtXOnVeouzslZv39tDsHYVQKpc+5j8B+dPJzHAvh6RsMR1S9J53wEI6EGvBOGxEU4bYiwh6C4W7Ra8hY7wLay428suVPnsTTjnYOwGW6vN/nW83QPIvUe+4/6fVUtfV1xPrDmfH7IA6Tcak7NGrgjuU1eUYhXFC6JhJRHLbrmEoc2rO9K4L0GRP6cGc5l0xAdV6gPFdGptvhJRTGYy1bB4V8dgoWAsK14pT/cJELYst0wWMDYVt9vLxbQZAj1od7jMmzIU0k2robrWZfTwKbPbYGYlYcsC2F35PAlNcZdoTPfmr+bPdLDTrdgxrhrEOaRO99X5Xg3PbVjjBEWWrbmBq8NRRb1yH/3DfH90D9V+2Q3Qbrgt/7zOTD3uQD7u+68hTGAeszsfwWsY7tKVgtmANr31giaCDrTL0MGiebX6Augn96fWtFXJe6sJURa0+nb23Ss/fp29lcNCyUg5hNsxdPgpdGn0lyABoz+ZuGGzu53/z//tU8kJXPdZ+G+///9OH1N1fkNPU//r//Ifj9nP5d8nVj/+4YsiLL3gUrqO9v7p+7fRX4lZin1G8tF8/PZnv2zubR5LR75W5vrlz7/bFlRUUmmQ5vECCLNav+5dlq+//nc/Q8BEacyxSVf9/u//UabSiCb3Wqrr8fnyb8f709u54/3j7b1MZW4iGcBoBt/HGlcsrqR/cLa345QU1P5YyqX5aPN5pQk7qwkw9enab4IVh2jugZtxmXi69dI/VjeB4tl8m23qcf8BNLA3E+CSzD40YLm9Ie+KXGSBpaihPd/4NJ4INJO7+vDmKzyuGEvRDPXgWPX8Sp43jGF14Jeeacp0Iw6LaVvk5v3oFjNHm5c2j3bn7Q16ZtqJzVPVlqXwO6a6qX3BSmCZ9ghmt5ELINOR/k2cCyWvilDpFEFY44z5oUcDlQIItza7SgK/4n43dlK1s9NKP857FOVaWmL5Xiy4YxQutou7/rnj04K3rlJm8dMPor0+FTSk81T6rOY8PlLviNDqMRFnJ85emyWrOR/1A9PR7Isj4VLQVzl790JUs0RJzL9paUzpx0ZQ5cBeCuRzJ1iNiTAfiZv5ED5PTccW1Cwxv7Ef2rBqOZYiP8T4YpALbO8N3KHr69cjMKlVuAv1uJJcRkyvp8LwX7tI7etdaLpgR0rR4NCRw2z9mwErIcZ6KGROXdDjjlRehE2gbYtdgkTNU5H99XwKhp/UCx6Fr5vb3a2eDz8s4RRWdqzz6AGKWuHfh2ueJnNeYdV/frpAps9HWdwHsR9dBRzrKRAPHJYZwq7eE9SzxzrQtzLVYOohfKcsO/SiUVZD0np4yjcP+cNXkNnnf5VWsseTX9/wCnSrkpnjh3C5Ra3xbup83Ip7Q9rGC+e0Hz89U7pV+eTDz3N/ml70kGhUdsQz1j5OzYuuML6Z9rc9Hf42W1m1YP30u/paifuT1xr2/w9IcWQpaCQ/UgAAACV0RVh0ZGF0ZTpjcmVhdGUAMjAyNS0wNC0yMVQxMDowODowMSswMDowMPyGN7AAAAAldEVYdGRhdGU6bW9kaWZ5ADIwMjUtMDQtMjFUMTA6MDg6MDErMDA6MDCN248MAAAAHnRFWHRpY2M6Y29weXJpZ2h0AEdvb2dsZSBJbmMuIDIwMTasCzM4AAAAFHRFWHRpY2M6ZGVzY3JpcHRpb24Ac1JHQrqQcwcAAAAVdEVYdGljYzptYW51ZmFjdHVyZXIAc1JHQiryKm8AAAAOdEVYdGljYzptb2RlbABzUkdCW2BJQwAAAABJRU5ErkJggg==;strokeWidth=5;imageBorder=#008080;" vertex="1" parent="1">
          <mxGeometry x="1060" y="582" width="85" height="85" as="geometry" />
        </mxCell>
        <mxCell id="fkhzhb3UsODcdzvoW7---18" value="" style="shape=image;verticalLabelPosition=bottom;labelBackgroundColor=default;verticalAlign=top;aspect=fixed;imageAspect=0;image=data:image/png,iVBORw0KGgoAAAANSUhEUgAAAFUAAABVCAIAAAC3lz8NAAABAGlDQ1BpY2MAABiVY2BgPMEABCwGDAy5eSVFQe5OChGRUQrsDxgYgRAMEpOLCxhwA6Cqb9cgai/r4lGHC3CmpBYnA+kPQKxSBLQcaKQIkC2SDmFrgNhJELYNiF1eUlACZAeA2EUhQc5AdgqQrZGOxE5CYicXFIHU9wDZNrk5pckIdzPwpOaFBgNpDiCWYShmCGJwZ3AC+R+iJH8RA4PFVwYG5gkIsaSZDAzbWxkYJG4hxFQWMDDwtzAwbDuPEEOESUFiUSJYiAWImdLSGBg+LWdg4I1kYBC+wMDAFQ0LCBxuUwC7zZ0hHwjTGXIYUoEingx5DMkMekCWEYMBgyGDGQCm1j8/yRb+6wAAACBjSFJNAAB6JgAAgIQAAPoAAACA6AAAdTAAAOpgAAA6mAAAF3CculE8AAAABmJLR0QA/wD/AP+gvaeTAAAACW9GRnMAAABVAAAAVQBBpYabAAAAB3RJTUUH6QQVCggB3ZHezwAAAAl2cEFnAAABAAAAAQAAsmfcigAAHt9JREFUeNqNfMuuJMmVnNlxj8y6Vf1gD9lsDmfEwQCDgaCFFvoC/Y70o1rOQoIWAgRBM5A0zSFZ/ajHzUw/Zloc94i41U1BCaJ4O2/eyHA/Lzt2zIP//j/+B9EZI/3IGCZEBQQADvryzV/8DbzBgXpRAMT88PGdmahPAiKA2IR33/6pJ5oDAB31gS79crt01YcVDgJ03Lb3/bd5u7wHor5RFChAI2+mAIGCwwQN6ulXn/1t6KmuA0CUiew//Dj+R/Z3psx5SzSa8eMf39II13sBBA3kF19/8W+Qn/UkRBgwEYCMAIjjJQI+lj8vPb+A877n/1HAg6GGpqARiLa2IBkNANUUdDSDjqYAHyL2ffRcv9dKBBqQiABAmdJa4XE/jqaIbGIzva+/9tTTPKhlBIG6SGQf+3K9luHT4gED2c5vBqFadBgACZuAKKIpLhlNQRNAOAgRASPZbh00IkCDjjDuHdEwWsKciwcAK8ZArd/lcXXrpDPc/On6w9HUxB6nFXBesJtaWwIANhCZkcCjX3/xOeGw3r79NpAAaK2vdDKf85H7YmvxVthv//R9YMRps4y4jviabzYEGMbcJ1Nm8tWWZVLa5SzE6A/HjwN3MFYQTbOrjYovHd4YfYz/86dvt8fTaeUASD7/7m++Rnyk+tl9M/KLX3yekS88ggN6+p///Z/hpz4iaDXCgBDNWu6DMFz2Z5kHK6TBuVMRBiAaZsBBR89+GSGGgYxaDzIwIjL2FSIJIEYPNKkJkMp0tfiQlBULpx0GpI0yB1BhFQLCLUy6t9yoDgQcoMJx73dET65FEYBBIJSR8KOPQBgwRLaXIUADhIiVD/c4R5hmwNp3QdNBOCLYwuCyWwvU5jJZ7hMCGgBHGgZmPK+FijBX/HP3dZZrnDKc5h0ZQLRsDZ3e6GP9GQJoxNknUDaIAbUuzk05ewhf7Plyb87vjHMuMMI6tgUhRJLHpygqCJlhJhWAwjOzhGF4XUGa8QX5SEoxXcOf5OXTv63MQHSqV3GZ+UJRPxy3zLlgV/47rzSM8PElJ5+fXy0gCBM63wlCiPKgPRtpbrmq9tAQJSooeIU0AaiVgyEEsGoNQYEOsz4Z68JoLtvEqgjGS1NFVSV65p3QLKizgAXwInfGvpD4OZvv7+9/fXyRWRetxWS9wYhVeJvFtad1kaqy9Xlzz/bnW18+Nfc9wlz+eNzpC/fkXjinwUwbMKVaK//MwgAAPXx8gD/3Ce5BAaydPXaxPCNjpknNxQuADRIBN2tAQICCdb6hinwhzOmlokCYTAQoE7tHipE8TBCu0goRzVV/D2gwM0UMQLTLdw9nWcbrXWhGOMrSK0VJhBkCy+sSajjlxXWRwaBhUkBGjMCdo/KopkGEVEZuBpSbRKtQJhywBjHiCLdyeABNCcY51kLRpYYbqTJGg0AgHgkpXhvIClOqfC0Z4Wgia4EE3AHQl1cjqNb7u0HIBLw96KpQAYlIwuhOEVnh3FSQEwLefPHl7vyhADAiusf79z+MnmGASgLAsxWG333fZFjlmSaakZeP/dfb4/oKO6YCMtCl63NrluBT6kIP/N3f/bIp4A0A+DAlhNG++/690MwUBdc+bJH5/e/fhu+bDODRapvjMrZ/99t/veWld4GIJApjJzmL+VwnTcDTBjGzCDF3GlW0u6PcBMBoibg3VVKwiSZs0uWeFyGsinwZXeiWgYxZn8ulk2jzrzBiT2eg0ZCBR9Q3A8BDEAJmy1CiZRV2DgCh1oUQL+pdMkWXR2w9L9fRL4NdRKAc8qgw9Az1IIxC3UcVAIPGJu35cxPm+qmH6fK0ChcDENwMCybCgKBCVvsn52a++HlPXqf8ZAiNQNW8glKF3ESZaQIcQJpQ3KBoQs9oxmpWAo4J7RiftDVHQuZMOwYPBOqJZGas0vN/Pt2rf5JvVyLwkaJX+tB5wYebn+rC3sz8TGb2kTZe7NpqnPZEyVp6IdQ9hUMz/x/VfV53livLqxpp1b4Cs3ZhQIyQgVzljROcPnC+axeIHPD6mfs6BYjWKngIwmtbw7BXijEAhQVmdcmoIrfqtilVdXCvv4AvBkbEDl8zAAcn0AaAPmsVEdUYvcQT80LH4qOMLwCYeHldq1rniZhnBNXliJdudv6r/T8C1I7qT/+uzAQvNkHTVR10hJTV1DoCSERQcIePPl5A8uxBB2TotX2qtufnvLE27LA+Zxg0RcX0GQs2QI7whCj7Omgcb7qan2qlqiyFZmjG4bh2FRpP/Ksg4IAbjVBf1gaFICukG3Tc+oKe++6znAgs+JihfsmCCmhChj+J3eqVjHZ2Czo2YRvZJUXMSk7BEYz76Dv6z0BUHhWYLTQza9SuCS3HNpCPMkNBCWRgy7hmXhJJiDF/CwGxjWp+l+UWn0EHKQDN5Ymi1YyLRpcDp4zgRsjUiOiPH95n6N5wfb1Fm/1pOXajEtvbH98bverZ3pMocX2vLeWJ6mZjl6E3v/iLjJlBHlEsCLrw/R++Vc7cUmC5CY8tfj1evYnHuf4psKV/c31d6/eqjjRGNHx8PdhP1pCZivtnr54yxqz/FICwriOYuhQcLesTNgT/w3/5h8TWu0QgiazE+BNqyQi44UDBBtjTl8TTTHNV/IPGiHBeDE1vPHi7CL2iED6inI6Wty1bPAKIvQvMwCX1pLalMmAWm+Qw73EZl6fkZV9h0VgkiFtzJkeDqzEPqCE265JFE1YppiiQGUqo9yrd4fbC9c+7EGfk7JWZmthOrCCNrgls6CgPr3hGlaBJM8bMIBXM6HAUd7IjX0/oFVXbvXoHVUpzD7TCJ3QLZLr6hxDQfNwhAVq06KP/jzI/WmHw3gx7ZuKAcl/0ylIzBXrSaadsMoN5rpAVq5iYeHUmmKjxzzVhmnTN8qPpHJ508CoK+ISB5dH5Bh127MgNk8Fte+dW4SYuisYrExL95a3MH9bnagtPXdMEMxpRlNb8zyTC6ESGIsapo1wby3AkvHox0oRjApUFruc9VDGOacBardb2GBwKBAYA+PJze8r1/jCU7IhCB+gCTJ/Qzk8L80Gex8/9anESs5ePg56a2AvL1ue6qAnLgNWoiy9jbPGIPxOAP0lJn9zT9N75FV5vnxN+1VdWY8MFDQz0/8e1JxojBFXe25dEoAs9q41TBmh1gVGOqt05q7aHAfSqpjDAwIyd+HS1L3+eI4mic+Ziur2tO+FcXrEpTHCYWE3jgKIZXfMbF8EZdHXW0W/totCg6BaqrnLtigPAqxSsPkvI3IVLqu5OhBGCwAgiQ6QOYM+ZC0yM9qyoLB65IK3aGPFkPO2Jo6KJ1IOdMZmCOLIvu8bknamKTYWs/uAbx0UxDACdRmBsGeP5sSkeAUAL7EZn/+p9JqPfPvsKTGK00BNGZUCu7Q5339xSk5ZcrhuKEX63tdXPNNDPhjnefffHjLGIuuLFm+Px5huKd6Ab3hZHZl7+8du3+/pEmEPURfn6V59dNMPNa0DUdfun//yfesaaoBUfEcL29oeHsAndBDHCoPsl8cvrU7N0SqAmttSX37We7M/t0jAIdCe9LLqmQT2jPbRp7NDAk4fCg8wy/o6ywyZyTuxmHyXICDEf/aG4CQ2IarrSAGJkTwZctDjMLWOEH4+4hEdGmmNPVaQuymsqVJ3bMCF0uT/froknexMdGASaek9ceA3LNHj0ha8GLu/9aqDXsqrPf9lQGjUIKmi5pzXOucisItSRJouQ894v7XMrzhhATQ2iupGYc0FpsttznilO5K857XuZF9yogPtKMbNAijYkPgCIjzAyREDcdovu1A7WAK6fm7Aq5ju7ogj78M25xBfJKeQXbdzOpvIo10frpMXwxRx7hA/ab3Z1RSWYk3T59OUoY/wcW10jBVWPJioQJk1jMRQ4cbl1q30RNJNF/f9/cd+MiVIKKcQaCkd4JzML4ax/SRFhLzSxuNCffoUBzO69ur0AJl06+ahxHkAbCm/LT9ruIyeifc8B8+e+18nqscIxLUSEyJXz1iJ3fFd9AZc7Hb9djnCaZ5tgkRzSGv5PD3IcPrevmZP8qDHR6i8K8i4zTrKsYq0B5I5iHXwBKI9SeQ7wEg50cNCOSXiR7lXX5tjR3ZBOPJk4h1yepFBoX8za2GJ4T68A3OyQxeF9gEGJxS/tsT2jI1wKgqjhVyxCnY5Qh3GgMzeg0z382MdqOwoOu2btxzbgCLQMdyIDaFbxJyEQBFqb044wIo+2rS7QxBBshipoKLqtDPEK6uvN2eSEEIqqk+fsKARG04liAmCOa/rN82fXHHkWLyC61PIz2Uf8m4Eub10pKJyrfVgtoDeax+cZOdOqM0ZvoWY0he4POrQD7WWQDx9uy0tnw2N0IT77/ItkxGrFd88cj1crb63M7Ubd4vEheKNWx1FchXp77qFtcWdzbvNq+F/+2x+uqepbD0UH847XWXwB97A1PSLdnEBy5aNyha+/+uuijPZ4zJaXHBq5afRAhllOcpq3Rc2+jYBHBWFAcy6AMJjsi7eqQDwozMVvepZItyBaqgH03nEJ1DYu2/3a83LadJm45ojnz66ZXkPUiqN7G4/G7LfydM4BPAKyR1PFfVIwRQwjmmpmvZx3FhqLyshecG7ee82JHOGouYCwCiYgY42QKBawb5Ob3NspA8jZOU66toqtm9XKUF4bZQUGcTknYExq5Eyu79U0wlX5BT5gzSmQQWfTrc3RY5zZV65+eCXmOYw2JY6+44e9RIUrcwA19DJr0rxSPSsFFpOx704lZ/HTMjZZVWoqKVxteZEQR8+7d+YmYjXgsWjFur3il15MRLDDWoWDztkauNWcP88IwlOGULMr0YR7xZvmOGXOPM/oQj8FIXiZI1ZdWWvYozUW5UD4kww3/9WixidTsnffJ/XW6fqs+k8M8wHsmh28GOy7AR2GeH9B2wLhiejihBqm64t4ibe8+vlPUVG4eKX5w/7mfqMsJ1pAyIXDEF5YyKAZu+5ul7SIUE1H/+y+z1LB5Tj7HomTAlg4+mBrXurlpiXCDLMLUYqQRUtokXY6EQ97/v0ZHmtXF3LaLeAwS+TCn/7BnDVyTpoZmnCBB6oVwWM6plh5AQDcqUQTHUY/RbfN4UpavBtQ3MRI1vTxGG0upBNE9GYF1BxtcFONxyZCmKMV3pf+aeaVAuEXP1PLpEcUREqGJJiTiG9KhJNMtjb1AmWWZqAxHfssZFeHMNRDu1fHlIZoEKO6TtFAg3f6sO1jn+pKja5j0Q8c0AOARyAZ/bt//pa4X8b1r5/+fhtbIMGRBOievG35+ov+vKUmdRPlKa8G+MMfX42CAwfYlLfL2MR2Atzuwmh3XS73FhdVMZscSSQe7z8WnKQjWVUGyuuHf/k4btelZAgAITz6iG9e0w2+LEgShf9+881XzYPuMcNBjkdSv//9HwgFMoRwWyz047d/9SvFo3eJzK7cEpcMMEUgVGxREzLyEcOsoWc1Z3ai+3ZdNNfCBTQkO33ZLdmsLij0QIwQHbGgpBCCGssBASyZBQVsVGt5nSIKBoCWGFEJpQmY7XmNJ3ypWhjapoIoRhqBYi6SuBdMiQne9WipmDzRFB5mqIDxVBgQI2oE1nFSINU0YmaFQ594kNwnPvdF1pxDJMdZ+RTeZ+2zLa2icJZh5qoXcyLKBLR4kT0Xas22UQq6plCgYQCjYP4BCWZq15GotaSFL3nbPbyPd9csoJz/+Oz8i5+oqRZvUsvb9VyzNuwCuT2Pho7i9MkmrsSxJJCz3uh8D3GaYoVBmxhRgx/vJPUEyF1koNeEC3DRcoioLm8UJ3VYfoY0amRW4rzzFliA4wSE5jYRNNrslrBGtyxId6K9V8I74YX9+p8SQZ+Q9FP2tpeJ2QUESopWhmnHzVIAejiaCpbPNEajqYAg6YcQZql9J6ikEIYZGYf1JoypBLnMviYbSGKbfegEGkVISju/gOXEB5JZdNVUE3yi4Z9/NfO/S4BXtXtPsUQIDLQ1LqpxW2mGgszesofRtDZmDtgLZhc/9SFj1EKaivcIIEQk2UvnP2NYJ9pnLszEAEag1WyTcxpVw7JmtIgeaJpyNVM46WJqZ302uhvcUNrC6R/dUAZrkBsvMZ/RZWMmi+04CoEOq18fr/fYU4zwOgfgtAneLnpkPnAQRGhZOYmPiERvp0vC7W7uGqH9vrtwTVw0edBdRDIlY6tjfMxp79yjPRxqF1aT2kN72JccuSVjMDgnH7NIVWof3Jrb0qttFc82Qk3R+y/0l4503N+9e6e4gQPMXfOFVDzGa+a059yo/nBLd/sCZCWsMnVIm6Ip6bmRzWpGV+LHP24aZ309Hbeud1d/iDpkUjkahOIjcb9db73EkoVnwnjkeKXPF+dcOscQw8znMdwepRpBMUlGU3zz278tdWjlOyCAEbx9//3/Im798njjGI9OxrNjAOkYYGo2frpqps2SQyYNx2AbETmlDYXnkeGeZB6ZsqnQkZrx6oFrovk4YkDjvfH+gnubSW6XOu1ynZp/FTQucE21OK1/KhfjnlRGGPv0SQB6xuAFavMyxT6wCaK24Ohdzabi8Zg503CneoRkgCk+I8Y+/AJ6eJmLDEWgCCw0VQVmtQnEjGfNUc/0+TUjgBCPhhFKzlydDEBbaQd4VEEtUpQqtFceziJ23CD0jByBJS5ZY2VT2IxWfhFLKQ9klZge6qJCLVyED+nWbOVsOmpsURFR0Ua0KRBGiKu3PVrgRYujeHiAyB35QPPwCLAX0QzswzVM6L4XqQDPusjK0OtqnPzKAvzIQM6xOmi0gufuigGH0FGTdUdV7lJR7YRx5Qw0oQFpKuJUYWeebzpyeMuXykTqLOj0DusQ9NTL6XxEyTvIqTe51s6f4r/9K3ZF7CcvhV5CsqnHwz5ceQkrwaKWZ6Ne+O8kg+Desc8x816TsGf4Xc85J2Vrm84GQ4g7nxWfnLLgCfydOY+y8JlmOSQTHOuY3LEpnxxs2FNMQEQGcvGFSz5IAeo0YzWeudQ6dYkRcKAX/sf4mf0G2gHLZ+NcrfUUv5ymY1E6+pesRsxBMKtZPm9KvACF+1ZCTFEBH6j0UOtONVwpfGuviWxGFq8x9SgJDFEN6oiPdAdGEskOMKYUaSq/6CsR4FYWoHpo6+7XUPOtD4XzICqMtkPJl0dOROepvyjlMx2f3XFJABW3ENiMpxEDbZCOrVBTZfVHqLWbY+jsGgHHx1sf94YRS7kNUEjmu1fvd7VzEbaB0XH7cHtsdh/tuyY68vt372/bIxRNR3g16xe/+GVYs644gN64XTAeP/wTmC2vcFuUjhPbl1/9VWIT+8IsUOTrcec92bTG5UE3M54c+v33T2u8M1s69z766zdf9eubunhwJlBu727646O9L+lZOERZ+IhHPH3x/tJrf6u+1OHS3/zbzx2PiqZVZ3vP6xf/Mi5Sd3ys2iJC2CZPvrNrbtQWikrjQcANujTcnobJB4tUwEyHgyUt3WN8KpW9+uuj8yXkuAivH9im5sJzSm5KkY4RhLsR4F0EHMkAH+DH6tBQhZNS+NH1vGnVDtHRLMf44eljtud9rgHAjFcP9Et6oCuGfzJ73YPWLsxz0qoTbR2NaJ6kEHaJdqkR6uDMPuqwxVjZFFMdgdWlso6/xPkU8E8y2ZwCVxPdvI7AGlFtz0l6NWdjkte0I45zyqfArEnW3pAVtg8X46Fj7EEuJZ8rtDzBWTeSa6uWfDpMlp4DNbcwHImfe0WdsIGOWToLthdAET1xB1b3uVL6/GEvRJ/m/ZmNWVK6fMnQ69QjddOOFGusG59UoOr3ig72cZtaQsiGyTFqfXy6xiJz9YKcWMkvDheYN7qn/r0XPv4K+3WiTgR4r5RnHmmV0sJsq32avNWqqDtBMmtGN5nTsDX8M4Cag5poWkoGgPOmDQ66WrlYvLLWGb0MF6FRQuaAJZ5kgoehNKfU5t6Wz4W4/eS8vU57gUXBBQzFoTsoGuD0oeky+5SJc4Q3r1aKyI54ZCU2h/kQpZCoJC7ocISCFDgW6snYeS7KUBFyYIJsuHdv+5cBogeRO+vkRfIuhuhibxNBu4kALuVZ+ARbTu9dEVCHMRDCgIMKWq16pakjoAz6dCSHwFmwCfTAAEbX9vp+EVpURtyHU9b19a2hRsB5soDCAWwuY8zTVQr2sDtuseZWppJqUB2u3ydfXAdhPm5qbcAd0MwUvsNMNlhwKz2XiHDP9lFhcwkYZ3PUgVGyD1rkPFyHyTsI3pnSCb2vCWZeE/1Vvzep5yu/xTYuXfNBBOEOx/3yw/c//tfH5fs9F5aewd6++fXvjA3uQkTNSI2MfP+n78Sx5s0hIEN36de8RMCxTsoDAB5N/8w/qMVU4kwXC/jyxZe/ge8zJWIU9AIHpcBl5t3qLKgI/O53f/NxK/3TEWsdHy/fvW14v2Zes8u6DnyZcU30Kvxd+OzerrencLZi/tSB9uyPz69u5o/7ENZoQl/qvovQagtKdg7fu4biEYsvX4NNEB2nOrofELl1jcA0ERMUkDC268d5jJECHwDgFkIf6NlOIV9lr9PzBME+pCNwMa7QBTZ2jFH6VVxT10T3PDM4uRHTWbKHNlCw2dFyI/aHNogYOeXXBE88PEDeiNF8XzJjJMIF5lfCmK00EQoh5Isci5mtZwoI6Cv+92KgPZHvtXlW2Sl4iSk7OFHSdOUVrcN8J700Aqz+d+oDG9URuRttTk7dl35IK6FlTNVAvKhwNmacmwaRMIMq3Hg6hH7K6rNKtQWW1jvHVA8vlNyYauf5WwKzSCVfHnV6+Vrn0Yzg8gTCRAfSzKpGrbpfTh3WVG+TyVicgeZcfHXNnvG65g2AELHbjevQyWwxpRIFYAlsXU33Tvfu/xR0m/u7JJmTpK4HVux2+uRVlOH8bem/XlaQ9W01wl9PlOGUzS2U62mEdRA8vNQenlOewKnVO+19HfPhQvNTTP0TwmI/XqzlmC+Q0j7M36v3yiPHvCxOo/ezAOHkwvOvzgO1YxOBDkoxTMUam80UNaWCUafup0LXQh3d8DzUdhazlf4zGWC3Raqem/MJIbN/flERg8fYx2vBC6K6jros3O5omufrF1987FRpinbwtgON+difk5Buv6f+3KWI1vV4epeE44H5XBWacdtuD16HP6sACQqwPOArEM221TzmXlejkm/moy48z8VWe8L2qgmIeeQmDMJusi+jAccppUgiHCE078VsCrCLaW0GSuZQGkIaHPd+e748OAPKqGqdz94DaFWLBjQxiSD6j5/35uaNH//yx+fHbT1aKOpYpQI//njR+Iv9oDYhIpv13Z++a34bGEe8IZLb5fo1sAEYq6ei0aV3Hx+b1OZzYuJBmPhwefzqL//2w+UO93XQGApch36lbZ5bW5kh1AmEsg42limLfXr7+uP/fvzj28vHek9Qtd+f38c3r7+63LcX/R8QETfdHkb/2LGpyXj/6sNt+3jJ2EXiyYC3wQt8TdbUD4Q2ZeAGIDC6pmZBRVnqynwinjxbmiijtVSMe5MueZyLENjig3wbHAQCYdP0g+gBJrq0P3qosF0AsJrdlk5lWWXcN328PAOL/Daa8ZTlQXHWo9dh3AdDwfW0oBeFI4rFDRThI2GZbQ/aecg3iKxDDsGQ1yQEDatE02gluTKa5rGPMhIZbT1uLCpvzlPAM3UVp7QfpQkHhG0fuUxx9aEXKFZ+b3uKC9IUNR0lYI0hFIh+LH7Ws0/AQ6k9/0xZPaU1WVMkewjeKz9riblr2j0zJWcoCVC8zMx1aNGk6BMl65xP2FnDv3n4RXuHfnqyzDTUzs3uL1O7AEOHGvfM+XCpy1+oyHfjz/qvlUd1HG/XepRIrAz3M3zOywH+IdrAIlH2irKel4UdQVTvSchrVFB4PmMexlpCjvKpyEMj/OnLq/87vt44XGVVQTkEtfWQBE+RA4eDErIeY4I12D/ogHlFLlLERKu7L+q2nHMp8dZeE/B6rBgwdbt7675yRw1R5hOEYk3WYuGDncU5HvXwUke7b3f0fW4v2tR8tsOBnxIUuGB2AfQY0jB7hk7HKStl4rI8E0v+t0v9HqYizk9NeDBGOBmFyqLUF1YoQFaq41wPp8qgrjU1pZMvmmMVEYio0SBMoCmaOo+J61kuEuHS/3kOf7IBmvLjaoPhAWYpchZ4EGA1ZRnwIFUFhOzePoDzGWP1+YyA4UxHyBgHcQK1R1e8euyET5T4d5MQPWPMoCbgCKILr9JbTkpnqWx47z0/pqKf8JgCeHPHpUU7jmacclY9/+jHt3+qBVy2trLGsf4Q3nwW3Hd6uihpfP3rr8+I0mGYND788N1sFhdvGQ66XT6/hFo7HRer9PP4kK8RBVLWQyhqMNKNNlBqp/nojS9u2L798cvn3YhLAvj6/uW/ev2Fx7z++upN7pDWcZRzv/B0fQLQaxQOYB6VArAeISGi4+7wViTbZPKjQi4jMacs5cwE0JxqH5rvu4LZQLpRnf0a6gPL1JTonq3fesuWjFKZmgIjo2M+va6qXj1iKwxcR7y5I+ppPusooVrouSP6El5OsVtYl0ud8QlT62GcYSrUQf1fQVGWgjvDygkAAAAldEVYdGRhdGU6Y3JlYXRlADIwMjUtMDQtMjFUMTA6MDg6MDErMDA6MDD8hjewAAAAJXRFWHRkYXRlOm1vZGlmeQAyMDI1LTA0LTIxVDEwOjA4OjAxKzAwOjAwjduPDAAAAB50RVh0aWNjOmNvcHlyaWdodABHb29nbGUgSW5jLiAyMDE2rAszOAAAABR0RVh0aWNjOmRlc2NyaXB0aW9uAHNSR0K6kHMHAAAAFXRFWHRpY2M6bWFudWZhY3R1cmVyAHNSR0Iq8ipvAAAADnRFWHRpY2M6bW9kZWwAc1JHQltgSUMAAAAASUVORK5CYII=;strokeWidth=5;imageBorder=#008080;" vertex="1" parent="1">
          <mxGeometry x="1153" y="490" width="85" height="85" as="geometry" />
        </mxCell>
        <mxCell id="fkhzhb3UsODcdzvoW7---19" value="" style="shape=image;verticalLabelPosition=bottom;labelBackgroundColor=default;verticalAlign=top;aspect=fixed;imageAspect=0;image=data:image/png,iVBORw0KGgoAAAANSUhEUgAAAFUAAABVCAIAAAC3lz8NAAABAGlDQ1BpY2MAABiVY2BgPMEABCwGDAy5eSVFQe5OChGRUQrsDxgYgRAMEpOLCxhwA6Cqb9cgai/r4lGHC3CmpBYnA+kPQKxSBLQcaKQIkC2SDmFrgNhJELYNiF1eUlACZAeA2EUhQc5AdgqQrZGOxE5CYicXFIHU9wDZNrk5pckIdzPwpOaFBgNpDiCWYShmCGJwZ3AC+R+iJH8RA4PFVwYG5gkIsaSZDAzbWxkYJG4hxFQWMDDwtzAwbDuPEEOESUFiUSJYiAWImdLSGBg+LWdg4I1kYBC+wMDAFQ0LCBxuUwC7zZ0hHwjTGXIYUoEingx5DMkMekCWEYMBgyGDGQCm1j8/yRb+6wAAACBjSFJNAAB6JgAAgIQAAPoAAACA6AAAdTAAAOpgAAA6mAAAF3CculE8AAAABmJLR0QA/wD/AP+gvaeTAAAACW9GRnMAAABVAAAAqwDLmkqoAAAAB3RJTUUH6QQVCggB3ZHezwAAAAl2cEFnAAABAAAAAQAAsmfcigAAHkNJREFUeNqNfNuOJMmVnNlxj8yunis1FBfaJRfEQhdAkPZB0IOw0D/oTT+tNz1KgCRqIQncJWeHfamqzHA308Nx94jsniE3UFOTnZXp4ZdztWMn+B//038G0MOl0IQoAKYAAKg94n27NIIGIMAkXDvLL/7sL4RqEAgR+a3qvf3wu+odECBQcABV3kp9Mi7yBsT4E1R7rR8vtW9GiDBAqFg9Or99UrRq0QZgopPfvOKf/u+P37wiDFACAqg93j09+98/vXt6qT1oOMb8aX/79ZucfF5jqsDlcgFV8dnlz16KiIc3874PIwKgET5ej09T5xHPV8Bh0KDDPN4vQp6EQpILZECEGSZ6yEQfOw4bJHrAjE4wED6mFHyYvOa5ggBloCLvbRkhyHk4D/tBIAQFnAv7fDmRwpGLduRXchwq8gN0YGybAMEiRCi3jAYI4tjBXGTJ/SYUEGQGUkoA07k2h9aU5k6N25ynOkV7fMxAnv9a8GnS43sMh2mjEk2nfaHnjI0AaI1bGDThCrRAxXifAsIQSMOpTHRAxSIQVmcekkARAiXKtEPdMiGiEyKKUGUTymmM35oLVzj19HxA0vFPrfMXVX/xvJu6F7w+aY98d4olUHq0dqG2GGKvIVZEURQICLHnuOEGwKidld4890uoOeCGXTBE0CERINyjGSVnnCfGQCeKYYMWIRgxpfhW9fECIPLzoML4eFFseKlM8Tnk37hVF085nhsRBq1q1L95hYl3V/z26fKHN4d2hIKO0r/8eP8K+iJPxjQNgIH99fvfE/dpCATYVGcpb39ubDDgoGEGvBG3L+r7gptcjCAY+VdcfpBghJ0f7mBnBMT7/YIOtlwPHZurd/0ff/hdARxjCyizva8veu7v9WI2DeklHFf17371L0pvSxxIAKgd979/d+mof/Z8A1CN9y1eLI31RMBVgh26QE+iYBANQDjPH2SnHaZoULAQBa6dbwIwSIQdnVtqXHEH70INB8EAOtKYqSoC6YCGfl7kgJC+CYRROwC8btjH+gmgRyj84Qpt8XGrolR6DkGjN97Kg0TkVYUqbB11qmf+9pRwiaEIuPVoQFuHnP+L03BphJR64aA57a0BgViKoynhnWKenkGjOIoIBwNxKNQhjJ0OCGxmCAEGXebdu0FNdRhKASBNY1qpOcGza8h/nv3fMsQwSMsUKEebZsyA6BzL4tiFFLcYPjfWO+tGZoeVAgnCFB2mBBgKV5jDOzg6FR7fTWM512lRhTBCYMl7TpNupn7z0ewtc/ewZkzDCTysn+ddMHPOBpwaFT/hxo+hgXDAwTUJnkVgGBY6UuK87qYIAwhxmdhPbicglpv55BrOCAjDc/CHLxMnO3Uak6jHew4aqXJ6CGPSqJIGETDDATKGG0aKceQrRjg6ynEzjmlTtbg7IA41CiB96rT80tB/TQ0KDrmdb1CgYixy+s5wQALooKNoRFOhB3lYYmVg3bSKSlNcHEUA6gruAoJK7RW9ALH2OE9aa8l2bsGMfzbgOozFOE8VoaAWN9ipVqBpNHZRvShjvk44RdMSoxhwDclxxJFEI+IU0nWi0S45IYU54vFiFCtOMj/1akifAvV1A4zXGrdS7hHwKdKliraijX2b+rnEqY6UADJTFUFDEGI/Cw+ooMIo3monCTO3XgActRMtep74HmkdsClVOsIQgla+rl1PrW/al3ZkmAwKu0H0oFnX/Ter9qD7WZs6YaIHul1/o49F9R96+fD2Zx+vNUychO3N7W2/leu9LkEyQVrFr+2m+iJO5QTC6HzpeJnBXEwvFfe93v/+fm0jX2J6b/Ble9FfPN3itUBIN2PQkPD15asChFGmGhToCfuX4NuMYpwCGDY+dGz88iNlaMWpgVDZ+XJv3JcZzQxCHd9++VSF+rqBwq3ErdQ9Cl3POrPhTdHl0rZl2E30aC1qnowhBcIC0NOA8ZZBORBAAQKuxbVoq+0KVyDgkkp0j1tHtNKtPMl55mIarQyKKAQVjuL9qfcv2m1ZhMwaQWx7mpIRF6X+txpVaOWcAY5T7ASpKmADgAiRrrVtY2gKQFGhSqiEI2fTQxhh5JiBR2oRMaM9DAsUmXox8wLVostUIk0T2MTolIs0sjptvYqZR42bBiAEDDqIBu6HPQIFEBFWcRipL0P/rRFoxowJl2k3oUDF8m0ZujjG+buA5vhy0DH2RQMd4CnS9jQGNI06zi1FlAMICF/CzGSeXoMIR+gyTIkosUwdzlRvme254cOtBoFAoRXOFCtNI2di9nDshwmERednDpN4Fg/TpvJnRm9akVyMyCSTgvXdgDMEzGPHWvzwhQ6MFNCATZtORQBGgnxa5OG3VpywErD1rc8vjmjq078+BCXz+gz/4DBmyuCP3bToQKNjptZOHz507zRuAPCIok9mpE8bGdNfwDynYgyEqLUF034ivO4gQKZ8oAQ6ASdzR0wfYNVxnMdEU+7mEDUe/uCcn8apWtEcTaWh15gxfEqHziLjw9SP0JJLyIe315rKlKYeI7ErCiawFsqlfBrHUqaEJkLM+EpgrFjPhGa8I0Tk2z6lAydpWktO7KzlVC7dTy3nKQ8R0aWjOeBwSDpNzEXYOq6GkFGnoyMAVl3rxLDGubGGSqu3Fwvcj/CDaNXF12sLAiYrA0AxLx01RK/jUpmR4nMNsy7gKIXoecP1go8XiyluAFCsHv6iQBmyGkSY6lSVaNKq5ZviaFf6Z199deeTqWXM6aj129u339X7t2AHMJyxdbt89eHlI7eXqdgXEUArxlu9qSt+dTUFNrzZL38p8m4WkHAVGMZbxofn12g1ALiKGaWKlvW6290n4wI8s+1fXt7jyDASxnqp/qDvn/tKXgfiVtzf8Bs6UjiHzRYkWoBRW2k99o5aleBPT8mnGU7xmBKYMrfsvK/dKBYQwmbI7EUo/VJmPgMXAIrey8d2ea94dtxFwJdMK6gaZlWazDk4AmihEe0fSadrJ15rJuYPlvtl04cNLxcRh8GgVa17QU1ZmU7KjIpmMqQqhFl9yp/TWjjR6Gg9eim3JVQrfVhnMl1jKHLXazjSsQ1wFT18WKD1mh4gDl0e4m485P/T+EVAPiBTnacTdmSUgZMvY4ybDhh+jjVRlkQuKkbMO5yZmHlY4lkTM+ZyY/o8wRxIbvq1w3hjxcXHJ495eI4TM1icp2r+mG/TAcB8luQvczmdy8n6/MgntexihQO+JKAQhj8DwM0QKny4xmnStXzSQCLRiPpYHfjRhB0Pn/FPevJPv0OlfBvx4E2ITnZGlgZOpwL+5MAjXa2nTw+IGY4yxw5nEEUOMHtsjgEjzOgjzkEm7StY8nSzIMS2Yo7P8BmBigOzytgic9MCH0qbx9OHTOk01BByI4zIxHn8gYACdOgASHJaa8wK3okoUnEHWijm2AFEKKiUTOVmjpIDo7PsRAxQD6mfJFS60IEGRFgCHF1snKieGGe9IDqxH+tP3AGNDjCXNasSmdIrzssWNUzpAtFOuznSzAmo5Dsp4+kR6tP9K5hC/fJWxhZO6YLRfX/hhx5LJ5T/9eIeu0IjzljyBnXdww40IHraf1rROIzLSNdgikBoL27B8yGnaWBdaexx5mE+3WsZkrggfW1CvKYLC5/C5GJvnWUBZBNxSsgsjPqv6r8DALb6PadBSjPTALxW/fe/+2+v5cpMS0fwE88b3/z5d9piGfms/Fy6+7s/FHajwQEUJNQZ++9+93977KlVmf8SvZNffP1znQRyvehv8swqlw0Hvn7Fm+/ff31DjGBcgES/XNq/+fU/f976NOHD0ansV5devPAbUS1wIfvrS+uqT7cvaQT3bdtTDmeJDqDf+17xEXGLrOpl4QpVpfay9yhGPYotKgExdmHHqBRsEybrPZzwvpcXIDq919ZPDmV4EEdsWkn+dCsy8fZev30BE0XK06Y24ZuXWjuQNbA5pb1Gpsc8xbzFGucPV2LP/LG4Ea1kJD+/f1I2rhmkD+wsjRejHOuPWuUezb5nvCglIhCKlp4169wDOAdA0SKPUmUMJa3Tmy6lyI2I1PMMIkiYVIBWOMLxCVRNx9x2nLd4QBIL/ydA9GKNBecgFD2SVqEecEemQAijdKbFdBiCHDKt6JFYVhAOxQHUT6N1TkLsk4RnfJ2lVHwSO5zQV5wvO/FYMdJJzdwsfFL1YX0hnO5egQLXXMCAu/0QThhVqAVVANym2884JGOYUaUD6qwUPYTn06YcQj5vr3GPhDceoPtz4HA4Xc2tH6UeZrZKIxTonGfDscUjxcZPXmnwC8CJZCbmgR7qIQ9YJlGjU9jzGALGDEtH/RuY8SYfpfHTxZ/O8/ytH53zCUf5LI5YybhP+q8fCTcmNWCGiRUIoRJ7Bvx9ir8GSKxe9oTKwmAiGQQtOutPEciYH6FSFOEI1YGMOPd3VCbGJs/oPaA+w96JiB8RcfgRXZn5wqr2LMGIWbAPSNPPjW0Z3IFRStVpW0f9g3wJ7j3ut9oUCvX0KOlabnWDrtGvRSUMzgLpjaVRiNs4ZYtAgRC9lR1ln4qQsRAA3KOYZVqtCgjcEiMsLjyEXzOtOjMODIqGyFn/H4wYAKCeN7y/6uNlVNyGCDgcEaGpTqu0rXCYsFlvL/8LjlvV7/vL7aj9JNtF7fnrC38R+qZkDctRhOLGbd/ZXG/VrQhghMEi1f5D/BZsWb0wY/gKXb/51a+pLbjn5oswoljlZS/JjnFClwlA+OkS63W60IQ67989vds3I4QwCbj6/v66f9/ff/C99p68KDNgFtx+3d/U1jLwwwgQbbWtXgOtBj+CcMFt6x+3AHqeQ1hhuSP05tLfEB0AtRWjeq9dRAveilsB4AsB8G72fbt1ygzBRkJS99LLvbB4I5GYtxmdcekodu2C6wB6GYHm6MUSe0HLejGIUDX1vGFnolgUI6xN9WXrr1e8v+AiZTky93dT9Eh2SSB5F3AZcAMAVJ4KWEdZdtZMCYQbPPwZEAGERbuIoVIytXAJA7z0uMPFzIwjbYmAOsRqGrDMQ8okf83gbFAflMyIQ+2zvhIz0eAon6z0Hp0mzTMdiIDBgODIoovBxP9JcHBKUiqG1j1C4Fho7xlRSHRgpJln57wiDKUxXyk9Irz224fb93AZQylNnHz1J077YYajKLIKE0d1ODLgGS804PWVBH0+1EP+O80yl9sYNflKbz3tCoKUiVZGrdpOcHYHIDbRGfCBC+oIGiGGPcGsMVTM4wrzyE8JPCLLi5X5mUsMTlTv7BSWEeXk7P3oZcLJ5MRYcJ8Bg86lCA7qXk9ja6JPMDsmr0pIskha7AbOpO0BdVKxFnfmERg5iJZr8UaIGjedkjXvq5UyJS8GtEfYKMz4bZJ59MDgPOI3AaxiUiA0YyaBnoSXASGGOzzqc2YDG6iiWnvFKBOl0goUeQP7zLWzFkaFHfc+aDJcmFdnFkIUh4FYUV3GeQIKUPL8zQB3sAc8aUINaGbroVaU6jcgECM0CYUnWknM/IdGrW0j1IkrY1ZTD8jZvd946+WWoLLHFHuRnlo4KgGznMKvy/7ytZZgTEAB5ptaV41kHqmKgYEOLXRkxF1GdB71olwOHNfe37b7KlKFHdat972rCmWW/TJZLUaRiw9rGhhwSHijUcvv74Rrvf/lL7+91xboHKYecDxfrtsXTy9xTXuDSapo4f/6m//ZQvnPCTBUofz1r/+ms2JCYKuO9v7jD4o+35fYUkNu9+f7zHYwkCW4x+v7Dz0ZXDOeDYdf9UtevzGApIASZAHf0N+9/ebrJ6WfziiYjuqXr598cfekai2r2W+NYq39UtyAuu0sRuBA4wB1dJRbL690SVTbg9EUTzvFUhRj/Qq6CtcvXr/uuMy66EAjernf2weFegZtA1M2oDsGOrjcH9JcEkbJFwM0J+C2qb9tkzU0Qd5rB6xqh0NZqhinpeI0WefzTx6a6KgdGwinLlHhU1HTLFaxtszjT9DzcCnTsQlZwYOswG5mECVRYICRpcQeXYOcM5w9KdMzfcRYee4aaqa0ImfcNmvQk88Rc0IKdLpFSv4g10396mkFhkXLhAXDcVZFcg+H+51WPWPmsoz88rGm+yorjMUj6E7R6pSizVjFyfAMRweAbjaxeuCogQOW1AM1C2XJcJ7W+Irh1TuQLKmzD6FGanxKAa1RPvTB6xZQj/jvwQ1hOJHTvyFUe2vJYWVLYAfWgDEhsPdhMuzp87OgMtn3JanRHDuydnmEYlneygA0gEmfw6mqHeBhCCcYmSQUJXNv0I0P053g0sMWJVc3VSZHq5Pv+VkAkfJ+LtcAkz+dPukBKcHgpyUIX7BAeWRdOFIWFrCTChKTRz9hH5wXifPgwIzbcnyF0zsOrsWBcHvywjXkawaZSmsKa8qg6qdhL1fCCSVWh1Zwm2/2YqVpLQ4qzFjRNrwZBa7KWsCI/7PEtuPxymw6WfyR0+CgA/DYgjOAcUYH6qzEHeXI4wSzoGIlTQEuQIWbBj3wPGDUVm92u9fWKvdaCi5Ey/i0c3uJci9oRfCeXKPEMEl2ApFmbEHAFQ6wBUQPk0NHAW3BxbhCW6zTgIC9aNjdRAYAFaAQ9yKPUG910FjEhwvDeIjnHO/e9H5pe+1D6DmSiwoUlaoCFPRpvJ2lLruq/uDfFfsZePdez1vGBh1sQnRst+jbt2+b73Q7lMDVaPHdV0Klw2SZCOYm/PD932bpem50gWuL+FC5x4XeZjoPAIwP337xNvgc3tI+EKre9yj/4/sPO6/VO4fMRzg+WP/l+V0cpIDEyOO5vf7rn/3i9XpLHGFV3663+PD7D3HP+u8oqTT6Xlv/Km611Vb3bt22eN7wcauBBigQYjTUPUKZ2k78YxSsEfdyhIrhYQ4CnbiXQZZAuq7ibm+hAlaqTHsGE9QtbdiqT4S9uY/siCgZfcNhwbWHPlzUyqpnJ0+Drxc8X/Z7vSWbHBNi7oEqXvfNqEyyKd1K28sA+6oxzUwSNZwWPnMYEoWQseEzLtlhjY5q7sDw8nzEUboLzNRhfMwYdGXEbJDzIIWAgDJsTQISx+xOBV/EAw98EDNPRKZZhCfCDEdRTaucIH2Ci+kyRv/TUfXmIBLEQPoRBzL+xy7xqDGmVRrZ5Mkyrd/rryO5HIjgyAuMKo7seCWw5oID9clkmPcYf9IKrpYf4WwWWVD62rlh/48RzXyTCrIGKs1s8AgADn1aUk9fIg5SYsAVWq4rwgEXOIkGlcm1mPkZshdm0scMiKE0BEawjd6uU1FnFQMeF/mJYK6rPII060/D61Ye4MxYvszi4uFmhq4eGMupu+zM/0uoxaHkBcx8MYSIFMOsTEyvvgYhVCSzrc3NEQiXDMYy/psFPyFm6IWpTzQ4E8dPpNKZYmcqWQTTjrb2rBYVjIp3LJQgnf8plopTfvb5i4PMkUalT/3PCprBnpVvth5DYBPVKbgH9oJb0pCy+DeUHC2ptOaohxtF8KLGrq6OCPRAZ3TGqvfkfFugldZK9BPG2akeObjqV69PooT+Zk/OlUGFAmiiiFKMfo7OzcUqMUfjB6hZb1KPvcM+EEEWRiu9FeylFvVzStvdAdKXGF2miRciiC/vq+8qwezdjD1CO1qU8xnQ0XtceqgPVV9lvGIr+r3uSckvyjhamYkBqP+y/krc311uF398h5ujASwBAJ1+Df7h5bWd2r1SqjsrSZKzcAZQNoSON13qB7cJyWXp9c3Wo89IYdKPFG3/svS3OeFqEa5uF7Xb73/YtBf0REpTAF/q9d/+9X94qVcc9f+g4/Xy8k/q1691y76wARk6vkC/PjVeTDKMYtM0i4O9dBL1i9c3imhFby/Yq3oYbNkw2YmOFgeSmQ4CS9qn/TteOHr3HrMJ0cxCffQSrahHkQ8uiYnaAFf2Lds4w71Y1bj29kXb3/Tbpja5bQrofcdTQ5tpW7a6hNl7XDp75+BFTANRrF7azj3rP4sIsqDtWrQBoPYD8Cb6IC0sFHAKIRQevdcnJZyw8Swcdp148bBDPbKgimL1QQpMi4CSJMnF0uHQHWIW0Uk5ArETnVtnln0OC9oZSv4X4+gLRwBoBS06eR/1qOy0RfQELDns/0qfAujw4G2uqDMV/tG1nuhABy4I+fCRo2rMNKUzcPTQpYGXArTKciNJvQQ9qyxYwRkXIhCnMqZyYcqEdZ7BOhgDPVTlToDZdgk6dzqw/P/pIlCY7poKVrhmGKcJoeHkAk7g5LrKIy6BUFIxC7UYjmsTBXDAzTMVTytIDHLtolwvYTwzn+mV336ykEN4FyXejxkljsrU8Z3FQ4GOYnPmeg9l9nWtw8+uyclYG0yLWeHiuSmUk6W26l+zvU1AdFYjYnR+D488ldFLH4NSLoeLSvBYv8mFOAYT78wCUkSgI+roPhiytJgcHL2O2AKLTYU/eQ3erDWeezCr8fNHnGDOpAAA2MYjFmZrQBY21xkuSisO/O8TvtT8Eo64MCANcKmUXl0UC245n/8PX7wD+8vlJqL2LUP2okTIWis1GMFIElVxcYbvzsNWSWh10c3mxBZFZXSNJnOEEWNbIifaCUVrZdrafKSD1Kxb2Ygn+DLPBqJey/a6tVu9LUnIakqPe/V+7TtczzXLa2/ZAlkEMbJNiI7OrEqi/vbP/66gddT3v30xChEByYYNlL3y6Z89tXJJplSqg9ka2/v9D1AHW0F2kKaR4w8fn8f6B509ts5bQf/5l3djk0aff0ayff/N3//mTd9PjUZRe906Kq8bryWp4YN97w8hX5+ft+fJHc3HdtTgi97vF96EOtO2fJRKuxBj1wGipmQX4P7aANR3b9+FVfoVQO1bcR3ZuAnEjdvuCtfs5CsCPUhBxbKbudOq2RqC2jNiRS6PYhAoTPT+qP1qnH/pbI4m3Hr2XWQzLnrxdoutu1YUDrxEnb6V+63q9bIXTaiP6OgX75v3re+dcFY+jZIZSe2YnUUrBwTyr6gPSp1ZZBoShrMXIkOC1NtZb/9E7TMOU9KnRqGSGsHJWREGoHokvyNFWTX1vAtnfDIdMCBHhKga2S80W7XD0TlnmO7Zo3aaCy4P2eFR2nv43+O1CNynR7r8o671oBrMJuQD6sKUyUxpEyf+5HEdpx2NIyQ5GiGPn6wv/ygqseyl/pjBHga4fmJOPWrFwp+4HmoE5+6yT1quxlNuiDDm016GmyrGJ/j87NuLfOrMiUfI0dtontf8eXvXmsZ5LzDxuxSlc5mnDriKOn08cA5sz4My+Sw63Z7xKESJHXUqS3GYEhFZvwEU3aApIRyNUPHYxIxtijGIFc6Ky0H4zFDTlHywdZLJMHbbJZli5wj1j1w12/5OIEmBfdCAQNCD9rfWN7GNRHKELLYNiS7uqTOdiuP8PRjBMb7bA4ZL72FVjRsOTrpULCM75UIRp+pbG42Tk4AzOBJWAo1OisWEZrOkcOpz/Wz9HMYs9/UQ/DNqBLZJYIKHviTltgxjuWicJLADjYji2YpMFevtfiSF+dASE9eOtl8vvS5RpyKbHNw5SOcjp8jf6oEWWs//AqDRLt5WPLLAWOLHHglyXn/vNwPQ5Zuf/aK0r4pPekOXrfzt6/Or7mm8y0yE78UkyTLmfTJ1P//Fd4tsGI5s5tvk1z/8IavJU4EzEdi+/4e3o3By7DdgXDnoPYmoBgCyxMsv/+rX756ec1uH2Lq86Tc9/z9rx3rgw+SU7/sRMs9ZAcClXlP+++O9OZrZFoAxguKc7icGN6GaE9uXHVP8aIx4C97UorVL78TgqhMdplGf96v9NPZ8skBpsXA9Vmvca2JYffCANE8r7E4r0MYDSzAoPBptuD8pAhVss5w2AicdrWiaw2vccj3YgVCGA1zhL8SAPRBbzAwzYT8Pmnh2+M8myqBq2PNBdhi0hWGSuqjZdzq3m32yg4TRy5LeStlKsNKqfKcodHKTs3BwJBcVRwNTchJXtnLqJTt8znx4y5B2CvHI0nswNtkCreS7ngKK6Zl7sQiXI4MYtkeR9qxr1TlTqkYgPK4eowq8ciceTEnls1ZiPQzwx8//4cFmn15zQlx56+eXOGLJ1LOzT44T0pS6gMMz5YA6QQrB9VgBT3VbST7mwwXwj70mPKEY/SvrVI4J1J9wDEvGFi6EP+VLx3OOhhpjcEw9f9IsrVaPU6fomOtq8hkw1LHho44eZnYlz0rM+vYxSXOyILI15k/tUf00rT/xB+eCZxmK+GwLvCCwM6YzKviTAZHySaUvGEudphumehzPTjgkw6HQzBeY8W+MJxyhx08+j2rmv1iY/+dPpfxk537qPD1EcTmIw1N8vhEYhKeH5tSHFyfy78NsRrzGZYbOBbwpAh4/nA9FmfPPXqiznOIRI/xj1/8HRV4f8bK2ta4AAAAldEVYdGRhdGU6Y3JlYXRlADIwMjUtMDQtMjFUMTA6MDg6MDErMDA6MDD8hjewAAAAJXRFWHRkYXRlOm1vZGlmeQAyMDI1LTA0LTIxVDEwOjA4OjAxKzAwOjAwjduPDAAAAB50RVh0aWNjOmNvcHlyaWdodABHb29nbGUgSW5jLiAyMDE2rAszOAAAABR0RVh0aWNjOmRlc2NyaXB0aW9uAHNSR0K6kHMHAAAAFXRFWHRpY2M6bWFudWZhY3R1cmVyAHNSR0Iq8ipvAAAADnRFWHRpY2M6bW9kZWwAc1JHQltgSUMAAAAASUVORK5CYII=;strokeWidth=5;imageBorder=#008080;" vertex="1" parent="1">
          <mxGeometry x="1153" y="582" width="85" height="85" as="geometry" />
        </mxCell>
        <mxCell id="fkhzhb3UsODcdzvoW7---20" value="" style="shape=image;verticalLabelPosition=bottom;labelBackgroundColor=default;verticalAlign=top;aspect=fixed;imageAspect=0;image=data:image/png,iVBORw0KGgoAAAANSUhEUgAAAFUAAABVCAIAAAC3lz8NAAABAGlDQ1BpY2MAABiVY2BgPMEABCwGDAy5eSVFQe5OChGRUQrsDxgYgRAMEpOLCxhwA6Cqb9cgai/r4lGHC3CmpBYnA+kPQKxSBLQcaKQIkC2SDmFrgNhJELYNiF1eUlACZAeA2EUhQc5AdgqQrZGOxE5CYicXFIHU9wDZNrk5pckIdzPwpOaFBgNpDiCWYShmCGJwZ3AC+R+iJH8RA4PFVwYG5gkIsaSZDAzbWxkYJG4hxFQWMDDwtzAwbDuPEEOESUFiUSJYiAWImdLSGBg+LWdg4I1kYBC+wMDAFQ0LCBxuUwC7zZ0hHwjTGXIYUoEingx5DMkMekCWEYMBgyGDGQCm1j8/yRb+6wAAACBjSFJNAAB6JgAAgIQAAPoAAACA6AAAdTAAAOpgAAA6mAAAF3CculE8AAAABmJLR0QA/wD/AP+gvaeTAAAACW9GRnMAAACrAAAAqwDkAjLBAAAAB3RJTUUH6QQVCggB3ZHezwAAAAl2cEFnAAABAAAAAQAAsmfcigAAGEdJREFUeNqdfNtyJMeSnLtnATPc5aFe9kf1rF/Qp8pMWp4hOUBXheshIjKzGpjh2S2jDYFGd1VmXD08Ipv/+3/9T6xLcYJW/mIADOACT40LPM0ADES++RL8Mi4CQICAZBAYjldw5EsmAFhBAPr+/bsBE0EAkKHQiIE3vIRo5tMNmPHXy/X4h96OC5BBWjSEGDbez+GQA4AsAAHB4+X1H/Cx7SjMAC/jAVzBAGOuH8ABBuYLxvwDLKYUGAByF3VL5hsIgzEoGBJyS7E9G3Kw5HiBMARE3R+Rt2LemRHUMHrzJSAANEww5V632x+xfjZBr7WaAESnFG4fmj8dsX2yHxn7O+oDNqjaXt1McwVxE9DtPa59wpBJE0AE5/sDkOkUtDE2vQEAYQGxbZLOTQa9Nl8LMD6s/G+uI9UbhAAaAJWCYKAcQcAFEFAsBcoQHMzdzs0zUDo82k/CqTumYb8HY1OvzAiCdFjM594dZATIpXXNnX5y9eZz5Qz8+Mo7HMeuLcQlnwxAgc3+AHF/gGARMiFfAQ+EkdYruj4ZKJ+v53kACBxGxLaBiwIFXbtbmmHiUhwxgpBh0BBKD2EPGqh7yoQtYBhIt9wMJmoThPAsuQP/+R3lyzhH8Ncv7+PcrUgm7ffzlEGHANjBXO51DI02eXXgDOL//fF7BT6IAC3FAPTbr7+ZCMAqoyZiBEIPGmplmARxYMTj0gOATQcyguDy+DK+AKJlQFQAIGn88dcf9ArhGe2E6+WVwPXRIo6Xaz4SJh6KU7GFMQ2DTgPGsALcPEyA5GActCoOM91B+RETtARm6DIEw+zNMmREugBsAowAzLhUAh1xBAFLRAcEwa8AvTw0rTIAgefNJQywXBsQEHuYP+oXIwhp/aHCj5XubrpdW5v1huI17yCzEwdAwCOfCdOZnCgC6fymolQRa5WbUAMYFZlV6QaVRwmkM0wnpkHKvU9CuOk/1atW/owR7ZypMBlqy6lw4H1VGZPUP2R8Ugb0TPJc747tl4rtwdOMUAa/qMyMYL3ZdICR6UoGWzQG3Jvvf1U21rvJXKD9sTd59g/3NIjK/57ine8D7q8FNNq3tytAZ5IHKsn3587t5373Ujt2eVWSnO8yzJlW5bL5zc6f91dbCD6hjycplC3UmyhU/mcjEq59+6ZPaAXndIgwU0zxhC7cecvL8daCbhF4Rub5QVe8mFn2vtOYC0jIEFNuma0nvHtS0vq34VTf7Tgza5WrVr7NGJZJNyGta9UhGI6QgQjZvCE+L/0cNIa5ica3yAzAomf6TXyRn9dcLJyhc89nKaZA5s6loYsOoEDxk5FaUSgMHcFNII5HxakgcHX8VmrAAvPXjI+tjjTOgv0ftcSwGF+0bWn+ZYR2NW76TxUEkAXFmKZOV0RlBmHAikuFKde9jeFAJebWZ/6BJzC6col6dNr/8Y+v8/NinMJL6p0FCtOGH29v3LLi9Nx3Ah7pOOocwzgQGnEAY+xQjI/zjxN8lK1aYKEAKcHS2JctI/xgodqglaH3AoZ4CcY145EMB3T4CAOeKcAywDEyLxorLBnQcS7MUruiQYSBUaLKBBG1QwasYPq/AjKPCXJpwUN41fVCH4yRRWGtUn+NC1BCjira8rnBilbBXhwXzG2TLvmHQtSliK1MSj9VxmDHHeqkCfSLK77EcVaejcStIzCMJ69W+lW7Hph5JjKZX7lghABTumpvjCG/pMMPBwDjIN7QdUuQw3D6nQniWig7Ki3UWhPAzlojLoXp8gIGDRsyjvWe6awpOLZEvKeJ4+roskfmhNpdgXwIcBN2VBzKFOAA5NNUpnG1DU8DmyVh+YkNMLjw5aQLFgexZxBLjEBkOexCU10vtWh2CbbVRAeUZ3hwowq4J9gp7xZkAFmsB+0u2okQrmDCGBT8JEF1jOk6kKf5bkakpZQANXU0LTw3v/JiV0Tc1PN0ETESvyH2MuTpqlfWx6V27IzzMe0gIff8jKkpSU8OxWKI03c/uaJ5jjAddDCsmKTD7qVqq5oGSCPAroUT9t/SjVzRagSUoPRz/NefNTfyovF/er4WqNZUSMekmCJoAyvgK7/Ax4VTGRRM+IAPdC6IFujFABMIh4TwE+bXhekg5T4tQnLT2vQpdkHDTMKhEbtydXeeKYtd2jom7B8O+DCOIDNrREExKMg4N9mHiGDIB4dkMFSo3iroToegMMigzTAjxvtBmzavKUIYpho1LmaJVVZl+YzCmh6JmhhjFBAErTQBGuiM6E1kMxyOWBVAsgbHcbL1/wLrPWgoeM5UIR/2+OL/AI58PBhwOsH5Cgpnyr2qFJ5g/PYf/7i76gjawv/95z/Bx6YLAQPQC1+Y6rSSbQnFCPz6y5cR2oJoXIpQvF0POkZEFH840sxEc0QxIhP+WOf7Yxp4OpThII4mVUGrmZsy2XxPmjTjFf4CVz5vmP024h30WNLOYugC392ZB5hPvaxrFiCe7gaMrPC7tptVZW5+omhBDpnnMGGEtRCwJYepcLl5PmYyijRGY8yEUtzjf28hc/A10x9wAadKUYVO4JhG+YNrt73bq4EqxZXa7rJnCauJoTHLey+7Zb/Cp/pqi+r16w6N5keAkRiGINtOqhBnBhVPDm8rORfzBwg4umj54fVJKGbn5L0K+vEVH+5Wdf6E35+Ind7JUt8SChqkz3h/YKOuacKqjGxVfI0Bj8ujAnuyTrWTCzj3O9y3Ws+LjQigm0q1blIw0SXwj4S6W8HStZeh0jJFV/2rG15YUqnQDsg4mt7qeItb/oMP4MiXg5AjMCYOVdYW/4oql+wntptQfN5A/Hu74FOKj5s0m9rwc+5z10/BqiYNgj60mVYvaEM+zYsHbZwh7lTNxZvy4yPffmd7TIz1ea2lWRzoumBhD3UvaAmwuhW6GULWhWUCmOlvwm0TluHwVvlU/XOXpquSRXQWrerV4zSGfSHplXrbGbp+rLI7CW8RQXPs+m9ZN9v52V0alsOFPl0wVLFRT90VCVVemYxQ/jWu1flb/x7ne2djKxiSzNWfMAE8Ahovr8BlnADYlamMt7/eVCzY3j7D9/e/+uOz6iIAnk8c5ZX06HhJqpx7oKfxdj46/wm4khd3XH++vwWvuNErOiJ+EVJJTZPVwi7H5Bpu9d8Hiz3zfVtCUtrPXp95GV78OJg/6bTo5CQ6ggkxySbVvfntbHG56iqhOJCqTaL+pFugBWRPfVSFXt2NiJQd2zrS/j+svevgTsK1FeWNzr2oYqT4tL+4NTZ3sSZ9oIRbAIQN5Dutb+4Bsd1qxZeO/72lm3RnubtxFyEnnsnNOzRrmSLan/RftB+3p7qr55unzR+eo//mYBVX7wxgbTWS5OWWBdXdVwCy27Y5U8ye2H9+Nc5dGaFgDiNZAzUPfmwBOt94zO55F/k7lxizxxzA8ICvTfk/6bfeqITmf3R/dr+Vf79N+slANx6242vJ/xPIkLRmADhWIjEJq9Ny8oEbjSIinGy0a+ABTgj02VaX8uP+p9H4YrUY9+3GT+EEdwbT0GoS6d7kwp5fOylGmt6UAhHHB0R1JsRXl+6qNsO9SZTsyE8b7J8IBdo7/8WhdKiLu7fve74ZBKuPci3hrXo5sjVSRBAmSm0gTNWbi+Y/ml1O4ElQ5llYarKIlqxZTrk0T1qnLsQkW2cW3EiIuYkCmiHd+rNwhHDp6o7g3GfGCCV1ufq0aYxxDO9xN3mHE3AgRqGDWkfnHUUzTgSHDeD4ZXyBq/A28f38AxithPSyMtYZrXsvCFhfRlQtMNsFgCWpk3bbW0aOa0aVJScTMd5xx/60aH3/851xaDc+09Tgi6GBBZ9pEI8vryAeYKgq1EKx43yAVEWFkIMMOfvfjXwjS2PqbutpAsfcduuNkC8+3KMby0oJUp4oEQAizOxDEaE4MsunEIJBPnm+5Cs8gMh+fiVLKzAAjFBgZP1WJFX1kc8s7OMpN3lULMtRCSgj3RHpXg7wNOFrKuE+S4PZM1tLBC7QUcbZE0uzdrh1p24SxQ7QN4NfAjRqHIzXCvTes2kD28nUO4CTCOBUs8tpm1oMQnYcc/ODBeBKcrexD/zXroz5t0Cw7KEbD3eB9ic5Cakc+yl8kj2FJhR3ofenoBtIafdYRMca9ai6MYNlpTMLs3WVAo6nBvum+dmd/Cidtb57q/vvLn5az2PveSTA8itu90/a6kjicFttNj/nHNVHviB6BGqb//uZqjnbTzOM5y0rmWWTP5LJ2t9Ws5NTO6oOFEwrJ2U2WiaixfW0YpY3sacRdse8OymQMNzEKhf3YNrFWEBi8eQ0jp1yaN7j3mzHcta0n6YcAgwFqfvm64GTzF33kSE7Me8+FiKE7dg0vwXOnv5w9X97CrQI6GDac2a13NhT63O5RhA5fYfmBQ7FmPq89LEKn47N7ZWiyNKjciZu1wOAsbouCRhz8KqCtLrDZSJYYGvOmExBy1ANra2MJIyLQjagp8MyYJiPoABpU0YAzvbkNncpl7MfCO4c8Th0TYS4uUrEHbRM27u63lr9ugA0jqPbM81zk7TO7w9a9iqKg3HpgmCd2Sbrm3EE/v3X15FqW5rhRfzzj2/gkULJzJou9P2t4B26awjYOi9F4PTsx9XkHg56rB15j+E3Cnl1zlfBf+W4dgnbW4VjjRoXUTWRujXkGAls2kVDIALBC3FIZ1TPO28UxNlzC2UBxgkKfIDXzqy2232Fh6meyDhzoDA7xV5TpgbjAo4eHs+1T+akHo4VyVfvfXuexqVpaouKLCazZDxdmCYDc1IyjfZSjkQ6dz6NLocuMrlMLsZUNkTBM1vMk24IAj4Ks+ewpLMBWf21pEBQzf6ar/rA/zxfT4Ft589m46hl4XB1jWvWeQsb1UukpRzdBeBhZRSIaSPEU5Gv52Eh56CmtuQ3Kc2FlaLG1YUOePnOZD6CqZjo+p+xDUY845Nnn78LqEcmNwj8o+RvbZM5k/9uHm1+tHxtmtJRMxiMAMDsZK/4ksyioCr229f26mPzkLkL0ckQMkz7uVb/eP0AKTByTGyT8Sw87iMLt8Sk2x0mpTUFwQRtPfAL/Jho3Dh8BldCKvw3efFZLMuiCY+s/3Pzp3Ow40ePub++eJNtD1lE7vr3VrsXaalQVAbN6Z1YVXNs9pjLvYTt0ErPnZhnUM46fiF3Zdu9i1E6WdZ94MPR4Fe0jvfjmidETCJurMYEJAFozliubavJ+TWZVT9UQt6HcJKhCVg1t5gFDy8rcjidi8PK7celpvMzBtZogoBDJurAyEgIQEsMOuAc4RcdZgiBwEU0ghKzkQ8dv4/vw0xKi8DXl5ejJpbreel7PC8wiqJf/DezeOgmfLWWYL89/pogt8+8BICv//46TWlNRCHO98c+W5X52cS3a5Ii6dqURet6H4rMvjfz+u1/fG3nSlUMi0F++/M7wjN5XTlVDR/vxzlC9DCUk681/7bnlWnes7zL6ciAyegx8WphmmCaRdtRf9Z08AFGjzSlz9YRpYkLc9baxEVdVKhIOxkkxnUMEB60RoxJogedlW8O3BuhbjW0OU3kPk9rrf5HzvPBrPNsa0x6tRPWLFzUSN9/rUze54s+rfx+dP28mryj/U8p2Q8fae0uHNb/ed98venD49MFn86e/fC6Bc41mbJ/drIAf7dB/IR0nf0S9zjDvPOPrqO7RZrs213z27DBU2feuuf5T3VUjNveMnmai9kb4K2ZPdTft33PQXPCB7X6rLi2KYtPhcWYznnUI/YBk0YO6uKfziImFgXanfwmbTrho4ZW7sfnsrHa7Zcn5fJfIEs+1/mSxb03tYGFdPX2iP2gRX44zy2V+pI4KmwAzSM9k15bT+a84cdi+XbMZM1/3K+7uO93uE84zrbXfOfeIPJkLRDGzHAzlCba55w74L3pcEyyjMAIDvAI7Q8zM6TU4cxU1zUnoT5MQbng9x4gygSyyz8z69LDOl/2qfbjw8/VpJ0RuGGeYfImvpICjdE4KLbdHQOjC2AO4vzzTGOZqMXEJeAYzvls4+pSRIjX15EAJRgDAw0tvz/ediIm+pTxX+9vybJsQ/6i8Toyky1TyUjx9ni7NkgEMEK0X79+GddBs0fm0vSuv/74fsdvLgb9vKyubrkQ1TFB+kCNkI6aN3BSFhfIgD1m772YvzIhr4h1v/rIHQDvjbenw0KBpfYJN++54CfhYdLBAkJ1Bn0tZhaGVVgw3NOKZf/bdKFk0R6xTiCZAcrCNc8zAoAuzmMSzBMA7qGG27qK5Folwc5YL/FwUi3epFMWwlkU3s8ObTufz8wadGc081ij1NB0OymW/Fd76dWtglkhAXU+4+ZyBBbqzEfuQzi3VW5xirKurUT/qNmfHGv+NP4HqZX80Kt9omFrWGnvTZnRQx440MNMOR6wGzN7EG47xiDcBgmxWf4PYcmW/xcoXuRSzRSMD5/78STg3iNYfaZ4+rUbds9wkNvKVzsl/2/Gnq72zMx5BLt/vpe2P7u21DXPjn5y/bz5//Mrcd4msx+hittSj/7ag2LXgkwWIAhFbAfYS1rREXtMl/1vLXpXYErkX0h+n91n/ag1R3DvvVa5kTivNZ1PP0YPi0IhwzzP0YdwVLk5/WCYiiiOoQ5FRnBja1PPAo2LiYPmFI2TgcxuR2JndtdYFkj76O0uqDsiBhaeJXr0QAEiYPCqmr6mQVb/5C4+YVGMq3I7xts589+lU18PE2dtpno+w3j7/kcdRQhNF3gfeAw9RhZIK93JPHEpO5ozfjrCj68vA2B+bwHRfVm//PM/T9dpaoOnXLb5VV+EUE3BF9F4KcZXX+PhdUghB//17fu3RS7PA5+IX/7tC/CSp+C2Pkvqv/nmZCnOER2cRGNEfrGDiWsEU/m5I60yK5sWWaXrIk41cdL6uJQP5naApWqKpKjDo87RERfB4BEa0BFjhGj1YbkztXIhwCszTpgvl8DjaeJ2Y+kE5txB7J3uZ/478rsUmoQREBTr6ycqtE4WIeqcS0x+FkBYsswrQM3In/wyUF9Ok/9m5Gc3HZk4IqI4P4AHfShURYqxhXSiDwi6g0h71t8OJt36v/+da9r6JzHLOTjFmkmu/LyvaaeSdho15rxs0Y1lg2neWUo9F0hVPiZ/7Q9P2Tc8DzWvx8axvi2kq/3JE6lnNW8PW5vOvhvziz22R45iOa2tAjCMgXfwzJ4hgM7MT/lDBQf6AEIOKkyxb1tyZqQepQVvX8/UJcZ9/U8mcNc/fec8AkRy1YlQ285Lz5zsQIGoXV7qhKPVvSpaoSN/Fd1qCmTC54ahawyttuXlvTV9sGuzdTCb7lOvTxa3xtOOG2g33CTfdngqWZUgNLFkNyo87Aub+bSZyVGjC5sd5jyDYn1TTOrgwpDPXb/FMVdXAlcf1wjCurLJsX+bACcf96GLkz5lfvxujPigfwQd3cab94365hv3TBU1eWsyxhPAJOGDPEEpxm061hjXL+O+/yAGJL/l0f2pPiYmoa9RirGx4GlyT6E8lck+/LqVt/eLn5Oix3Ec3Jby559/XIqdnEnRfj2+KO61BaDh9/N3j4QL4e69Anp9eck2w1YBWdeX3//P+3F+Ia7kXufRyF9/+7dLZ3dEnD0s+or380IRFzPvGvr27VvbCyd/A1y/fDmevv8mA963b7/jM3x90z9nS+qGKrPUvfQhUtGn+D7wABCc9YbMPCIh8FzsHkN+wfXLuH7JQU0BzHOhesiAw7zmNB0zTMrus3oVLSN9NgARXMVo9pLxeC54qvuwf6nTlv+4I8QMvr41klsE9d1rPbpdRiVcgXO7ZQBHVGjM9tQ6dJ2TDyPGjIgDw7rAM6eFotSOHmKKk4UL1kyTwDjAbCJuo0SJ0hlT//s4W3BjXjft3vXf1j47U2lt0xx0G37ohdY8/3w7ZuS/tfMM1LeD1YFD+DCDJkMTXUWuaiWaan5GG9fIlt6E+d5Ox9Y/s+/0tFt/sGAcW8LINWXhslnOh2u+6p6x2IZI0ksO4AUUfCRm69NUBAN8XybazUQhmnYUPOZCdTtf8HQlPT177+4+wCTAnjpUXb5v3xrzU/zXcGo/Mz07uZ8KJc/kuCitubiPxwQbKd1Yjqm6faAH62vF1m7asLevifiJwkorRefcRgmObTV9c3Mr7NUy1Irwa7eXa2pk3mEZB3j2V9Q0RJOJHN3w2gDPOpmiM3iZRBXCj7QlXsNkdym4b2A7eljuPb+K6rajBdi1dWXu75gb/mBjS7HPquZ8wTlEUQP2GdVbpXXUaEF31VHq21KiXf0qxpoBnD04JVYfT2tVfl6Pf9Ym2tU+b8L/DxDWOt4GBNmWAAAAJXRFWHRkYXRlOmNyZWF0ZQAyMDI1LTA0LTIxVDEwOjA4OjAxKzAwOjAw/IY3sAAAACV0RVh0ZGF0ZTptb2RpZnkAMjAyNS0wNC0yMVQxMDowODowMSswMDowMI3bjwwAAAAedEVYdGljYzpjb3B5cmlnaHQAR29vZ2xlIEluYy4gMjAxNqwLMzgAAAAUdEVYdGljYzpkZXNjcmlwdGlvbgBzUkdCupBzBwAAABV0RVh0aWNjOm1hbnVmYWN0dXJlcgBzUkdCKvIqbwAAAA50RVh0aWNjOm1vZGVsAHNSR0JbYElDAAAAAElFTkSuQmCC;strokeWidth=5;imageBorder=#008080;" vertex="1" parent="1">
          <mxGeometry x="1245" y="582" width="85" height="85" as="geometry" />
        </mxCell>
        <mxCell id="fkhzhb3UsODcdzvoW7---22" value="" style="shape=curlyBracket;whiteSpace=wrap;html=1;rounded=1;flipH=1;labelPosition=right;verticalLabelPosition=middle;align=left;verticalAlign=middle;rotation=45;direction=west;strokeWidth=4;" vertex="1" parent="1">
          <mxGeometry x="570" y="230" width="20" height="200" as="geometry" />
        </mxCell>
        <mxCell id="fkhzhb3UsODcdzvoW7---25" value="&lt;font style=&quot;font-size: 25px;&quot;&gt;$$C_z = 768$$&lt;/font&gt;" style="text;html=1;align=center;verticalAlign=middle;whiteSpace=wrap;rounded=0;" vertex="1" parent="1">
          <mxGeometry x="477" y="280" width="60" height="30" as="geometry" />
        </mxCell>
        <mxCell id="fkhzhb3UsODcdzvoW7---26" value="&lt;font style=&quot;font-size: 25px;&quot;&gt;$$C_x = 4$$&lt;/font&gt;" style="text;html=1;align=center;verticalAlign=middle;whiteSpace=wrap;rounded=0;" vertex="1" parent="1">
          <mxGeometry x="998" y="330" width="60" height="30" as="geometry" />
        </mxCell>
        <mxCell id="fkhzhb3UsODcdzvoW7---27" value="" style="shape=curlyBracket;whiteSpace=wrap;html=1;rounded=1;flipH=1;labelPosition=right;verticalLabelPosition=middle;align=left;verticalAlign=middle;rotation=45;direction=west;strokeWidth=4;size=0.5;" vertex="1" parent="1">
          <mxGeometry x="1050" y="345.76" width="20" height="68.03" as="geometry" />
        </mxCell>
        <mxCell id="fkhzhb3UsODcdzvoW7---29" value="&lt;font style=&quot;font-size: 33px;&quot;&gt;$$\texttt{VAE}\; \text{Latent}$$&lt;/font&gt;" style="text;html=1;align=center;verticalAlign=middle;whiteSpace=wrap;rounded=0;" vertex="1" parent="1">
          <mxGeometry x="1165.5" y="690" width="60" height="30" as="geometry" />
        </mxCell>
        <mxCell id="fkhzhb3UsODcdzvoW7---31" value="&lt;font style=&quot;font-size: 33px;&quot;&gt;$$\texttt{DINOv2}$$&lt;/font&gt;" style="text;html=1;align=center;verticalAlign=middle;whiteSpace=wrap;rounded=0;" vertex="1" parent="1">
          <mxGeometry x="665" y="690" width="60" height="30" as="geometry" />
        </mxCell>
      </root>
    </mxGraphModel>
  </diagram>
</mxfile>
